<svg width="24" height="24" viewBox="0 0 24 24" fill="none" xmlns="http://www.w3.org/2000/svg">
<path d="M4 9.73581C4 5.46347 7.64625 2 12.145 2C16.6438 2 20.29 5.46347 20.29 9.73581C20.29 13.9756 17.6904 18.9224 13.6342 20.6908C13.1642 20.8948 12.6573 21 12.145 21C11.6327 21 11.1258 20.8948 10.6558 20.6908C6.59961 18.9238 4 13.9756 4 9.73581Z" stroke="#C31E2A" stroke-width="2"/>
<path d="M12.1427 12.8574C13.6422 12.8574 14.8577 11.6421 14.8577 10.143C14.8577 8.64395 13.6422 7.42871 12.1427 7.42871C10.6433 7.42871 9.42773 8.64395 9.42773 10.143C9.42773 11.6421 10.6433 12.8574 12.1427 12.8574Z" stroke="#C31E2A" stroke-width="2"/>
</svg>
