<svg width="34" height="18" viewBox="0 0 34 18" fill="none" xmlns="http://www.w3.org/2000/svg">
<path d="M0 0.75C0 0.335786 0.335786 0 0.75 0H33.25C33.6642 0 34 0.335786 34 0.75C34 1.16421 33.6642 1.5 33.25 1.5H0.750001C0.335787 1.5 0 1.16421 0 0.75Z" fill="#EAE4D0"/>
<path d="M0 8.75C0 8.33579 0.335786 8 0.75 8H33.25C33.6642 8 34 8.33579 34 8.75C34 9.16421 33.6642 9.5 33.25 9.5H0.750001C0.335787 9.5 0 9.16421 0 8.75Z" fill="#EAE4D0"/>
<path d="M0 16.75C0 16.3358 0.335786 16 0.75 16H22.25C22.6642 16 23 16.3358 23 16.75C23 17.1642 22.6642 17.5 22.25 17.5H0.75C0.335786 17.5 0 17.1642 0 16.75Z" fill="#EAE4D0"/>
</svg>
