<svg width="148" height="25" viewBox="0 0 148 25" fill="none" xmlns="http://www.w3.org/2000/svg">
<g clip-path="url(#clip0_74_663)">
<path d="M4.47615 21.5462C8.40152 21.5462 10.4656 17.6399 12.2672 12.354H12.5575C11.8317 16.9206 12.0624 21.5462 16.3954 21.5462C20.2909 21.5462 22.1522 17.6104 23.7788 12.354H24.0691C23.3134 16.8361 23.5163 21.5462 27.9647 21.5462C31.8601 21.5462 34.0396 17.6969 34.8826 12.3815H32.1507C31.8304 13.5585 31.2775 14.708 30.2613 14.708C28.1396 14.708 29.3029 11.2025 30.2316 6.8088L31.5698 0.43035H25.0296C25.0296 0.43035 21.5695 14.708 18.8372 14.708C16.8309 14.708 17.8192 10.8017 18.6623 6.7498L19.9728 0.43035H13.4325C12.2115 5.16992 9.62445 14.708 7.2104 14.708C6.42491 14.708 6.2221 14.2187 6.2221 13.588C6.2221 13.1851 6.33744 12.7549 6.48458 12.3815H0.495144C0.17499 13.645 0 14.8515 0 16.0875C0 19.1902 1.16329 21.5462 4.47615 21.5462ZM38.49 21.5462C40.2059 21.5462 41.5722 20.2239 41.5722 18.53C41.5722 16.8361 40.2059 15.5137 38.49 15.5137C36.7738 15.5137 35.4075 16.8341 35.4075 18.53C35.4075 20.2257 36.7738 21.5462 38.49 21.5462ZM56.1936 14.6805C56.1936 16.117 55.118 16.7497 53.9268 16.7497H49.7408V12.5564H53.9566C55.2947 12.5564 56.1955 13.36 56.1955 14.6825L56.1936 14.6805ZM49.7389 4.79855H53.577C54.6825 4.79855 55.5534 5.4018 55.5534 6.6653C55.5534 7.9288 54.5352 8.53205 53.577 8.53205H49.7389V4.79655V4.79855ZM57.85 10.2849C59.4191 9.68155 60.99 8.30217 60.99 5.68867C60.99 2.35606 58.4608 0.432312 54.5652 0.432312H44.3899V21.114H54.6804C58.6336 21.114 61.6283 19.2177 61.6283 15.3682C61.6283 12.6684 59.9998 10.8862 57.8481 10.2259V10.2829L57.85 10.2849ZM142.564 10.8017C142.564 13.7315 140.644 16.3744 137.157 16.3744C133.669 16.3744 131.605 13.7885 131.605 10.7447C131.605 7.70092 133.524 5.17192 137.011 5.17192C140.5 5.17192 142.564 7.7578 142.564 10.8017ZM126.168 10.7722C126.168 17.0051 130.937 21.5444 137.1 21.5444C143.261 21.5444 148 16.9481 148 10.7722C148 4.59617 143.234 0 137.071 0C130.909 0 126.17 4.59617 126.17 10.7722H126.168ZM98.6091 5.4568V16.0855H92.2715C93.1724 14.1617 93.6096 10.4558 93.6096 5.6868V5.4568H98.611H98.6091ZM103.958 16.0855V0.43035H88.5788V2.01021C88.5788 9.1058 88.2308 14.4781 86.6024 16.0875H84.4229V24.3897H89.7719V21.114H101.661V24.3897H107.01V16.0875H103.958V16.0855ZM114.539 16.0855V13.0397H123.318V8.30017H114.539V5.4568H124.131V0.43035H109.19V21.114H124.452V16.0875H114.539V16.0855ZM77.097 0.43035L69.4513 12.1792V0.43035H64.1021V21.114H69.4513L77.097 9.36517V21.114H82.4463V0.43035H77.097Z" fill="#E31235"/>
</g>
<defs>
<clipPath id="clip0_74_663">
<rect width="148" height="25" fill="white"/>
</clipPath>
</defs>
</svg>
