<svg width="136" height="90" viewBox="0 0 136 90" fill="none" xmlns="http://www.w3.org/2000/svg">
<g clip-path="url(#clip0_77_666)">
<path fill-rule="evenodd" clip-rule="evenodd" d="M51.9712 4.47661C52.1806 5.08645 52.8394 5.99854 53.1868 6.5706C53.6091 7.26603 54.0091 7.94022 54.4219 8.62857C54.859 9.35648 55.2701 9.98048 55.6948 10.6547C56.0794 11.2639 56.6527 12.3832 57.0437 12.7038C57.4873 12.5202 57.9137 12.238 58.3661 12.0019C59.5741 11.3708 61.7989 10.4781 63.129 10.2609L63.1337 38.2401C63.8521 38.3942 72.2348 38.393 72.9037 38.2319L72.8966 10.255C75.1633 10.559 77.3433 11.9948 78.9995 12.7056C79.3452 12.4175 83.8916 5.02918 84.0674 4.48428C74.9256 -1.38501 61.1354 -1.58219 51.9712 4.47661Z" fill="#EF7F1B"/>
<path fill-rule="evenodd" clip-rule="evenodd" d="M81.748 14.7953C82.6823 15.3526 84.5545 17.6048 85.1809 18.4992C86.1093 19.8251 87.0235 21.3972 87.6794 23.1376C88.8189 26.162 89.2991 29.2076 89.0301 32.5195C88.9475 33.5308 88.5995 34.8266 88.5995 35.6732L97.8958 37.9614C98.7393 35.8615 98.9044 30.785 98.7057 28.3244C98.4532 25.2038 97.7637 22.3914 96.7403 19.7023C95.717 17.015 94.4512 14.8762 93.0445 12.8241C92.0241 11.3358 89.1958 7.98319 87.8929 7.3645L84.8352 11.0194C84.4424 11.4409 82.0188 14.1849 81.748 14.7953Z" fill="#9D9D9D"/>
<path fill-rule="evenodd" clip-rule="evenodd" d="M39.6218 42.5084C40.1845 44.6166 42.6223 48.272 43.7265 49.6877C45.3473 51.7652 47.2454 53.6419 49.3888 55.2837C51.4503 56.8617 53.7972 58.2095 56.5806 59.3494C58.4191 60.1021 63.4492 61.6158 65.6192 61.421L66.3736 51.7982C61.8419 51.3979 57.9986 49.6611 55.2187 47.527C52.7638 45.6426 49.935 42.5184 48.5524 38.8464L39.6218 42.5084Z" fill="#9D9D9D"/>
<path fill-rule="evenodd" clip-rule="evenodd" d="M69.7126 51.7836L70.4075 61.4264C72.755 61.5793 77.5409 60.1453 79.4708 59.3572C82.187 58.2479 84.6483 56.8376 86.6502 55.2802C88.9022 53.5275 90.5773 51.8526 92.2996 49.6713C93.3807 48.3022 95.8799 44.5753 96.4313 42.4879L87.4978 38.8247C85.0352 45.1096 78.3395 51.182 69.7126 51.7836Z" fill="#9D9D9D"/>
<path fill-rule="evenodd" clip-rule="evenodd" d="M38.0547 37.946L47.4819 35.7133C46.9039 30.9545 46.4149 28.3156 48.3277 23.2362C48.9777 21.5082 49.8919 19.8889 50.8003 18.5741C51.4473 17.639 53.3814 15.3319 54.295 14.7953C53.8904 13.8915 48.648 8.23586 48.1472 7.3645C46.678 8.10008 43.9252 11.5572 43.0546 12.7438C39.879 17.0741 37.8488 22.523 37.3587 28.1397C37.0177 32.0389 37.5279 34.3891 38.0547 37.946Z" fill="#9D9D9D"/>
<path fill-rule="evenodd" clip-rule="evenodd" d="M88.5872 79.9056C88.7022 79.6754 88.5294 79.709 88.7288 79.601C89.0998 80.1595 88.9081 83.8958 88.9081 84.5688C88.9081 86.2401 88.8196 88.1771 88.9399 89.8153L93.3849 89.7964L93.4138 72.626L87.6464 72.6785C87.204 73.2346 82.4176 82.2234 81.5812 83.038L81.5222 72.5286L77.0141 72.5616C76.8319 73.1514 76.8024 88.7704 76.9847 89.8773L83.0758 89.8743C84.4301 87.7497 86.0114 84.7087 87.2731 82.4176C87.6541 81.7257 88.3696 80.5651 88.5872 79.9056Z" fill="#EC6A1F"/>
<path fill-rule="evenodd" clip-rule="evenodd" d="M61.7628 85.7618L61.7622 82.8768C62.8304 82.8095 63.9611 82.8644 65.0074 82.8555C66.272 82.8455 66.7899 82.8898 66.8253 84.2924C66.8631 85.8085 66.3782 85.8226 65.0039 85.8108C64.0484 85.8026 62.657 85.8929 61.7628 85.7618ZM61.7475 76.7477C64.4813 76.622 67.9908 76.7365 70.8934 76.7034L70.9105 72.5432L57.0135 72.5438L57.0129 73.4435C57.0099 78.1173 56.8206 85.9785 57.0672 89.8784H64.1793C68.7841 89.8772 72.0447 90.3985 71.968 84.2895C71.8872 77.847 67.073 79.1493 61.7504 78.9367L61.7475 76.7477Z" fill="#EC6A1F"/>
<path fill-rule="evenodd" clip-rule="evenodd" d="M124.097 82.4247C124.092 81.9205 124.799 79.9452 124.987 79.3619C125.507 77.7426 125.533 76.7762 126.342 76.7189C126.717 77.0973 127.141 79.0833 127.303 79.614C127.495 80.2421 128.091 81.881 128.073 82.4442L124.097 82.4247ZM122.851 86.5389L129.469 86.5347C130.098 87.461 130.144 88.9369 130.871 89.8797L136 89.8389L130.002 72.5215L122.854 72.5587C122.084 73.9608 116.879 88.5189 116.884 89.8791L121.921 89.8726L122.851 86.5389Z" fill="#EC6A1F"/>
<path fill-rule="evenodd" clip-rule="evenodd" d="M103.742 82.9488L109.294 82.9766L109.354 89.879L114.025 89.866L114.036 72.5433L109.304 72.5651L109.267 78.5129L103.696 78.5053L103.638 72.5232L98.9351 72.5757L98.9764 89.8725L103.678 89.8731L103.742 82.9488Z" fill="#EC6A1F"/>
<path fill-rule="evenodd" clip-rule="evenodd" d="M42.8015 76.6108C43.7641 76.537 45.5265 76.5164 46.4838 76.5866C47.6777 76.6752 47.8658 77.592 47.8493 78.801C47.8163 81.2988 46.7174 81.0515 42.7779 80.8809L42.8015 76.6108ZM42.8263 84.7678C47.309 84.593 51.544 86.0447 52.8086 80.8732C53.2527 79.0573 53.0675 76.4438 52.3892 74.9449C51.639 73.286 50.3443 72.5303 47.9885 72.5226C45.7017 72.5155 43.4126 72.5244 41.1252 72.5244C40.0883 72.5244 38.192 72.3154 38.041 72.7942L38.064 89.8708L42.7685 89.8814L42.8263 84.7678Z" fill="#EC6A1F"/>
<path fill-rule="evenodd" clip-rule="evenodd" d="M17.3145 72.5331C17.5032 73.0786 18.1072 74.0934 18.4475 74.7133C20.0194 77.5735 21.4444 80.6316 22.7468 83.601C23.1868 84.6052 23.6333 84.9901 23.1119 85.8963L20.5951 89.8771L26.5665 89.8795C28.4015 86.9749 34.889 74.4075 35.027 72.5225L29.6201 72.5248C29.3281 72.941 28.4274 75.4813 28.1325 76.237C27.9107 76.8043 26.875 79.3723 26.4421 79.8352L26.205 79.4497C26.1896 79.4184 26.1749 79.383 26.1607 79.3505L25.5644 77.8941C24.8554 76.1874 23.861 74.0349 22.9556 72.5242L17.3145 72.5331Z" fill="#EC6A1F"/>
<path fill-rule="evenodd" clip-rule="evenodd" d="M0 76.678L5.70424 76.7193L5.70778 89.8848L10.44 89.8718L10.4771 76.7264L16.1372 76.7128L16.159 72.5195L0.0436474 72.5248L0 76.678Z" fill="#EC6A1F"/>
<path fill-rule="evenodd" clip-rule="evenodd" d="M42.7781 80.8809C46.7175 81.0515 47.8164 81.2989 47.8494 78.8011C47.8659 77.592 47.6778 76.6752 46.484 76.5867C45.5267 76.5164 43.7643 76.5371 42.8017 76.6109L42.7781 80.8809Z" fill="white"/>
<path fill-rule="evenodd" clip-rule="evenodd" d="M61.7628 85.7618C62.657 85.8929 64.0484 85.8026 65.0039 85.8108C66.3782 85.8227 66.8631 85.8085 66.8253 84.2925C66.7899 82.8898 66.272 82.8455 65.0075 82.8555C63.9611 82.8644 62.8304 82.8095 61.7622 82.8768L61.7628 85.7618Z" fill="white"/>
<path fill-rule="evenodd" clip-rule="evenodd" d="M124.097 82.4245L128.073 82.444C128.092 81.8808 127.495 80.242 127.303 79.6138C127.141 79.0831 126.717 77.0972 126.342 76.7188C125.534 76.776 125.507 77.7424 124.987 79.3618C124.799 79.945 124.093 81.9204 124.097 82.4245Z" fill="white"/>
<path fill-rule="evenodd" clip-rule="evenodd" d="M88.587 79.9055C88.7392 80.0667 88.672 79.8901 88.7445 80.1841L88.7551 81.1352C88.7539 81.5479 88.7533 81.9582 88.751 82.3714C88.741 84.0073 88.6696 88.8429 88.797 89.8665C89.4517 90.0436 92.7789 90.0183 93.5581 89.8925L93.4968 72.5048C92.8173 72.3661 90.0704 72.4511 89.017 72.4458C87.7347 72.4399 87.8373 72.3135 87.6462 72.6784L93.4136 72.6258L93.3847 89.7963L88.9397 89.8152C88.8194 88.1769 88.9079 86.24 88.9079 84.5687C88.9079 83.8957 89.0996 80.1593 88.7286 79.6009C88.5292 79.7089 88.702 79.6753 88.587 79.9055Z" fill="#EFAB86"/>
</g>
<defs>
<clipPath id="clip0_77_666">
<rect width="136" height="90" fill="white"/>
</clipPath>
</defs>
</svg>
