<svg width="64" height="64" viewBox="0 0 64 64" fill="none" xmlns="http://www.w3.org/2000/svg">
<g clip-path="url(#clip0_69_44)">
<path fill-rule="evenodd" clip-rule="evenodd" d="M10.0501 33.5324C10.0501 34.0119 10.0336 34.6067 10.278 34.9703C15.6507 40.8026 22.3251 47.6828 27.9318 53.2895C28.6094 53.9676 30.1301 53.9676 30.8082 53.2895L48.9806 35.1171C49.6588 34.4395 49.677 32.9204 49.0005 32.2412C42.9855 26.2008 36.8773 20.0706 30.8623 14.0301C29.3156 12.5917 28.3263 11.3871 29.9392 9.83936L39.7813 0H46.4777L39.5716 6.90609C38.1828 8.29493 38.851 9.11267 39.6135 9.86365C46.3149 16.4652 51.9685 21.1498 57.8091 28.5139C58.9668 29.9739 61.0933 35.303 57.2424 39.2609L35.1921 61.9265C32.2219 64.9801 27.1797 64.2843 24.7557 62.2797L2.24079 39.8585C1.10081 38.723 0 36.8497 0 33.5324H10.0501Z" fill="#181D38"/>
<path fill-rule="evenodd" clip-rule="evenodd" d="M14.1625 33.0662C13.2692 33.0667 13.0634 33.6339 13.6367 34.205C17.9626 38.51 23.2619 43.9953 27.2866 48.1745C29.1881 50.1493 29.5539 50.1493 31.6198 48.1452C36.1665 43.7348 41.6092 37.9599 46.0886 33.4805H33.6387C32.624 34.4931 31.9006 35.217 31.1408 35.9735C30.3413 36.7692 30.0941 36.7648 29.8359 36.7697C29.5782 36.7747 29.3569 36.7907 28.5436 35.9735C27.9344 35.3616 26.7867 34.2106 25.6484 33.0662H14.1625Z" fill="#FF0000"/>
<path fill-rule="evenodd" clip-rule="evenodd" d="M33.6382 33.4804L19.4238 19.3995C17.0483 17.0467 16.5247 13.0098 18.8885 10.646L29.4336 0.163818H36.0136L26.7525 9.36808C25.7328 10.3817 25.6534 12.2953 26.6703 13.3122L46.3496 33.4804L33.6382 33.4804Z" fill="#181D38"/>
</g>
<defs>
<clipPath id="clip0_69_44">
<rect width="64" height="64" fill="white"/>
</clipPath>
</defs>
</svg>
