<svg width="192" height="48" viewBox="0 0 192 48" fill="none" xmlns="http://www.w3.org/2000/svg">
<g clip-path="url(#clip0_74_610)">
<path d="M68.4244 35.6946H67.1669V31.6195L64.803 35.6946H63.4534V29.8491H64.7108V33.9159L67.0831 29.8491H68.4244V35.6946Z" fill="#3C3C3B"/>
<path d="M75.097 35.6946H73.8396V33.2562H71.4095V35.6946H70.1511V29.8491H71.4095V32.1372H73.8396V29.8491H75.097V35.6946Z" fill="#3C3C3B"/>
<path d="M80.5384 35.795H79.281V35.2021C77.7805 35.177 76.5557 34.3586 76.5557 32.7553C76.5557 31.2011 77.8308 30.3327 79.281 30.3085V29.7073H80.5384V30.3085C82.0548 30.3336 83.2628 31.1603 83.2628 32.7553C83.2628 34.3503 81.9206 35.177 80.5384 35.2021V35.795ZM77.8969 32.7553C77.8969 33.7323 78.5927 34.1499 79.3136 34.1749V31.3357C78.5759 31.3607 77.8969 31.7699 77.8969 32.7553ZM80.504 34.1749C81.1746 34.1499 81.9207 33.6906 81.9207 32.7553C81.9207 31.7281 81.2593 31.3607 80.504 31.3357V34.1749Z" fill="#3C3C3B"/>
<path d="M85.9864 35.6946H84.729V29.8491H86.7493C88.2246 29.8491 89.1551 30.4587 89.1551 31.8032C89.1551 33.1226 88.1995 33.8658 86.6319 33.8658H85.9864V35.6946ZM85.9622 32.7635H86.6487C87.4031 32.7635 87.8567 32.4712 87.8567 31.8533C87.8567 31.2019 87.4292 30.9514 86.658 30.9514H85.9622V32.7635Z" fill="#3C3C3B"/>
<path d="M93.5896 34.4086H91.3355L90.9155 35.6946H89.6748L91.6783 29.8491H93.3129L95.2922 35.6946H94.0087L93.5896 34.4086ZM91.6783 33.3147H93.2468L92.4672 30.8596L91.6783 33.3147Z" fill="#3C3C3B"/>
<path d="M100.775 35.4609C100.473 35.6196 100.045 35.795 99.1902 35.795C97.3963 35.795 96.2144 34.7678 96.2144 32.8471C96.2144 30.8346 97.3963 29.749 99.316 29.749C99.9531 29.749 100.481 29.8826 100.791 30.0246L100.515 31.0768C100.163 30.9599 99.7603 30.9014 99.492 30.9014C98.3352 30.9014 97.5481 31.4767 97.5481 32.772C97.5481 34.0079 98.3017 34.6333 99.4836 34.6333C99.7519 34.6333 100.163 34.559 100.523 34.4087L100.775 35.4609Z" fill="#3C3C3B"/>
<path d="M104.807 35.6946H103.549V31.0015H101.88V29.8491H106.466V31.0015H104.807V35.6946Z" fill="#3C3C3B"/>
<path d="M109.015 35.6946H107.757V29.8491H109.778C111.253 29.8491 112.183 30.4587 112.183 31.8032C112.183 33.1226 111.228 33.8658 109.66 33.8658H109.015V35.6946ZM108.99 32.7635H109.677C110.431 32.7635 110.884 32.4712 110.884 31.8533C110.884 31.2019 110.457 30.9514 109.685 30.9514H108.99V32.7635Z" fill="#3C3C3B"/>
<path d="M114.589 34.9015C114.891 34.7178 115.143 34.5007 115.285 34.2418L115.31 34.1833L113.13 29.8484L114.589 29.8493L115.973 32.9558L117.096 29.8493H118.395L116.543 34.4005C116.266 35.0769 115.788 35.603 115.294 35.8702L114.589 34.9015Z" fill="#3C3C3B"/>
<path d="M120.826 32.2959H121.128L122.93 29.8491H124.389L122.318 32.4044C122.997 32.6132 123.291 33.6654 124.481 35.6946H123.039C121.84 33.632 122 33.2813 121.279 33.2813H120.826V35.6946H119.569V29.8491H120.826V32.2959Z" fill="#3C3C3B"/>
<path d="M128.144 35.6946H126.887V31.0015H125.219V29.8491H129.804V31.0015H128.144V35.6946Z" fill="#3C3C3B"/>
<path d="M132.344 34.9015C132.646 34.7178 132.897 34.5007 133.04 34.2418L133.065 34.1833L130.885 29.8484L132.344 29.8493L133.727 32.9558L134.851 29.8493H136.15L134.297 34.4005C134.021 35.0769 133.543 35.603 133.048 35.8702L132.344 34.9015Z" fill="#3C3C3B"/>
<path d="M138.581 35.6946H137.323V29.8491H139.344C140.82 29.8491 141.75 30.4587 141.75 31.8032C141.75 33.1226 140.794 33.8658 139.226 33.8658H138.581V35.6946ZM138.556 32.7635H139.243C139.998 32.7635 140.45 32.4712 140.45 31.8533C140.45 31.2019 140.023 30.9514 139.252 30.9514H138.556V32.7635Z" fill="#3C3C3B"/>
<path d="M148.104 35.6946H146.846V33.2562H144.415V35.6946H143.158V29.8491H144.415V32.1372H146.846V29.8491H148.104V35.6946Z" fill="#3C3C3B"/>
<path d="M149.831 35.6946V29.8491H151.088V31.7614H151.733C153.234 31.7614 154.089 32.346 154.089 33.6821C154.089 34.9598 153.184 35.6946 151.641 35.6946H149.831ZM151.088 34.5923H151.557C152.438 34.5923 152.79 34.2333 152.79 33.6905C152.79 33.1059 152.405 32.8637 151.557 32.8637H151.088V34.5923ZM156 35.6946H154.743V29.8491H156V35.6946Z" fill="#3C3C3B"/>
<path d="M161.491 35.6946H157.727V29.8491H161.491V30.9514H158.984V32.1957H161.19V33.2228H158.984V34.5923H161.491V35.6946Z" fill="#3C3C3B"/>
<path d="M67.3178 24.0037H63.4534V6.0376H69.6622C70.7967 6.0376 71.8185 6.15822 72.7285 6.39761C73.6394 6.63699 74.4162 7.00072 75.0598 7.48784C75.7043 7.97589 76.198 8.60034 76.5408 9.36212C76.8854 10.123 77.0568 11.0174 77.0568 12.0436C77.0568 13.0531 76.8807 13.9513 76.5287 14.7381C76.1766 15.525 75.6662 16.1884 74.9955 16.7275C74.3249 17.2656 73.5099 17.6767 72.5478 17.9587C71.5856 18.2408 70.5042 18.3828 69.3018 18.3828H67.3178V24.0037ZM67.2415 14.9951H69.3539C70.521 14.9951 71.4319 14.7688 72.0848 14.315C72.7368 13.8622 73.0638 13.1561 73.0638 12.1977C73.0638 11.1881 72.7452 10.4737 72.11 10.0543C71.4748 9.63583 70.5648 9.42614 69.3791 9.42614H67.2415V14.9951Z" fill="#3C3C3B"/>
<path d="M88.7537 24.3118C87.4487 24.3118 86.2593 24.1104 85.1854 23.7087C84.1115 23.3069 83.1894 22.7121 82.4153 21.9244C81.6432 21.1376 81.0462 20.167 80.6252 19.0118C80.2042 17.8567 79.9937 16.5261 79.9937 15.0211C79.9937 13.5152 80.2125 12.1847 80.6503 11.0295C81.089 9.87522 81.6944 8.90375 82.4666 8.11692C83.2397 7.3301 84.1543 6.73534 85.2115 6.33265C86.2677 5.93089 87.4134 5.73047 88.6503 5.73047C90.0418 5.73047 91.2825 5.94388 92.3741 6.37162C93.4639 6.79936 94.3832 7.41082 95.1302 8.206C95.8781 9.0021 96.4491 9.97728 96.844 11.1325C97.2389 12.2867 97.4364 13.5829 97.4364 15.0202C97.4364 16.6115 97.2175 17.994 96.7797 19.1649C96.3419 20.3378 95.7319 21.3046 94.9504 22.0654C94.1689 22.8263 93.2506 23.3913 92.1934 23.7597C91.1372 24.1281 89.9906 24.3118 88.7537 24.3118ZM88.8831 20.9242C89.5351 20.9242 90.1359 20.8045 90.6864 20.5642C91.2359 20.3248 91.7081 19.961 92.103 19.4739C92.498 18.9859 92.8035 18.3744 93.0177 17.6386C93.2319 16.9037 93.34 16.0306 93.34 15.0211C93.34 12.9845 92.9106 11.4915 92.0518 10.5423C91.1921 9.59315 90.0595 9.11715 88.6503 9.11715C88.015 9.11715 87.418 9.23778 86.8601 9.47716C86.3012 9.71655 85.8169 10.0803 85.4043 10.5674C84.9926 11.0555 84.6703 11.6716 84.4384 12.4157C84.2065 13.1598 84.09 14.0283 84.09 15.0211C84.09 16.0306 84.2149 16.9037 84.4635 17.6386C84.7132 18.3744 85.0522 18.9859 85.4816 19.4739C85.911 19.961 86.4177 20.3248 87.0007 20.5642C87.5857 20.8045 88.2125 20.9242 88.8831 20.9242Z" fill="#3C3C3B"/>
<path d="M114.749 23.2921C114.508 23.4108 114.247 23.5305 113.963 23.6484C113.68 23.768 113.345 23.8785 112.958 23.9805C112.573 24.0817 112.126 24.1624 111.62 24.2227C111.112 24.2821 110.533 24.3118 109.88 24.3118C108.506 24.3118 107.256 24.1141 106.131 23.7217C105.007 23.3282 104.046 22.7502 103.246 21.9893C102.447 21.2276 101.829 20.2821 101.391 19.1529C100.953 18.0237 100.734 16.7237 100.734 15.2522C100.734 13.7119 100.953 12.348 101.391 11.1584C101.83 9.96893 102.46 8.97241 103.285 8.16795C104.11 7.3635 105.11 6.75668 106.287 6.34564C107.463 5.93553 108.79 5.73047 110.267 5.73047C111.246 5.73047 112.127 5.81583 112.908 5.98656C113.69 6.15728 114.321 6.35492 114.802 6.57668L113.951 9.81027C113.402 9.62284 112.844 9.48551 112.277 9.40015C111.71 9.31479 111.22 9.27211 110.808 9.27211C109.915 9.27211 109.104 9.38345 108.374 9.60614C107.644 9.82975 107.017 10.1768 106.493 10.6481C105.969 11.1195 105.561 11.7198 105.269 12.4491C104.977 13.1784 104.832 14.0394 104.832 15.0341C104.832 16.9372 105.368 18.3698 106.442 19.3301C107.514 20.2904 108.963 20.7701 110.783 20.7701C111.195 20.7701 111.693 20.7145 112.277 20.6031C112.861 20.4927 113.428 20.3164 113.977 20.077L114.749 23.2921Z" fill="#3C3C3B"/>
<path d="M129.434 20.077H122.503L121.215 24.0037H117.402L123.561 6.0376H128.584L134.664 24.0037H130.722L129.434 20.077ZM123.561 16.6894H128.378L125.982 9.14314L123.561 16.6894Z" fill="#3C3C3B"/>
<path d="M143.45 24.0037H139.586V9.57924H134.458V6.0376H148.552V9.57924H143.45V24.0037Z" fill="#3C3C3B"/>
<path d="M159.115 24.3118C157.81 24.3118 156.62 24.1104 155.547 23.7087C154.473 23.3069 153.551 22.7121 152.778 21.9244C152.004 21.1376 151.407 20.167 150.986 19.0118C150.565 17.8567 150.355 16.5261 150.355 15.0211C150.355 13.5152 150.574 12.1847 151.012 11.0295C151.45 9.87522 152.056 8.90375 152.828 8.11692C153.601 7.3301 154.516 6.73534 155.572 6.33265C156.629 5.93089 157.776 5.73047 159.012 5.73047C160.402 5.73047 161.644 5.94388 162.734 6.37162C163.825 6.79936 164.745 7.41082 165.491 8.206C166.238 9.0021 166.809 9.97728 167.204 11.1325C167.6 12.2867 167.797 13.5829 167.797 15.0202C167.797 16.6115 167.578 17.994 167.14 19.1649C166.702 20.3378 166.092 21.3046 165.311 22.0654C164.529 22.8263 163.61 23.3913 162.554 23.7597C161.498 24.1281 160.352 24.3118 159.115 24.3118ZM159.244 20.9242C159.896 20.9242 160.497 20.8045 161.048 20.5642C161.597 20.3248 162.069 19.961 162.464 19.4739C162.859 18.9859 163.164 18.3744 163.379 17.6386C163.594 16.9037 163.701 16.0306 163.701 15.0211C163.701 12.9845 163.272 11.4915 162.413 10.5423C161.554 9.59315 160.42 9.11715 159.012 9.11715C158.376 9.11715 157.779 9.23778 157.221 9.47716C156.664 9.71655 156.177 10.0803 155.766 10.5674C155.353 11.0555 155.031 11.6716 154.8 12.4157C154.567 13.1598 154.452 14.0283 154.452 15.0211C154.452 16.0306 154.576 16.9037 154.825 17.6386C155.074 18.3744 155.414 18.9859 155.843 19.4739C156.271 19.961 156.778 20.3248 157.363 20.5642C157.946 20.8045 158.574 20.9242 159.244 20.9242Z" fill="#3C3C3B"/>
<path d="M191.913 24.0037H188.022L187.044 12.0687L183.333 24.0037H179.649L175.99 12.1206L175.011 24.0037H171.122L172.925 6.0376H177.537L181.607 19.589L185.627 6.0376H190.084L191.913 24.0037Z" fill="#3C3C3B"/>
<path d="M27.9393 27.3821C26.0653 29.4484 22.8659 29.6117 20.7907 27.7468C18.7155 25.8808 18.5487 22.6927 20.419 20.6254C22.2912 18.5582 25.4934 18.3967 27.5686 20.2617C29.6438 22.1267 29.8096 25.3148 27.9393 27.3821Z" fill="url(#paint0_radial_74_610)"/>
<path d="M9.68804 4.82661C6.37684 7.3142 3.73067 10.6341 2.0625 14.4736C4.06412 14.9663 10.0587 16.9083 12.8083 24.3052C13.6354 24.0361 15.4181 23.0015 16.6551 19.0052C18.3139 13.6543 21.4612 8.50743 25.5427 6.77976C21.4724 2.76862 16.1102 1.82406 9.68804 4.82661Z" fill="url(#paint1_linear_74_610)"/>
<path d="M42.733 8.69497L42.7339 8.69404C38.3162 3.38297 31.6444 0 24.1791 0C18.7396 0 13.7211 1.79634 9.68896 4.82672C18.6055 0.65878 25.4765 4.09743 29.6847 12.7859C36.3863 13.9838 40.9391 10.6611 42.733 8.69497Z" fill="url(#paint2_linear_74_610)"/>
<path d="M14.7588 46.0858C18.5767 47.6993 22.7867 48.3228 26.9585 47.8422C26.3848 45.8686 25.0771 39.7253 30.131 33.6552C29.4846 33.0753 27.6934 32.0547 23.6008 32.9862C18.1203 34.2305 12.0726 34.0885 8.52944 31.4312C7.07829 36.9473 8.93834 42.0459 14.7588 46.0858Z" fill="#6095CD"/>
<path d="M1.59965 15.6418C1.59965 15.6418 1.59872 15.6418 1.59779 15.6409C-0.809003 22.109 -0.414081 29.556 3.31812 35.9962C6.03787 40.6893 10.1091 44.1215 14.7588 46.0858C6.67869 40.4769 6.23161 32.8295 11.6813 24.8545C9.37049 18.4718 4.20577 16.2059 1.59965 15.6418Z" fill="#202562"/>
<path d="M48.0896 21.0819C47.583 16.9807 46.02 13.0373 43.5164 9.67847C42.0885 11.1593 37.4016 15.3597 29.5972 14.0338C29.4174 14.8819 29.4258 16.9371 32.2816 20.0028C36.1032 24.1104 39.0036 29.3983 38.4653 33.7833C43.9858 32.2774 47.4879 28.1234 48.0896 21.0819Z" fill="#6095CD"/>
<path d="M28.2047 47.6566C28.2047 47.6575 28.2047 47.6575 28.2047 47.6585C35.0311 46.5023 41.307 42.4374 45.0392 35.9971C47.7589 31.304 48.7071 26.0755 48.0896 21.0818C47.2532 30.8577 40.8291 35.0674 31.1722 34.353C26.7805 39.5369 27.3925 45.1263 28.2047 47.6566Z" fill="#202562"/>
<path d="M56.4809 2.88013H55.2449V45.12H56.4809V2.88013Z" fill="#3C3C3B"/>
<path d="M64.7108 45.1199H63.4534V39.2744H65.4736C66.9499 39.2744 67.8795 39.884 67.8795 41.2285C67.8795 42.5479 66.9238 43.2911 65.3563 43.2911H64.7108V45.1199ZM64.6866 42.1888H65.373C66.1275 42.1888 66.5801 41.8965 66.5801 41.2786C66.5801 40.6263 66.1526 40.3767 65.3814 40.3767H64.6866V42.1888Z" fill="#3C3C3B"/>
<path d="M73.0527 45.1199H69.2888V39.2744H73.0527V40.3767H70.5453V41.621H72.75V42.6481H70.5453V44.0176H73.0527V45.1199Z" fill="#3C3C3B"/>
<path d="M81.4429 45.1199H74.6025V39.2744H75.8609V43.9926H77.394V39.2744H78.6514V43.9926H80.1864V39.2744H81.4429V45.1199Z" fill="#3C3C3B"/>
<path d="M86.9335 45.1199H83.1697V39.2744H86.9335V40.3767H84.428V41.621H86.6327V42.6481H84.428V44.0176H86.9335V45.1199Z" fill="#3C3C3B"/>
<path d="M93.4312 45.1199H92.1738V42.6815H89.7418V45.1199H88.4854V39.2744H89.7418V41.5625H92.1738V39.2744H93.4312V45.1199Z" fill="#3C3C3B"/>
<path d="M100.129 45.1199H98.8715V41.0448L96.5075 45.1199H95.157V39.2744H96.4153V43.3412L98.7877 39.2744H100.129V45.1199Z" fill="#3C3C3B"/>
<path d="M101.738 41.1951C101.738 39.8673 102.593 39.2744 104.069 39.2744H106.114V45.1199H104.857V43.099H104.329C103.558 43.099 103.642 43.4414 102.879 45.1199H101.454C102.133 43.55 102.267 42.9905 102.728 42.765C102.141 42.5228 101.738 42.0469 101.738 41.1951ZM104.874 42.0636V40.3767H104.027C103.424 40.3767 103.038 40.6523 103.038 41.2452C103.038 41.8214 103.482 42.0636 104.144 42.0636H104.874Z" fill="#3C3C3B"/>
</g>
<defs>
<radialGradient id="paint0_radial_74_610" cx="0" cy="0" r="1" gradientUnits="userSpaceOnUse" gradientTransform="translate(22.807 21.5596) rotate(-0.0632066) scale(1.585 1.57918)">
<stop stop-color="#6095CD"/>
<stop offset="1" stop-color="#202562"/>
</radialGradient>
<linearGradient id="paint1_linear_74_610" x1="3.57675" y1="2.02481" x2="27.094" y2="5.92073" gradientUnits="userSpaceOnUse">
<stop stop-color="#6095CD"/>
<stop offset="1" stop-color="#202562"/>
</linearGradient>
<linearGradient id="paint2_linear_74_610" x1="11.8201" y1="-0.636511" x2="41.5382" y2="10.6511" gradientUnits="userSpaceOnUse">
<stop stop-color="#6095CD"/>
<stop offset="1" stop-color="#202562"/>
</linearGradient>
<clipPath id="clip0_74_610">
<rect width="192" height="48" fill="white"/>
</clipPath>
</defs>
</svg>
