<svg width="91" height="60" viewBox="0 0 91 60" fill="none" xmlns="http://www.w3.org/2000/svg">
<g clip-path="url(#clip0_72_457)">
<path fill-rule="evenodd" clip-rule="evenodd" d="M0 59.7754H4.50862L7.55331 50.0873L8.58532 59.7754H11.6061L16.2342 50.0873L15.6828 59.7754H20.1914L20.8455 43.0723H16.1457L11.3043 53.2606L10.2466 43.0723H5.54594L0 59.7754Z" fill="#2B2A29"/>
<path fill-rule="evenodd" clip-rule="evenodd" d="M24.0203 59.7754H34.0925L34.836 55.7663H29.4644L29.961 53.0941H34.8289L35.5113 49.4188H30.6425L31.077 47.0805H36.4486L37.1921 43.0723H27.1207L24.0203 59.7754Z" fill="#2B2A29"/>
<path fill-rule="evenodd" clip-rule="evenodd" d="M46.8742 59.7754H51.574L54.6745 43.0723H49.9747L48.7648 49.5862C47.8363 49.6813 47.3433 49.7535 46.9601 49.7535C44.3464 49.7535 44.596 48.5363 44.835 47.2478L45.6103 43.0723H40.9096L40.0113 47.9163C39.497 50.6836 39.2138 53.4993 44.8978 53.4993C45.9528 53.4993 46.3122 53.4993 48.0832 53.2606L46.8742 59.7754Z" fill="#2B2A29"/>
<path fill-rule="evenodd" clip-rule="evenodd" d="M56.7676 59.7754H66.839L67.5833 55.7663H62.2117L62.7074 53.0941H67.5753L68.2577 49.4188H63.3898L63.8235 47.0805H69.1951L69.9394 43.0723H59.8671L56.7676 59.7754Z" fill="#2B2A29"/>
<path fill-rule="evenodd" clip-rule="evenodd" d="M77.3201 43.0723L75.6101 52.283C75.172 54.6451 74.6684 55.9336 72.6071 55.9336C72.2707 55.9336 71.9485 55.8623 71.606 55.7663L70.8625 59.7754C71.5697 59.97 72.0928 59.9938 72.7885 59.9938C78.6398 59.9938 79.6063 56.0763 80.0533 53.6666L81.2756 47.0805H84.6327L82.2766 59.7754H86.9773L90.0769 43.0723H77.3201Z" fill="#2B2A29"/>
<path fill-rule="evenodd" clip-rule="evenodd" d="M37.1675 26.3787C36.1213 29.8735 33.3156 35.4327 28.9946 35.6308C23.8992 35.8651 24.1249 29.8603 25.5764 25.6451C31.9658 7.08185 50.3375 1.03914 62.141 0.0368652C52.3254 4.42644 41.5212 11.8255 37.1675 26.3787Z" fill="#B2B3B3"/>
<path fill-rule="evenodd" clip-rule="evenodd" d="M51.5145 26.3787C50.4693 29.8735 47.6635 35.4327 43.3417 35.6308C38.2471 35.8651 38.4728 29.8603 39.9244 25.6451C46.3129 7.08185 64.6855 1.03914 76.489 0.0368652C66.6734 4.42644 55.8692 11.8255 51.5145 26.3787Z" fill="#0092D3"/>
<path fill-rule="evenodd" clip-rule="evenodd" d="M66.0265 26.348C64.9812 29.8418 62.1746 35.401 57.8536 35.6001C52.7582 35.8344 52.9847 29.8295 54.4354 25.6143C60.8248 7.05021 79.1965 1.00838 91 0.00610352C81.1844 4.39568 70.3811 11.7947 66.0265 26.348Z" fill="#2B2A29"/>
</g>
<defs>
<clipPath id="clip0_72_457">
<rect width="91" height="60" fill="white"/>
</clipPath>
</defs>
</svg>
