<svg width="122" height="90" viewBox="0 0 122 90" fill="none" xmlns="http://www.w3.org/2000/svg">
<g clip-path="url(#clip0_72_189)">
<path fill-rule="evenodd" clip-rule="evenodd" d="M54.3203 69.2071C54.4262 70.6091 54.3203 72.0114 54.3203 73.4131C54.3203 74.114 54.3203 74.8148 54.3557 75.5511C54.3557 76.5043 54.3557 77.563 54.4756 78.5091C54.5285 78.8797 54.6822 79.2291 54.9202 79.5189C55.3321 79.9023 55.8102 80.2084 56.3317 80.4232C56.6997 80.5337 57.0839 80.5805 57.4679 80.5635C57.903 80.5677 58.3347 80.4869 58.7382 80.3247C59.6231 79.9392 60.3723 79.3006 60.8902 78.4906C61.408 77.6799 61.6712 76.7346 61.6458 75.7758C61.6534 74.8772 61.404 73.9949 60.9268 73.2317C60.4496 72.4684 59.764 71.8555 58.95 71.4643C58.3672 71.1893 57.7463 71.0029 57.108 70.9108C56.7583 70.8466 56.4046 70.8068 56.0494 70.7914C55.266 70.4409 55.1249 69.9431 55.8941 69.4595H55.9295H55.9647C57.0035 69.4224 58.0229 69.1693 58.957 68.7164C59.4891 68.3856 59.9278 67.9256 60.2315 67.3799C60.5353 66.8342 60.6941 66.2206 60.6931 65.597C60.6931 62.8491 58.6677 61.3279 56.0282 61.3279C55.6057 61.3089 55.1835 61.3733 54.7861 61.5172C54.661 61.6386 54.5708 61.7911 54.525 61.9589C54.4684 62.4779 54.4473 63.0002 54.4615 63.522C54.4615 65.2184 54.4333 66.9172 54.3768 68.6183C54.3768 68.8216 54.3768 69.0178 54.3768 69.2141C54.3801 69.2256 54.3801 69.2377 54.3768 69.2492L54.3203 69.2071ZM24.5242 79.4204C25.0271 79.8151 25.6478 80.032 26.2886 80.0377C26.5215 80.0377 26.9167 80.0377 26.9943 80.2829C27.1708 80.7038 26.2886 81.2084 26.0275 81.3692C25.0889 81.9021 23.3174 82.0283 22.2306 82.0283C21.0685 82.0162 19.92 81.7781 18.8502 81.3274C18.5397 81.1658 17.8339 80.6825 18.0174 80.2481C18.1373 79.9746 18.5255 79.9746 18.7725 80.0022C19.3582 80.0674 19.9507 79.9788 20.4916 79.7464C21.0325 79.514 21.503 79.1455 21.8566 78.6777C22.0613 78.3829 22.2377 78.0605 22.4212 77.7522C22.9434 76.8898 23.4092 75.8594 23.8327 74.9481C24.5807 73.4131 25.3077 71.871 26.0416 70.3357C27.0578 68.2327 28.06 66.0597 29.1256 63.9566C29.2527 63.4449 28.674 63.0524 28.2011 63.1155C27.9163 63.1431 27.6412 63.2342 27.3966 63.3818C27.2363 63.5005 27.0606 63.5971 26.8743 63.6693C26.7484 63.7109 26.6122 63.7109 26.4862 63.6693C25.8793 63.4449 26.8038 61.9308 27.0578 61.6223C27.5689 60.9525 28.2325 60.4126 28.9944 60.0471C29.7562 59.6815 30.5945 59.5007 31.4405 59.5194C32.5414 59.5544 33.0071 60.0871 33.5083 60.9634C33.5576 61.0475 33.6071 61.1316 33.6494 61.2228C33.7482 61.4261 33.84 61.6434 33.9388 61.8467C36.2747 66.8798 38.1732 72.095 40.615 77.0861C40.8691 77.6119 41.1301 78.1306 41.4054 78.6423C41.7865 79.3439 42.2734 80.1149 43.2191 80.0093C44.5247 79.869 45.0894 80.7102 43.6285 81.4117C42.4855 81.854 41.2616 82.0524 40.0363 81.9936C39.1923 82.0162 38.3585 81.8051 37.6289 81.3827C36.8994 80.9603 36.3033 80.3438 35.9078 79.6025C34.6092 77.023 34.2634 74.598 30.8688 74.2259C29.933 74.0877 28.9816 74.0877 28.0459 74.2259C27.6789 74.2961 27.3401 73.9106 27.5801 73.5747C27.9578 73.2033 28.4122 72.9184 28.9119 72.7392C29.4115 72.5599 29.9444 72.4911 30.4736 72.5372C31.0594 72.5372 31.6169 72.6003 32.1956 72.6492C32.3438 72.6492 32.8237 72.7122 32.9013 72.5932C32.979 72.4734 32.6967 71.6188 32.619 71.4501C31.9133 69.7819 31.2075 68.0435 30.41 66.4171C30.3677 66.333 30.2477 66.1087 30.1349 66.1017C29.7749 66.1017 29.0339 67.8823 28.9139 68.1626C28.7939 68.443 28.6034 68.7655 28.4552 69.0529C28.1941 69.5576 27.94 70.0623 27.7071 70.5811C27.6013 70.8124 27.5025 71.044 27.4036 71.2821C26.5921 73.3288 25.7522 75.3477 24.8771 77.3667C24.6195 77.9414 24.478 78.5608 24.4607 79.1894C24.477 79.2673 24.4982 79.3453 24.5242 79.4204ZM73.8549 63.9637V63.9216C73.7707 63.0313 73.735 61.405 72.4858 61.4191C72.0977 61.4191 70.8416 61.6504 70.8416 61.0756C70.8416 60.5007 72.6199 59.8769 73.1072 59.7717C75.137 59.3581 77.2309 59.3581 79.2607 59.7717C79.8115 59.8979 80.9337 60.2624 81.1806 60.8232C81.2034 60.8652 81.2156 60.9122 81.2156 60.9599C81.2156 61.0076 81.2034 61.0546 81.1806 61.0966C81.0179 61.4261 79.7694 61.2718 79.367 61.3629C78.7249 61.5032 78.6257 62.2042 78.5908 62.765C78.5908 62.9753 78.5908 63.1855 78.5551 63.3889C78.5201 63.5921 78.5551 63.9707 78.5551 64.265C78.5551 64.3142 78.5551 64.3632 78.5551 64.4053C78.4566 67.1322 78.3932 69.9292 78.4773 72.6492C78.4773 73.6725 78.5551 75.3201 79.8893 73.9318C81.3568 72.3969 82.7823 70.8054 84.1942 69.2211C85.8808 67.3285 87.5603 65.4287 89.2119 63.508C89.6214 63.0313 89.9175 61.5242 89.0849 61.3069C88.9065 61.2671 88.7239 61.2483 88.5413 61.2508C88.2452 61.2508 87.0872 61.37 87.3419 60.7671C87.5959 60.1642 88.6404 59.8488 89.1834 59.7156C91.1404 59.302 93.1623 59.302 95.1186 59.7156C95.5987 59.8207 97.321 60.4727 97.321 61.0195C97.321 61.5663 96.1138 61.3629 95.7328 61.3629C94.6812 61.3629 94.5828 62.4986 94.5121 63.2977C94.1333 68.1256 94.1497 72.9758 94.5614 77.8011C94.6249 78.6919 94.7098 80.0724 95.9019 80.0582C96.2972 80.0582 97.5464 79.8272 97.5536 80.4019C97.5607 80.9766 95.7678 81.601 95.2884 81.7129C93.2579 82.1232 91.1646 82.1232 89.1341 81.7129C88.5834 81.5868 87.4618 81.2225 87.2078 80.6684C87.1886 80.6251 87.1786 80.5791 87.1786 80.5316C87.1786 80.4848 87.1886 80.438 87.2078 80.3948C87.3769 80.0724 88.619 80.2269 89.0214 80.122C89.5858 79.9817 89.635 79.2525 89.6564 78.7826C89.8212 75.6 89.8868 72.4132 89.854 69.2211C89.854 68.8356 89.854 66.8167 89.4374 66.6274C89.0214 66.4382 88.1317 67.4897 87.9277 67.7069C85.9864 69.81 84.1378 71.9129 82.2815 74.0863C81.3497 75.1585 80.4186 76.1889 79.4583 77.2618C79.0117 77.6842 78.7171 78.2405 78.6186 78.8457C78.5979 78.9966 78.5979 79.1504 78.6186 79.3014L78.6964 79.638C78.7527 79.8761 79.0281 79.9951 79.2536 80.0447C79.4391 80.0844 79.6288 80.1028 79.8186 80.1007C80.1147 80.1007 81.329 79.9817 81.0607 80.584C80.7925 81.1871 79.6988 81.5095 79.1551 81.6357C77.1246 82.046 75.0314 82.046 73.0009 81.6357C72.5143 81.5308 70.7216 80.8788 70.7145 80.3247C70.7075 79.7712 71.9992 79.9817 72.3588 79.9888C73.7707 79.9888 73.6929 78.4531 73.7707 77.4716C74.0104 72.9716 73.9676 68.4571 73.8549 63.9637ZM103.672 62.3724C106.317 60.3502 109.581 59.2933 112.918 59.3791C114.417 59.3688 115.911 59.5503 117.363 59.9189C119.763 60.5639 122.226 60.4867 120.892 63.7394C120.652 64.3212 120.779 65.9755 119.876 65.9405C119.516 65.9405 119.17 65.2395 119.1 64.9381C118.812 64.0546 118.296 63.2616 117.604 62.6388C116.243 61.5324 114.534 60.9369 112.776 60.9564C107.413 60.9564 105.013 64.9451 105.013 69.866C104.959 71.7966 105.347 73.7143 106.149 75.4739C107.73 78.5721 110.236 80.0235 113.68 80.1425C114.86 80.134 116.014 79.8024 117.016 79.1837C118.019 78.5651 118.83 77.6842 119.361 76.6375C119.608 76.2031 120.208 75.5299 120.772 75.5299C121.337 75.5299 121.224 76.6028 121.252 76.9323C121.267 77.2023 121.309 77.4702 121.379 77.731C121.584 78.4325 122.155 79.2801 121.866 79.9675C121.704 80.353 119.65 80.8647 119.17 81.0539C118.48 81.2899 117.773 81.4677 117.053 81.5868C115.688 81.8398 114.305 81.9851 112.918 82.0212C109.389 82.0984 105.267 81.1871 102.84 78.4325C100.912 76.2492 99.8637 73.4358 99.8965 70.532C99.9037 68.9831 100.244 67.4537 100.895 66.0463C101.547 64.639 102.493 63.3863 103.672 62.3724ZM49.5778 63.3257C49.4796 63.2488 49.3647 63.1955 49.2423 63.17C49.1199 63.1444 48.9931 63.1474 48.8721 63.1785C48.2793 63.2907 47.4606 64.0408 46.9878 63.8795C46.3526 63.6272 47.0866 62.4775 47.3548 62.2182C47.9271 61.6363 48.6142 61.1781 49.3731 60.8723C51.4829 59.9684 53.7589 59.5101 56.0564 59.5264C58.8794 59.5264 60.6296 59.6386 63.022 61.0826C64.075 61.7848 64.8466 62.8316 65.2027 64.0408C65.2933 64.4126 65.3384 64.7939 65.3369 65.1764C65.3369 67.4336 64.0454 68.5552 62.3022 69.6698C62.3022 69.6698 62.3022 69.7048 62.3022 69.7188C64.9628 70.7283 66.9036 72.523 66.9036 75.4881C66.9036 77.7735 65.4921 79.3999 63.6431 80.5635C61.9846 81.601 58.7947 82.1055 56.8469 82.0914H55.76C53.4749 82.1119 51.2106 81.6584 49.112 80.7598C48.3558 80.4529 47.6711 79.9944 47.1006 79.4133C46.8325 79.1263 46.1056 78.0116 46.7337 77.7593C47.2277 77.563 48.0181 78.3128 48.611 78.4254C48.766 78.4715 48.932 78.468 49.0845 78.4134C49.237 78.3588 49.3679 78.2575 49.4578 78.1236C49.7048 74.717 49.7119 71.1773 49.7119 67.7631C49.7048 66.291 49.7048 64.7628 49.5778 63.3257ZM14.0441 66.5924C14.0441 63.9216 12.0187 61.2368 9.1463 61.3069C8.82275 61.2739 8.49892 61.3669 8.243 61.5663C8.01712 61.7696 7.96775 62.4145 7.95363 62.6949C7.91132 63.5711 7.95363 64.4964 7.91831 65.3866C7.91831 66.999 7.91831 68.6183 7.91831 70.2306C7.91831 70.567 7.91831 70.9314 7.91831 71.2332C7.91831 73.238 7.96775 75.2216 7.98894 77.2264C7.98894 77.7806 7.91831 79.5607 8.3065 79.9604C8.69469 80.3601 9.56973 80.1985 10.0426 80.178C10.2825 80.178 10.7484 80.178 10.8612 80.4373C10.9954 80.8647 10.0285 81.3132 9.75323 81.4465C8.37556 81.9007 6.92727 82.1077 5.47651 82.0566C4.06776 82.0644 2.66603 81.8589 1.31974 81.4465C1.03039 81.3274 -0.0423261 80.8016 0.105878 80.3743C0.190566 80.1213 0.606949 80.1425 0.811612 80.1638C1.33386 80.2127 2.18779 80.3459 2.57595 79.8973C2.86065 79.2617 3.01192 78.5743 3.02055 77.8784C3.1617 76.1747 3.24639 74.4293 3.24639 72.7193C3.24639 71.3799 3.24639 70.0413 3.24639 68.6954C3.24639 67.8612 3.24639 67.02 3.24639 66.1858C3.24639 65.6951 3.24638 65.1414 3.19698 64.6576C3.13347 64.0268 2.92175 63.3538 2.1525 63.515C1.55969 63.6412 0.790429 64.4754 0.296418 64.2511C-0.31757 63.9777 0.395228 62.7579 0.656349 62.4495C1.19748 61.8128 1.87181 61.3009 2.63239 60.9494C4.669 59.953 6.9114 59.4418 9.18162 59.4563C11.9481 59.4563 14.6369 59.989 16.7682 61.8467C17.4819 62.4509 18.0496 63.2067 18.4294 64.0583C18.8091 64.9099 18.9911 65.8355 18.962 66.7665C18.9328 67.6974 18.6933 68.61 18.261 69.4365C17.8287 70.2631 17.2149 70.9824 16.4648 71.5415C15.1215 72.4529 13.5515 72.9794 11.9269 73.0623C11.2604 73.0729 10.5955 72.9929 9.95086 72.8242C9.5768 72.691 9.07574 72.4876 9.07574 72.0248C9.07574 71.7236 9.52743 71.5486 9.78149 71.5486H10.339C10.8014 71.5167 11.2527 71.3927 11.666 71.1843C12.0794 70.976 12.4465 70.6874 12.7456 70.3357C13.6316 69.2915 14.0945 67.9571 14.0441 66.5924Z" fill="#DF5D34"/>
<path d="M92.9383 84.7135H92.0843C91.816 84.7135 91.562 84.7135 91.2724 84.7135C91.1739 84.7135 91.0819 84.7135 91.0819 84.7907C91.0819 84.868 91.1318 84.8956 91.2795 84.9311C91.4279 84.9658 91.5834 85.0572 91.597 85.2677C91.6112 85.4774 91.597 85.807 91.597 86.3817C91.612 86.9741 91.5856 87.5666 91.5199 88.1555C91.5199 88.3029 91.5199 88.4078 91.1953 88.4708C91.0819 88.4708 90.9977 88.5339 90.9977 88.6041C90.9977 88.6742 91.0747 88.6955 91.181 88.6955C91.2866 88.6955 91.724 88.6529 91.9715 88.6529C92.2184 88.6529 92.6208 88.6884 92.7899 88.6884C92.959 88.6884 92.9875 88.6395 92.9875 88.5899C92.9875 88.541 92.9097 88.4992 92.8113 88.4708C92.5073 88.4007 92.4018 88.3376 92.4018 88.0711C92.4018 87.6296 92.4018 86.8026 92.4018 86.3682C92.4018 85.9331 92.4018 85.3938 92.4018 85.0714C92.4018 85.0083 92.4367 84.9729 92.5708 84.9729C92.8484 84.9559 93.1266 84.9559 93.4042 84.9729C93.651 84.9729 93.7709 85.2811 93.8558 85.5547C93.8979 85.695 93.9613 85.7304 94.0106 85.7304C94.0605 85.7304 94.1097 85.6107 94.1026 85.527C94.1026 85.3166 94.1026 84.924 94.1026 84.7418C94.1019 84.7312 94.0991 84.722 94.0941 84.7128C94.0891 84.7036 94.0826 84.6958 94.0748 84.6894C94.0669 84.6823 94.0577 84.6774 94.0484 84.6745C94.0384 84.6717 94.0284 84.6703 94.0177 84.6717C93.6517 84.7277 93.28 84.744 92.9097 84.7206L92.9383 84.7135ZM85.3871 86.403C85.3871 86.2839 85.3871 85.5689 85.3871 85.3442C85.3871 85.1203 85.3871 84.9729 85.6903 84.9169C85.8316 84.9169 85.9158 84.8467 85.9158 84.7766C85.9158 84.7064 85.8387 84.6993 85.6975 84.6993C85.5562 84.6993 85.2458 84.6993 84.9919 84.6993H84.2855C84.1657 84.6993 84.0815 84.6993 84.0815 84.7837C84.0815 84.868 84.1514 84.8822 84.2998 84.924C84.4482 84.9658 84.5823 85.0501 84.5966 85.2606C84.6102 85.4711 84.5966 85.8495 84.5966 86.0316C84.5966 86.8799 84.5966 87.8054 84.5331 88.0506C84.4696 88.2958 84.4411 88.3801 84.1514 88.4566C84.0387 88.4566 83.9681 88.5197 83.9681 88.5899C83.9681 88.66 84.0244 88.6742 84.1942 88.6742C84.3633 88.6742 84.7586 88.6742 84.8998 88.6742H85.7253C85.8102 88.6742 85.9443 88.6742 85.9372 88.5899C85.93 88.5063 85.8459 88.4708 85.7046 88.4361C85.4363 88.3659 85.3935 88.2674 85.3935 87.9804C85.3935 87.6927 85.3935 87.118 85.3935 86.887C85.3985 86.8657 85.4092 86.8459 85.4242 86.8303C85.4392 86.814 85.4577 86.8019 85.4784 86.7955C85.6054 86.7955 86.9603 86.7955 87.4896 86.7955C87.4896 86.7955 87.5396 86.7955 87.5396 86.8728C87.5567 87.2066 87.5567 87.5411 87.5396 87.8748C87.5396 88.3305 87.4968 88.3801 87.1722 88.4637C87.0808 88.4637 86.9959 88.5339 86.9959 88.5899C86.9959 88.6466 87.0594 88.6813 87.2214 88.6813L88.0262 88.6466H88.6897C88.8095 88.6466 88.9016 88.6466 88.9016 88.5552C88.9016 88.4637 88.8381 88.4637 88.7175 88.429C88.4499 88.3447 88.3865 88.3305 88.3793 88.0853C88.3722 87.8401 88.3793 87.5595 88.3793 86.95C88.3686 86.3746 88.3879 85.7992 88.4357 85.2252C88.4357 85.043 88.4849 84.9452 88.7246 84.8956C88.9651 84.8467 88.9365 84.8191 88.9365 84.7624C88.9365 84.7064 88.8588 84.6788 88.7318 84.6788C88.6048 84.6788 88.2381 84.6788 88.0262 84.6788H87.2785C87.1301 84.6788 87.0594 84.6788 87.0594 84.756C87.0594 84.8326 87.1579 84.8609 87.2571 84.8822C87.5182 84.9523 87.5531 85.0154 87.5745 85.2322C87.5952 85.5823 87.5952 85.9338 87.5745 86.2839C87.5745 86.3753 87.5745 86.4384 87.5182 86.4384C86.8126 86.4384 85.9514 86.4384 85.507 86.4384C85.4891 86.4433 85.4699 86.4419 85.4527 86.4341C85.4363 86.4263 85.4228 86.4129 85.4149 86.3959L85.3871 86.403ZM77.0804 84.7837C77.0804 84.8326 77.1653 84.8751 77.3059 84.9169C77.4471 84.9587 77.5812 85.0359 77.5884 85.2464C77.5955 85.4569 77.5884 85.7722 77.5884 86.1365C77.5884 86.9429 77.5884 87.7912 77.5392 88.0293C77.4899 88.2674 77.4471 88.373 77.1582 88.4432C77.0376 88.4779 76.9605 88.5133 76.9605 88.5764C76.9605 88.6395 77.024 88.6671 77.2003 88.6671C77.3765 88.6671 77.7575 88.6671 77.9059 88.6671H78.6115C78.6964 88.6671 78.8234 88.6671 78.8234 88.5693C78.8234 88.4708 78.7249 88.4637 78.5908 88.4148C78.4566 88.3659 78.3575 88.2674 78.3503 88.1909V88.0435C78.3525 87.9946 78.3696 87.9485 78.4003 87.9103C78.9789 87.3072 79.6281 86.6205 80.4536 85.807C80.4536 85.807 80.51 85.807 80.51 85.8495C80.51 85.8913 80.51 87.5318 80.51 87.9032C80.51 88.2745 80.475 88.4148 80.1432 88.4921C80.0512 88.4921 79.967 88.5622 79.967 88.6111C79.967 88.66 80.0377 88.7096 80.1996 88.7096C80.3623 88.7096 80.8139 88.6742 80.9687 88.6742H81.6743C81.8013 88.6742 81.8862 88.6742 81.8862 88.5828C81.8862 88.4921 81.8227 88.4921 81.7028 88.4503C81.4346 88.3801 81.3711 88.3518 81.364 88.0648C81.3568 87.777 81.364 87.5524 81.364 86.9429C81.364 86.1996 81.364 85.4845 81.4132 85.2393C81.4631 84.9941 81.4631 84.9729 81.7243 84.924C81.8655 84.924 81.9219 84.8467 81.9219 84.7907C81.9219 84.7348 81.8512 84.7135 81.7314 84.7135H81.0251H80.3195C80.2139 84.7135 80.1504 84.7135 80.1504 84.7837C80.1504 84.8538 80.2139 84.8885 80.3123 84.924C80.5456 84.987 80.5949 85.0714 80.602 85.1904V85.3095C80.5934 85.3499 80.5763 85.3881 80.5528 85.4215C80.1853 85.8495 78.5201 87.5248 78.5201 87.5248C78.5201 87.5248 78.4638 87.5248 78.4567 87.4822C78.4495 87.4404 78.4567 85.9402 78.4567 85.3378C78.4567 85.0785 78.5059 84.98 78.7599 84.9098C78.9011 84.868 78.986 84.8255 78.986 84.7695C78.986 84.7135 78.9225 84.6859 78.7813 84.6859C78.64 84.6859 78.294 84.6859 78.0186 84.6859C77.7439 84.6859 77.4963 84.6859 77.313 84.6859C77.1296 84.6859 77.1082 84.7135 77.1082 84.7766L77.0804 84.7837ZM73.5096 88.2887C73.5096 88.2887 73.5096 88.3447 73.439 88.3589C73.2413 88.3589 71.9 88.3589 71.7238 88.3589C71.5476 88.3589 71.5897 88.317 71.5897 88.2816C71.6032 88.1973 71.6268 88.1151 71.6603 88.0364C71.7516 87.7841 72.4858 85.8913 72.585 85.6603C72.585 85.6603 72.627 85.6603 72.6342 85.6603C72.8247 86.1648 73.389 87.7629 73.481 88.1137C73.516 88.1484 73.5374 88.2604 73.5374 88.2887H73.5096ZM71.4977 88.6324H74.1446C74.4549 88.6324 74.5605 88.8074 74.5605 89.2071C74.5605 89.2702 74.5605 89.4452 74.5605 89.5225C74.5605 89.5997 74.5605 89.74 74.6454 89.74C74.7303 89.74 74.7867 89.6415 74.8081 89.5296C74.8601 89.1738 74.9379 88.8223 75.0406 88.4779C75.0406 88.429 75.0406 88.3801 75.0057 88.3801H74.589C74.5398 88.3801 74.4692 88.31 74.4549 88.2958C74.166 87.6367 73.6009 86.0033 73.2549 85.0848C73.1001 84.6717 73.0644 84.6157 73.0009 84.6157C72.9766 84.6143 72.9517 84.62 72.9296 84.6306C72.9074 84.6419 72.8882 84.6582 72.8739 84.6788C72.7726 84.8035 72.6642 84.9233 72.5493 85.0359C72.5457 85.0572 72.5457 85.0785 72.5493 85.099C72.5536 85.1458 72.5536 85.1926 72.5493 85.2393C72.2532 86.0529 71.4905 87.9032 71.3286 88.2398C71.294 88.305 71.2361 88.3553 71.1663 88.3801H70.8204C70.8204 88.3801 70.7499 88.4432 70.7499 88.4921C70.7499 88.653 70.7499 89.1929 70.8063 89.5296C70.8063 89.6274 70.8628 89.7188 70.9333 89.7188C71.0039 89.7188 71.0463 89.6557 71.0533 89.5154C71.0533 89.1086 71.1309 88.8145 71.3003 88.716C71.3657 88.6671 71.4441 88.6381 71.5262 88.6324H71.4977ZM66.7977 84.6086C66.7738 84.6065 66.7498 84.6115 66.7286 84.6228C66.7073 84.6341 66.6897 84.6511 66.6778 84.6717C66.6284 84.7418 66.4096 84.9452 66.3249 85.0359C66.2402 85.1274 66.3249 85.0359 66.3249 85.0848C66.3335 85.1337 66.3335 85.1833 66.3249 85.2322C66.0426 85.8424 65.3369 87.6091 65.1746 87.9103C65.0123 88.2115 64.9134 88.373 64.5818 88.4637C64.4406 88.4637 64.4124 88.541 64.4124 88.5899C64.4124 88.6395 64.4547 88.6671 64.61 88.6671C64.7653 88.6671 65.0052 88.6324 65.2592 88.6324C65.5133 88.6324 65.6686 88.6324 65.7815 88.6324C65.8944 88.6324 65.9791 88.5899 65.9791 88.5481C65.9791 88.5063 65.9226 88.4566 65.7956 88.429C65.5416 88.3589 65.4851 88.2674 65.4851 88.1484C65.7266 87.2789 66.0333 86.4285 66.4026 85.6036C66.4026 85.5405 66.466 85.5547 66.4731 85.6036C66.5931 85.9126 67.4047 87.9946 67.4188 88.1909C67.4329 88.3872 67.4188 88.3872 67.1365 88.4503C67.0236 88.4503 66.9742 88.5268 66.9742 88.5552C66.9742 88.5835 67.0447 88.6529 67.1859 88.6529H67.8281C68.0398 88.6529 68.4986 88.6955 68.675 88.6955C68.8515 88.6955 68.8867 88.6324 68.8867 88.597C68.8867 88.5622 68.8232 88.5063 68.7103 88.4779C68.4492 88.4148 68.3645 88.3518 68.1527 87.8472C68.0257 87.546 67.574 86.4448 67.2141 85.4845C67.1294 85.2464 67.0165 84.9523 66.946 84.7837C66.8754 84.6157 66.8613 84.6086 66.826 84.6086H66.7977ZM60.0721 84.8255C60.389 84.8425 60.6926 84.958 60.9402 85.155C61.3851 85.5901 61.6388 86.1826 61.6459 86.8026C61.676 87.3363 61.4934 87.86 61.1378 88.2604C60.9559 88.4283 60.7154 88.519 60.4673 88.5133C59.5076 88.5133 58.8865 87.4822 58.8865 86.5291C58.8622 86.2768 58.8903 86.0224 58.9693 85.7807C59.0482 85.5398 59.1761 85.3173 59.3452 85.1274C59.5529 84.941 59.8205 84.834 60.1004 84.8255H60.0721ZM60.2274 84.6086C59.7234 84.615 59.2326 84.7688 58.8159 85.0501C58.5507 85.2273 58.3344 85.4682 58.1865 85.7496C58.0386 86.0309 57.9639 86.3448 57.969 86.6623C57.9653 86.9217 58.0132 87.1789 58.1101 87.4192C58.2071 87.6601 58.351 87.8791 58.5336 88.0648C58.7604 88.283 59.0288 88.4552 59.3233 88.5693C59.6179 88.6841 59.9324 88.7387 60.2485 88.7302C60.7649 88.7267 61.2685 88.5707 61.6953 88.2816C61.9608 88.0896 62.1749 87.8359 62.3188 87.5425C62.4627 87.2491 62.5322 86.9252 62.521 86.5992C62.5067 86.32 62.4364 86.0458 62.3142 85.7942C62.1921 85.5419 62.0204 85.3166 61.8094 85.1309C61.5985 84.9459 61.3524 84.8042 61.0856 84.7142C60.8187 84.6242 60.5366 84.5888 60.2556 84.6086H60.2274ZM51.5398 84.7695C51.5398 84.8191 51.6033 84.8751 51.7303 84.9027C51.8425 84.9155 51.9506 84.9509 52.0479 85.0083C52.1452 85.065 52.2293 85.1415 52.2949 85.2322C52.6778 85.7191 53.0223 86.235 53.3253 86.7743C53.3351 86.7878 53.3403 86.8041 53.3403 86.8204C53.3403 86.8367 53.3351 86.8522 53.3253 86.8657C52.9865 87.3072 52.5278 87.8118 52.3372 88.0152C52.1343 88.2263 51.8746 88.3744 51.5892 88.4432C51.4269 88.4432 51.3563 88.5063 51.3492 88.5828C51.3422 88.66 51.4057 88.66 51.568 88.66C51.7303 88.66 51.9562 88.6253 52.2244 88.6253H52.9301C53.0148 88.6253 53.0924 88.5899 53.0924 88.5339C53.0924 88.4779 53.0359 88.4432 52.9301 88.4148C52.669 88.3305 52.5772 88.2469 52.8384 87.8401C53.0423 87.5552 53.2614 87.2817 53.4947 87.0202C53.4947 87.0202 53.537 87.0202 53.5582 87.0202C53.5793 87.0202 54.2639 88.0364 54.3627 88.2398C54.3714 88.2561 54.3759 88.2738 54.3759 88.2922C54.3759 88.3107 54.3714 88.3284 54.3627 88.3447C54.299 88.3737 54.2329 88.3971 54.1651 88.4148C54.0522 88.4503 54.0098 88.485 54.0098 88.5339C54.0098 88.5835 54.0522 88.6253 54.1722 88.6253C54.2922 88.6253 54.5462 88.5899 54.7368 88.5899C55.0543 88.5899 55.7177 88.6324 55.8871 88.6324C56.0565 88.6324 56.1059 88.597 56.1059 88.541C56.1059 88.485 56.1059 88.4503 55.9506 88.4219C55.7695 88.39 55.5975 88.3199 55.4464 88.2157C55.2953 88.1122 55.1688 87.9762 55.0755 87.8189C54.8285 87.4759 54.1792 86.5433 54.1298 86.4171C54.1184 86.3881 54.1184 86.3555 54.1298 86.3257C54.4262 85.9402 54.7438 85.6248 55.005 85.3166C55.2334 85.0692 55.5393 84.9063 55.8729 84.8538C55.9436 84.8538 56.0353 84.7907 56.0353 84.7348C56.0353 84.6788 55.9576 84.6646 55.8729 84.6646H55.1673H54.5745C54.4545 84.6646 54.398 84.6646 54.398 84.7418C54.398 84.8191 54.4474 84.8396 54.5745 84.868C54.7015 84.8956 54.8779 84.987 54.8073 85.1061C54.5628 85.4696 54.294 85.8162 54.0028 86.1436C54.0028 86.1436 53.9675 86.1436 53.9393 86.1436C53.6797 85.8048 53.4439 85.4491 53.2335 85.0785C53.2204 85.0622 53.2121 85.0423 53.2096 85.0218C53.207 85.0012 53.2104 84.98 53.2191 84.9608C53.2279 84.9424 53.2418 84.9261 53.2594 84.9148C53.2768 84.9027 53.2973 84.8963 53.3182 84.8956C53.4453 84.8467 53.5159 84.7978 53.5159 84.7418C53.5159 84.6859 53.4453 84.6717 53.3253 84.6717H52.7395C52.5066 84.6717 51.9209 84.6363 51.7868 84.6363C51.6527 84.6363 51.568 84.7277 51.568 84.7695H51.5398ZM46.9455 84.8255C47.2626 84.8418 47.5665 84.9573 47.8135 85.155C48.0348 85.3697 48.2111 85.6263 48.3322 85.909C48.4534 86.1918 48.5169 86.4951 48.5192 86.8026C48.5463 87.3355 48.3642 87.8585 48.0111 88.2604C47.9161 88.3468 47.8048 88.4134 47.6837 88.4574C47.5625 88.5006 47.434 88.5197 47.3054 88.5133C46.3456 88.5133 45.7246 87.4822 45.7246 86.5291C45.7019 86.2768 45.7308 86.0224 45.8097 85.7815C45.8885 85.5405 46.0156 85.318 46.1833 85.1274C46.3983 84.9346 46.6771 84.8276 46.9666 84.8255H46.9455ZM47.1007 84.6086C46.5968 84.615 46.106 84.7688 45.6892 85.0501C45.4241 85.2273 45.2077 85.4682 45.0598 85.7496C44.9119 86.0309 44.8372 86.3448 44.8424 86.6623C44.8379 87.1853 45.0407 87.6892 45.4069 88.0648C45.6337 88.283 45.9022 88.4552 46.1967 88.5693C46.4912 88.6841 46.8058 88.7387 47.1219 88.7302C47.6264 88.721 48.1171 88.5651 48.5333 88.2816C48.7997 88.0903 49.0148 87.8366 49.1599 87.5432C49.3051 87.2498 49.3758 86.9259 49.3661 86.5992C49.3517 86.3222 49.2823 86.0507 49.1619 85.8006C49.0415 85.5504 48.8724 85.3265 48.6645 85.1415C48.4566 84.9566 48.2138 84.8141 47.9503 84.7227C47.6868 84.6313 47.4076 84.5923 47.129 84.6086H47.1007ZM41.843 85.8842C41.843 86.5291 41.4336 86.8374 41.1373 86.8374H41.0385C40.9891 86.8374 40.9397 86.8728 40.9397 86.9004C40.9397 86.9288 40.9891 86.9848 41.0808 87.0202C41.1911 87.05 41.3052 87.0641 41.4196 87.062C41.7036 87.0464 41.9775 86.9515 42.21 86.7885C42.3419 86.6829 42.4494 86.5496 42.5249 86.3994C42.6004 86.2485 42.6423 86.0833 42.6477 85.9147C42.653 85.746 42.6218 85.5788 42.556 85.4236C42.4901 85.2684 42.3914 85.1288 42.2665 85.0154C41.8813 84.7369 41.4064 84.6093 40.9326 84.6575C40.6362 84.6575 40.0928 84.7064 39.6694 84.7064H39.4576C39.3729 84.7064 39.3165 84.756 39.3165 84.8049C39.3165 84.8538 39.38 84.8822 39.4717 84.8956C39.8317 84.9381 39.867 85.0359 39.881 85.2535C39.8952 85.4711 39.881 86.8239 39.881 87.0202C39.881 87.3355 39.881 87.7211 39.8458 87.9875C39.8105 88.254 39.747 88.3659 39.4224 88.4432C39.3517 88.4432 39.26 88.5063 39.26 88.5481C39.26 88.5899 39.3517 88.6529 39.507 88.6529C39.6623 88.6529 40.0364 88.6529 40.2127 88.6529C40.3892 88.6529 40.8762 88.6955 41.0526 88.6955C41.229 88.6955 41.2573 88.6529 41.2573 88.6041C41.2573 88.5552 41.2008 88.4992 41.0667 88.4708C40.6856 88.3801 40.6644 88.2674 40.6573 87.889C40.6573 87.7352 40.6573 87.3356 40.6573 86.7679C40.6573 86.0663 40.6573 85.2953 40.6573 85.1692C40.6573 85.043 40.6997 84.9587 40.7209 84.9452C40.7745 84.9126 40.8349 84.8935 40.8973 84.8885C41.0276 84.8885 41.1566 84.9148 41.2767 84.9651C41.3967 85.0154 41.5053 85.0891 41.5962 85.1819C41.687 85.2748 41.7581 85.3846 41.8054 85.5058C41.8526 85.6263 41.875 85.7552 41.8712 85.8842H41.843ZM36.0913 84.7135H35.2303C34.9691 84.7135 34.708 84.7135 34.4187 84.7135C34.3199 84.7135 34.2282 84.7135 34.2282 84.7907C34.2282 84.868 34.2846 84.8956 34.4257 84.9311C34.6868 84.987 34.7292 85.0572 34.7433 85.2677C34.7575 85.4774 34.7433 85.807 34.7433 86.3817C34.7578 86.9741 34.7342 87.5666 34.6728 88.1555C34.6728 88.3029 34.6304 88.4078 34.3481 88.4708C34.2282 88.4708 34.1505 88.5339 34.1505 88.6041C34.1505 88.6742 34.2211 88.6955 34.327 88.6955C34.4328 88.6955 34.8774 88.6529 35.1174 88.6529C35.3573 88.6529 35.7737 88.6884 35.936 88.6884C36.0983 88.6884 36.1336 88.6395 36.1336 88.5899C36.1336 88.541 36.0631 88.4992 35.9643 88.4708C35.6608 88.4007 35.5549 88.3376 35.5479 88.0711C35.5479 87.6296 35.5479 86.8026 35.5479 86.3682C35.5479 85.9331 35.5479 85.3938 35.5479 85.0714C35.5479 85.0083 35.5479 84.9729 35.7102 84.9729C35.9899 84.9559 36.2703 84.9559 36.55 84.9729C36.7899 84.9729 36.9099 85.2811 36.9946 85.5547C37.0369 85.695 37.1005 85.7304 37.1569 85.7304C37.2134 85.7304 37.2558 85.6107 37.2487 85.527C37.2487 85.3166 37.2487 84.924 37.2487 84.7418C37.2453 84.722 37.2349 84.7036 37.2194 84.6908C37.2039 84.6781 37.1842 84.671 37.164 84.6717C36.8181 84.7206 36.4682 84.7341 36.1195 84.7135H36.0913ZM30.3113 86.894H29.3515C29.3445 86.894 29.3376 86.8926 29.3312 86.8898C29.3249 86.887 29.3194 86.8827 29.3152 86.877C29.311 86.8714 29.3083 86.865 29.3072 86.8579C29.3061 86.8515 29.3068 86.8444 29.3092 86.8374C29.3092 86.6836 29.662 85.9055 29.782 85.6107C29.782 85.5618 29.8384 85.5476 29.8526 85.6107C29.9443 85.8141 30.2337 86.5645 30.3325 86.8586C30.3392 86.8693 30.3417 86.8813 30.3396 86.894H30.3113ZM30.2125 84.6086C30.1876 84.61 30.1636 84.6185 30.1426 84.632C30.1216 84.6455 30.1043 84.6639 30.0926 84.6859C29.9857 84.8212 29.8702 84.9502 29.7468 85.0714C29.7468 85.0714 29.7468 85.0714 29.7468 85.1203C29.7508 85.1578 29.7508 85.1954 29.7468 85.2322C29.4644 85.8424 28.7516 87.6091 28.5964 87.9103C28.4411 88.2115 28.3353 88.373 27.9965 88.4566C27.8553 88.4992 27.8271 88.541 27.8271 88.5828C27.8271 88.6253 27.8695 88.66 28.0247 88.66C28.18 88.66 28.42 88.66 28.674 88.66H29.2033C29.3092 88.66 29.4009 88.6253 29.4009 88.5764C29.4009 88.5268 29.3444 88.485 29.2104 88.4566C28.9634 88.3936 28.8998 88.3029 28.8998 88.1838C28.9438 87.8713 29.0392 87.568 29.1821 87.2866C29.1821 87.2866 29.2386 87.2229 29.2598 87.2229C29.2809 87.2229 29.6621 87.2229 30.3607 87.2229C30.3931 87.2243 30.4247 87.2335 30.4529 87.2491C30.4811 87.2654 30.5052 87.2874 30.5231 87.3143C30.6484 87.607 30.7499 87.9096 30.8265 88.2185C30.8265 88.3234 30.8265 88.4219 30.5654 88.485C30.4383 88.485 30.3889 88.5552 30.3889 88.5899C30.3889 88.6253 30.4666 88.6813 30.6007 88.6813H31.2499H32.1109C32.2662 88.6813 32.3297 88.6324 32.3297 88.5828C32.3297 88.5339 32.2732 88.5063 32.1604 88.4708C31.9345 88.4148 31.7863 88.3518 31.5745 87.8472C31.4405 87.5389 30.9888 86.4448 30.6289 85.4569C30.5442 85.2252 30.4242 84.9098 30.3607 84.756C30.2972 84.6015 30.269 84.6086 30.2408 84.6086H30.2125Z" fill="#DF5D34"/>
<path fill-rule="evenodd" clip-rule="evenodd" d="M38.3608 21.9342C38.3608 26.2723 39.656 30.5131 42.0824 34.1202C44.5089 37.7272 47.9577 40.5386 51.9927 42.1987C56.0277 43.8589 60.4678 44.2932 64.7514 43.4469C69.0349 42.6006 72.9695 40.5116 76.0581 37.444C79.1459 34.3765 81.2491 30.4681 82.1017 26.2133C82.9536 21.9585 82.5162 17.5483 80.8446 13.5403C79.1737 9.53242 76.3427 6.10673 72.7113 3.69658C69.0802 1.28642 64.8108 0 60.4433 0C54.5866 0 48.9699 2.31092 44.8286 6.42438C40.6874 10.5379 38.3608 16.1169 38.3608 21.9342ZM60.7256 36.6551C61.1208 37.1037 61.7842 37.0056 62.6452 36.9565C63.6614 36.8935 63.3509 37.5945 62.0947 38.4427C60.154 39.7816 56.0536 40.2232 53.6259 38.1062C48.4317 33.5427 52.5108 26.9814 55.3055 24.9204C54.9229 24.7245 54.4921 24.6409 54.0634 24.6793C53.6347 24.7178 53.2259 24.8768 52.8849 25.1378C52.3556 24.8784 52.1792 24.5139 52.412 24.0442C52.6825 23.2572 53.135 22.5441 53.7331 21.9622C54.3311 21.3803 55.0583 20.9458 55.856 20.6934C56.0987 20.1845 56.2033 19.6215 56.1595 19.0601C56.1621 18.8541 56.1143 18.6505 56.0199 18.4669C55.9256 18.2835 55.7877 18.1255 55.6181 18.0068C55.4486 17.8881 55.2525 17.8121 55.0468 17.7856C54.8411 17.7591 54.6319 17.7827 54.4375 17.8544C53.7318 18.0296 53.026 18.4853 52.6026 18.268V18.2329C41.7484 8.88867 59.307 -3.11942 66.7737 10.1364C67.1306 10.0441 67.4989 10.0016 67.8676 10.0102C69.8084 10.0453 71.3536 11.4122 71.3186 13.0596C71.312 13.5096 71.1854 13.9499 70.9517 14.3354C69.3284 12.7409 67.1871 11.7719 64.9105 11.6015C61.0079 11.0407 55.1079 11.938 53.1813 16.3402C53.7028 15.6867 54.3568 15.1493 55.1009 14.763C57.1614 13.6323 59.4795 13.0457 61.8336 13.0596C65.6939 13.0245 68.0299 14.2513 69.5966 15.7794C70.3284 16.5012 70.9037 17.3641 71.2869 18.3151C71.6703 19.2661 71.853 20.2849 71.8244 21.3089C71.7959 22.3328 71.5569 23.3401 71.1215 24.2687C70.6861 25.1973 70.0639 26.0274 69.2932 26.708C67.9555 27.7188 66.3478 28.3161 64.6706 28.4254C63.996 28.4245 63.3244 28.335 62.6734 28.159C62.1371 27.9277 61.8689 27.7384 61.8689 27.3949C61.8689 27.2407 62.1371 27.0094 62.4405 27.0094H63.0192C64.6354 27.0094 67.0207 25.1027 67.0207 21.128C67.0207 18.0717 64.9459 14.777 61.7913 14.8611C61.6027 14.8435 61.4125 14.865 61.2327 14.9241C61.0529 14.9832 60.8875 15.0788 60.7468 15.2046C60.5915 15.3658 60.4433 15.7374 60.401 16.6066C60.3656 17.3707 60.3656 22.1095 60.3303 26.4626C60.3303 29.9676 60.3939 32.4281 60.401 33.3815C60.3656 34.8746 60.3163 36.2205 60.7256 36.6831V36.6551Z" fill="#DF5D34"/>
</g>
<defs>
<clipPath id="clip0_72_189">
<rect width="122" height="90" fill="white"/>
</clipPath>
</defs>
</svg>
