<svg width="191" height="36" viewBox="0 0 191 36" fill="none" xmlns="http://www.w3.org/2000/svg">
<g clip-path="url(#clip0_85_1376)">
<mask id="mask0_85_1376" style="mask-type:luminance" maskUnits="userSpaceOnUse" x="0" y="0" width="191" height="36">
<path d="M191 0H0V36H191V0Z" fill="white"/>
</mask>
<g mask="url(#mask0_85_1376)">
<path d="M101.971 29.9623V6.03809H116.805V11.5948H108.156V29.9623H101.971Z" fill="#ED0E00"/>
<path d="M135.47 29.9623V20.5924H126.28V29.9623H120.095V6.03809H126.28V14.9664H135.47V6.03809H141.655V29.9623H135.47Z" fill="#ED0E00"/>
<path d="M177.551 29.9623V11.5948H170.327V6.03809H191V11.5948H183.741V29.9623H177.551Z" fill="#ED0E00"/>
<path d="M161.224 29.9594V16.3279L151.378 29.9594H146.206V6.04175H152.391V19.5314L162.072 6.04175H167.413V29.9594H161.224Z" fill="#ED0E00"/>
<path d="M66.4255 29.9623V15.7443L60.2495 23.2555L54.0738 15.7443V29.9623H47.8882V6.03809H53.9928L60.2495 14.2644L66.5064 6.03809H72.6108V29.9623H66.4255Z" fill="#ED0E00"/>
<path d="M84.3528 21.5481H90.1014L87.2271 14.0468L84.3528 21.5481ZM93.3253 29.9591L92.0306 26.6071H82.4141L81.1193 29.9591H74.9015L84.4145 6.03809H90.1338L99.65 29.9591H93.3253Z" fill="#ED0E00"/>
<path d="M-0.00634766 10.8992C-0.000358521 8.00987 1.12976 5.24065 3.13657 3.19788C5.14338 1.1551 7.86335 0.00522473 10.701 0H35.4204V5.54023H10.7074C9.31313 5.54629 7.97759 6.11275 6.99135 7.11635C6.00512 8.11993 5.44799 9.47948 5.44118 10.8992L5.4088 20.2C5.29599 21.3916 4.79874 22.5116 3.99472 23.3852C3.19073 24.2587 2.12526 24.8364 0.964691 25.0283L-0.00634766 25.1799V10.8992Z" fill="#ED0E00"/>
<path d="M-0.00524902 36.0001V30.4597H24.7142C26.1089 30.4529 27.4443 29.8855 28.4305 28.8815C29.4165 27.8773 29.9736 26.5174 29.9804 25.0975V16.2713C29.9872 14.9909 30.441 13.7545 31.2604 12.7831C32.0797 11.8117 33.2115 11.1685 34.4536 10.9684L35.4247 10.8201V25.0975C35.4187 27.9871 34.2887 30.7567 32.2819 32.8001C30.2752 34.8433 27.5553 35.9938 24.7174 36.0001H-0.00524902Z" fill="#ED0E00"/>
<path d="M20.9348 25.1995V18.0378L17.7109 21.9564L14.4903 18.0378V25.1995H10.2209V11.1067H14.2637L17.7109 15.6384L21.1581 11.1067H25.2009V25.1995H20.9348Z" fill="#ED0E00"/>
</g>
</g>
<defs>
<clipPath id="clip0_85_1376">
<rect width="191" height="36" fill="white"/>
</clipPath>
</defs>
</svg>
