<svg width="102" height="43" viewBox="0 0 102 43" fill="none" xmlns="http://www.w3.org/2000/svg">
<g clip-path="url(#clip0_69_143)">
<rect width="102" height="43" fill="#E21C2A"/>
<path d="M60.7928 13.0007V13.8115H67.6386C68.2094 13.7464 68.7829 13.9078 69.2389 14.2619C69.5883 14.7239 69.7476 15.305 69.6834 15.8835V22.7211C69.7476 23.2995 69.5883 23.8806 69.2389 24.3426C68.7782 24.6869 68.2085 24.8473 67.6386 24.7931H64.3491C63.8156 24.7931 63.0155 24.7931 62.7487 24.1625C62.6619 23.8774 62.6576 23.5731 62.7364 23.2857C62.8152 22.9982 62.9738 22.7397 63.1933 22.5409L67.6386 16.5952H60.7928L58.0189 20.2977C57.5505 20.794 57.2407 21.422 57.1299 22.0995C57.186 22.7937 57.5045 23.4392 58.0189 23.9012L58.7302 24.8021C59.3069 25.7025 60.0642 26.4699 60.9528 27.0543C62.0603 27.4675 63.2457 27.6215 64.4202 27.5047H67.3541C69.0433 27.5047 71.6216 27.5047 73.3108 25.793C75 24.0814 75 21.5589 75 20.6581V17.8654C75 16.9645 75 14.4421 73.3108 12.7304C71.6216 11.0188 69.0611 11.0098 67.3719 11.0098H62.6598C62.1176 10.9572 61.5762 11.1185 61.1484 11.4602C60.8717 11.9225 60.7471 12.462 60.7928 13.0007ZM52.6135 16.5141H59.4592L51.2799 27.5047H44.4341L52.6135 16.5141ZM26.4751 17.0546C26.2993 17.2464 26.1669 17.4747 26.0871 17.7236C26.0072 17.9726 25.9819 18.2361 26.0128 18.496V19.3068H28.7688V33H34.1921V19.3068H39.5265C40.0599 19.3068 40.8601 19.3068 41.1268 19.9374C41.2136 20.2224 41.2179 20.5268 41.1391 20.8142C41.0603 21.1016 40.9017 21.3601 40.6823 21.5589L36.237 27.5047H43.0827L45.8388 23.8111C46.3072 23.3148 46.6171 22.6869 46.7279 22.0094C46.6717 21.3152 46.3532 20.6697 45.8388 20.2076L45.1276 19.3068C44.5509 18.4063 43.7936 17.639 42.9049 17.0546C41.7975 16.6414 40.6121 16.4874 39.4376 16.6042H27.9865C27.7182 16.5291 27.4345 16.5315 27.1674 16.611C26.9003 16.6906 26.6605 16.8443 26.4751 17.0546Z" fill="white"/>
</g>
<defs>
<clipPath id="clip0_69_143">
<rect width="102" height="43" fill="white"/>
</clipPath>
</defs>
</svg>
