<svg width="197" height="52" viewBox="0 0 197 52" fill="none" xmlns="http://www.w3.org/2000/svg">
<path fill-rule="evenodd" clip-rule="evenodd" d="M7.39111 16.8238C8.07855 16.6722 8.9021 16.5952 9.83828 16.5952C10.8013 16.5952 11.8844 16.6776 13.058 16.8405C16.8808 17.3711 21.4874 18.6449 26.7496 20.6273C26.8383 20.6606 27.3491 20.8566 27.4164 20.8831C27.7415 21.0103 28.0628 21.1379 28.3805 21.2657L28.87 24.6539C28.0579 24.3097 27.2141 23.9661 26.3391 23.6236C26.2822 23.6012 25.782 23.4095 25.7077 23.3816C20.5252 21.4291 16.1231 20.2379 12.6515 19.7561C11.4854 19.594 10.5598 19.5388 9.83828 19.5388C8.94449 19.5388 8.3645 19.624 8.02927 19.698C7.85701 19.74 7.51382 19.8436 7.40298 20.1296C7.29261 20.4161 7.47647 20.7223 7.57756 20.8711C8.21028 21.7621 9.43248 22.8561 11.0196 23.9497C13.908 25.9405 17.9961 27.9345 23.1407 29.9618C23.1997 29.9849 23.8328 30.2283 23.8959 30.2514C25.4569 30.8358 26.9447 31.358 28.3569 31.8149L28.0494 34.8085C26.435 34.2991 24.708 33.6997 22.8591 33.0079C22.7819 32.979 22.1296 32.7287 22.0573 32.6998C16.5065 30.5129 12.3474 28.4427 9.34234 26.3718C8.02383 25.4631 6.22978 24.066 5.16944 22.5719L5.15281 22.5487L5.1368 22.5253C4.90879 22.1901 4.73937 21.8557 4.61849 21.5024C4.33968 20.6873 4.35024 19.8469 4.64999 19.0715C4.94973 18.2952 5.50787 17.6643 6.26446 17.2461C6.5914 17.0659 6.94185 16.9318 7.33539 16.8373L7.36318 16.8304L7.39111 16.8238Z" fill="#64CCE2"/>
<path fill-rule="evenodd" clip-rule="evenodd" d="M36.497 16.8405C37.6706 16.6776 38.7541 16.5952 39.7171 16.5952C40.6535 16.5952 41.4764 16.6722 42.1643 16.8238L42.1921 16.8304L42.2196 16.8373C42.6135 16.9318 42.9635 17.0659 43.2904 17.2461C44.0474 17.6643 44.6059 18.2952 44.9054 19.0715C45.2047 19.8469 45.2153 20.6873 44.9369 21.5024C44.816 21.8557 44.6462 22.1905 44.4182 22.5256L44.4022 22.5487L44.3859 22.5719C43.3256 24.066 41.531 25.4631 40.2126 26.3718C37.2076 28.4427 33.0488 30.5129 27.4984 32.6998C27.4254 32.7287 26.7727 32.979 26.6959 33.0079C24.7389 33.7403 22.9185 34.369 21.2234 34.8971L20.7219 31.9675C22.2747 31.4754 23.9217 30.9019 25.6595 30.2514C25.7225 30.2283 26.3556 29.9849 26.4146 29.9618C31.5591 27.9345 35.6474 25.9405 38.5354 23.9497C40.1225 22.8561 41.3454 21.7621 41.9778 20.8711C42.0784 20.7223 42.2624 20.4161 42.152 20.1296C42.0416 19.8436 41.698 19.74 41.5257 19.698C41.1905 19.624 40.6105 19.5388 39.7171 19.5388C38.9956 19.5388 38.0696 19.594 36.9035 19.7561C33.4319 20.2379 29.0298 21.4291 23.8472 23.3816C23.7734 23.4095 23.2727 23.6012 23.2163 23.6236C22.1464 24.0423 21.1234 24.4627 20.1478 24.8837L19.6348 21.9004C20.4431 21.5591 21.278 21.2199 22.1389 20.8831C22.2066 20.8566 22.717 20.6606 22.8051 20.6273C28.0676 18.6449 32.6744 17.3711 36.497 16.8405Z" fill="#EF3148"/>
<path d="M26.7683 26.807C26.7683 27.9042 25.877 28.7938 24.7772 28.7938C23.6775 28.7938 22.7861 27.9042 22.7861 26.807C22.7861 25.7097 23.6775 24.8206 24.7772 24.8206C25.877 24.8206 26.7683 25.7097 26.7683 26.807Z" fill="#EF3148"/>
<path d="M42.1517 33.4825C42.0416 33.7686 41.6988 33.8728 41.5242 33.9152C41.0048 34.0307 40.3499 34.0885 39.5944 34.0885C38.7955 34.0885 37.8839 34.0242 36.9014 33.8949C34.6649 33.6016 32.0562 32.9743 29.1056 32.0511C28.7866 32.1823 28.4597 32.314 28.1303 32.4459C27.9203 35.6376 27.5402 38.3817 27.0142 40.6304C26.4147 43.191 25.7501 44.4386 25.4068 44.9542C25.3058 45.1002 25.0858 45.3823 24.7781 45.3823C24.4707 45.3823 24.2498 45.1006 24.1478 44.9535C23.5415 44.0445 22.9574 42.5124 22.505 40.6426C21.921 38.229 21.5521 35.2525 21.3701 31.759C18.0371 32.845 15.1207 33.5716 12.6536 33.8949C11.6707 34.0242 10.7595 34.0885 9.9606 34.0885C9.2051 34.0885 8.54983 34.0307 8.03066 33.9152C7.85622 33.8728 7.51375 33.7686 7.40298 33.4825C7.29254 33.196 7.47714 32.8894 7.5771 32.7431C7.93654 32.2382 8.86443 31.1713 11.0444 29.6928C13.5786 27.9742 17.005 26.1818 21.272 24.4078C21.3904 19.793 21.7835 15.9534 22.505 12.9713C22.9574 11.1015 23.5415 9.56976 24.1478 8.66036C24.2498 8.51329 24.4707 8.23156 24.7781 8.23156C25.0858 8.23156 25.3058 8.51403 25.4068 8.65996C25.7501 9.17543 26.4147 10.4229 27.0142 12.9839C27.7111 15.9614 28.1559 19.7959 28.2815 24.4073C32.5493 26.1814 35.9765 27.9739 38.5105 29.6928C40.6906 31.1713 41.6184 32.2382 41.9775 32.7431C42.0774 32.8894 42.2624 33.196 42.1517 33.4825ZM44.9347 32.1057C44.8139 31.7532 44.6441 31.4198 44.416 31.0857L44.3997 31.0618L44.3831 31.0388C43.8045 30.2254 42.6034 28.9089 40.1697 27.258C37.7728 25.6328 34.7482 24.014 31.1607 22.4357C30.9735 18.529 30.5467 15.1311 29.8871 12.3142C29.2181 9.45489 28.4187 7.86363 27.8656 7.03249L27.8497 7.00869L27.8337 6.98489C27.6031 6.65259 27.3519 6.37484 27.0656 6.13537C26.4031 5.58099 25.6121 5.28809 24.7781 5.28809C23.9457 5.28809 23.1559 5.58027 22.4934 6.13251C22.2063 6.37197 21.9544 6.65044 21.7231 6.98269L21.707 7.00623L21.6912 7.02963C20.6743 8.55416 20.0128 10.727 19.6368 12.2807C18.9787 15.0014 18.5674 18.3379 18.3878 22.4383C14.8025 24.0162 11.7808 25.6335 9.38572 27.258C6.95121 28.9089 5.75041 30.2254 5.17154 31.0388L5.15492 31.0618L5.13902 31.0857C4.9109 31.4198 4.74117 31.7532 4.62018 32.106C4.33963 32.9223 4.34979 33.7638 4.64953 34.5402C4.94887 35.3154 5.50608 35.946 6.26083 36.3638C6.58776 36.5452 6.93854 36.6795 7.33307 36.7756L7.36066 36.782L7.38846 36.7886C8.11576 36.95 8.98097 37.0324 9.9606 37.0324C10.897 37.0324 11.9328 36.9586 13.038 36.8135C14.7387 36.5907 16.6118 36.2006 18.705 35.6324C18.9254 37.7858 19.2342 39.6696 19.6368 41.3335C20.0128 42.8876 20.6743 45.0597 21.6912 46.5842L21.707 46.6078L21.7231 46.6312C21.9544 46.9642 22.2063 47.2419 22.4934 47.4814C23.1559 48.0343 23.9457 48.3262 24.7781 48.3262C25.6121 48.3262 26.4031 48.0333 27.0656 47.4785C27.3519 47.239 27.6031 46.9613 27.8337 46.629L27.8497 46.6052L27.8656 46.5814C28.4187 45.7503 29.2181 44.1594 29.8871 41.2996C30.2809 39.618 30.593 37.7182 30.82 35.6242C32.9251 36.197 34.8079 36.5896 36.5165 36.8135C37.6222 36.9586 38.6576 37.0324 39.5944 37.0324C40.5741 37.0324 41.4395 36.95 42.1665 36.7886L42.194 36.782L42.2219 36.7756C42.6164 36.6799 42.9669 36.5452 43.2941 36.3638C44.0493 35.946 44.6061 35.3154 44.9054 34.5402C45.2052 33.7638 45.215 32.9223 44.9347 32.1057Z" fill="#3065B4"/>
<path d="M53.8086 33.7681H54.522L56.2254 36.9999L57.9293 33.7681H58.6135V38.8519H57.9293V35.0021L56.4657 37.7623H55.956L54.4931 35.0021V38.8519H53.8086V33.7681Z" fill="#0F234D"/>
<path d="M61.4618 35.5109C61.3108 35.5109 61.166 35.5315 61.0248 35.573C60.8836 35.6141 60.7591 35.6796 60.6501 35.7691C60.5404 35.8587 60.4518 35.971 60.3845 36.1064C60.316 36.2422 60.282 36.4041 60.282 36.5933H62.6043C62.6 36.3946 62.5666 36.2264 62.5066 36.088C62.4453 35.9504 62.3642 35.8392 62.2622 35.7543C62.1607 35.6694 62.0403 35.6077 61.9024 35.5694C61.7638 35.5304 61.6167 35.5109 61.4618 35.5109ZM61.498 38.9246C61.2508 38.9246 61.015 38.8856 60.7921 38.8084C60.5687 38.731 60.3718 38.6112 60.202 38.4487C60.0322 38.2865 59.8964 38.0824 59.7948 37.835C59.6923 37.5883 59.6416 37.2976 59.6416 36.9635V36.8183C59.6416 36.4987 59.6901 36.2213 59.7875 35.9869C59.8845 35.7518 60.0137 35.5561 60.1767 35.3985C60.3395 35.2415 60.5286 35.1233 60.7447 35.046C60.96 34.9692 61.1874 34.9302 61.4252 34.9302C61.9929 34.9302 62.4323 35.0847 62.7429 35.3949C63.0535 35.7048 63.2085 36.1433 63.2085 36.7093V37.1159H60.282C60.282 37.3442 60.3186 37.5348 60.3917 37.6898C60.4641 37.8452 60.5589 37.9705 60.6755 38.068C60.7921 38.1644 60.9217 38.2348 61.0646 38.2781C61.208 38.3218 61.3521 38.3431 61.498 38.3431C61.789 38.3431 62.0138 38.2955 62.1717 38.198C62.3292 38.1015 62.4417 37.9683 62.5102 37.7993H63.1361C63.0974 37.9828 63.0278 38.1449 62.9282 38.2854C62.8287 38.4262 62.7078 38.5433 62.5645 38.6376C62.4211 38.7322 62.2586 38.8036 62.0768 38.852C61.8948 38.9001 61.7017 38.9246 61.498 38.9246Z" fill="#0F234D"/>
<path d="M65.0634 36.8692L63.6802 35.0022H64.3937L65.5732 36.6149H66.0173V35.0022H66.6583V36.6149H67.0941L68.2953 35.0022H68.9944L67.6114 36.8471L69.0674 38.8519H68.3099L67.0941 37.1667H66.6583V38.8519H66.0173V37.1667H65.5732L64.3499 38.8519H63.6074L65.0634 36.8692Z" fill="#0F234D"/>
<path d="M72.5431 38.2853V35.5693H71.1163V36.1645C71.1163 36.3679 71.109 36.5701 71.0944 36.7712C71.0798 36.9724 71.0579 37.1631 71.0288 37.3451C71.0002 37.5265 70.9651 37.6981 70.924 37.8605C70.8828 38.0227 70.8351 38.1643 70.7813 38.2853H72.5431ZM69.6531 38.2853H70.1267C70.1797 38.2127 70.2288 38.1014 70.2719 37.9515C70.3157 37.8013 70.3548 37.6247 70.3887 37.421C70.4218 37.2177 70.4477 36.9959 70.4643 36.7568C70.4822 36.517 70.4902 36.2711 70.4902 36.0193V35.0022H73.1838V38.2853H73.7297V39.7595H73.1182V38.8519H70.2646V39.7595H69.6531V38.2853Z" fill="#0F234D"/>
<path d="M74.9826 40.3772C74.909 40.3772 74.8367 40.3699 74.7644 40.3555V39.7744C74.8367 39.7889 74.909 39.7961 74.9826 39.7961C75.0549 39.7961 75.1179 39.7841 75.171 39.7595C75.2247 39.7357 75.2758 39.6895 75.3242 39.6219C75.3726 39.5541 75.425 39.4583 75.4807 39.3352C75.5364 39.2113 75.6008 39.0506 75.6738 38.8519L74.0354 35.0022H74.7485L76.0014 38.1257L77.137 35.0022H77.8215L76.3649 38.8519C76.2641 39.1231 76.1659 39.3555 76.0737 39.5491C75.9815 39.7427 75.884 39.9015 75.7792 40.025C75.6751 40.1486 75.5597 40.2382 75.4336 40.2933C75.3069 40.3493 75.157 40.3772 74.9826 40.3772Z" fill="#0F234D"/>
<path d="M78.6011 35.0022H79.2412V36.6076H81.2364V35.0022H81.8771V38.8519H81.2364V37.1743H79.2412V38.8519H78.6011V35.0022Z" fill="#0F234D"/>
<path d="M84.296 38.3431C84.4459 38.3431 84.5885 38.3233 84.7219 38.2821C84.8552 38.241 84.9726 38.18 85.0754 38.1005C85.1769 38.0203 85.2572 37.9224 85.3155 37.8062C85.3732 37.6898 85.4031 37.5544 85.4031 37.3994V37.1379H84.2595C84.0214 37.1379 83.835 37.1852 83.6991 37.2795C83.5631 37.3741 83.4948 37.523 83.4948 37.7263C83.4948 37.9058 83.5598 38.0532 83.6878 38.1691C83.8165 38.2854 84.0194 38.3431 84.296 38.3431ZM84.1574 38.9246C83.9445 38.9246 83.7554 38.8946 83.5936 38.834C83.4311 38.7738 83.2938 38.6896 83.1817 38.5833C83.0703 38.4768 82.986 38.3507 82.9276 38.2056C82.8686 38.06 82.8401 37.9004 82.8401 37.7263C82.8401 37.3442 82.9522 37.0679 83.1777 36.8985C83.4039 36.7287 83.7276 36.6438 84.1501 36.6438H85.4031V36.3824C85.4031 36.0533 85.3288 35.8258 85.1809 35.6998C85.0323 35.5741 84.8101 35.5109 84.5143 35.5109C84.2377 35.5109 84.036 35.563 83.9107 35.667C83.784 35.7713 83.7137 35.889 83.6991 36.0194H83.0583C83.0683 35.8644 83.1107 35.7207 83.1857 35.5874C83.2606 35.4538 83.3628 35.3389 83.4921 35.2425C83.6195 35.1453 83.774 35.0692 83.9538 35.0136C84.1335 34.958 84.3325 34.9302 84.5507 34.9302C85.0071 34.9302 85.3699 35.0377 85.6392 35.2534C85.9085 35.469 86.0432 35.8207 86.0432 36.3102V37.8715C86.0432 38.0748 86.0438 38.2528 86.0471 38.4053C86.0491 38.5577 86.0597 38.7069 86.0796 38.852H85.5185C85.5046 38.7404 85.4946 38.6353 85.49 38.5364C85.4847 38.4367 85.4827 38.3244 85.4827 38.198C85.3805 38.402 85.216 38.5736 84.9872 38.714C84.759 38.8546 84.4824 38.9246 84.1574 38.9246Z" fill="#0F234D"/>
<path d="M89.0042 38.358C89.1587 38.358 89.3047 38.328 89.44 38.2677C89.5759 38.207 89.694 38.1185 89.7942 38.0022C89.893 37.8859 89.9706 37.7408 90.0263 37.5663C90.0827 37.3922 90.1106 37.1914 90.1106 36.9635V36.8183C90.1106 36.6107 90.0827 36.424 90.0263 36.2589C89.9706 36.0945 89.893 35.9554 89.7942 35.8417C89.694 35.7276 89.5759 35.6416 89.44 35.5838C89.3047 35.5256 89.1587 35.4964 89.0042 35.4964C88.8291 35.4964 88.6692 35.5242 88.5233 35.5798C88.378 35.6358 88.254 35.7131 88.1525 35.8124C88.0497 35.9118 87.9694 36.0292 87.9117 36.1646C87.8534 36.3 87.8242 36.4456 87.8242 36.6006V37.1816C87.8242 37.3557 87.8534 37.5157 87.9117 37.6609C87.9694 37.8062 88.0497 37.9296 88.1525 38.0311C88.254 38.133 88.378 38.2128 88.5233 38.271C88.6692 38.3287 88.8291 38.358 89.0042 38.358ZM87.1841 35.0023H87.781V35.729C87.9117 35.4722 88.0948 35.275 88.3303 35.137C88.5657 34.9992 88.8383 34.9302 89.1494 34.9302C89.635 34.9302 90.023 35.0887 90.3142 35.4058C90.6054 35.7228 90.7506 36.1935 90.7506 36.8183V36.9635C90.7506 37.2929 90.7122 37.5797 90.6339 37.8242C90.557 38.0691 90.4475 38.272 90.3069 38.4342C90.1656 38.5967 89.9971 38.7188 89.8008 38.8012C89.6045 38.8838 89.3869 38.9246 89.1494 38.9246C88.8191 38.9246 88.5438 38.852 88.323 38.7069C88.1021 38.5617 87.9363 38.38 87.8242 38.1622V40.3043H87.1841V35.0023Z" fill="#0F234D"/>
<path d="M93.3554 38.3431C93.5006 38.3431 93.6459 38.3178 93.7918 38.2677C93.9371 38.2168 94.0664 38.1365 94.1778 38.0275C94.2893 37.9192 94.3801 37.7772 94.4511 37.6027C94.5208 37.4284 94.5559 37.2152 94.5559 36.9635V36.8183C94.5559 36.5861 94.5208 36.3874 94.4511 36.2228C94.3801 36.058 94.2893 35.9226 94.1778 35.8157C94.0664 35.7098 93.9371 35.6322 93.7918 35.5838C93.6459 35.5351 93.5006 35.5109 93.3554 35.5109C93.2094 35.5109 93.0642 35.5351 92.9182 35.5838C92.7723 35.6322 92.6443 35.7098 92.5322 35.8157C92.4208 35.9226 92.3299 36.058 92.2596 36.2228C92.1893 36.3874 92.1535 36.5861 92.1535 36.8183V36.9635C92.1535 37.2152 92.1893 37.4284 92.2596 37.6027C92.3299 37.7772 92.4208 37.9192 92.5322 38.0275C92.6443 38.1365 92.7723 38.2168 92.9182 38.2677C93.0642 38.3178 93.2094 38.3431 93.3554 38.3431ZM93.3554 38.9246C93.1073 38.9246 92.8725 38.8849 92.6489 38.8048C92.4254 38.7249 92.2291 38.6039 92.0599 38.4417C91.8895 38.2796 91.7535 38.0748 91.6513 37.8282C91.5499 37.5807 91.4988 37.2929 91.4988 36.9635V36.8183C91.4988 36.5084 91.5499 36.235 91.6513 35.9978C91.7535 35.7604 91.8895 35.563 92.0599 35.4058C92.2291 35.2486 92.4254 35.1299 92.6489 35.0497C92.8725 34.9702 93.1073 34.9302 93.3554 34.9302C93.6028 34.9302 93.8382 34.9702 94.0611 35.0497C94.2846 35.1299 94.481 35.2486 94.6508 35.4058C94.8206 35.563 94.9566 35.7604 95.0587 35.9978C95.1608 36.235 95.2113 36.5084 95.2113 36.8183V36.9635C95.2113 37.2929 95.1608 37.5807 95.0587 37.8282C94.9566 38.0748 94.8206 38.2796 94.6508 38.4417C94.481 38.6039 94.2846 38.7249 94.0611 38.8048C93.8382 38.8849 93.6028 38.9246 93.3554 38.9246Z" fill="#0F234D"/>
<path d="M98.5776 38.2853V35.5693H97.1508V36.1645C97.1508 36.3679 97.1442 36.5701 97.1296 36.7712C97.115 36.9724 97.0931 37.1631 97.0639 37.3451C97.0347 37.5265 96.9996 37.6981 96.9584 37.8605C96.9173 38.0227 96.8696 38.1643 96.8165 38.2853H98.5776ZM95.6882 38.2853H96.1612C96.2142 38.2127 96.2633 38.1014 96.3071 37.9515C96.3509 37.8013 96.3893 37.6247 96.4232 37.421C96.4577 37.2177 96.4822 36.9959 96.5001 36.7568C96.5167 36.517 96.5253 36.2711 96.5253 36.0193V35.0022H99.219V38.2853H99.7649V39.7595H99.1533V38.8519H96.2998V39.7595H95.6882V38.2853Z" fill="#0F234D"/>
<path d="M100.583 35.0022H101.223V36.6076H103.218V35.0022H103.859V38.8519H103.218V37.1743H101.223V38.8519H100.583V35.0022Z" fill="#0F234D"/>
<path d="M108.472 35.0022H109.113V38.8519H108.472V35.0022ZM106.419 38.2853C106.72 38.2853 106.931 38.2321 107.053 38.1257C107.174 38.0191 107.235 37.8617 107.235 37.6536C107.235 37.4452 107.174 37.2881 107.053 37.1815C106.931 37.075 106.72 37.0215 106.419 37.0215H105.677V38.2853H106.419ZM105.036 35.0022H105.677V36.4553H106.456C106.941 36.4553 107.299 36.5617 107.529 36.7749C107.76 36.9879 107.875 37.283 107.875 37.6608C107.875 38.0289 107.76 38.3196 107.529 38.5327C107.299 38.7454 106.941 38.8519 106.456 38.8519H105.036V35.0022Z" fill="#0F234D"/>
<path d="M111.929 34.5305C111.55 34.5305 111.274 34.4492 111.099 34.287C110.924 34.1248 110.837 33.8912 110.837 33.5864H111.463C111.463 33.9158 111.618 34.0801 111.929 34.0801C112.249 34.0801 112.409 33.9158 112.409 33.5864H113.021C113.021 33.8912 112.933 34.1248 112.759 34.287C112.584 34.4492 112.307 34.5305 111.929 34.5305ZM110.291 35.0022H110.931V37.9074L112.926 35.0022H113.567V38.8519H112.926V35.9467L110.931 38.8519H110.291V35.0022Z" fill="#0F234D"/>
<path d="M117.789 38.3431C117.94 38.3431 118.081 38.3233 118.215 38.2821C118.349 38.241 118.466 38.18 118.568 38.1005C118.67 38.0203 118.75 37.9224 118.808 37.8062C118.867 37.6898 118.896 37.5544 118.896 37.3994V37.1379H117.753C117.515 37.1379 117.328 37.1852 117.192 37.2795C117.056 37.3741 116.988 37.523 116.988 37.7263C116.988 37.9058 117.052 38.0532 117.181 38.1691C117.31 38.2854 117.513 38.3431 117.789 38.3431ZM117.651 38.9246C117.437 38.9246 117.249 38.8946 117.086 38.834C116.924 38.7738 116.787 38.6896 116.675 38.5833C116.564 38.4768 116.479 38.3507 116.42 38.2056C116.362 38.06 116.333 37.9004 116.333 37.7263C116.333 37.3442 116.446 37.0679 116.672 36.8985C116.897 36.7287 117.221 36.6438 117.643 36.6438H118.896V36.3824C118.896 36.0533 118.821 35.8258 118.674 35.6998C118.526 35.5741 118.303 35.5109 118.008 35.5109C117.731 35.5109 117.529 35.563 117.403 35.667C117.277 35.7713 117.207 35.889 117.192 36.0194H116.552C116.561 35.8644 116.603 35.7207 116.678 35.5874C116.754 35.4538 116.856 35.3389 116.984 35.2425C117.113 35.1453 117.267 35.0692 117.447 35.0136C117.627 34.958 117.825 34.9302 118.044 34.9302C118.5 34.9302 118.863 35.0377 119.132 35.2534C119.402 35.469 119.537 35.8207 119.537 36.3102V37.8715C119.537 38.0748 119.537 38.2528 119.54 38.4053C119.542 38.5577 119.553 38.7069 119.573 38.852H119.013C118.998 38.7404 118.987 38.6353 118.983 38.5364C118.978 38.4367 118.976 38.3244 118.976 38.198C118.874 38.402 118.709 38.5736 118.481 38.714C118.252 38.8546 117.976 38.9246 117.651 38.9246Z" fill="#0F234D"/>
<path d="M121.994 38.9246C121.591 38.9246 121.246 38.8145 120.96 38.5942C120.674 38.3738 120.484 38.0724 120.392 37.6898H121.047C121.115 37.8932 121.23 38.0532 121.394 38.1691C121.556 38.2854 121.756 38.3431 121.994 38.3431C122.139 38.3431 122.274 38.3218 122.398 38.2781C122.521 38.2348 122.631 38.167 122.725 38.0748C122.82 37.9828 122.899 37.8628 122.962 37.7152C123.025 37.5677 123.064 37.3875 123.078 37.1744H121.557V36.6077H123.078C123.044 36.2206 122.928 35.9407 122.729 35.7691C122.53 35.5972 122.285 35.5109 121.994 35.5109C121.858 35.5109 121.739 35.5278 121.637 35.5618C121.534 35.5958 121.446 35.6416 121.371 35.6998C121.296 35.758 121.232 35.8273 121.178 35.9067C121.125 35.9869 121.081 36.0725 121.047 36.1646H120.392C120.426 35.9904 120.487 35.8283 120.574 35.6784C120.661 35.5278 120.771 35.3975 120.905 35.2859C121.039 35.1746 121.197 35.0872 121.379 35.0244C121.56 34.9616 121.766 34.9302 121.994 34.9302C122.241 34.9302 122.47 34.9702 122.681 35.0497C122.893 35.1299 123.077 35.2486 123.235 35.4058C123.392 35.563 123.516 35.7604 123.606 35.9978C123.696 36.235 123.741 36.5084 123.741 36.8183V36.9635C123.741 37.2929 123.697 37.5807 123.61 37.8282C123.523 38.0748 123.403 38.2796 123.25 38.4417C123.096 38.6039 122.912 38.7249 122.696 38.8048C122.481 38.8849 122.245 38.9246 121.994 38.9246Z" fill="#0F234D"/>
<path d="M126.526 38.358C126.682 38.358 126.828 38.328 126.963 38.2677C127.099 38.207 127.216 38.1185 127.316 38.0022C127.416 37.8859 127.493 37.7408 127.549 37.5663C127.605 37.3922 127.633 37.1914 127.633 36.9635V36.8183C127.633 36.6107 127.605 36.424 127.549 36.2589C127.493 36.0945 127.416 35.9554 127.316 35.8417C127.216 35.7276 127.099 35.6416 126.963 35.5838C126.828 35.5256 126.682 35.4964 126.526 35.4964C126.351 35.4964 126.191 35.5242 126.045 35.5798C125.901 35.6358 125.776 35.7131 125.675 35.8124C125.573 35.9118 125.492 36.0292 125.435 36.1646C125.376 36.3 125.347 36.4456 125.347 36.6006V37.1816C125.347 37.3557 125.376 37.5157 125.435 37.6609C125.492 37.8062 125.573 37.9296 125.675 38.0311C125.776 38.133 125.901 38.2128 126.045 38.271C126.191 38.3287 126.351 38.358 126.526 38.358ZM124.706 35.0023H125.304V35.729C125.435 35.4722 125.617 35.275 125.852 35.137C126.089 34.9992 126.361 34.9302 126.672 34.9302C127.157 34.9302 127.545 35.0887 127.836 35.4058C128.128 35.7228 128.274 36.1935 128.274 36.8183V36.9635C128.274 37.2929 128.234 37.5797 128.157 37.8242C128.079 38.0691 127.97 38.272 127.829 38.4342C127.688 38.5967 127.52 38.7188 127.324 38.8012C127.127 38.8838 126.91 38.9246 126.672 38.9246C126.342 38.9246 126.067 38.852 125.846 38.7069C125.624 38.5617 125.458 38.38 125.347 38.1622V40.3043H124.706V35.0023Z" fill="#0F234D"/>
<path d="M130.878 38.3431C131.023 38.3431 131.169 38.3178 131.315 38.2677C131.46 38.2168 131.589 38.1365 131.701 38.0275C131.812 37.9192 131.903 37.7772 131.973 37.6027C132.044 37.4284 132.078 37.2152 132.078 36.9635V36.8183C132.078 36.5861 132.044 36.3874 131.973 36.2228C131.903 36.058 131.812 35.9226 131.701 35.8157C131.589 35.7098 131.46 35.6322 131.315 35.5838C131.169 35.5351 131.023 35.5109 130.878 35.5109C130.732 35.5109 130.586 35.5351 130.441 35.5838C130.295 35.6322 130.167 35.7098 130.055 35.8157C129.944 35.9226 129.853 36.058 129.782 36.2228C129.711 36.3874 129.676 36.5861 129.676 36.8183V36.9635C129.676 37.2152 129.711 37.4284 129.782 37.6027C129.853 37.7772 129.944 37.9192 130.055 38.0275C130.167 38.1365 130.295 38.2168 130.441 38.2677C130.586 38.3178 130.732 38.3431 130.878 38.3431ZM130.878 38.9246C130.63 38.9246 130.395 38.8849 130.172 38.8048C129.948 38.7249 129.752 38.6039 129.582 38.4417C129.412 38.2796 129.276 38.0748 129.174 37.8282C129.072 37.5807 129.021 37.2929 129.021 36.9635V36.8183C129.021 36.5084 129.072 36.235 129.174 35.9978C129.276 35.7604 129.412 35.563 129.582 35.4058C129.752 35.2486 129.948 35.1299 130.172 35.0497C130.395 34.9702 130.63 34.9302 130.878 34.9302C131.126 34.9302 131.36 34.9702 131.584 35.0497C131.807 35.1299 132.003 35.2486 132.174 35.4058C132.343 35.563 132.479 35.7604 132.581 35.9978C132.682 36.235 132.734 36.5084 132.734 36.8183V36.9635C132.734 37.2929 132.682 37.5807 132.581 37.8282C132.479 38.0748 132.343 38.2796 132.174 38.4417C132.003 38.6039 131.807 38.7249 131.584 38.8048C131.36 38.8849 131.126 38.9246 130.878 38.9246Z" fill="#0F234D"/>
<path d="M133.688 35.0022H136.891V38.8519H136.25V35.5693H134.328V38.8519H133.688V35.0022Z" fill="#0F234D"/>
<path d="M139.705 38.3431C139.85 38.3431 139.996 38.3178 140.141 38.2677C140.287 38.2168 140.415 38.1365 140.527 38.0275C140.639 37.9192 140.73 37.7772 140.8 37.6027C140.87 37.4284 140.905 37.2152 140.905 36.9635V36.8183C140.905 36.5861 140.87 36.3874 140.8 36.2228C140.73 36.058 140.639 35.9226 140.527 35.8157C140.415 35.7098 140.287 35.6322 140.141 35.5838C139.996 35.5351 139.85 35.5109 139.705 35.5109C139.559 35.5109 139.413 35.5351 139.268 35.5838C139.122 35.6322 138.994 35.7098 138.882 35.8157C138.77 35.9226 138.679 36.058 138.609 36.2228C138.539 36.3874 138.504 36.5861 138.504 36.8183V36.9635C138.504 37.2152 138.539 37.4284 138.609 37.6027C138.679 37.7772 138.77 37.9192 138.882 38.0275C138.994 38.1365 139.122 38.2168 139.268 38.2677C139.413 38.3178 139.559 38.3431 139.705 38.3431ZM139.705 38.9246C139.457 38.9246 139.221 38.8849 138.998 38.8048C138.776 38.7249 138.579 38.6039 138.409 38.4417C138.238 38.2796 138.102 38.0748 138.002 37.8282C137.899 37.5807 137.848 37.2929 137.848 36.9635V36.8183C137.848 36.5084 137.899 36.235 138.002 35.9978C138.102 35.7604 138.238 35.563 138.409 35.4058C138.579 35.2486 138.776 35.1299 138.998 35.0497C139.221 34.9702 139.457 34.9302 139.705 34.9302C139.952 34.9302 140.188 34.9702 140.411 35.0497C140.634 35.1299 140.831 35.2486 141 35.4058C141.171 35.563 141.307 35.7604 141.408 35.9978C141.51 36.235 141.561 36.5084 141.561 36.8183V36.9635C141.561 37.2929 141.51 37.5807 141.408 37.8282C141.307 38.0748 141.171 38.2796 141 38.4417C140.831 38.6039 140.634 38.7249 140.411 38.8048C140.188 38.8849 139.952 38.9246 139.705 38.9246Z" fill="#0F234D"/>
<path d="M144.335 38.358C144.49 38.358 144.635 38.328 144.771 38.2677C144.907 38.207 145.025 38.1185 145.125 38.0022C145.224 37.8859 145.301 37.7408 145.357 37.5663C145.413 37.3922 145.441 37.1914 145.441 36.9635V36.8183C145.441 36.6107 145.413 36.424 145.357 36.2589C145.301 36.0945 145.224 35.9554 145.125 35.8417C145.025 35.7276 144.907 35.6416 144.771 35.5838C144.635 35.5256 144.49 35.4964 144.335 35.4964C144.16 35.4964 144 35.5242 143.854 35.5798C143.709 35.6358 143.585 35.7131 143.482 35.8124C143.381 35.9118 143.301 36.0292 143.242 36.1646C143.184 36.3 143.155 36.4456 143.155 36.6006V37.1816C143.155 37.3557 143.184 37.5157 143.242 37.6609C143.301 37.8062 143.381 37.9296 143.482 38.0311C143.585 38.133 143.709 38.2128 143.854 38.271C144 38.3287 144.16 38.358 144.335 38.358ZM142.515 35.0023H143.112V35.729C143.242 35.4722 143.425 35.275 143.661 35.137C143.896 34.9992 144.17 34.9302 144.48 34.9302C144.965 34.9302 145.354 35.0887 145.645 35.4058C145.936 35.7228 146.082 36.1935 146.082 36.8183V36.9635C146.082 37.2929 146.043 37.5797 145.965 37.8242C145.887 38.0691 145.778 38.272 145.637 38.4342C145.497 38.5967 145.328 38.7188 145.132 38.8012C144.935 38.8838 144.718 38.9246 144.48 38.9246C144.15 38.9246 143.874 38.852 143.654 38.7069C143.433 38.5617 143.267 38.38 143.155 38.1622V40.3043H142.515V35.0023Z" fill="#0F234D"/>
<path d="M147.929 35.5693H146.61V35.0022H149.886V35.5693H148.569V38.8519H147.929V35.5693Z" fill="#0F234D"/>
<path d="M155.318 36.6148C155.191 36.6971 155.014 36.7723 154.786 36.8399C154.558 36.9081 154.296 36.9417 154 36.9417C153.403 36.9417 152.969 36.8073 152.697 36.5383C152.425 36.2699 152.29 35.8427 152.29 35.2569V33.7681H152.973V35.2569C152.973 35.6393 153.058 35.9139 153.228 36.081C153.398 36.2479 153.68 36.3317 154.073 36.3317C154.374 36.3317 154.625 36.2955 154.827 36.2226C155.028 36.15 155.191 36.0723 155.318 35.9903V33.7681H156.002V38.8519H155.318V36.6148Z" fill="#0F234D"/>
<path d="M158.851 35.5109C158.701 35.5109 158.554 35.5315 158.414 35.573C158.273 35.6141 158.148 35.6796 158.039 35.7691C157.93 35.8587 157.842 35.971 157.773 36.1064C157.706 36.2422 157.672 36.4041 157.672 36.5933H159.994C159.989 36.3946 159.955 36.2264 159.895 36.088C159.835 35.9504 159.753 35.8392 159.651 35.7543C159.55 35.6694 159.429 35.6077 159.291 35.5694C159.153 35.5304 159.006 35.5109 158.851 35.5109ZM158.887 38.9246C158.64 38.9246 158.404 38.8856 158.181 38.8084C157.958 38.731 157.761 38.6112 157.591 38.4487C157.422 38.2865 157.286 38.0824 157.183 37.835C157.081 37.5883 157.031 37.2976 157.031 36.9635V36.8183C157.031 36.4987 157.079 36.2213 157.176 35.9869C157.273 35.7518 157.403 35.5561 157.566 35.3985C157.728 35.2415 157.917 35.1233 158.133 35.046C158.35 34.9692 158.576 34.9302 158.815 34.9302C159.382 34.9302 159.821 35.0847 160.132 35.3949C160.443 35.7048 160.598 36.1433 160.598 36.7093V37.1159H157.672C157.672 37.3442 157.708 37.5348 157.781 37.6898C157.853 37.8452 157.948 37.9705 158.064 38.068C158.181 38.1644 158.311 38.2348 158.454 38.2781C158.597 38.3218 158.741 38.3431 158.887 38.3431C159.178 38.3431 159.403 38.2955 159.561 38.198C159.717 38.1015 159.831 37.9683 159.899 37.7993H160.525C160.486 37.9828 160.417 38.1449 160.318 38.2854C160.218 38.4262 160.097 38.5433 159.953 38.6376C159.81 38.7322 159.648 38.8036 159.466 38.852C159.284 38.9001 159.091 38.9246 158.887 38.9246Z" fill="#0F234D"/>
<path d="M161.395 38.9245C161.322 38.9245 161.25 38.917 161.177 38.9025V38.2636C161.202 38.2683 161.238 38.2709 161.287 38.2709C161.393 38.2709 161.487 38.2373 161.567 38.169C161.647 38.1014 161.711 37.9827 161.76 37.8137C161.808 37.6439 161.844 37.4137 161.868 37.1234C161.893 36.8327 161.905 36.465 161.905 36.0193V35.0022H164.671V38.8519H164.031V35.5693H162.546V36.1645C162.546 36.7019 162.522 37.1475 162.473 37.5009C162.425 37.8548 162.353 38.1365 162.258 38.3471C162.164 38.5576 162.043 38.7068 161.898 38.7938C161.752 38.8813 161.585 38.9245 161.395 38.9245Z" fill="#0F234D"/>
<path d="M166.34 36.1934C166.34 36.3971 166.399 36.552 166.519 36.6582C166.637 36.7648 166.838 36.8182 167.119 36.8182H168.189V35.5693H167.119C166.838 35.5693 166.637 35.6224 166.519 35.7289C166.399 35.8355 166.34 35.9904 166.34 36.1934ZM166.603 37.3267C166.283 37.2541 166.052 37.1223 165.91 36.9309C165.77 36.7395 165.699 36.4939 165.699 36.1934C165.699 35.8156 165.815 35.5231 166.046 35.3151C166.276 35.1069 166.646 35.0022 167.155 35.0022H168.83V38.8519H168.189V37.3849H167.206L166.267 38.8519H165.554L166.603 37.3267Z" fill="#0F234D"/>
<path d="M171.663 38.343C172.003 38.343 172.282 38.226 172.5 37.9912C172.719 37.7561 172.828 37.4137 172.828 36.9633V36.8182C172.828 36.6292 172.799 36.4599 172.741 36.31C172.683 36.16 172.603 36.03 172.5 35.921C172.398 35.8122 172.276 35.7288 172.133 35.6704C171.99 35.6125 171.833 35.5836 171.663 35.5836C171.493 35.5836 171.337 35.6125 171.194 35.6704C171.05 35.7288 170.928 35.8122 170.826 35.921C170.724 36.03 170.645 36.16 170.586 36.31C170.527 36.4599 170.499 36.6292 170.499 36.8182V36.9633C170.499 37.1764 170.528 37.369 170.589 37.5408C170.65 37.7127 170.734 37.8583 170.841 37.9768C170.948 38.0956 171.071 38.1862 171.212 38.2491C171.353 38.3124 171.503 38.343 171.663 38.343ZM171.663 38.9245C171.406 38.9245 171.167 38.8758 170.946 38.7793C170.725 38.6824 170.534 38.5406 170.371 38.3542C170.208 38.1678 170.08 37.9392 169.985 37.668C169.89 37.3964 169.843 37.0893 169.843 36.746V36.6004C169.843 36.1644 169.874 35.7758 169.938 35.4349C170 35.0932 170.109 34.8028 170.262 34.563C170.415 34.3232 170.616 34.1357 170.866 34C171.116 33.8645 171.431 33.7868 171.809 33.768C172.114 33.7532 172.382 33.7399 172.61 33.728C172.837 33.7156 173.032 33.6684 173.192 33.5864V34.2037C173.114 34.2473 172.973 34.2809 172.766 34.3052C172.56 34.3293 172.277 34.3463 171.918 34.356C171.685 34.3608 171.48 34.3896 171.303 34.443C171.126 34.4966 170.976 34.581 170.851 34.6974C170.727 34.8136 170.631 34.965 170.56 35.1513C170.49 35.3378 170.445 35.5664 170.426 35.838C170.542 35.5808 170.722 35.3778 170.964 35.2279C171.207 35.0777 171.489 35.0022 171.809 35.0022C172.056 35.0022 172.282 35.0448 172.486 35.1297C172.69 35.2142 172.865 35.334 173.014 35.489C173.162 35.644 173.277 35.834 173.359 36.059C173.442 36.2843 173.483 36.5371 173.483 36.8182V36.9633C173.483 37.2638 173.438 37.5336 173.345 37.7734C173.253 38.0129 173.126 38.2188 172.966 38.3907C172.806 38.5626 172.615 38.6948 172.392 38.7865C172.168 38.8783 171.925 38.9245 171.663 38.9245Z" fill="#0F234D"/>
<path d="M174.437 35.0022H175.077V37.9075L177.072 35.0022H177.713V38.8519H177.072V35.9467L175.077 38.8519H174.437V35.0022Z" fill="#0F234D"/>
<path d="M178.891 35.0022H179.531V36.6076H181.526V35.0022H182.167V38.8519H181.526V37.1743H179.531V38.8519H178.891V35.0022Z" fill="#0F234D"/>
<path d="M184.883 38.9246C184.635 38.9246 184.404 38.8849 184.191 38.8048C183.977 38.7249 183.793 38.6039 183.638 38.4417C183.483 38.2796 183.36 38.0748 183.27 37.8282C183.181 37.5807 183.136 37.2929 183.136 36.9635V36.8183C183.136 36.5084 183.184 36.235 183.281 35.9978C183.378 35.7604 183.507 35.563 183.667 35.4058C183.828 35.2486 184.013 35.1299 184.224 35.0497C184.434 34.9702 184.655 34.9302 184.883 34.9302C185.111 34.9302 185.315 34.9616 185.498 35.0244C185.679 35.0872 185.837 35.1746 185.971 35.2859C186.104 35.3975 186.214 35.5278 186.299 35.6784C186.383 35.8283 186.446 35.9904 186.484 36.1646H185.829C185.79 36.0725 185.746 35.9869 185.694 35.9067C185.644 35.8273 185.581 35.758 185.505 35.6998C185.43 35.6416 185.341 35.5958 185.239 35.5618C185.138 35.5278 185.019 35.5109 184.883 35.5109C184.742 35.5109 184.606 35.5365 184.475 35.5874C184.344 35.638 184.228 35.7157 184.125 35.8193C184.024 35.9237 183.942 36.058 183.881 36.2228C183.821 36.3874 183.79 36.5861 183.79 36.8183V36.9635C183.79 37.2109 183.821 37.4226 183.881 37.5992C183.942 37.7758 184.024 37.9192 184.125 38.0275C184.228 38.1365 184.344 38.2168 184.475 38.2677C184.606 38.3178 184.742 38.3431 184.883 38.3431C185.12 38.3431 185.321 38.2854 185.484 38.1691C185.646 38.0532 185.761 37.8932 185.829 37.6898H186.484C186.392 38.0724 186.202 38.3738 185.916 38.5942C185.63 38.8145 185.285 38.9246 184.883 38.9246Z" fill="#0F234D"/>
<path d="M187.394 35.0022H188.035V36.6149H188.545L189.986 35.0022H190.743L189.069 36.8471L190.816 38.8519H190.001L188.545 37.1667H188.035V38.8519H187.394V35.0022Z" fill="#0F234D"/>
<path d="M80.0305 22.6502L75.5406 15.143L75.5254 15.1167H71.7976L78.2316 25.6126L78.0943 25.8152C77.8462 26.1804 77.573 26.4542 77.2831 26.6296C76.978 26.812 75.8484 26.9104 75.4537 26.9104C75.0836 26.9104 74.614 26.8232 74.0581 26.6513L73.9719 26.6246L73.1282 29.282L73.2051 29.3139C74.011 29.6408 74.8017 29.8072 75.5545 29.8072C76.4613 29.8072 78.2011 29.5382 79.0554 28.961C79.9151 28.3803 80.6619 27.5279 81.2165 26.4989L88.1101 15.1167H84.5058L80.0305 22.6502Z" fill="#0F234D"/>
<path d="M102.473 15.7538L102.46 15.748C101.525 15.329 100.412 15.1167 99.1533 15.1167H89.3955V29.5035H92.8168V25.6018H99.1533C100.419 25.6018 101.535 25.3912 102.471 24.9759C103.41 24.5591 104.144 23.9469 104.653 23.1592C105.161 22.3708 105.419 21.4375 105.419 20.384C105.419 19.3186 105.161 18.381 104.653 17.5993C104.145 16.8196 103.412 16.2089 102.473 15.7837V15.7538ZM92.8168 18.0429H99.0147C99.9798 18.0429 100.72 18.251 101.217 18.6612C101.709 19.0682 101.958 19.6634 101.958 20.4298C101.958 21.184 101.709 21.7726 101.217 22.179C100.721 22.5892 99.9798 22.798 99.0147 22.798H92.8168V18.0429Z" fill="#0F234D"/>
<path d="M119.456 21.5405C118.967 21.6032 114.86 22.1284 113.735 22.1284C112.774 22.1284 112.033 21.8878 111.532 21.4133C111.032 20.9405 110.779 20.2232 110.779 19.2806V15.1167H107.358V19.6458C107.358 21.3797 107.88 22.7283 108.91 23.6554C109.937 24.5776 111.432 25.0452 113.355 25.0452C114.925 25.0452 118.91 24.4731 119.456 24.3936V29.5035H122.877V15.1167H119.456V21.5405Z" fill="#0F234D"/>
<path d="M188.817 21.5718C189.053 21.35 189.909 20.424 189.795 18.7642C189.674 17.0009 188.353 15.1167 185.007 15.1167H176.237V29.5035H186.116C186.154 29.502 187.062 29.4815 187.694 29.299C188.86 28.9621 190.816 27.9794 190.816 25.181C190.816 22.8826 189.175 21.7838 188.817 21.5718ZM186.513 20.5295C185.902 21.1193 184.84 21.0918 184.828 21.0911H179.537V17.799H184.832C184.843 17.7983 185.884 17.7283 186.497 18.2964C186.794 18.5709 186.944 18.9519 186.944 19.4297C186.944 19.8838 186.798 20.2536 186.513 20.5295ZM179.537 23.5294H185.348C185.359 23.5286 186.477 23.4669 187.127 24.0762C187.434 24.3636 187.589 24.7582 187.589 25.2482C187.589 25.7065 187.441 26.0811 187.15 26.3613C186.505 26.98 185.356 26.9439 185.346 26.9432H179.537V23.5294Z" fill="#0F234D"/>
<path d="M130.913 23.7302L133.365 18.0985L135.819 23.7302H130.913ZM131.26 15.1499L124.726 29.5031H128.45L129.722 26.4882H136.989L138.261 29.5031H142.066L135.512 15.1499H131.26Z" fill="#0F234D"/>
<path d="M140.306 18.1582H146.701V29.5033H150.188V18.1582H156.583V15.1494H140.306V18.1582Z" fill="#0F234D"/>
<path d="M170.102 24.5682C169.74 25.219 169.236 25.7341 168.604 26.1003L168.58 26.1148C167.901 26.5034 166.333 26.6656 165.646 26.6656C164.959 26.6656 163.391 26.5034 162.708 26.1114C162.066 25.7448 161.555 25.2255 161.191 24.5682C160.824 23.9112 160.639 23.1502 160.639 22.3077C160.639 21.4657 160.824 20.7052 161.191 20.0468C161.556 19.3898 162.067 18.8704 162.708 18.5038C163.391 18.1119 164.959 17.9502 165.646 17.9502C166.332 17.9502 167.9 18.1119 168.584 18.5038C169.226 18.8704 169.736 19.3898 170.102 20.0468C170.467 20.7052 170.653 21.465 170.653 22.3077C170.653 23.1496 170.467 23.9105 170.102 24.5682ZM170.404 15.8514C169.184 15.1911 167.083 14.8896 165.646 14.8896C164.209 14.8896 162.104 15.1911 160.879 15.8514C159.693 16.4914 158.752 17.3842 158.082 18.5067C157.411 19.6292 157.071 20.9085 157.071 22.3077C157.071 23.7075 157.411 24.9861 158.082 26.1086C158.703 27.1484 159.558 27.9925 160.619 28.6183L160.753 28.6978L160.879 28.7647C162.103 29.4249 164.208 29.7258 165.646 29.7258C167.084 29.7258 169.185 29.4248 170.404 28.7639C171.58 28.1261 172.521 27.2332 173.2 26.1093C173.877 24.9868 174.222 23.7075 174.222 22.3077C174.222 20.9085 173.877 19.6292 173.2 18.506C172.523 17.3842 171.582 16.4914 170.404 15.8514Z" fill="#0F234D"/>
<path d="M70.394 15.1365H66.4972L62.8148 20.8234H57.2518V15.1365H53.7446V29.4904H57.2518V23.8229H62.8621L66.5045 29.4904H70.5287L65.7131 22.0735L70.394 15.1365Z" fill="#0F234D"/>
</svg>
