<svg width="81" height="81" viewBox="0 0 81 81" fill="none" xmlns="http://www.w3.org/2000/svg">
<g clip-path="url(#clip0_66_14)">
<path fill-rule="evenodd" clip-rule="evenodd" d="M38.1492 56.8198L38.1583 43.3886C39.4496 43.3704 42.6053 43.3886 43.5601 43.3886V56.7654L60.1111 56.711L60.1202 38.6999L48.5436 38.6636V33.594H53.4544L53.5271 18.1857L27.9458 18.1947V33.5577L33.093 33.603L33.1384 38.6545L21.4072 38.6636L21.3799 56.6566L38.1492 56.8198ZM32.9475 23.5545V28.7874L38.1583 28.7964C38.2674 30.4833 38.2583 37.6841 38.2856 38.6726L43.451 38.6545C43.4601 35.9791 43.451 31.9253 43.5146 28.8781L48.5345 28.8871L48.5436 22.7474H32.9566L32.9475 23.5545ZM26.4907 51.8046L33.0657 51.8681L33.0566 43.5337L26.4998 43.5246L26.4907 51.8046ZM48.6346 51.4691L55.2913 51.4872L55.2731 43.4339H48.6527L48.6346 51.4691Z" fill="#003082"/>
<path fill-rule="evenodd" clip-rule="evenodd" d="M38.3311 79.7555C38.7221 79.3292 39.777 78.2682 40.3772 77.987C41.0138 78.2772 41.9687 79.302 42.4052 79.7645C44.8969 82.449 52.8087 80.1001 54.8275 78.7579C54.4729 78.5674 49.7167 77.4791 48.9256 77.3159C46.0519 76.7264 45.097 76.9441 42.3142 77.0801C47.1159 74.305 48.5163 69.6072 50.8444 67.6573C48.7982 67.6573 43.2964 70.7136 41.8232 72.473C41.4776 72.8721 41.1593 73.2802 40.8956 73.8334C40.5955 74.441 40.6591 75.0305 40.3772 75.62C40.0862 75.0849 40.1135 74.3322 39.8134 73.7427C39.1586 72.4277 37.5945 71.2034 36.3213 70.3871C35.1027 69.6072 31.6106 67.748 29.8919 67.6483C30.4557 68.1471 31.3287 69.3442 31.9016 70.106C33.1021 71.6931 34.448 73.9966 35.8757 75.2663C36.676 75.9827 37.3762 76.4362 38.4402 77.0892C35.7029 76.8806 34.5662 76.7445 31.8198 77.3068C30.9468 77.4973 26.3543 78.5221 25.8996 78.7579C27.7548 80.1182 35.8757 82.4399 38.3311 79.7555Z" fill="#003082"/>
<path fill-rule="evenodd" clip-rule="evenodd" d="M19.0155 69.5981C16.933 68.0383 16.6511 67.612 13.7865 66.5237C12.7407 66.1338 11.7403 65.8163 10.6399 65.4808C9.68508 65.1906 8.2937 64.6283 7.3843 64.4378C7.66622 65.0545 10.2398 67.9748 10.9673 68.7094C12.004 69.7523 14.2321 71.5752 15.7599 71.9017C16.7147 72.1103 17.2694 71.82 18.1061 71.6115C18.8882 71.421 19.5611 71.3757 20.4069 71.2487C21.6346 68.0473 22.8804 67.9294 20.8979 63.2317C20.2886 61.7987 17.8333 57.7449 16.6238 57.0466C17.324 62.2159 16.7966 65.4354 19.0155 69.5981Z" fill="#003082"/>
<path fill-rule="evenodd" clip-rule="evenodd" d="M28.4459 74.042C22.0074 72.2644 22.2711 73.2167 15.778 73.2439C16.2691 73.9422 21.2435 76.3183 22.553 76.7808C27.6093 78.5584 27.4638 76.146 30.3466 75.2119C30.5103 73.8424 30.7922 71.7384 30.2465 70.505C29.037 67.7934 24.7083 64.1295 21.9074 63.15C22.3348 64.1023 22.9259 64.9638 23.417 66.034C25.254 70.0425 25.3449 71.158 28.4459 74.042Z" fill="#003082"/>
<path fill-rule="evenodd" clip-rule="evenodd" d="M60.3294 71.2668C64.9582 71.684 65.1401 73.6611 70.9784 67.3671C71.515 66.7867 73.0428 65.0727 73.3611 64.4469L67.0407 66.4784C64.6581 67.3581 63.2304 68.3375 61.7299 69.5981C63.6305 65.6077 63.3577 64.9185 63.676 60.4384C63.7578 59.2503 63.9852 58.1983 64.1125 57.0647C63.5578 57.3458 62.2028 59.1959 61.7208 59.9124C61.0296 60.9281 60.4022 61.9257 59.8383 63.2226C57.7012 68.1924 59.42 68.4826 60.3294 71.2668Z" fill="#003082"/>
<path fill-rule="evenodd" clip-rule="evenodd" d="M50.3897 75.2028C53.2725 76.2095 53.2907 78.5402 58.0923 76.808C59.5564 76.282 64.358 74.0238 64.9582 73.2348C58.7471 73.2711 58.6288 72.2372 52.2903 74.042C52.4904 73.8424 52.5813 73.8062 52.8178 73.5704C55.8915 70.4688 55.9461 68.6822 57.9923 64.6736C58.2651 64.1476 58.6016 63.676 58.8289 63.1591C57.1829 63.6579 55.2732 65.2813 54.0546 66.1882C53.0269 66.95 51.099 69.0993 50.4988 70.496C49.9259 71.7928 50.2442 73.7608 50.3897 75.2028Z" fill="#003082"/>
<path fill-rule="evenodd" clip-rule="evenodd" d="M48.6255 6.55006L47.8525 8.34573C48.8892 9.33426 50.8808 9.93281 52.0084 8.69035C52.6905 7.93762 53.5999 5.79732 53.9 4.62742L55.2731 5.08087C55.1458 6.15102 53.4998 9.47029 53.318 10.5132L56.0825 11.6197C56.5827 10.6765 57.101 9.06218 57.5194 7.98297C57.9559 6.8584 58.6834 5.28039 58.9471 4.13769L52.3085 1.65277C51.6083 2.45084 51.0717 5.35294 50.2169 6.40495C49.7076 7.01258 49.3803 6.86747 48.6255 6.55006Z" fill="#003082"/>
<path fill-rule="evenodd" clip-rule="evenodd" d="M81 40.4683V39.117L73.0246 38.5638L72.8336 41.611L76.1256 41.8377C75.7346 42.2187 73.4338 43.1709 72.9336 43.4974C72.7427 43.6153 72.8063 43.5699 72.6881 43.6788L72.4244 47.1704C73.8976 46.599 75.4527 45.2749 76.8986 44.622C77.3715 45.0301 80.0633 47.3608 80.418 47.4243L80.6544 44.0053C80.227 43.8239 77.9717 42.264 77.7171 41.9556L80.7908 42.1461C80.8363 41.5203 80.809 40.8764 81 40.4683Z" fill="#003082"/>
<path fill-rule="evenodd" clip-rule="evenodd" d="M73.2065 30.5649L73.7703 32.7959L72.2698 33.8116L73.0155 36.8679C73.6066 36.6321 79.7723 32.4966 80.0633 32.1611L79.0993 28.2432L70.7147 27.4814C70.8056 28.207 71.0512 29.0232 71.2331 29.7487C71.5059 30.8642 71.5059 30.2928 73.2065 30.5649ZM75.5163 31.9978C76.2438 31.7711 76.8804 31.0819 77.6534 30.8098L77.4261 30.6737C77.2351 30.6012 77.3351 30.6193 77.0805 30.5649L75.1526 30.447L75.5163 31.9978Z" fill="#003082"/>
<path fill-rule="evenodd" clip-rule="evenodd" d="M43.9057 0.00219727H39.7316L36.967 7.95576L40.0226 7.96483L40.5591 6.27798L42.9144 6.25078L43.5146 7.9739L46.6794 7.96483L43.9057 0.00219727ZM40.9592 4.34627L42.5689 4.36441L41.8232 1.99739C41.514 2.36922 41.032 3.9291 40.9592 4.34627Z" fill="#003082"/>
<path fill-rule="evenodd" clip-rule="evenodd" d="M65.6676 19.5007C65.8767 19.9813 66.9225 21.6863 67.2863 22.0128L69.1687 20.8701C70.0781 22.0309 70.36 23.1646 71.6332 23.7813C73.1792 24.534 74.6797 23.6724 75.2435 22.6204C76.062 21.1059 75.1617 19.7002 74.5069 18.6391C74.0249 17.8592 72.8609 15.8277 72.3698 15.3198C71.9151 15.474 66.0768 19.1198 65.6676 19.5007ZM70.7602 19.7909C71.133 20.589 72.097 22.0763 73.0155 20.6434C73.161 19.8453 72.7427 19.2105 72.3698 18.8205L70.7602 19.7909Z" fill="#003082"/>
<path fill-rule="evenodd" clip-rule="evenodd" d="M25.645 2.53246L27.8185 10.1595L30.7376 9.3796L30.1465 7.12141C34.6662 6.31426 35.1664 3.4303 33.5568 1.86135C31.8016 0.147302 28.5005 1.83415 25.645 2.53246ZM29.0825 3.46658L29.519 5.36201C30.3557 5.19877 31.447 4.92669 31.2833 3.98351C31.1105 2.94057 29.9373 3.24892 29.0825 3.46658Z" fill="#003082"/>
<path fill-rule="evenodd" clip-rule="evenodd" d="M0 39.4979V40.7313C0.181879 41.1576 0.163691 41.9103 0.209161 42.4635L3.1738 42.3547C3.60121 42.9714 3.57393 43.5881 3.3193 44.1957C2.61906 44.4134 1.27316 44.4315 0.409229 44.495L0.554732 47.4696C1.24587 47.5966 2.31896 47.4243 3.04648 47.3699C6.68407 47.0887 5.77467 44.7671 5.46548 42.1733L8.12092 42.001L7.97541 38.9901L0 39.4979Z" fill="#003082"/>
<path fill-rule="evenodd" clip-rule="evenodd" d="M19.552 5.8336L20.4432 9.32519C19.4429 8.69942 18.7063 7.856 17.6514 7.15768C17.3786 7.23023 15.1506 8.6178 14.805 8.98963L15.0323 9.18008C15.0596 9.19822 15.096 9.22543 15.1142 9.2345L16.1509 9.85119C16.6238 10.1233 17.0694 10.3863 17.515 10.6493C21.6255 13.0707 20.1068 12.2636 18.9336 13.2974C19.1064 13.6693 19.6248 14.4492 19.934 14.8392C20.6706 14.8029 22.0165 13.9776 22.4075 13.6148C23.0805 12.98 23.3806 11.9552 23.1805 10.6674C23.0259 9.6426 22.2984 4.88135 21.9619 4.31907L19.552 5.8336Z" fill="#003082"/>
<path fill-rule="evenodd" clip-rule="evenodd" d="M4.10138 23.1646L5.80195 24.1622C6.17481 23.1102 6.82048 20.462 8.06635 21.2056C8.46649 22.167 7.47524 22.9197 7.26608 23.6815L8.5938 24.4705C8.93028 23.8266 9.75783 21.8314 10.6399 22.693C11.1765 23.2462 10.5217 24.1531 10.1852 24.5975L8.82115 26.0848L10.5217 27.1187C11.904 25.7311 14.7777 21.913 12.6315 20.072C11.5221 19.1198 10.6581 19.9904 10.0034 20.4257C10.3398 17.8682 7.82991 17.5871 6.44762 18.8477C5.5746 19.6458 4.59245 21.7135 4.10138 23.1646Z" fill="#003082"/>
<path fill-rule="evenodd" clip-rule="evenodd" d="M65.0764 65.3992C69.7871 64.3381 74.4705 56.4661 75.289 52.9201C72.9427 53.8996 70.7147 56.1669 68.9414 57.8718C67.3045 59.4408 65.2674 62.0708 65.0764 65.3992Z" fill="#003082"/>
<path fill-rule="evenodd" clip-rule="evenodd" d="M16.2691 65.6349C16.1873 63.8937 15.7235 62.5877 14.9414 61.3271C14.2866 60.2751 13.1772 58.7425 12.4406 58.1167C11.904 57.6451 11.5675 57.1554 11.0401 56.7382C9.93062 55.8676 7.30246 53.564 6.08387 53.1831C6.34759 55.0151 9.03941 59.3682 9.93062 60.6198C11.1765 62.361 13.4864 65.0999 16.2691 65.6349Z" fill="#003082"/>
<path fill-rule="evenodd" clip-rule="evenodd" d="M0.236443 35.1901L2.51903 35.7071L3.13742 33.1587L8.64837 34.3648L9.31223 31.363L3.84675 30.1296L4.42876 27.5268L2.08252 26.9736L0.236443 35.1901Z" fill="#003082"/>
<path fill-rule="evenodd" clip-rule="evenodd" d="M61.5025 8.26411C61.8299 8.58152 62.0936 8.81732 62.4483 9.13474C62.8484 9.48843 63.0758 9.56098 63.4577 10.0054L59.9747 14.3132C60.2294 14.6669 61.9572 16.0998 62.3664 16.2267L65.8949 12.0368C66.6133 12.4812 67.1953 13.2249 67.9229 13.6421C68.3867 13.2067 69.005 12.4812 69.387 11.9008C69.1324 11.5562 68.9414 11.5018 68.614 11.2115L66.2132 9.18008C65.6948 8.7357 65.2129 8.36386 64.6308 7.84693L62.9757 6.55005C62.7211 6.78585 62.4938 7.04885 62.23 7.36627C61.9845 7.67462 61.6935 7.96483 61.5025 8.26411Z" fill="#003082"/>
<path fill-rule="evenodd" clip-rule="evenodd" d="M12.7316 16.7165C13.1863 17.1518 13.5591 17.7503 14.0957 18.0133L16.5419 15.474L15.1233 14.2043C14.3685 14.9299 13.0589 16.0726 12.7316 16.7165Z" fill="#003082"/>
</g>
<defs>
<clipPath id="clip0_66_14">
<rect width="81" height="81" fill="white"/>
</clipPath>
</defs>
</svg>
