<svg width="59" height="74" viewBox="0 0 59 74" fill="none" xmlns="http://www.w3.org/2000/svg">
<path d="M1.17993 0.961914H57.9674V58.0751H1.17993V0.961914Z" fill="#F63D37"/>
<path d="M51.7135 11.8696L45.3562 22.1852C44.6629 23.3396 44.7662 24.2572 45.0907 25.1304L54.7372 49.8908H14.7942C11.2099 49.8908 8.4222 47.0048 8.4222 43.5564L8.3927 10.5968C8.49595 6.33443 14.6762 6.27523 14.7942 10.582V41.4844C14.7794 42.4612 15.635 43.5564 16.7707 43.5416H46.02L38.4532 25.6484C38.2614 24.9676 38.114 24.272 38.114 23.5912C38.114 22.8364 38.4532 21.6228 38.9399 20.646L45.902 9.14643C46.4182 8.12523 47.4507 7.42963 48.6897 7.37043C50.4154 7.29643 51.9052 8.49523 51.979 10.3452C51.979 10.7152 51.8905 11.5144 51.7135 11.8696Z" fill="white"/>
<path d="M29.677 32.6932V10.582C29.677 6.27518 35.9458 6.23078 36.0195 10.582V32.93C36.0195 38.0508 32.214 41.4252 27.553 41.4252C22.892 41.4252 19.0718 37.962 19.0718 32.93V10.582C19.0718 6.27518 25.4143 6.27518 25.4143 10.582V32.6932C25.4143 35.6532 29.677 35.8456 29.677 32.6932Z" fill="white"/>
<path d="M9.70549 63.4326V72.4902H7.18324V65.6082H5.38374V69.1898C5.38374 70.4922 5.25099 72.6086 2.10924 72.6086C1.72574 72.6086 1.44549 72.5938 1.04724 72.4902V70.3294C1.23899 70.3738 1.41599 70.4182 1.60774 70.4182C2.71399 70.4182 2.84674 69.7078 2.84674 68.435V63.4326H9.70549Z" fill="#2C2E35"/>
<path d="M13.6143 63.4326L15.3843 67.2362L16.8298 63.4326H19.5733L15.517 72.4902H12.803L14.0273 70.0038L10.6348 63.4326H13.6143Z" fill="#2C2E35"/>
<path d="M20.4139 63.4326H22.9509V67.2362L25.6649 63.4326H28.6297L25.2077 67.8282L28.7182 72.4902H25.5617L22.9509 68.5978V72.4902H20.4139V63.4326Z" fill="#2C2E35"/>
<path d="M42.48 63.4328V68.8792L45.9757 63.4328H48.4537V72.4904H46.0052V67.0588L42.5095 72.4904H40.0315V63.4328H42.48ZM46.9492 61.494C46.4625 62.5596 45.312 62.9444 44.2352 62.9444C43.1732 62.9444 42.0227 62.5596 41.536 61.494L42.9815 60.9612C43.2175 61.5828 43.778 61.716 44.2352 61.716C44.7072 61.716 45.2677 61.5828 45.5037 60.9612L46.9492 61.494Z" fill="#2C2E35"/>
<path d="M58.0707 63.4326V72.4902H55.5485V65.6082H53.7342V69.1898C53.7342 70.4922 53.6015 72.6086 50.4597 72.6086C50.091 72.6086 49.8107 72.5938 49.3977 72.4902V70.3294C49.5895 70.3738 49.7812 70.4182 49.9582 70.4182C51.0645 70.4182 51.212 69.7078 51.212 68.435V63.4326H58.0707Z" fill="#2C2E35"/>
<path fill-rule="evenodd" clip-rule="evenodd" d="M28.8215 67.9763C28.8215 65.4899 30.4145 63.0479 33.807 63.0479C37.1995 63.0479 38.7778 65.4899 38.7778 67.9763C38.7778 70.4479 37.1995 72.8899 33.807 72.8899C30.4145 72.8899 28.8215 70.4479 28.8215 67.9763ZM36.108 67.9763C36.108 66.1707 35.0018 65.2827 33.807 65.2827C32.5975 65.2827 31.506 66.1707 31.506 67.9763C31.506 69.7671 32.5975 70.6551 33.807 70.6551C35.0018 70.6551 36.108 69.7671 36.108 67.9763Z" fill="#2C2E35"/>
</svg>
