<svg width="258" height="90" viewBox="0 0 258 90" fill="none" xmlns="http://www.w3.org/2000/svg">
<path fill-rule="evenodd" clip-rule="evenodd" d="M1.54664 44.312H40.6377C40.6465 43.9149 41.9125 39.2119 42.0466 38.6764L43.4723 32.9719L43.6592 33.3001C43.7214 33.4444 43.7639 33.5434 43.8401 33.7207C43.9742 34.032 44.0504 34.265 44.1889 34.5749L49.1431 46.4601C49.1431 46.7437 48.6771 47.0089 48.4808 47.1723L43.2364 52.0657C42.9514 52.3522 42.8291 52.4687 42.5147 52.7192L37.2008 57.6288L39.5204 48.4361H0.515792C0.312845 49.3065 0 50.1176 0 51.1851C0 54.0615 2.0324 55.9312 4.46556 56.5137C5.88032 56.8529 18.4799 56.6837 20.6192 56.6837C20.4954 56.9416 20.4236 57.4178 20.3254 57.7643C20.217 58.1468 20.121 58.5051 20.0353 58.8487L18.2996 65.6184C26.0299 65.6184 34.0481 65.5496 41.7586 65.6228C42.2598 65.628 42.2393 65.6866 42.5133 65.4323L47.3598 60.9148C47.71 60.5609 47.9972 60.3675 48.3482 60.0129C48.5204 59.84 48.6434 59.7022 48.8193 59.5396L60.0773 49.1468C60.3894 48.8464 60.7726 48.5167 60.999 48.1782L52.4936 27.8169H28.0081C27.3795 30.5145 26.4578 33.6481 25.7742 36.4081C25.4152 37.8573 25.158 39.3592 24.251 40.2977C21.4032 43.246 17.3545 41.8971 17.3545 39.6728C17.3545 38.1774 17.6175 37.7012 18.0241 36.2183C18.2916 35.2439 18.5194 34.3317 18.7634 33.3499L20.058 28.362C20.1452 28.0426 20.2697 27.8169 19.932 27.8169H6.01367C5.68763 27.8169 5.65466 28.3884 5.58433 28.6756L1.54664 44.312Z" fill="#233F81"/>
<path fill-rule="evenodd" clip-rule="evenodd" d="M122.599 60.3775V58.5737H124.145V62.955H121.74C122.158 62.3315 122.599 61.4135 122.599 60.3775ZM160.144 48.7795H164.267V46.4599H160.144V48.7795ZM183.512 24.9813C183.512 26.262 184.925 27.043 186.089 27.043H187.035C188.282 27.043 189.585 26.188 189.612 24.9813C189.123 24.9403 188.439 24.7447 187.98 24.6377C187.723 25.7433 186.213 25.5535 185.655 25.3301C185.281 25.1791 185.241 25.0516 185.144 24.6377C184.685 24.7447 184.001 24.9403 183.512 24.9813ZM249.838 39.2433C250.032 41.5812 253.753 41.6779 255.008 40.8046C255.6 40.3913 255.838 40.0397 256.024 39.2433L254.305 38.8996C254.231 39.7942 253.312 39.6726 252.587 39.6726C252.002 39.6726 251.602 39.4543 251.556 38.8996C251.104 38.9092 250.275 39.1414 249.838 39.2433ZM242.965 51.2713H246.316C246.513 51.2713 246.573 51.2112 246.573 51.0134V41.9065H242.965V51.2713ZM203.1 46.3742C203.1 49.3972 205.201 51.357 208.084 51.357C209.809 51.357 209.613 51.4179 211.349 51.0134V48.5216C210.889 48.5597 207.907 49.6749 207.083 47.5457C206.287 45.4906 207.868 43.6605 210.51 44.2905C210.832 44.3675 210.935 44.4569 211.262 44.484V41.9922C210.08 41.9658 208.484 41.3489 206.354 42.0669C205.665 42.2992 205.24 42.5483 204.731 42.9359C203.897 43.5689 203.1 44.9155 203.1 46.3742ZM194.939 46.5457C194.939 47.2607 195.119 48.0227 195.342 48.548C196.057 50.2302 197.876 51.357 199.922 51.357C201.647 51.357 201.451 51.4179 203.187 51.0134V48.5216C202.663 48.5656 199.742 49.6858 198.94 47.5274C198.427 46.1427 198.895 44.9324 200.092 44.396C200.721 44.114 201.651 44.1242 202.349 44.2905C202.67 44.3675 202.773 44.4569 203.1 44.484V41.9922C202.387 41.9761 201.848 41.7343 200.351 41.7343C197.29 41.7343 194.939 43.5037 194.939 46.5457ZM150.006 31.9401C150.006 32.9878 149.994 33.8128 150.555 34.7418C151.559 36.4042 153.332 37.1808 155.504 37.1808C156.237 37.1808 157.695 36.9786 158.168 36.7515V34.2604C157.082 34.5132 157.351 34.6033 156.02 34.6033C152.981 34.6033 153.067 29.9641 156.02 29.9641C157.567 29.9641 157.015 30.0396 158.168 30.3077L158.175 28.3244C158.178 28.0175 158.235 27.8995 158.039 27.7735C157.906 27.6892 156.001 27.4731 155.676 27.4731C152.745 27.4731 150.006 28.9787 150.006 31.9401ZM91.4123 48.6074C91.4123 49.1364 89.6334 48.7026 89.5221 48.6938V51.0134C90.2547 51.3644 91.5369 51.357 92.4432 51.357C94.7979 51.357 95.4566 48.9129 96.1138 47.3809C96.3124 46.9179 96.4779 46.5171 96.6772 46.0541C96.886 45.5661 97.0509 45.1236 97.2567 44.6576C97.4502 44.2195 97.626 43.815 97.8187 43.3293C97.966 42.9593 98.3433 42.2457 98.3711 41.9065H94.8492L93.6228 45.7493C93.6154 45.7639 93.5979 45.7925 93.592 45.8042C93.5854 45.8159 93.5722 45.8409 93.5605 45.8584L92.2717 41.9065H88.2333C88.396 42.604 91.4123 47.9458 91.4123 48.6074ZM78.182 58.7452C78.8121 58.4426 82.4776 57.6323 82.4776 59.0031C82.4776 59.6376 81.9346 59.7768 81.1031 59.7768H79.4707V61.6663C80.6635 61.6663 82.5633 61.3937 82.5633 62.5257C82.5633 63.4943 81.0694 63.3265 80.5016 63.3001C80.0004 63.2767 79.5967 63.2129 79.1469 63.1067C78.7644 63.0173 78.382 62.7938 77.9241 62.7836V65.1889C80.1814 65.715 84.0689 66.1538 85.8082 64.3105C86.9585 63.0906 86.1936 60.8442 84.5393 60.8076V60.6354C86.5988 60.464 87.2069 55.9962 82.3918 55.9962C81.4599 55.9962 79.2458 55.9889 78.434 56.249C78.0611 56.3684 78.1783 56.2746 78.1812 57.3707C78.1834 57.8286 78.182 58.2873 78.182 58.7452ZM99.2305 42.0779V44.484C101.152 44.0363 100.372 44.0539 102.495 44.0539C103.887 44.0539 103.887 45.5148 102.495 45.5148H100.519V47.4051C101.668 47.4051 103.613 47.1421 103.613 48.2638C103.613 49.5078 101.216 49.0609 100.529 48.9415C99.9859 48.847 99.4437 48.5612 98.9726 48.5216V50.927C99.9361 51.3893 102.286 51.357 103.44 51.357C104.331 51.357 105.439 51.0588 106.022 50.7592C108.226 49.6236 107.667 46.5457 105.331 46.5457C105.349 46.5339 105.38 46.5002 105.389 46.5186L106.016 46.2863C107.864 45.3448 107.778 41.7343 103.182 41.7343C102.125 41.7343 101.709 41.7108 100.629 41.8449C100.228 41.8947 99.624 42.0457 99.2305 42.0779ZM77.9241 31.3393C77.9241 33.3094 79.5931 34.0883 81.5324 34.0883C82.5633 34.0883 83.293 33.8414 83.7663 33.8304V37.0094H87.3746V27.6445H83.7663V30.995C83.7663 31.4961 81.5324 31.7518 81.5324 30.6514V27.6445H77.9241V31.3393ZM127.754 45.8584C127.754 47.471 129.503 48.3502 131.105 48.3502C132.125 48.3502 133.015 48.0923 133.596 48.0923V51.2713H136.947C137.145 51.2713 137.204 51.2112 137.204 51.0134V41.9065H133.596V45.4291C133.219 45.517 131.363 45.972 131.363 45.0855V41.9065H127.754V45.8584ZM237.209 49.0374H236.436V46.8036H237.466C239.037 46.8036 239.141 49.0374 237.209 49.0374ZM232.913 51.0134C232.913 51.2112 232.972 51.2713 233.17 51.2713H237.896C239.185 51.2713 240.253 51.0867 241.015 50.5247C243.216 48.9034 242.668 44.5697 238.583 44.5697H236.521V41.9065H232.913V51.0134ZM180.505 46.3742H179.818V44.0539H180.076C181.086 44.0539 182.223 44.1777 182.223 45.1712C182.223 46.1105 181.441 46.3742 180.505 46.3742ZM176.295 51.0134C176.295 51.2112 176.355 51.2713 176.553 51.2713H179.904V48.5216H182.31C184.108 48.5216 185.832 47.2043 185.832 45.4291C185.832 44.3045 185.536 43.3938 184.705 42.7754C184.097 42.3226 183.262 41.9065 182.223 41.9065H176.295V51.0134ZM186.347 51.2713H194.337C194.78 51.2713 194.595 50.4229 194.595 49.2089C194.595 49.0111 194.536 48.951 194.337 48.951H189.956V47.5765H194.251V45.4291H189.956V44.1403H194.509V41.9065H186.347V51.2713ZM118.561 51.2713H126.809V49.2089C126.809 49.0111 126.749 48.951 126.551 48.951H122.169V47.5765H126.551V45.4291H122.169V44.1403H126.723V41.9065H118.561V51.2713ZM88.6634 37.0094H96.9109V34.7755H92.2717V33.401H96.3951C96.8494 33.401 96.653 32.4281 96.653 31.1672H92.2717V29.8784H96.8252V27.6445H88.6634V37.0094ZM91.6834 58.406L91.9391 59.0778C92.0094 59.2932 92.1032 59.5723 92.175 59.787C92.3003 60.1651 92.5838 60.8574 92.6154 61.2369H90.7251L91.6834 58.406ZM86.0859 65.4468H89.6942C89.8452 64.7977 90.136 64.1551 90.2958 63.4708H93.0447C93.1824 63.758 93.6162 65.0878 93.6462 65.4468H97.5124C97.3527 65.1149 97.2106 64.6724 97.0941 64.3185L94.5804 57.296C94.4507 56.9377 94.3232 56.4182 94.162 56.082H89.3506L86.0859 65.4468ZM111.173 61.2369C111.173 60.4581 111.113 59.6156 111.455 58.9415C111.971 57.9246 114.008 57.5304 114.008 60.8076C114.008 61.8077 113.843 63.1646 112.746 63.328C111.642 63.4935 111.173 62.4224 111.173 61.2369ZM107.392 60.2061C107.392 61.785 107.478 63.2891 108.792 64.391C110.786 66.0637 114.658 66.0608 116.392 64.309C118.431 62.2509 118.151 58.6712 116.183 57.0857C114.049 55.3654 109.36 55.4614 107.865 58.4448C107.667 58.8397 107.392 59.6669 107.392 60.2061ZM154.129 49.1232C152.723 49.1232 152.669 47.5238 152.669 46.3742C152.669 45.3947 152.942 44.0539 153.872 44.0539C154.483 44.0539 154.94 44.029 155.274 44.8862C155.609 45.7456 155.841 49.1232 154.129 49.1232ZM148.889 46.202C148.889 47.8176 149.139 49.014 150.197 50.0492C152.036 51.8487 156.186 51.8084 157.977 50.0492C160.465 47.6051 159.593 41.7343 154.387 41.7343C152.658 41.7343 151.69 41.9189 150.347 42.9344C149.522 43.5572 148.889 45.0752 148.889 46.202ZM215.043 46.5457C215.043 46.0526 215.115 45.3353 215.25 44.9492C215.717 43.6077 217.878 43.4971 217.878 46.202C217.878 47.2776 217.874 49.1232 216.503 49.1232C215.264 49.1232 215.043 47.7949 215.043 46.5457ZM211.262 46.3742C211.262 47.9619 211.622 49.0624 212.527 50.0068C214.685 52.2611 221.658 52.1219 221.658 46.8036C221.658 45.843 221.621 45.1939 221.229 44.3111C219.499 40.417 211.262 40.7203 211.262 46.3742ZM78.0955 51.2713C82.0739 51.2713 81.7244 51.5387 81.7068 50.5006L81.7039 47.4051C81.75 47.4578 81.7991 47.5091 81.8592 47.5934C81.9603 47.7355 81.9288 47.6945 82.0189 47.863L84.0235 51.2713H88.2333C88.1469 50.946 86.8764 49.2389 86.5489 48.7458C86.2258 48.2586 84.9759 46.6013 84.8829 46.202L86.4295 44.0539C86.6838 43.7183 86.938 43.3696 87.1856 43.0062C87.4486 42.6201 87.73 42.2743 87.9762 41.9065H83.852L81.7039 45.4291V41.9065H78.0955V51.2713ZM159.027 37.0094H162.635V33.0574L164.358 35.9741C164.557 36.3236 164.756 36.6335 164.955 37.0094H169.251L165.814 32.0266C166.297 31.4712 168.835 27.9149 168.907 27.6445H164.869C164.63 28.0958 162.872 31.08 162.635 31.2529V27.6445H159.027V37.0094ZM123.458 35.0334H122.256V33.1431H123.201C124.792 33.1431 124.642 35.0334 123.458 35.0334ZM118.733 27.9024V36.7515C118.733 36.9493 118.793 37.0094 118.991 37.0094H124.318C125.297 37.0094 126.335 36.7683 126.934 36.361C128.031 35.6129 128.357 34.1923 127.806 32.9189C126.957 30.9561 124.186 31.2529 122.342 31.2529V30.0506H127.066V27.6445H118.991C118.793 27.6445 118.733 27.7046 118.733 27.9024ZM99.4027 31.5965C99.4027 32.3365 99.3683 33.7307 98.9551 34.2421C98.5389 34.7572 98.0935 34.5806 97.4289 34.5022L97.4267 36.9237C103.173 38.2622 102.495 34.0795 102.495 30.222H104.213V37.0094H107.822V27.6445H99.4027V31.5965ZM101.979 63.5565H101.292V61.6663C101.89 61.6663 103.526 61.5366 103.526 62.5257C103.526 63.3397 102.807 63.5565 101.979 63.5565ZM102.41 59.7768H101.292V58.0579C102.317 58.0579 103.44 57.8814 103.44 59.0888C103.44 59.2903 103.221 59.5013 103.084 59.5921C102.901 59.7145 102.703 59.7768 102.41 59.7768ZM97.9418 65.4468H103.87C108.496 65.4468 107.693 60.8618 105.245 60.8076C105.41 60.582 105.57 60.6127 105.844 60.4618C106.029 60.3607 106.224 60.2215 106.387 60.0603C107.188 59.2654 108.005 56.082 102.839 56.082H97.9418V65.4468ZM112.204 30.6514C112.204 29.6022 113.72 29.7927 114.438 29.7927V31.6829C113.688 31.6829 112.92 31.8046 112.479 31.4067C112.281 31.2272 112.204 31.0082 112.204 30.6514ZM108.595 29.8784C108.595 31.3078 109.081 32.1943 110.571 32.5416L110.343 32.6574C110.058 32.7753 109.801 32.8376 109.519 33.1212C108.887 33.7542 108.349 36.4907 108.337 37.0094C112.576 37.0094 112.048 37.2973 112.199 36.1456C112.515 33.7337 112.508 33.7446 114.351 33.7446V37.0094H117.959V27.6445H112.118C110.629 27.6445 108.595 28.1347 108.595 29.8784ZM165.556 51.2713H169.164V44.484H171.485V51.2713H174.835C175.033 51.2713 175.093 51.2112 175.093 51.0134V41.9065H165.556V51.2713ZM138.493 51.2713H141.844C142.042 51.2713 142.101 51.2112 142.101 51.0134V47.8344H144.422V51.2713H147.772C147.97 51.2713 148.03 51.2112 148.03 51.0134V41.9065H144.422V45.0855H142.101V41.9065H138.493V51.2713ZM108.252 51.0134C108.252 51.2112 108.311 51.2713 108.51 51.2713H111.86V47.8344H114.18V51.0134C114.18 51.2112 114.239 51.2713 114.438 51.2713H117.788V41.9065H114.18V45.0855H111.86V41.9065H108.252V51.0134ZM226.985 49.2946H225.953V47.4908H227.242C227.762 47.4908 228.242 47.9414 228.156 48.4938C228.08 48.9796 227.532 49.2946 226.985 49.2946ZM226.384 45.6005H225.953V43.7967C226.539 43.7967 228.102 43.7213 228.102 44.5697C228.102 45.5031 227.336 45.6005 226.384 45.6005ZM222.517 51.0134C222.517 51.2112 222.577 51.2713 222.775 51.2713H227.5C229.302 51.2713 231.008 51.042 231.599 49.7848C232.377 48.126 231.196 46.5457 229.734 46.5457C230.046 46.3288 231.624 46.1119 231.624 44.3118C231.624 42.6846 230.04 41.9065 228.617 41.9065H222.517V51.0134ZM140.04 27.9024V37.0094H143.648V33.5725H145.968V36.7515C145.968 36.9493 146.028 37.0094 146.225 37.0094H149.404C149.602 37.0094 149.662 36.9493 149.662 36.7515V27.9024C149.662 27.7046 149.602 27.6445 149.404 27.6445H146.225C146.028 27.6445 145.968 27.7046 145.968 27.9024V30.9093H143.906C143.708 30.9093 143.648 30.8499 143.648 30.6514V27.6445H140.298C140.1 27.6445 140.04 27.7046 140.04 27.9024ZM170.024 37.0094H174.234L174.777 35.7492C174.982 35.3089 176.335 32.1914 176.553 31.9401V37.0094H180.162V27.6445H175.952L174.245 31.6089C174.134 31.883 174.064 31.9951 173.952 32.2595C173.83 32.5468 173.84 32.6464 173.632 32.8852V27.6445H170.024V37.0094ZM247.862 51.2713H251.814C252.134 51.2713 252.32 50.6302 252.537 50.1042L254.047 46.8021C254.101 46.6775 254.129 46.5728 254.192 46.4328C254.277 46.2453 254.286 46.2365 254.391 46.1163V50.154C254.386 51.5805 253.8 51.2713 258 51.2713V41.9065H253.962C253.677 41.9065 253.494 42.5996 253.272 43.1066C253.078 43.5506 252.901 43.9484 252.698 44.4224C252.503 44.8745 252.299 45.2635 252.108 45.7229L251.471 47.0615V41.9065H247.862V51.2713ZM181.45 37.0094H185.488C185.777 37.0094 186.002 36.2914 186.2 35.8313C186.366 35.4473 187.841 32.0185 188.065 31.8544V37.0094H191.674V27.9024C191.674 27.7046 191.614 27.6445 191.417 27.6445H187.636C187.38 27.6445 187.292 27.9566 187.206 28.1596L185.059 32.9717V27.6445H181.45V37.0094ZM128.613 37.0094H132.652C132.929 37.0094 133.151 36.309 133.35 35.8188L135.038 32.0932C135.1 31.9804 135.085 32.0068 135.143 31.9401V35.8928C135.138 37.3112 134.573 37.0094 138.579 37.0094C138.777 37.0094 138.837 36.9493 138.837 36.7515V27.9024C138.837 27.7046 138.777 27.6445 138.579 27.6445C133.842 27.6445 134.813 27.2987 134.083 28.819L132.221 32.8852V27.6445H128.613V37.0094ZM118.046 62.955H117.444V67.5085H121.053V65.4468H125.177V67.5085H128.785V62.955H127.754V56.082H119.678C119.316 56.082 119.411 56.4695 119.417 56.8527C119.444 58.4756 119.592 60.4405 119.018 61.7799C118.899 62.0597 118.339 62.955 118.046 62.955Z" fill="#233F81"/>
</svg>
