<svg width="85" height="85" viewBox="0 0 85 85" fill="none" xmlns="http://www.w3.org/2000/svg">
<g clip-path="url(#clip0_69_53)">
<path fill-rule="evenodd" clip-rule="evenodd" d="M42.5 0C65.9656 0 85 19.0344 85 42.5C85 65.9656 65.9656 85 42.5 85C19.0344 85 0 65.9656 0 42.5C0 19.0344 19.0344 0 42.5 0Z" fill="#454545"/>
<path fill-rule="evenodd" clip-rule="evenodd" d="M42.5001 0.377686C65.7643 0.377686 84.6476 19.261 84.6476 42.5252C84.6476 65.7894 65.7643 84.6727 42.5001 84.6727C19.2358 84.6727 0.352539 65.7894 0.352539 42.5252C0.377717 19.2358 19.2358 0.377686 42.5001 0.377686Z" fill="#FFCC00"/>
<path fill-rule="evenodd" clip-rule="evenodd" d="M42.5756 83.8922C65.3614 83.8419 83.8418 65.311 83.8418 42.5C83.8418 42.1727 83.8418 41.8202 83.8167 41.4929H80.1407C80.1407 41.8202 80.1659 42.1727 80.1659 42.5C80.1659 63.2968 63.3472 80.1659 42.5756 80.2163V83.8922Z" fill="#E21C2A"/>
<path fill-rule="evenodd" clip-rule="evenodd" d="M42.5756 83.8921C53.9811 83.8669 64.3039 79.209 71.7565 71.7312C72.2097 71.2529 72.6881 70.7745 73.1161 70.2961L73.1413 70.2709C73.3679 70.0192 73.5693 69.7926 73.7959 69.5408C74.0225 69.289 74.224 69.0372 74.4254 68.7854C74.6268 68.5337 74.8282 68.2819 75.0296 68.0301L75.08 67.9546C75.2563 67.728 75.4325 67.4762 75.6339 67.2496L75.6843 67.1741C75.8605 66.9223 76.0368 66.6957 76.213 66.4439L76.2382 66.4187C76.6158 65.89 76.9683 65.3613 77.3208 64.8074L77.346 64.7822C77.5222 64.5052 77.6985 64.2535 77.8496 63.9765C78.0258 63.6995 78.1769 63.3974 78.3531 63.1205L78.3783 63.0449C78.5294 62.768 78.6804 62.5162 78.8315 62.2392L78.8567 62.1637C79.0077 61.8867 79.1336 61.635 79.2847 61.358C79.3099 61.3077 79.335 61.2573 79.3602 61.207C79.4861 60.9552 79.612 60.7034 79.7379 60.4516L79.7631 60.4264C79.8889 60.1495 80.04 59.8474 80.1659 59.5452C80.1911 59.4949 80.2163 59.4445 80.2414 59.369C80.3422 59.1172 80.468 58.8654 80.5687 58.6136C80.5939 58.5381 80.6191 58.4626 80.6695 58.387C80.7702 58.1604 80.8709 57.9087 80.9716 57.6821C80.9968 57.5814 81.0471 57.5058 81.0723 57.4051C81.1478 57.1785 81.2485 56.9519 81.3241 56.7505C81.3744 56.6498 81.3996 56.5491 81.4248 56.4484C81.5003 56.2469 81.5759 56.0203 81.6514 55.8189C81.7017 55.6679 81.7521 55.542 81.7773 55.3909C81.8276 55.2147 81.9032 55.0384 81.9535 54.837C82.0039 54.7111 82.0291 54.56 82.0794 54.4341C82.1298 54.2327 82.2053 54.0565 82.2557 53.8551C82.2808 53.7543 82.306 53.6788 82.3312 53.5781C82.4067 53.3515 82.4571 53.0997 82.5326 52.8731C82.5578 52.7976 82.583 52.6969 82.6081 52.6213C82.6585 52.3696 82.734 52.143 82.7844 51.8912C82.8096 51.7653 82.8347 51.6394 82.8599 51.5387C82.9103 51.3373 82.9606 51.1107 83.011 50.9093C83.0362 50.733 83.0865 50.5568 83.1117 50.3805C83.1369 50.2295 83.1621 50.0532 83.2124 49.9022C83.2376 49.7511 83.2628 49.6252 83.2879 49.4741C83.3131 49.2727 83.3635 49.0713 83.3887 48.8699C83.439 48.5426 83.4894 48.1901 83.5397 47.8628C83.5649 47.611 83.5901 47.3592 83.6153 47.1074C83.6153 47.0067 83.6404 46.9312 83.6404 46.8305C83.6656 46.6291 83.6656 46.4276 83.6908 46.2514C83.716 46.1003 83.716 45.9493 83.7411 45.7982C83.7663 45.4457 83.7915 45.0932 83.8167 44.7407C83.8419 44.3882 83.8419 44.0357 83.867 43.6833C83.867 43.3308 83.8922 42.9783 83.8922 42.6258V42.6006V42.5754C83.8922 42.2481 83.8922 41.946 83.8922 41.6187V41.5935H83.3131C83.3131 41.9208 83.3383 42.2733 83.3383 42.6006C83.3383 65.0843 65.1348 83.3382 42.6511 83.4137V83.8921H42.5756Z" fill="white"/>
<path fill-rule="evenodd" clip-rule="evenodd" d="M42.5756 80.2414C63.3472 80.1659 80.1659 63.2968 80.1659 42.5252C80.1659 42.1979 80.1659 41.8454 80.1407 41.5181H76.4648C76.4648 41.8454 76.4899 42.1979 76.4899 42.5252C76.4899 61.2826 61.3078 76.5151 42.5756 76.5906V80.2414Z" fill="white"/>
<path fill-rule="evenodd" clip-rule="evenodd" d="M42.5756 76.5655C61.3078 76.49 76.49 61.2826 76.49 42.5C76.49 42.1727 76.49 41.8202 76.4648 41.4929H72.7888C72.7888 41.8202 72.814 42.1727 72.814 42.5C72.814 59.2432 59.2684 72.814 42.5756 72.8895V76.5655Z" fill="#E21C2A"/>
<path fill-rule="evenodd" clip-rule="evenodd" d="M73.4182 41.4929H72.814C72.814 41.8202 72.8392 42.1727 72.8392 42.5C72.8392 59.2432 59.2935 72.814 42.6007 72.8895V73.4938C59.646 73.4183 73.4686 59.5705 73.4686 42.5C73.4434 42.1727 73.4182 41.8202 73.4182 41.4929Z" fill="white"/>
<path fill-rule="evenodd" clip-rule="evenodd" d="M42.3741 83.8922C19.5631 83.8419 1.10779 65.311 1.10779 42.5C1.10779 42.1727 1.10779 41.8202 1.13297 41.4929H4.78374H8.45968H12.1356C12.1356 41.8202 12.1105 42.1727 12.1105 42.5C12.1105 59.2432 25.6561 72.814 42.3489 72.8895V76.5655V80.2414V83.8922H42.3741Z" fill="#E21C2A"/>
<path fill-rule="evenodd" clip-rule="evenodd" d="M42.2483 83.8922C30.8931 83.8167 20.6206 79.184 13.1932 71.7314C12.74 71.253 12.2616 70.7746 11.8336 70.2962L11.8084 70.2711C11.5818 70.0193 11.3804 69.7927 11.1538 69.5409C10.9272 69.2891 10.7257 69.0374 10.5243 68.7856C10.3229 68.5338 10.1215 68.282 9.92005 68.0302L9.8697 67.9547C9.69345 67.7281 9.51721 67.4763 9.31579 67.2497L9.26543 67.1742C9.08919 66.9224 8.91294 66.6958 8.7367 66.444L8.71152 66.4189C8.33386 65.8901 7.98137 65.3614 7.62888 64.8075L7.6037 64.7823C7.42746 64.5054 7.25121 64.2536 7.10015 63.9766C6.9239 63.6997 6.77284 63.3975 6.59659 63.1206L6.57142 63.045C6.42035 62.7681 6.26928 62.5163 6.11822 62.2394L6.09304 62.1638C5.94197 61.8869 5.81608 61.6351 5.66502 61.3581C5.63984 61.3078 5.61466 61.2574 5.58949 61.2071C5.4636 60.9553 5.33771 60.7035 5.21182 60.4517L5.18664 60.4266C5.06075 60.1496 4.90969 59.8475 4.7838 59.5453C4.75862 59.495 4.73344 59.4446 4.70827 59.3691C4.60755 59.1173 4.48167 58.8655 4.38095 58.6138C4.35578 58.5382 4.3306 58.4627 4.28024 58.3872C4.17953 58.1606 4.07882 57.9088 3.97811 57.6822C3.95293 57.5815 3.90258 57.506 3.8774 57.4052C3.80187 57.1786 3.70116 56.952 3.62562 56.7506C3.57527 56.6499 3.55009 56.5492 3.52491 56.4485C3.44938 56.2471 3.37385 56.0205 3.29831 55.819C3.24796 55.668 3.1976 55.5421 3.17242 55.391C3.12207 55.2148 3.04654 55.0385 2.99618 54.8371C2.94582 54.7112 2.92065 54.5602 2.87029 54.4343C2.81994 54.2328 2.7444 54.0566 2.69405 53.8552C2.66887 53.7545 2.64369 53.6789 2.61851 53.5782C2.54298 53.3516 2.49263 53.0998 2.41709 52.8733C2.39191 52.7977 2.36674 52.697 2.34156 52.6215C2.2912 52.3697 2.21567 52.1431 2.16532 51.8913C2.14014 51.7654 2.11496 51.6395 2.08978 51.5388C2.03943 51.3374 1.98907 51.1108 1.93872 50.9094C1.91354 50.7331 1.86318 50.5569 1.838 50.3807C1.81283 50.2296 1.78765 50.0533 1.73729 49.9023C1.71212 49.7512 1.68694 49.6253 1.66176 49.4743C1.63658 49.2728 1.58623 49.0714 1.56105 48.87C1.51069 48.5427 1.46034 48.1902 1.40998 47.8629C1.38481 47.6111 1.35963 47.3593 1.33445 47.1076C1.33445 47.0068 1.30927 46.9313 1.30927 46.8306C1.28409 46.6292 1.28409 46.4278 1.25892 46.2515C1.23374 46.1004 1.23374 45.9494 1.20856 45.7983C1.18338 45.4458 1.15821 45.0933 1.13303 44.7408C1.10785 44.3884 1.10785 44.0359 1.08267 43.6834C1.08267 43.3309 1.0575 42.9784 1.0575 42.6259V42.6007V42.5756C1.0575 42.2483 1.0575 41.9461 1.0575 41.6188V41.5936H1.63658C1.63658 41.9209 1.61141 42.2734 1.61141 42.6007C1.61141 65.0593 19.7394 83.2628 42.1727 83.4138V82.8347C20.1422 82.583 2.2912 64.6312 2.2912 42.5C2.2912 42.1727 2.2912 41.8202 2.31638 41.4929H2.89547C2.89547 41.8202 2.87029 42.1727 2.87029 42.5C2.87029 64.3039 20.4695 82.0039 42.2483 82.1298V74.5765C24.649 74.4254 10.4236 60.1244 10.4236 42.5C10.4236 42.1727 10.4236 41.8202 10.4488 41.4929H11.0279C11.0279 41.8202 11.0027 42.1727 11.0027 42.5C11.0027 59.7971 24.9763 73.8463 42.2483 73.9974V73.4938C25.2533 73.3427 11.5063 59.5202 11.5063 42.5C11.5063 42.1727 11.5062 41.8202 11.5314 41.4929H12.1357C12.1357 41.8202 12.1105 42.1727 12.1105 42.5C12.1105 59.1929 25.5806 72.7385 42.2231 72.8895V72.8644H42.7518V83.9677H42.2231V83.8922H42.2483Z" fill="#FFCC00"/>
<path fill-rule="evenodd" clip-rule="evenodd" d="M42.3993 1.08276C64.9333 1.08276 83.2375 19.0848 83.7914 41.4678H1.00708C1.56099 19.0848 19.8904 1.08276 42.3993 1.08276Z" fill="#FFCC00"/>
<path fill-rule="evenodd" clip-rule="evenodd" d="M1.71204 40.9139H83.2627C82.4318 19.0596 64.4549 1.68701 42.5 1.68701C20.5702 1.68701 2.56808 19.0596 1.71204 40.9139Z" fill="white"/>
<path fill-rule="evenodd" clip-rule="evenodd" d="M42.4999 4.78394C62.9946 4.78394 79.6874 21.1243 80.2161 41.4931H4.78369C5.3376 21.1243 22.0053 4.78394 42.4999 4.78394Z" fill="#FFCC00"/>
<path fill-rule="evenodd" clip-rule="evenodd" d="M5.38806 40.914H79.5868C78.756 21.0991 62.3904 5.36304 42.4749 5.36304C22.5844 5.36304 6.2441 21.0739 5.38806 40.914Z" fill="#002ED3"/>
<path fill-rule="evenodd" clip-rule="evenodd" d="M42.3993 8.43457C60.8546 8.43457 75.9108 23.1384 76.4396 41.4677H8.35901C8.88774 23.1384 23.944 8.43457 42.3993 8.43457Z" fill="#FFCC00"/>
<path fill-rule="evenodd" clip-rule="evenodd" d="M9.06396 40.9138H75.9108C75.08 23.1132 60.3762 9.03882 42.4748 9.03882C24.6238 9.03882 9.92001 23.1132 9.06396 40.9138Z" fill="#E21C2A"/>
<path fill-rule="evenodd" clip-rule="evenodd" d="M42.4244 12.1106C59.1928 12.1106 72.8139 25.7317 72.8139 42.5001C72.8139 59.2685 59.1928 72.8896 42.4244 72.8896C25.6561 72.8896 12.0349 59.2685 12.0349 42.5001C12.0349 25.7317 25.6561 12.1106 42.4244 12.1106Z" fill="#FFCC00"/>
<path fill-rule="evenodd" clip-rule="evenodd" d="M42.4244 12.614C58.9158 12.614 72.3104 26.0086 72.3104 42.5C72.3104 58.9914 58.9158 72.3859 42.4244 72.3859C25.933 72.3859 12.5385 59.0166 12.5385 42.5C12.5385 26.0086 25.933 12.614 42.4244 12.614Z" fill="white"/>
<path fill-rule="evenodd" clip-rule="evenodd" d="M52.0926 61.6854C50.8338 62.8436 49.4742 64.0773 47.9887 64.883C47.4348 65.1851 46.8809 65.4117 46.3018 65.6383C44.9422 66.1671 43.9854 66.5951 42.8524 67.5518C42.6762 67.7029 42.4999 67.6777 42.2985 67.5267C41.1655 66.5699 40.2088 66.1419 38.8492 65.6132C38.2701 65.3866 37.7162 65.16 37.1623 64.8578C35.6768 64.0521 34.3172 62.8184 33.0583 61.6603L31.5224 61.8365L31.4217 61.5344C30.6664 59.1173 30.5153 56.524 32.026 54.3587L32.4288 53.7796L32.6806 54.4594C33.3101 56.247 34.3423 57.8332 35.7523 59.1173L36.2055 59.5201L35.6264 59.7216C35.148 59.8978 34.7452 60.1748 34.4431 60.5524L36.4573 61.4588C37.3133 61.6099 38.119 62.0883 39.0002 61.5847C40.7123 60.628 40.8634 56.4988 40.8886 54.8623L41.0144 47.9888L41.09 45.8235L41.518 32.9828H38.8492C38.547 32.9828 38.2701 32.731 38.2701 32.4037V31.2204C38.2701 30.9183 38.5218 30.6413 38.8492 30.6413H40.3095C39.4282 29.9867 38.8743 28.9544 38.8743 27.771C38.8743 25.782 40.4857 24.1958 42.4496 24.1958C44.4386 24.1958 46.0248 25.8072 46.0248 27.771C46.0248 28.9544 45.4457 29.9867 44.5897 30.6413H46.2262C46.5284 30.6413 46.8053 30.8931 46.8053 31.2204V32.4289C46.8053 32.7311 46.5535 33.008 46.2262 33.008H43.5826L44.0861 48.0391L44.212 54.9126C44.2372 56.524 44.3883 60.6783 46.1003 61.6351C46.9816 62.1386 47.7873 61.6351 48.6433 61.5092L50.6575 60.6028C50.3554 60.2251 49.9525 59.9482 49.4742 59.7719L48.8951 59.5705L49.3483 59.1677C50.7582 57.8836 51.7653 56.2974 52.42 54.5098L52.6717 53.83L53.0746 54.4091C54.5852 56.5744 54.4342 59.1677 53.6788 61.5847L53.5781 61.8869L52.0926 61.6854ZM42.4999 26.2352C43.356 26.2352 44.0609 26.9402 44.0609 27.7962C44.0609 28.6523 43.356 29.3572 42.4999 29.3572C41.6439 29.3572 40.9389 28.6523 40.9389 27.7962C40.9389 26.9402 41.6439 26.2352 42.4999 26.2352Z" fill="#2C2C2B"/>
<path fill-rule="evenodd" clip-rule="evenodd" d="M42.6007 32.3535H43.2553L43.6833 45.8488L43.7589 48.0141L43.8847 54.8876C44.0358 64.2285 47.6362 62.0129 48.7944 61.8115L51.2618 60.7037C50.8841 60.0994 50.3554 59.6462 49.6504 59.3944C51.1107 58.0348 52.1682 56.4235 52.8228 54.5855C54.0314 56.3227 54.258 58.6139 53.3767 61.4338L51.9668 61.2576C50.5568 62.5668 49.2224 63.7502 47.8125 64.5307C46.1004 65.4623 44.6904 65.4874 42.6259 67.2247C42.5755 67.2499 42.6007 67.2499 42.5503 67.1995C40.4857 65.4623 39.0758 65.4371 37.3637 64.5055C35.9538 63.725 34.6193 62.5416 33.2094 61.2324L31.7994 61.4086C30.9182 58.5887 31.1448 56.2976 32.3533 54.5603C33.008 56.3731 34.0403 58.0097 35.5257 59.3692C34.8208 59.621 34.2668 60.0994 33.9144 60.6785L36.3818 61.7863C37.54 61.9626 41.1404 64.1782 41.2914 54.8624L41.4173 47.9889L41.4929 45.8236L41.9209 32.3284H42.6007V32.3535Z" fill="#FFCC00"/>
<path fill-rule="evenodd" clip-rule="evenodd" d="M42.7769 34.2668V64.3794C43.9099 64.3542 44.8919 64.2283 45.7731 64.0269C46.7298 63.8003 47.5607 63.4982 48.2909 63.0953C49.1469 62.6421 49.9778 62.0379 50.6576 61.3329C51.2618 60.7035 51.7906 59.9985 52.1179 59.1928C52.3696 58.5885 52.5459 57.9087 52.6214 57.1282C52.697 56.4736 52.7221 55.7938 52.6718 55.0636C52.6718 55.0133 52.6466 54.9881 52.6718 54.9378L52.8228 54.5601L53.0243 54.9378C53.0494 54.9629 53.0243 55.0133 53.0243 55.0385C53.0746 55.7938 53.0494 56.4988 52.9739 57.1786C52.8732 57.9843 52.697 58.7144 52.4452 59.3439C52.0927 60.1747 51.5388 60.9301 50.9093 61.6098C50.1792 62.34 49.3231 62.9694 48.4419 63.4478C47.6866 63.8507 46.8305 64.178 45.8486 64.4046C44.9422 64.606 43.9351 64.7319 42.7769 64.7571V66.8216H42.3993V64.7571C41.2411 64.7319 40.234 64.606 39.3276 64.4046C38.3456 64.178 37.4896 63.8507 36.7343 63.4478C35.8531 62.9694 34.997 62.3652 34.2669 61.6098C33.6122 60.9552 33.0835 60.1999 32.731 59.3439C32.4541 58.7144 32.2778 57.9843 32.2023 57.1786C32.1268 56.4988 32.1016 55.819 32.1519 55.0385C32.1519 55.0133 32.1519 54.9629 32.1519 54.9378L32.3534 54.5601L32.5044 54.9378C32.5296 54.9881 32.5044 55.0133 32.5044 55.0636C32.4541 55.7938 32.4792 56.4988 32.5548 57.1282C32.6303 57.8835 32.8066 58.5885 33.0583 59.1928C33.3856 59.9985 33.9144 60.7035 34.5186 61.3329C35.2236 62.0379 36.0545 62.6421 36.8853 63.0953C37.6155 63.4982 38.4464 63.8003 39.4031 64.0269C40.2843 64.2283 41.2663 64.3542 42.3993 64.3794V34.2668H42.7769Z" fill="#2C2C2B"/>
<path fill-rule="evenodd" clip-rule="evenodd" d="M42.5755 31.019H46.2514C46.3521 31.019 46.4529 31.1197 46.4529 31.2204V32.4289C46.4529 32.5296 46.3521 32.6304 46.2514 32.6304H42.5755H38.8995C38.7988 32.6304 38.6981 32.5296 38.6981 32.4289V31.2204C38.6981 31.1197 38.7988 31.019 38.8995 31.019H42.5755ZM42.5 24.5735C44.2876 24.5735 45.7227 26.0086 45.7227 27.7962C45.7227 29.5839 44.2876 31.019 42.5 31.019C40.7123 31.019 39.2772 29.5839 39.2772 27.7962C39.2772 26.0086 40.7375 24.5735 42.5 24.5735ZM42.5 25.8324C43.5826 25.8324 44.4638 26.7136 44.4638 27.7962C44.4638 28.8789 43.5826 29.7601 42.5 29.7601C41.4173 29.7601 40.5361 28.8789 40.5361 27.7962C40.5361 26.7136 41.4173 25.8324 42.5 25.8324Z" fill="#FFCC00"/>
<path fill-rule="evenodd" clip-rule="evenodd" d="M45.8989 42.198L45.8485 42.2232L45.6975 42.1476C45.496 42.0469 45.2694 41.9966 45.068 41.8958L44.4637 41.5937L45.0428 41.2412C45.9744 40.6873 46.8808 39.8061 47.6361 39.0256C48.3663 38.3206 49.0964 37.5653 49.877 36.9107C50.7834 36.1553 51.6142 35.8028 52.7976 35.7021C52.9235 35.7021 53.0242 35.6769 53.1501 35.6769C54.2831 35.6266 55.4161 35.9791 56.4735 36.3316C59.0668 37.1876 61.5594 38.4717 64.2031 39.1515C65.3109 39.3277 66.7712 39.4536 67.8538 39.0508C68.1812 38.95 68.584 38.8997 68.8106 39.2018C69.0624 39.5543 68.861 40.0075 68.6344 40.2845C68.4833 40.4607 68.307 40.637 68.1308 40.788L68.0301 41.0398C67.7531 41.7951 67.2244 42.2987 66.5194 42.4498C66.1669 43.4065 65.613 43.7338 64.6815 43.7086C64.329 44.6654 63.6743 44.7409 62.8435 44.6906L62.8183 44.7409C62.4658 45.3955 61.6601 45.4963 60.8041 45.3704C60.6278 45.6725 60.3761 45.8991 60.0488 45.9998C59.4193 46.2264 58.6892 46.025 58.0094 45.7732C57.959 45.8487 57.9338 45.9243 57.8331 45.9746C57.0526 46.4782 55.9951 46.2516 55.0636 45.8487C55.0132 45.9243 54.988 45.9746 54.8873 46.025C52.722 47.2335 50.7582 44.7409 48.9957 43.9604C48.8447 43.8849 48.6684 43.8345 48.6181 43.6835C48.3411 43.6331 48.0893 43.482 47.7117 43.2554L45.8989 42.198Z" fill="#2C2C2B"/>
<path fill-rule="evenodd" clip-rule="evenodd" d="M45.8233 41.8203C45.6219 41.7196 45.3953 41.6693 45.1938 41.5686C46.78 40.6118 48.5928 38.4465 50.1035 37.2128C50.9344 36.5078 51.7149 36.1805 52.7975 36.0798C52.8982 36.0798 53.0241 36.0546 53.1248 36.0546C54.2075 36.0043 55.3153 36.3568 56.3224 36.6841C58.9157 37.5149 61.4587 38.8494 64.1023 39.504C65.8648 39.7809 67.0985 39.7054 67.9545 39.3781C68.9868 39.0256 68.5336 40.2845 67.3502 40.788C66.5697 41.1154 65.7389 40.9643 64.9332 40.8132C63.2463 40.5111 61.5594 39.932 59.8221 39.2019C58.3366 38.5724 56.9518 37.7415 55.3908 37.2632C53.9053 36.81 52.6465 36.7093 51.589 37.1876C49.9273 37.943 48.4418 40.4859 45.8233 41.8203Z" fill="#FFCC00"/>
<path fill-rule="evenodd" clip-rule="evenodd" d="M51.0099 37.8423C53.2507 36.0295 56.6749 37.9934 58.966 39.0509C59.2178 39.1768 59.2682 39.1516 59.2682 39.4285C59.243 39.5796 59.0668 39.6803 58.8402 39.7307C58.3618 39.8314 58.0093 39.6551 57.5561 39.4789C55.4663 38.6984 53.4018 37.7164 51.1106 37.943C50.884 37.943 50.8085 37.9934 51.0099 37.8423Z" fill="#FFCC00"/>
<path fill-rule="evenodd" clip-rule="evenodd" d="M58.5128 39.9823C59.1423 39.9067 59.5199 39.7053 59.5451 39.3276C61.3579 40.1585 63.8001 40.9894 66.0661 41.216C66.7208 41.2663 67.1236 41.1404 67.6523 40.9642C67.3502 41.8454 66.6452 42.2483 65.764 42.1979C63.3973 42.0217 61.2572 41.4426 58.5128 39.9823Z" fill="#FFCC00"/>
<path fill-rule="evenodd" clip-rule="evenodd" d="M49.902 38.7738C50.179 38.5472 50.3552 38.2702 50.7077 38.2199C52.9233 37.817 55.6677 39.0004 57.6064 39.7557C58.1351 39.9571 57.8078 40.36 57.405 40.4355C56.9266 40.5362 56.5741 40.4859 56.1209 40.3096C54.0312 39.5291 52.3694 38.3458 49.9776 38.8745C49.7761 38.9249 49.6754 38.95 49.902 38.7738Z" fill="#FFCC00"/>
<path fill-rule="evenodd" clip-rule="evenodd" d="M56.9771 40.6873C57.6317 40.6621 58.0849 40.4607 58.11 40.083C59.797 40.8383 62.9945 42.5504 66.1921 42.349C65.89 43.2302 65.4116 43.4316 64.5304 43.3813C63.5736 43.3058 62.642 43.054 61.6601 42.7267C60.1998 42.2735 58.6136 41.5685 56.9771 40.6873Z" fill="#FFCC00"/>
<path fill-rule="evenodd" clip-rule="evenodd" d="M48.9957 39.6298C49.2726 39.4032 49.474 39.1766 49.8013 39.1011C52.0422 38.5472 54.006 39.6802 55.9447 40.4858C56.4734 40.7124 56.1965 41.0398 55.7936 41.1153C55.3153 41.216 54.9628 41.1656 54.5096 40.9894C52.4198 40.2089 51.4883 39.2018 49.0964 39.7305C48.8949 39.7557 48.7942 39.806 48.9957 39.6298Z" fill="#FFCC00"/>
<path fill-rule="evenodd" clip-rule="evenodd" d="M55.3405 41.3672C55.9951 41.342 56.4483 41.1406 56.4735 40.7629C57.6316 41.2413 61.1817 43.2304 64.3289 43.5828C64.0268 44.4641 63.3973 44.3885 62.5161 44.3382C60.8292 44.2375 56.8259 42.1729 55.3405 41.3672Z" fill="#FFCC00"/>
<path fill-rule="evenodd" clip-rule="evenodd" d="M48.2404 40.3852C48.5173 40.1586 48.4921 40.0831 48.8194 39.9824C51.2113 39.3026 52.5206 40.4104 54.4593 41.2161C54.988 41.4427 54.8369 41.6693 54.4341 41.7448C53.9557 41.8455 53.6536 41.6441 53.2004 41.493C51.1358 40.8384 50.8337 40.2845 48.3411 40.4607C48.1145 40.4859 48.0389 40.5363 48.2404 40.3852Z" fill="#FFCC00"/>
<path fill-rule="evenodd" clip-rule="evenodd" d="M53.9808 42.0217C54.6103 41.9965 54.9879 41.8203 55.0131 41.4426C55.8943 41.8203 58.2107 43.1799 60.6026 44.0611C61.2068 44.2877 61.8615 44.5395 62.4657 44.5898C61.4586 46.4782 55.2649 42.4497 53.9808 42.0217Z" fill="#FFCC00"/>
<path fill-rule="evenodd" clip-rule="evenodd" d="M47.5857 40.8886C47.8627 40.662 47.8123 40.662 48.1396 40.6369C51.0602 40.511 51.3372 41.1404 52.9989 41.6943C53.5528 41.8706 53.2759 42.1727 52.873 42.1979C51.3624 42.3238 49.6503 40.7376 47.7871 40.9893C47.5857 41.0145 47.3591 41.0649 47.5857 40.8886Z" fill="#FFCC00"/>
<path fill-rule="evenodd" clip-rule="evenodd" d="M52.5709 42.5001C53.2004 42.475 53.5025 42.3742 53.5025 41.9966C55.6426 42.8526 58.3114 44.7661 60.5019 45.1438C60.376 45.3956 60.1746 45.5718 59.9228 45.6725C59.1423 45.9747 58.0345 45.3956 57.3547 45.0683C55.4412 44.187 53.2759 42.7267 52.5709 42.5001Z" fill="#FFCC00"/>
<path fill-rule="evenodd" clip-rule="evenodd" d="M51.1107 42.8778C51.589 42.8274 51.866 42.7015 52.0171 42.4246C53.9809 43.3813 55.693 44.6906 57.7072 45.5466C57.682 45.597 57.6569 45.6473 57.6317 45.6725C55.9196 46.7551 52.294 43.7086 51.0351 42.9785C50.7833 42.8526 50.8841 42.9029 51.1107 42.8778Z" fill="#FFCC00"/>
<path fill-rule="evenodd" clip-rule="evenodd" d="M49.1468 43.5071C49.6251 43.4568 50.0783 43.2302 50.2797 43.0036C50.3049 42.9532 50.3301 42.928 50.3553 42.8777C50.456 42.928 50.5567 42.9784 50.6322 43.0539C52.1933 43.9855 52.8479 44.8164 54.7866 45.5969C54.7614 45.6472 54.7362 45.6976 54.711 45.7228C52.7723 46.8054 50.7833 44.3632 49.1468 43.633C48.895 43.5323 48.8698 43.5323 49.1468 43.5071Z" fill="#FFCC00"/>
<path fill-rule="evenodd" clip-rule="evenodd" d="M47.0318 41.342C47.3088 41.1154 47.2584 41.1909 47.5857 41.1658C48.1144 41.1406 48.6432 41.1154 49.1215 41.2665C49.8769 41.4931 50.5819 41.9463 51.4127 42.1477C51.6141 42.198 51.7148 42.2484 51.7148 42.2988C51.7652 42.5002 51.1106 42.8023 50.607 42.7016C49.5244 42.475 48.9453 41.77 47.2332 41.4679C47.0318 41.4175 46.8304 41.5182 47.0318 41.342Z" fill="#FFCC00"/>
<path fill-rule="evenodd" clip-rule="evenodd" d="M47.8879 42.9534L46.1758 41.9463L46.7549 41.5686C47.0066 41.5686 47.5606 41.6945 48.1648 41.9463C48.7439 42.198 49.4489 42.4246 49.7762 42.7268C50.0783 43.0037 49.7762 43.1296 49.2475 43.2807C48.5928 43.4318 48.467 43.2807 47.8879 42.9534Z" fill="#FFCC00"/>
<path fill-rule="evenodd" clip-rule="evenodd" d="M39.0002 42.198L39.0506 42.2232L39.2017 42.1476C39.4031 42.0469 39.6297 41.9966 39.8311 41.8958L40.4354 41.5937L39.8563 41.2412C38.9247 40.6873 38.0183 39.8061 37.263 39.0256C36.5328 38.3206 35.8027 37.5653 35.0222 36.9107C34.1158 36.1553 33.2849 35.8028 32.1015 35.7021C31.9756 35.7021 31.8749 35.6769 31.749 35.6769C30.6161 35.6266 29.4831 35.9791 28.4256 36.3316C25.8323 37.1876 23.3649 38.4717 20.696 39.1515C19.5882 39.3277 18.1279 39.4536 17.0453 39.0508C16.7179 38.95 16.3151 38.8997 16.0885 39.2018C15.8367 39.5543 16.0382 40.0075 16.2647 40.2845C16.4158 40.4607 16.5921 40.637 16.7683 40.788L16.869 41.0398C17.146 41.7951 17.6747 42.2987 18.3797 42.4498C18.7322 43.4065 19.2861 43.7338 20.2177 43.7086C20.5701 44.6654 21.2248 44.7409 22.0556 44.6906L22.0808 44.7409C22.4333 45.3955 23.239 45.4963 24.095 45.3704C24.2713 45.6725 24.523 45.8991 24.8504 45.9998C25.4798 46.2264 26.21 46.025 26.8898 45.7732C26.9401 45.8487 26.9653 45.9243 27.066 45.9746C27.8465 46.4782 28.904 46.2516 29.8355 45.8487C29.8859 45.9243 29.9111 45.9746 30.0118 46.025C32.1771 47.2335 34.1409 44.7409 35.9034 43.9604C36.0544 43.8849 36.2307 43.8345 36.281 43.6835C36.558 43.6331 36.8098 43.482 37.1874 43.2554L39.0002 42.198Z" fill="#2C2C2B"/>
<path fill-rule="evenodd" clip-rule="evenodd" d="M39.0758 41.8203C39.2772 41.7196 39.5038 41.6693 39.7053 41.5686C38.1191 40.6118 36.3063 38.4465 34.7956 37.2128C33.9647 36.5078 33.1842 36.1805 32.1016 36.0798C32.0009 36.0798 31.875 36.0546 31.7743 36.0546C30.6916 36.0043 29.5838 36.3568 28.5767 36.6841C25.9834 37.5149 23.4404 38.8494 20.7968 39.504C19.0343 39.7809 17.8006 39.7054 16.9446 39.3781C15.9123 39.0256 16.3655 40.2845 17.5489 40.788C18.3294 41.1154 19.1602 40.9643 19.9659 40.8132C21.6528 40.5111 23.3397 39.932 25.077 39.2019C26.5625 38.5724 27.9473 37.7415 29.5083 37.2632C30.9938 36.81 32.2526 36.7093 33.3101 37.1876C34.9718 37.943 36.4573 40.4859 39.0758 41.8203Z" fill="#FFCC00"/>
<path fill-rule="evenodd" clip-rule="evenodd" d="M33.8892 37.8423C31.6483 36.0295 28.2242 37.9934 25.933 39.0509C25.6812 39.1768 25.6309 39.1516 25.6309 39.4285C25.656 39.5796 25.8323 39.6803 26.0589 39.7307C26.5373 39.8314 26.8897 39.6551 27.3429 39.4789C29.4327 38.6984 31.4973 37.7164 33.7884 37.943C33.9899 37.943 34.0906 37.9934 33.8892 37.8423Z" fill="#FFCC00"/>
<path fill-rule="evenodd" clip-rule="evenodd" d="M26.3611 39.9823C25.7316 39.9067 25.354 39.7053 25.3288 39.3276C23.516 40.1585 21.0737 40.9894 18.8078 41.216C18.1531 41.2663 17.7503 41.1404 17.2216 40.9642C17.5237 41.8454 18.2287 42.2483 19.1099 42.1979C21.5018 42.0217 23.6419 41.4426 26.3611 39.9823Z" fill="#FFCC00"/>
<path fill-rule="evenodd" clip-rule="evenodd" d="M34.9971 38.7738C34.7201 38.5472 34.5439 38.2702 34.1914 38.2199C31.9757 37.817 29.2314 39.0004 27.2927 39.7557C26.7639 39.9571 27.0913 40.36 27.4941 40.4355C27.9725 40.5362 28.325 40.4859 28.7782 40.3096C30.8679 39.5291 32.5296 38.3458 34.9215 38.8745C35.0978 38.9249 35.1985 38.95 34.9971 38.7738Z" fill="#FFCC00"/>
<path fill-rule="evenodd" clip-rule="evenodd" d="M27.9221 40.6873C27.2675 40.6621 26.8143 40.4607 26.7891 40.083C25.1022 40.8383 21.9046 42.5504 18.707 42.349C19.0092 43.2302 19.4875 43.4316 20.3688 43.3813C21.3255 43.3058 22.2571 43.054 23.239 42.7267C24.6993 42.2735 26.2855 41.5685 27.9221 40.6873Z" fill="#FFCC00"/>
<path fill-rule="evenodd" clip-rule="evenodd" d="M35.9035 39.6298C35.6265 39.4032 35.4251 39.1766 35.0978 39.1011C32.857 38.5472 30.8931 39.6802 28.9544 40.4858C28.4257 40.7124 28.7026 41.0398 29.1055 41.1153C29.5839 41.216 29.9363 41.1656 30.3895 40.9894C32.4793 40.2089 33.4109 39.2018 35.8028 39.7305C36.0042 39.7557 36.1049 39.806 35.9035 39.6298Z" fill="#FFCC00"/>
<path fill-rule="evenodd" clip-rule="evenodd" d="M29.5335 41.3672C28.8789 41.342 28.4257 41.1406 28.4005 40.7629C27.2423 41.2413 23.6923 43.2304 20.545 43.5828C20.8472 44.4641 21.4766 44.3885 22.3578 44.3382C24.0699 44.2375 28.0732 42.1729 29.5335 41.3672Z" fill="#FFCC00"/>
<path fill-rule="evenodd" clip-rule="evenodd" d="M36.6587 40.3852C36.3818 40.1586 36.4069 40.0831 36.0796 39.9824C33.6877 39.3026 32.3785 40.4104 30.4398 41.2161C29.9111 41.4427 30.0621 41.6693 30.465 41.7448C30.9434 41.8455 31.2455 41.6441 31.6987 41.493C33.7633 40.8384 34.0654 40.2845 36.558 40.4607C36.7594 40.4859 36.8601 40.5363 36.6587 40.3852Z" fill="#FFCC00"/>
<path fill-rule="evenodd" clip-rule="evenodd" d="M30.8931 42.0217C30.2637 41.9965 29.886 41.8203 29.8608 41.4426C28.9796 41.8203 26.6632 43.1799 24.2714 44.0611C23.6671 44.2877 23.0125 44.5395 22.4082 44.5898C23.4405 46.4782 29.6342 42.4497 30.8931 42.0217Z" fill="#FFCC00"/>
<path fill-rule="evenodd" clip-rule="evenodd" d="M37.3133 40.8886C37.0364 40.662 37.0867 40.662 36.7594 40.6369C33.8388 40.511 33.5618 41.1404 31.9001 41.6943C31.3462 41.8706 31.6232 42.1727 32.026 42.1979C33.5367 42.3238 35.2487 40.7376 37.1119 40.9893C37.2881 41.0145 37.5147 41.0649 37.3133 40.8886Z" fill="#FFCC00"/>
<path fill-rule="evenodd" clip-rule="evenodd" d="M32.3282 42.5001C31.6988 42.475 31.3966 42.3742 31.3966 41.9966C29.2565 42.8526 26.5877 44.7661 24.3972 45.1438C24.5231 45.3956 24.7245 45.5718 24.9763 45.6725C25.7568 45.9747 26.8646 45.3956 27.5444 45.0683C29.4328 44.187 31.6232 42.7267 32.3282 42.5001Z" fill="#FFCC00"/>
<path fill-rule="evenodd" clip-rule="evenodd" d="M33.7885 42.8778C33.3101 42.8274 33.0331 42.7015 32.8821 42.4246C30.9182 43.3813 29.2061 44.6906 27.1919 45.5466C27.2171 45.597 27.2423 45.6473 27.2674 45.6725C28.9795 46.7551 32.6051 43.7086 33.864 42.9785C34.1158 42.8526 34.0151 42.9029 33.7885 42.8778Z" fill="#FFCC00"/>
<path fill-rule="evenodd" clip-rule="evenodd" d="M35.7524 43.5071C35.274 43.4568 34.8208 43.2302 34.6194 43.0036C34.5942 42.9532 34.569 42.928 34.5438 42.8777C34.4431 42.928 34.3424 42.9784 34.2669 43.0539C32.7059 43.9855 32.0512 44.8164 30.1125 45.5969C30.1377 45.6472 30.1629 45.6976 30.1881 45.7228C32.1268 46.8054 34.1158 44.3632 35.7524 43.633C35.979 43.5323 36.0293 43.5323 35.7524 43.5071Z" fill="#FFCC00"/>
<path fill-rule="evenodd" clip-rule="evenodd" d="M37.8673 41.342C37.5904 41.1154 37.6407 41.1909 37.3134 41.1658C36.7847 41.1406 36.2559 41.1154 35.7776 41.2665C35.0222 41.4931 34.3173 41.9463 33.4864 42.1477C33.285 42.198 33.1843 42.2484 33.1843 42.2988C33.1339 42.5002 33.7885 42.8023 34.2921 42.7016C35.3747 42.475 35.9538 41.77 37.6659 41.4679C37.8673 41.4175 38.0687 41.5182 37.8673 41.342Z" fill="#FFCC00"/>
<path fill-rule="evenodd" clip-rule="evenodd" d="M37.0113 42.9534L38.7234 41.9463L38.1443 41.5686C37.8925 41.5686 37.3386 41.6945 36.7343 41.9463C36.1552 42.198 35.4503 42.4246 35.123 42.7268C34.8208 43.0037 35.123 43.1296 35.6517 43.2807C36.3063 43.4318 36.4322 43.2807 37.0113 42.9534Z" fill="#FFCC00"/>
<path fill-rule="evenodd" clip-rule="evenodd" d="M51.9416 53.402L25.5553 26.3611C25.0014 25.7569 24.6741 25.1274 24.6238 24.3217C24.5986 24.1203 24.5986 23.9693 24.5734 23.7427L24.5482 23.365L25.0266 23.3902C25.2532 23.3902 25.4798 23.3902 25.7064 23.4153C26.4365 23.4909 27.0156 23.8182 27.5695 24.3469L54.6104 50.7332C52.7976 52.7222 53.2256 51.5137 51.9416 53.402Z" fill="#2C2C2B"/>
<path fill-rule="evenodd" clip-rule="evenodd" d="M57.8331 58.1103C58.2611 58.6139 58.7647 59.0671 59.4193 59.2433C59.7466 59.344 59.9481 59.344 60.1998 59.0671C60.2502 59.0167 60.3005 58.9664 60.3761 58.8908C60.6027 58.6642 60.6782 58.5384 60.653 58.1859C60.6027 57.3298 60.1243 56.7759 59.4445 56.3731C59.4445 56.2472 59.4193 56.1213 59.3186 56.0206L59.092 55.794C58.9661 55.6681 58.8151 55.6429 58.664 55.6681L54.8873 51.3627L54.2075 50.4563L53.704 51.5893L51.8408 52.7727L52.5206 53.3266L52.9486 53.7546L57.0274 57.355C57.0023 57.5061 57.0274 57.6571 57.1533 57.7578L57.3799 57.9844C57.4806 58.1607 57.6821 58.1859 57.8331 58.1103Z" fill="#2C2C2B"/>
<path fill-rule="evenodd" clip-rule="evenodd" d="M53.7795 51.9922L53.6032 53.8805L53.2004 53.5029L52.7724 53.0749L52.4702 52.8483L53.7795 51.9922ZM58.3618 56.5997L58.4122 55.9451L58.6891 56.2724L58.3618 56.5997ZM58.1856 55.7185L58.0848 56.8767L57.5561 57.4054L57.4806 57.3299L57.682 55.1394L58.1856 55.7185ZM57.4806 54.8876L57.2792 57.1285L56.7756 56.6753L57.0022 54.3086L57.4806 54.8876ZM56.7756 54.082L56.549 56.499L56.0455 56.0458L56.2972 53.5281L56.7756 54.082ZM56.0455 53.2511L55.7937 55.8192L55.2901 55.366L55.5419 52.672L56.0455 53.2511ZM55.3405 52.4454L55.0887 55.1898L54.5851 54.7366L54.8621 51.8663L55.3405 52.4454ZM54.6103 51.6145L54.3334 54.51L53.8298 54.0568L54.0564 51.7153L54.3082 51.1865L54.6103 51.6145Z" fill="#FFCC00"/>
<path fill-rule="evenodd" clip-rule="evenodd" d="M57.9087 57.6068L58.6388 56.8263L58.664 56.8515C58.8654 57.0025 59.1172 57.204 59.3186 57.4557C59.5452 57.7075 59.7215 58.0097 59.7718 58.3873C59.7718 58.4377 59.8474 58.488 59.8977 58.488C59.9481 58.488 59.9984 58.4125 59.9984 58.3621C59.9481 57.9593 59.7467 57.6068 59.4949 57.3299C59.2683 57.0529 58.9913 56.8263 58.7899 56.6752L58.941 56.5242C59.7215 56.9018 60.2754 57.4054 60.3258 58.2363C60.3258 58.4629 60.3006 58.488 60.1495 58.6643C60.0992 58.7146 60.0488 58.765 59.9733 58.8405C59.8222 58.9916 59.7718 58.9664 59.5452 58.9161C58.9662 58.7398 58.4122 58.337 57.9087 57.6068Z" fill="#FFCC00"/>
<path fill-rule="evenodd" clip-rule="evenodd" d="M59.0417 55.7687C58.8655 55.5925 58.5633 55.6177 58.3871 55.8191L57.1282 57.229C56.952 57.4053 56.9771 57.7074 57.1534 57.8837L57.38 58.0851C57.5562 58.2613 57.8584 58.2362 58.0346 58.0347L59.2935 56.6248C59.4697 56.4485 59.4446 56.1464 59.2683 55.9702L59.0417 55.7687Z" fill="#2C2C2B"/>
<path fill-rule="evenodd" clip-rule="evenodd" d="M58.815 56.0458L59.0416 56.2473C59.0668 56.2724 59.0668 56.3228 59.0416 56.3731L57.7827 57.7831C57.7576 57.8335 57.682 57.8335 57.6569 57.8083L57.4303 57.6069C57.4051 57.5817 57.4051 57.5313 57.4303 57.481L58.6891 56.071C58.7143 56.0207 58.7647 56.0207 58.815 56.0458Z" fill="#FFCC00"/>
<path fill-rule="evenodd" clip-rule="evenodd" d="M53.2256 52.546L44.0357 43.1547L24.9762 24.07C24.951 24.9009 25.228 25.5052 25.807 26.1346L52.0674 53.0496L53.2256 52.546ZM53.7291 52.0425L44.3379 42.8526L25.2783 23.7931C26.1092 23.7679 26.7134 24.0449 27.3429 24.6239L54.2579 50.8843L53.7291 52.0425Z" fill="#D9DBDC"/>
<path fill-rule="evenodd" clip-rule="evenodd" d="M56.0707 48.6685C56.5239 48.6937 57.0274 48.4167 57.3044 48.1398C57.682 47.7621 58.1101 46.9061 57.6317 46.4277C57.1785 45.9745 56.2721 46.327 55.8692 46.7298C55.5671 47.032 55.3153 47.5607 55.3657 48.0139L51.7401 50.582L49.172 54.2076C48.7188 54.1573 48.19 54.409 47.8879 54.7112C47.5102 55.0888 47.1326 55.9952 47.5858 56.4736C48.039 56.9268 48.9202 56.524 49.2979 56.1463C49.5748 55.8693 49.8518 55.3658 49.8266 54.9126L53.6788 52.5459L56.0707 48.6685Z" fill="#2C2C2B"/>
<path fill-rule="evenodd" clip-rule="evenodd" d="M53.4522 52.2438L49.4489 54.7112C49.6 54.9378 49.4741 55.4665 49.0713 55.8694C48.6432 56.2974 48.0642 56.3981 47.8879 56.1967C47.7117 56.0204 47.762 55.391 48.19 54.963C48.5677 54.5853 49.1216 54.4846 49.3734 54.6357L52.0422 50.859L55.8441 48.1902C55.7182 47.9636 55.7937 47.4097 56.1714 47.0068C56.5994 46.5788 57.2288 46.5284 57.4051 46.7047C57.5813 46.8809 57.4806 47.46 57.0778 47.888C56.6749 48.2909 56.1462 48.3916 55.9196 48.2657L53.4522 52.2438Z" fill="#FFCC00"/>
<path fill-rule="evenodd" clip-rule="evenodd" d="M50.0785 53.8553C50.0281 53.9057 50.0281 53.9812 50.0533 54.0316C50.1036 54.0819 50.1792 54.0567 50.2295 54.0064L52.7725 51.6648L53.0746 52.118C53.125 52.1684 53.3012 52.1432 53.3516 52.118C53.4019 52.0677 53.4019 51.9166 53.3516 51.8663L52.8984 51.5641L55.1895 49.0212C55.2399 48.9708 55.2902 48.9205 55.2399 48.8701C55.1895 48.8198 55.1392 48.8953 55.0888 48.9457L52.6466 51.2872L52.3445 50.8843C52.2941 50.834 52.143 50.8843 52.1179 50.9347C52.0675 50.9851 52.0423 51.0858 52.0927 51.1361L52.5207 51.4131L50.0785 53.8553Z" fill="#2C2C2B"/>
<path fill-rule="evenodd" clip-rule="evenodd" d="M27.1416 58.0599C26.7136 58.5635 26.1848 58.9915 25.5302 59.1677C25.1777 59.2433 25.0015 59.2684 24.7497 58.9915C24.6993 58.9411 24.649 58.8908 24.5735 58.8152C24.3469 58.5635 24.2713 58.4628 24.2965 58.1103C24.3469 57.2542 24.8504 56.7003 25.5302 56.3226C25.5302 56.1968 25.5554 56.0709 25.6561 55.9702L25.8827 55.7436C26.0086 55.6177 26.1848 55.5925 26.3359 55.6428L30.1881 51.3878L30.8931 50.5066L31.3966 51.6396L33.2346 52.8733L32.5296 53.402L32.1016 53.8301L27.9724 57.3549C27.9976 57.506 27.9473 57.6571 27.8466 57.7578L27.62 57.9844C27.5192 58.1103 27.3178 58.1354 27.1416 58.0599Z" fill="#2C2C2B"/>
<path fill-rule="evenodd" clip-rule="evenodd" d="M31.3211 52.0174L31.4722 53.9057L31.9002 53.5532L32.3282 53.1252L32.6304 52.8986L31.3211 52.0174ZM26.6632 56.5494L26.6129 55.8947L26.3359 56.1969L26.6632 56.5494ZM26.8395 55.643L26.9402 56.8011L27.4689 57.3299L27.5445 57.2543L27.3682 55.0639L26.8395 55.643ZM27.5696 54.8373L27.7459 57.0781L28.2746 56.6249L28.0984 54.2582L27.5696 54.8373ZM28.2998 54.0568L28.476 56.4738L29.0048 56.0206L28.8034 53.5028L28.2998 54.0568ZM29.03 53.2511L29.2314 55.8192L29.7601 55.366L29.5587 52.672L29.03 53.2511ZM29.7601 52.4454L29.9615 55.1898L30.4903 54.7366L30.2637 51.8663L29.7601 52.4454ZM30.4903 51.6397L30.7169 54.5603L31.2456 54.1071L31.0694 51.7656L30.8428 51.2117L30.4903 51.6397Z" fill="#FFCC00"/>
<path fill-rule="evenodd" clip-rule="evenodd" d="M27.0913 57.5562L26.3611 56.7757L26.3359 56.8009C26.1345 56.952 25.8827 57.1534 25.6561 57.4052C25.4295 57.657 25.2533 57.9591 25.2029 58.3368C25.2029 58.3871 25.1274 58.4375 25.077 58.4375C25.0267 58.4375 24.9763 58.3619 24.9763 58.3116C25.0267 57.9087 25.2533 57.5562 25.4799 57.2793C25.7065 57.0023 25.9834 56.8009 26.1849 56.6498L26.059 56.4988C25.2785 56.8513 24.7245 57.3548 24.649 58.1857C24.6238 58.4123 24.649 58.4375 24.8253 58.6137C24.8756 58.6641 24.926 58.7144 25.0015 58.79C25.1526 58.941 25.2029 58.941 25.4295 58.8655C26.0086 58.6641 26.5625 58.2612 27.0913 57.5562Z" fill="#FFCC00"/>
<path fill-rule="evenodd" clip-rule="evenodd" d="M32.9577 53.402L59.3439 26.3611C59.8978 25.7569 60.2251 25.1274 60.2755 24.3217C60.3007 24.1203 60.3007 23.9693 60.3258 23.7427L60.351 23.365L59.8726 23.3902C59.646 23.3902 59.4194 23.3902 59.1928 23.4153C58.4627 23.4909 57.8836 23.8182 57.3297 24.3469L30.2888 50.7332C32.1016 52.7222 31.6484 51.5137 32.9577 53.402Z" fill="#2C2C2B"/>
<path fill-rule="evenodd" clip-rule="evenodd" d="M25.9834 55.6932C26.1848 55.5169 26.4618 55.5673 26.638 55.7435L27.8717 57.1787C28.048 57.3801 28.0228 57.657 27.8214 57.8333L27.5948 58.0347C27.3933 58.2109 27.1164 58.1606 26.9401 57.9843L25.7064 56.5492C25.5554 56.3478 25.5554 56.0708 25.7568 55.8946L25.9834 55.6932Z" fill="#2C2C2B"/>
<path fill-rule="evenodd" clip-rule="evenodd" d="M26.21 55.9702L25.9834 56.1716C25.9582 56.1968 25.9582 56.2471 25.9834 56.2975L27.2171 57.7326C27.2422 57.7829 27.3178 57.7829 27.343 57.7578L27.5696 57.5563C27.5947 57.5312 27.5947 57.4808 27.5696 57.4305L26.3358 55.9953C26.3107 55.945 26.2603 55.945 26.21 55.9702Z" fill="#FFCC00"/>
<path fill-rule="evenodd" clip-rule="evenodd" d="M31.6484 52.546L40.8383 43.1547L59.923 24.07C59.9482 24.9009 59.6712 25.5052 59.0922 26.1346L32.8066 53.0244L31.6484 52.546ZM31.1701 52.0425L40.5614 42.8526L59.6209 23.7931C58.79 23.7679 58.1858 24.0449 57.5563 24.6239L30.6665 50.8843L31.1701 52.0425Z" fill="#D9DBDC"/>
<path fill-rule="evenodd" clip-rule="evenodd" d="M35.0222 54.963C34.9971 55.4162 35.274 55.9198 35.551 56.1967C35.9286 56.5744 36.7847 57.0024 37.263 56.5492C37.7414 56.096 37.3889 55.1896 36.9861 54.7868C36.684 54.4847 36.1552 54.2329 35.702 54.2581L33.1843 50.5821L29.5838 47.9636C29.6342 47.5104 29.4076 46.9817 29.1055 46.6796C28.7278 46.2767 27.8214 45.899 27.3682 46.3522C26.8898 46.8054 27.2927 47.6867 27.6703 48.0643C27.9473 48.3413 28.4508 48.6434 28.904 48.6182L31.1952 52.4956L35.0222 54.963Z" fill="#2C2C2B"/>
<path fill-rule="evenodd" clip-rule="evenodd" d="M31.4973 52.269L29.1054 48.2154C28.8788 48.3413 28.3501 48.2406 27.9724 47.8377C27.5696 47.4097 27.4688 46.8306 27.6451 46.6544C27.8465 46.4781 28.4508 46.5285 28.8788 46.9565C29.2565 47.3594 29.332 47.9133 29.2061 48.1399L32.9576 50.8842L35.5761 54.7113C35.8027 54.5854 36.3566 54.6609 36.7594 55.0637C37.1623 55.4918 37.2126 56.1212 37.0364 56.2975C36.835 56.4737 36.2559 56.373 35.853 55.945C35.4754 55.5421 35.3495 55.0134 35.5005 54.7868L31.4973 52.269Z" fill="#FFCC00"/>
<path fill-rule="evenodd" clip-rule="evenodd" d="M29.9364 48.87C29.886 48.8197 29.8105 48.7945 29.7601 48.8448C29.7098 48.8952 29.7349 48.9707 29.7853 49.0211L32.0765 51.5892L31.6233 51.8913C31.5729 51.9417 31.5981 52.1179 31.6233 52.1683C31.6736 52.2186 31.8247 52.2186 31.875 52.1683L32.1772 51.7151L34.6949 54.0314C34.7453 54.0818 34.7957 54.1322 34.846 54.0818C34.8964 54.0314 34.846 53.9811 34.7705 53.9307L32.4541 51.4633L32.857 51.1864C32.9073 51.136 32.857 50.9849 32.8318 50.9598C32.7814 50.9094 32.6807 50.8842 32.6304 50.9346L32.3534 51.3626L29.9364 48.87Z" fill="#2C2C2B"/>
<path fill-rule="evenodd" clip-rule="evenodd" d="M72.0838 29.4327L79.8134 27.066L80.6442 29.7348L77.9502 30.5657L81.1226 31.3714L81.8779 33.8136L73.7455 36.3062L72.9147 33.6373L75.5583 32.8317L72.4111 32.0008L71.681 29.6341L71.6054 29.6844L70.2458 27.2422L72.6629 25.9078L69.415 25.7567L68.1812 23.5159L75.6339 19.3868L76.9935 21.829L74.5512 23.1886L77.8243 23.3145L79.058 25.5553L72.0838 29.4327ZM65.7894 15.8619C65.9153 15.7108 66.0663 15.5597 66.2174 15.4087C67.0734 14.5778 68.1057 13.9735 69.3142 13.9484C70.4472 13.9232 71.4292 14.4016 72.2097 15.2073C72.8895 15.9122 73.3175 16.7683 73.3175 17.7502C73.3175 18.3796 73.0909 19.0091 72.7888 19.563L72.4111 20.2176L69.9185 18.6314L70.3214 18.002C70.4221 17.8509 70.4724 17.6747 70.4724 17.4984C70.4472 17.3222 70.3717 17.1711 70.2458 17.02C70.0444 16.8186 69.8178 16.6927 69.5157 16.7179C69.1128 16.7431 68.6093 17.1711 68.3323 17.4229C68.0554 17.6998 67.5518 18.2286 67.5266 18.6314C67.5015 18.9084 67.577 19.135 67.7784 19.3364C67.9043 19.4623 68.0554 19.563 68.2568 19.563C68.5086 19.5882 68.8359 19.4371 69.0373 19.3112L69.7171 18.9084L71.0263 21.552L70.3969 21.8793C69.6416 22.2822 68.8107 22.534 67.9547 22.3829C67.1238 22.257 66.4188 21.8038 65.8397 21.1995C65.0844 20.419 64.6815 19.4371 64.7319 18.3293C64.7823 17.4732 65.0844 16.7431 65.5879 16.0885L65.311 16.3151C64.6564 16.869 63.8759 17.2466 63.0198 17.2718C62.189 17.297 61.3833 16.9949 60.7035 16.5165C59.7971 15.887 59.218 15.0058 59.0669 13.9232C58.8907 12.765 59.2935 11.6572 59.9481 10.7256C60.6279 9.76886 61.5343 8.96318 62.7177 8.7114C63.8255 8.4848 64.883 8.76175 65.8145 9.3912C66.6202 9.94511 67.1993 10.7004 67.4007 11.6824C67.5266 12.3118 67.4259 12.9413 67.2245 13.5455L66.9727 14.2757L64.2283 13.193L64.5053 12.5132C64.5808 12.337 64.606 12.1607 64.5557 11.9845C64.5053 11.8083 64.3794 11.6824 64.2283 11.5565C63.9766 11.3802 63.75 11.3299 63.473 11.4054C63.0702 11.5061 62.6673 12.0097 62.4407 12.337C62.2141 12.6643 61.8365 13.2686 61.8616 13.6714C61.8868 13.9484 62.0127 14.1498 62.2393 14.326C62.3904 14.4267 62.5414 14.4771 62.7429 14.4519C62.9946 14.4267 63.2716 14.2001 63.473 14.0491L64.0521 13.5203L65.7894 15.8619ZM20.7716 18.5559C20.6457 19.3364 20.2429 20.0162 19.689 20.5701C18.9336 21.3758 17.9769 21.8038 16.869 21.7786C15.6857 21.7535 14.6786 21.1996 13.8477 20.3939C12.9917 19.563 12.3622 18.5559 12.2867 17.3474C12.2363 16.2144 12.6644 15.2073 13.4449 14.4016C14.1247 13.6966 14.9555 13.2434 15.9375 13.193C16.5669 13.1679 17.1964 13.3693 17.7503 13.6714L18.4301 14.0239L16.9194 16.5668L16.29 16.1892C16.1389 16.0885 15.9626 16.0381 15.7864 16.0633C15.6102 16.0885 15.4591 16.1892 15.3332 16.3151C15.1318 16.5165 15.0311 16.7431 15.0562 17.0452C15.0814 17.4481 15.5346 17.9264 15.8116 18.2034C16.0885 18.4804 16.6424 18.9587 17.0453 18.9839C17.3222 19.0091 17.5488 18.9084 17.7503 18.707C17.8762 18.5811 17.9517 18.43 17.9517 18.2286C17.9517 17.9768 17.8006 17.6495 17.6496 17.4481L17.2215 16.7934L19.8148 15.3835L20.0918 15.8619L18.6567 10.0206L20.6961 8.58551L26.361 12.2866L26.2855 5.48865L28.6019 4.55707L34.997 11.204L32.0764 12.3873L30.9182 11.1285L29.2565 11.8083L29.3068 13.5203L27.6955 14.175L25.8575 15.459L24.4224 14.5023L22.9621 15.5346L23.4153 17.1711L20.8723 18.9587L20.7716 18.5559ZM11.0026 28.4507C10.4991 28.3248 9.99553 28.1234 9.54233 27.8465C8.91289 27.494 8.3338 27.0408 7.90578 26.4617C7.62882 26.084 7.4274 25.6308 7.27633 25.1776C7.15044 24.7244 7.10009 24.2461 7.15044 23.7929C7.22598 23.1886 7.45258 22.5843 7.75471 22.0556C8.3338 21.0485 9.16466 20.3183 10.2977 20.0414C11.4558 19.7392 12.614 20.0666 13.6463 20.6456C14.6786 21.2247 15.5094 22.0556 15.8368 23.2138C16.1641 24.3216 15.9375 25.4294 15.3584 26.4113C14.7793 27.4184 13.9484 28.1486 12.8154 28.4507C12.5385 28.5263 12.2867 28.5514 12.0097 28.5514L15.0059 29.6341L14.0995 32.1267L12.6644 31.598L11.6573 34.3927L13.0924 34.9214L12.186 37.414L8.25826 36.0041L8.53522 35.1984C8.15755 34.8711 7.72953 34.6193 7.27633 34.3927C6.39511 33.9647 5.48871 33.587 4.55714 33.2597L3.17236 32.7561L5.33765 26.789L10.8516 28.8032L11.0026 28.4507ZM39.0758 9.99546L39.2017 10.8767L36.3566 11.2795L36.2307 10.3983C35.3998 10.3983 34.569 10.2472 33.9144 9.69333C33.2094 9.11424 32.8317 8.30855 32.7058 7.42733C32.5799 6.49576 32.731 5.61454 33.2849 4.85921C33.7633 4.20459 34.4935 3.82692 35.274 3.60032L35.1733 2.84499L38.0183 2.44214L38.119 3.19748C38.9247 3.19748 39.7808 3.34854 40.4102 3.87727C41.1152 4.45636 41.4929 5.26205 41.6439 6.16845C41.7698 7.07485 41.6188 7.93089 41.1152 8.68622C40.6368 9.3912 39.8815 9.76886 39.0758 9.99546ZM47.8125 8.4848L47.3844 11.1033L44.5394 10.6501L45.8738 2.24072L48.8448 2.7191C49.4238 2.81981 50.154 2.92052 50.6827 3.14712C51.2366 3.37372 51.6395 3.77656 51.9164 4.3053C52.2437 4.88438 52.2941 5.53901 52.1934 6.19363C52.1179 6.69718 51.9416 7.17556 51.6395 7.55322C51.3877 7.90571 51.0604 8.18267 50.6827 8.35891C50.3554 8.50998 49.9778 8.63587 49.6253 8.63587C49.0965 8.66104 48.5426 8.58551 48.0139 8.4848H47.8125ZM51.9164 7.65393C52.1682 6.97413 52.4955 6.31951 52.9991 5.81596C53.3264 5.46347 53.7292 5.18652 54.1573 4.98509C54.5853 4.78367 55.0385 4.65778 55.5169 4.63261C56.1463 4.60743 56.7506 4.73332 57.3297 4.93474C58.4123 5.33758 59.2935 6.01738 59.7719 7.07485C60.2754 8.18267 60.1496 9.36602 59.7467 10.4738C59.3439 11.5817 58.6641 12.5384 57.5814 13.0671C56.524 13.5707 55.4161 13.5455 54.3587 13.1427C53.276 12.7398 52.3948 12.06 51.9164 11.0026C51.4129 9.91993 51.5136 8.73658 51.9164 7.65393ZM6.64689 31.0189C7.62882 31.3965 8.66111 31.8497 9.56751 32.4288L9.89482 31.5224L6.87349 30.4146L6.64689 31.0189ZM10.9775 25.3035C11.3551 25.5301 11.8587 25.7315 12.3119 25.656C12.6644 25.5805 12.891 25.4042 13.0672 25.1021C13.2435 24.8 13.2938 24.523 13.1679 24.1957C13.0169 23.7677 12.5637 23.4152 12.186 23.2138C11.8335 23.0123 11.3048 22.7606 10.8767 22.8613C10.5243 22.9368 10.3228 23.1382 10.1466 23.4404C9.97035 23.7425 9.91999 24.0446 10.0207 24.3719C10.1214 24.7496 10.5998 25.0769 10.9775 25.3035ZM38.6981 7.25109C38.7485 7.20073 38.7988 7.15038 38.824 7.10002C38.8744 6.94896 38.8492 6.672 38.824 6.52094C38.7737 6.2188 38.6981 6.01738 38.4967 5.91667L38.6981 7.25109ZM35.8782 7.65393L35.6768 6.29434C35.6516 6.31951 35.6516 6.31951 35.6516 6.34469C35.5257 6.52094 35.5257 6.84825 35.5761 7.04967C35.6013 7.37698 35.6768 7.55322 35.8782 7.65393ZM48.316 5.33758L48.2405 5.86632H48.2908C48.4671 5.89149 48.9958 5.96703 49.1469 5.94185C49.1972 5.94185 49.2224 5.91667 49.2728 5.89149C49.298 5.86632 49.3231 5.81596 49.3231 5.7656C49.3231 5.71525 49.3231 5.66489 49.298 5.61454C49.2728 5.56418 49.2224 5.539 49.1469 5.51383C48.8951 5.41312 48.5678 5.36276 48.316 5.33758ZM54.5853 9.97028C54.7112 10.2976 54.9378 10.499 55.2651 10.6249C55.5924 10.7508 55.8693 10.7256 56.1967 10.5745C56.5995 10.3479 56.8513 9.8444 57.0023 9.41638C57.1534 9.01353 57.2793 8.45962 57.1282 8.05678C57.0023 7.72947 56.7506 7.55322 56.4484 7.42733C56.1211 7.30145 55.819 7.30145 55.5169 7.47769C55.114 7.67911 54.8874 8.20784 54.7363 8.61069C54.5349 9.01353 54.409 9.54226 54.5853 9.97028Z" fill="white"/>
<path fill-rule="evenodd" clip-rule="evenodd" d="M26.7891 12.9918L26.6883 5.76577L28.5515 5.01044L34.3676 11.0531L32.2023 11.9343L31.0441 10.6754L28.904 11.5315L28.9543 13.2436L27.5444 13.8226L25.8827 14.9808L24.4223 14.0241L22.534 15.3585L22.9872 16.995L21.0989 18.3043L19.1098 10.1971L20.7464 9.03888L26.7891 12.9918ZM11.1033 29.2818L11.3048 28.7027L14.5527 29.886L13.8981 31.6988L12.4629 31.1701L11.204 34.6446L12.6392 35.1734L11.9846 36.9862L8.73663 35.8028L8.9884 35.123C8.5352 34.695 8.03165 34.3677 7.47774 34.0907C6.59652 33.6375 5.63977 33.285 4.73337 32.9325L3.6759 32.5549L5.58941 27.2927L11.1033 29.2818ZM9.71856 27.5445C9.13947 27.2172 8.58556 26.7892 8.20789 26.2604C7.95612 25.908 7.75469 25.5051 7.65398 25.1023C7.5281 24.6994 7.50292 24.2714 7.55327 23.8434C7.62881 23.2643 7.83023 22.7356 8.10718 22.2572C8.63592 21.3508 9.39125 20.671 10.4235 20.4192C11.5062 20.1423 12.5636 20.4444 13.4952 20.9983C14.4268 21.527 15.2073 22.2824 15.5094 23.365C15.8116 24.3721 15.585 25.3792 15.0814 26.2856C14.5527 27.192 13.7973 27.897 12.7651 28.1488C11.6824 28.3502 10.6501 28.0732 9.71856 27.5445ZM17.7754 16.9447L19.7141 15.8872L19.8904 16.1894C20.268 16.844 20.5198 17.5993 20.4443 18.3798C20.3436 19.1351 19.9659 19.7898 19.4372 20.3185C18.7322 21.0487 17.8761 21.4263 16.869 21.4263C15.7864 21.4011 14.8548 20.8976 14.0995 20.1423C13.319 19.3869 12.7147 18.4553 12.6644 17.3475C12.614 16.3152 13.0168 15.4088 13.7218 14.6787C14.3261 14.0492 15.0814 13.6212 15.9878 13.596C16.5669 13.5709 17.1208 13.7471 17.6244 14.0241L17.9517 14.2003L16.8187 16.1138L16.4914 15.9124C16.2648 15.7613 16.013 15.711 15.736 15.7362C15.4591 15.7613 15.2325 15.9124 15.0562 16.0886C14.7793 16.3656 14.6534 16.6929 14.6786 17.0958C14.7289 17.5993 15.1821 18.128 15.5346 18.4805C15.8871 18.833 16.4914 19.3114 16.9949 19.3617C17.3978 19.3869 17.6999 19.261 17.9769 18.9589C18.1783 18.7575 18.279 18.5309 18.3042 18.2539C18.3293 17.9014 18.1279 17.5489 17.9517 17.272L17.7754 16.9447ZM38.6729 9.71868L38.7988 10.5495L36.6839 10.8517L36.558 10.0208C35.7271 10.0712 34.8207 9.97045 34.1661 9.41654C33.5367 8.88781 33.1842 8.18284 33.0835 7.37715C32.9576 6.54628 33.0835 5.7406 33.587 5.0608C34.0906 4.40618 34.8963 4.05369 35.6768 3.87744L35.5761 3.17247L37.691 2.87034L37.7917 3.57531C38.6226 3.52496 39.529 3.62567 40.1836 4.17958C40.813 4.70831 41.1655 5.41329 41.2662 6.24415C41.3921 7.04984 41.2411 7.83035 40.7879 8.51015C40.3347 9.18994 39.4786 9.54243 38.6729 9.71868ZM47.5103 8.05695L47.0823 10.7006L44.9422 10.3733L46.1507 2.69409L48.7692 3.09694C49.2728 3.17247 50.0533 3.29836 50.5065 3.49978C50.9849 3.7012 51.3373 4.05369 51.5891 4.50689C51.8661 5.01044 51.9164 5.58953 51.8157 6.16862C51.7402 6.59664 51.6143 7.02466 51.3373 7.37715C51.1107 7.67928 50.8338 7.90588 50.5065 8.08212C50.2295 8.23319 49.9022 8.30872 49.5749 8.3339C49.0713 8.35908 48.5174 8.28355 48.0391 8.20801L47.5103 8.05695ZM52.2437 7.77999C52.4703 7.15055 52.7725 6.54628 53.2508 6.06791C53.553 5.76577 53.9055 5.48882 54.3083 5.31258C54.686 5.13633 55.0888 5.01044 55.5168 4.98526C56.0959 4.96009 56.6498 5.0608 57.1786 5.26222C58.1605 5.61471 58.9662 6.24415 59.3942 7.22608C59.8474 8.23319 59.7467 9.31583 59.369 10.3481C58.9914 11.3552 58.3871 12.2616 57.4052 12.74C56.4484 13.1932 55.4413 13.168 54.4594 12.8155C53.4774 12.463 52.6718 11.8336 52.2186 10.8517C51.7905 9.84457 51.8912 8.7871 52.2437 7.77999ZM64.0017 14.1248L65.3362 15.862L65.0592 16.0886C64.4549 16.567 63.7751 16.9447 62.9946 16.9699C62.2393 16.995 61.5343 16.7181 60.9049 16.2901C60.074 15.711 59.5705 14.9305 59.4194 13.9234C59.2683 12.8659 59.646 11.8588 60.2503 11.0027C60.8797 10.1215 61.6854 9.36619 62.7932 9.13959C63.8003 8.91299 64.7571 9.18994 65.5879 9.76903C66.3181 10.2726 66.8468 10.9524 67.0231 11.8336C67.149 12.3875 67.0482 12.9666 66.8468 13.4953L66.7209 13.8478L64.6815 13.0421L64.8326 12.6896C64.9333 12.4379 64.9585 12.1861 64.883 11.9343C64.8074 11.6825 64.6312 11.4811 64.4298 11.3301C64.1024 11.1035 63.75 11.0279 63.3723 11.1286C62.8687 11.2545 62.4155 11.7833 62.1386 12.1861C61.8616 12.5889 61.4588 13.2436 61.5091 13.7723C61.5343 14.1751 61.7357 14.4521 62.063 14.6787C62.2896 14.8298 62.5414 14.9053 62.8184 14.8801C63.1709 14.8298 63.4982 14.6032 63.75 14.3766L64.0017 14.1248ZM69.3142 14.3262C70.3465 14.301 71.2277 14.729 71.9327 15.4844C72.537 16.1138 72.9398 16.8943 72.9398 17.7755C72.9398 18.3546 72.7384 18.9085 72.4614 19.3869L72.26 19.7142L70.3969 18.5309L70.5983 18.2287C70.7494 18.0021 70.8249 17.7504 70.7997 17.4986C70.7745 17.2216 70.6487 16.995 70.4472 16.8188C70.1703 16.5418 69.843 16.3908 69.4401 16.416C68.9114 16.4411 68.3827 16.8943 68.0302 17.2216C67.6777 17.5741 67.1489 18.128 67.0986 18.6568C67.0482 19.0596 67.1741 19.3617 67.4511 19.6639C67.6525 19.8653 67.8791 19.9912 68.1561 20.0164C68.5086 20.0415 68.8862 19.8653 69.1632 19.7142L69.5157 19.5128L70.4976 21.4767L70.1954 21.6529C69.5157 22.0306 68.7603 22.2572 68.005 22.1313C67.2497 22.0054 66.6202 21.6026 66.0915 21.0738C65.3865 20.3437 65.034 19.4876 65.0844 18.4805C65.1347 17.3979 65.6886 16.4915 66.444 15.7613C67.2497 14.9305 68.2064 14.3514 69.3142 14.3262ZM73.242 23.4909L77.6229 23.6671L78.5796 25.4044L71.7817 29.1811L70.7745 27.3683L73.9973 25.5806L69.6667 25.3792L68.71 23.642L75.5079 19.8653L76.5151 21.6781L73.242 23.4909ZM76.5906 30.591L80.8456 31.6737L81.4247 33.5872L73.9721 35.8532L73.3678 33.8893L76.8927 32.8067L72.7132 31.6988L72.1341 29.7853L79.5867 27.5193L80.191 29.5084L76.5906 30.591ZM6.19368 31.2205C7.35185 31.6485 8.73663 32.2527 9.74374 32.9829L10.348 31.296L6.64687 29.9364L6.19368 31.2205ZM10.776 25.6058C11.2292 25.8828 11.8083 26.1094 12.3622 25.9835C12.8154 25.8828 13.1176 25.6562 13.3442 25.2533C13.5708 24.8505 13.6211 24.4728 13.47 24.0448C13.2938 23.5161 12.7902 23.1132 12.3119 22.8615C11.8587 22.6097 11.2796 22.3579 10.7508 22.4586C10.2976 22.5593 9.99551 22.8111 9.76891 23.2139C9.54231 23.6168 9.46678 24.0196 9.61785 24.4476C9.81927 24.9512 10.3228 25.354 10.776 25.6058ZM22.7354 12.8911L21.7032 12.1609L22.0305 13.3694L22.7354 12.8911ZM29.609 9.18994L28.7529 8.25837L28.8033 9.51726L29.609 9.18994ZM38.4212 7.80517C38.5722 7.75481 38.6981 7.70446 38.8492 7.62893C39.0003 7.52821 39.1261 7.40233 39.2017 7.22608C39.2772 6.99948 39.252 6.67217 39.2269 6.47075C39.1261 5.7406 38.7233 5.46364 38.119 5.46364L38.4212 7.80517ZM36.3062 8.1073L35.9789 5.76577C35.7271 5.84131 35.5005 5.94202 35.3495 6.11826C35.1481 6.39522 35.1481 6.77288 35.1984 7.10019C35.2991 7.85553 35.6768 8.1073 36.3062 8.1073ZM48.0139 4.90973L47.8125 6.16862L48.2153 6.24415C48.4419 6.26933 48.9706 6.37004 49.1972 6.31968C49.3231 6.29451 49.4238 6.24415 49.4994 6.14344C49.5749 6.04273 49.6253 5.94202 49.6504 5.81613C49.6756 5.66506 49.6504 5.53917 49.5749 5.41329C49.4994 5.2874 49.3735 5.21186 49.2476 5.16151C48.9958 5.0608 48.593 5.01044 48.316 4.96009L48.0139 4.90973ZM54.3335 8.48497C54.1572 8.98852 54.0314 9.59279 54.2328 10.1215C54.409 10.5495 54.686 10.8265 55.114 10.9776C55.542 11.1286 55.9449 11.1035 56.3477 10.902C56.8261 10.6251 57.1282 10.0712 57.3296 9.56761C57.5059 9.08923 57.6569 8.45979 57.4555 7.95624C57.2793 7.52822 56.9771 7.27644 56.5491 7.12537C56.1211 6.9743 55.7183 6.97431 55.3154 7.17573C54.8119 7.40233 54.5097 7.98141 54.3335 8.48497Z" fill="#2C2C2B"/>
<path fill-rule="evenodd" clip-rule="evenodd" d="M4.12915 32.3031L5.79088 27.7207L11.3048 29.735L11.5062 29.1559L14.0744 30.0874L13.6715 31.1953L12.2364 30.6665L10.7257 34.846L12.1608 35.3748L11.758 36.4826L9.18987 35.551L9.39129 34.9971C8.91292 34.5187 8.33383 34.0907 7.60368 33.7382C6.8987 33.3857 5.96712 32.9829 4.80895 32.58L4.12915 32.3031ZM5.71535 31.447C7.72957 32.1772 9.13952 32.9073 9.92003 33.5871L10.8264 31.0694L6.42032 29.458L5.71535 31.447ZM9.92003 27.2172C9.29058 26.8647 8.83738 26.4619 8.51007 26.0338C8.28347 25.7065 8.10723 25.354 8.00652 24.9764C7.90581 24.5987 7.85545 24.221 7.90581 23.8685C7.95616 23.3902 8.13241 22.9118 8.43454 22.4082C8.96327 21.5018 9.64307 20.9479 10.5243 20.7213C11.4055 20.4947 12.3371 20.671 13.319 21.2501C14.301 21.8292 14.9304 22.5341 15.157 23.3902C15.4088 24.2462 15.2577 25.1274 14.7541 26.0087C14.2254 26.9151 13.5456 27.469 12.6644 27.6956C11.8084 27.9473 10.8768 27.7711 9.92003 27.2172ZM10.5998 25.9331C11.2796 26.336 11.9091 26.4619 12.4378 26.3611C12.9665 26.2353 13.3946 25.9331 13.6715 25.4547C13.9485 24.9764 14.024 24.4476 13.8478 23.9441C13.6715 23.4153 13.2435 22.9621 12.5385 22.5593C11.8335 22.1565 11.2293 22.0054 10.7005 22.1061C10.1718 22.2068 9.76896 22.5341 9.46683 23.0377C9.16469 23.5412 9.11434 24.0448 9.29058 24.5735C9.46683 25.0771 9.89485 25.5303 10.5998 25.9331ZM18.3042 17.0706L19.5883 16.3908C19.9911 17.0706 20.1674 17.7252 20.0918 18.3294C20.0163 18.9337 19.7142 19.5128 19.1854 20.0667C18.5308 20.7465 17.7755 21.0738 16.8943 21.0486C16.013 21.0486 15.1822 20.6458 14.3765 19.8653C13.5204 19.0596 13.0924 18.2036 13.0421 17.3223C12.9917 16.4411 13.319 15.6354 13.9988 14.9305C14.6031 14.301 15.2577 13.9737 16.013 13.9485C16.4411 13.9233 16.9194 14.0492 17.4482 14.3262L16.718 15.5851C16.3907 15.3837 16.0634 15.3081 15.7361 15.3585C15.4088 15.4088 15.1066 15.5599 14.8297 15.8369C14.4772 16.2145 14.301 16.6425 14.3513 17.1461C14.4017 17.6496 14.729 18.1784 15.3332 18.7575C15.9627 19.3869 16.5418 19.7142 17.0453 19.7394C17.5489 19.7646 17.9769 19.6135 18.3294 19.2358C18.5812 18.9589 18.7322 18.6568 18.7574 18.2791C18.7071 17.9266 18.5812 17.5238 18.3042 17.0706ZM27.1164 13.6716L25.8575 14.5528L24.4224 13.596L22.106 15.2074L22.5592 16.844L21.3255 17.7L19.5379 10.3481L20.7716 9.49207L27.1164 13.6716ZM23.3649 12.8911L21.0738 11.3049L21.8039 13.9989L23.3649 12.8911ZM33.713 10.9272L32.2778 11.5063L31.1197 10.2474L28.5012 11.3049L28.5515 13.0169L27.1416 13.5709L27.0409 6.01754L28.4257 5.46363L33.713 10.9272ZM30.2384 9.341L28.3501 7.27643L28.4508 10.046L30.2384 9.341ZM38.2701 9.41653L38.396 10.2222L37.0113 10.4236L36.8854 9.61796C35.7524 9.74384 34.9467 9.5676 34.4179 9.1144C33.8892 8.6612 33.5619 8.05694 33.4612 7.3016C33.3353 6.49592 33.4864 5.81612 33.9144 5.26221C34.3172 4.7083 35.0726 4.33063 36.13 4.12921L36.0293 3.44941L37.4141 3.24799L37.5148 3.92779C38.6226 3.8019 39.4535 3.97814 39.9822 4.40617C40.511 4.83419 40.8383 5.46363 40.939 6.21896C41.0397 6.99947 40.9138 7.65409 40.511 8.23318C40.1081 8.83745 39.378 9.24029 38.2701 9.41653ZM38.0939 8.25836C38.4716 8.208 38.7737 8.10729 39.0255 7.93105C39.2773 7.77998 39.4283 7.57856 39.529 7.35196C39.6046 7.12536 39.6297 6.82323 39.5794 6.42038C39.4283 5.41327 38.7989 4.98525 37.6911 5.13632L38.0939 8.25836ZM36.7091 8.4346L36.2811 5.31256C35.6768 5.3881 35.274 5.58952 35.0474 5.89165C34.8208 6.19378 34.7453 6.62181 34.8208 7.15054C34.9719 8.18282 35.6013 8.61085 36.7091 8.4346ZM45.3703 10.046L46.4781 3.09692L48.7441 3.44941C49.6001 3.5753 50.154 3.70119 50.4058 3.82708C50.7835 4.00332 51.0856 4.28028 51.3122 4.65794C51.5136 5.06079 51.5892 5.51399 51.5136 6.0679C51.4381 6.49592 51.3122 6.84841 51.1108 7.10018C50.9094 7.37714 50.6828 7.55338 50.4058 7.70445C50.1289 7.83034 49.8771 7.90587 49.6253 7.90587C49.2728 7.93105 48.7944 7.88069 48.1398 7.77998L47.2334 7.62891L46.8054 10.2474L45.3703 10.046ZM47.6866 4.4817L47.3845 6.44556L48.165 6.57145C48.7189 6.64698 49.0966 6.67216 49.298 6.64698C49.4994 6.59663 49.6505 6.52109 49.8015 6.37003C49.9274 6.21896 50.003 6.0679 50.0533 5.86647C50.1037 5.6147 50.0533 5.3881 49.9274 5.21185C49.8015 5.03561 49.6253 4.88454 49.4239 4.80901C49.2728 4.75865 48.9203 4.68312 48.4168 4.60759L47.6866 4.4817ZM52.5963 7.90587C52.848 7.22607 53.1502 6.69734 53.5278 6.31967C53.8048 6.04272 54.1069 5.81612 54.4846 5.63987C54.8371 5.46363 55.1896 5.36292 55.5672 5.36292C56.0456 5.33774 56.5492 5.41327 57.0779 5.6147C58.0598 5.96718 58.7145 6.54627 59.0921 7.37714C59.4698 8.18282 59.4446 9.13958 59.0418 10.2222C58.6641 11.3049 58.0598 12.0098 57.2541 12.4127C56.4485 12.8155 55.5672 12.8155 54.5853 12.463C53.6034 12.1105 52.9236 11.5063 52.5711 10.7006C52.1934 9.89491 52.2186 8.96333 52.5963 7.90587ZM53.981 8.35907C53.7041 9.1144 53.6789 9.74384 53.8803 10.2474C54.0818 10.751 54.4594 11.1034 54.9882 11.3049C55.5169 11.5063 56.0204 11.4559 56.4988 11.2042C56.9772 10.9524 57.3549 10.4236 57.6318 9.66831C57.9088 8.91298 57.9591 8.28354 57.7577 7.77998C57.5563 7.27643 57.1786 6.94912 56.6247 6.74769C56.0708 6.54627 55.5672 6.57145 55.0889 6.82323C54.6357 7.075 54.2832 7.57856 53.981 8.35907ZM63.9514 14.6535L64.8326 15.8117C64.2284 16.3152 63.5989 16.5922 62.9947 16.6174C62.3904 16.6425 61.761 16.4411 61.1315 16.0131C60.3762 15.4844 59.923 14.7794 59.7971 13.8982C59.6712 13.0169 59.923 12.1357 60.5524 11.2293C61.2322 10.2726 61.9876 9.69349 62.8688 9.51724C63.7248 9.341 64.5809 9.51724 65.3866 10.0963C66.0915 10.5999 66.5195 11.2042 66.6706 11.9343C66.7713 12.3623 66.721 12.8659 66.5196 13.4198L65.16 12.8911C65.311 12.5386 65.3362 12.2113 65.2355 11.884C65.1348 11.5566 64.9334 11.2797 64.6312 11.0783C64.2032 10.7761 63.75 10.7006 63.2716 10.8013C62.7932 10.9272 62.3149 11.33 61.8365 12.0098C61.3329 12.74 61.0812 13.3443 61.1315 13.8478C61.1819 14.3514 61.4085 14.729 61.8365 15.0312C62.1386 15.2578 62.4911 15.3333 62.8436 15.3081C63.1709 15.2074 63.5486 15.006 63.9514 14.6535ZM69.3898 19.966L70.0444 21.2501C69.3395 21.6277 68.6848 21.7788 68.0806 21.6781C67.4763 21.5774 66.8972 21.2752 66.3685 20.7213C65.7139 20.0415 65.4117 19.261 65.4621 18.405C65.5124 17.5238 65.9153 16.6929 66.721 15.9376C67.577 15.1319 68.4331 14.7039 69.3143 14.7039C70.1955 14.6787 70.976 15.0312 71.681 15.7361C72.2853 16.3656 72.5874 17.0454 72.5874 17.7755C72.5874 18.2036 72.4615 18.6819 72.1594 19.1855L70.9257 18.405C71.1271 18.1028 71.2278 17.7755 71.1774 17.423C71.1523 17.0957 71.0012 16.7936 70.7242 16.5167C70.3717 16.139 69.9437 15.9627 69.4402 15.9879C68.9366 16.0131 68.4079 16.3152 67.8036 16.8943C67.1742 17.5238 66.8217 18.0777 66.7713 18.556C66.721 19.0596 66.872 19.4876 67.2245 19.8401C67.4763 20.1171 67.8036 20.2681 68.1561 20.2933C68.5338 20.3688 68.9366 20.243 69.3898 19.966ZM75.3569 20.3688L76.0116 21.527L71.9076 23.793L77.3963 24.0196L78.0761 25.2533L71.9076 28.6775L71.253 27.5193L75.2814 25.2785L69.8682 25.0267L69.1884 23.793L75.3569 20.3688ZM79.335 27.9725L79.7127 29.2566L75.231 30.6162L80.5687 31.9758L80.9716 33.3354L74.2239 35.3999L73.8463 34.1159L78.2524 32.7815L73.0154 31.3967L72.5874 30.0371L79.335 27.9725Z" fill="#FFCC00"/>
</g>
<defs>
<clipPath id="clip0_69_53">
<rect width="85" height="85" fill="white"/>
</clipPath>
</defs>
</svg>
