<svg width="67" height="90" viewBox="0 0 67 90" fill="none" xmlns="http://www.w3.org/2000/svg">
<g clip-path="url(#clip0_66_6)">
<path d="M0 0V90.0007H66.9967H66.9997V0H0ZM2.04708 2.03915H64.9527V87.9601H2.04708V2.03915Z" fill="black"/>
<path d="M4.0957 4.07837V13.6223C17.2108 11.8357 32.8433 14.2741 42.9316 24.2367C53.0139 34.1961 55.4639 49.7097 53.6563 62.6621H62.9056V4.07837H4.0957ZM53.6563 62.6621C53.8183 50.1582 47.1241 39.013 37.6278 29.641C28.128 20.26 16.7586 13.4623 4.0957 13.6223V62.6621H53.6563ZM8.20486 29.8742H19.5448V33.7582H15.9324V43.0136H11.8233V33.7582H8.20486V29.8742ZM17.4347 37.4538H23.5189L24.9131 44.6386H24.9882L26.3209 37.4538H32.3841V50.5902H28.7116V40.2703H28.6141L26.4995 50.5902H23.0882L21.0336 40.2703H20.9256V50.5902H17.4347V37.4538ZM34.0004 45.0303H38.1051V50.1985H38.1696L40.6984 45.0303H45.3659L41.752 51.1941L45.7036 58.1712H40.8065L38.1696 52.5994H38.1051V58.1712H34.0004V45.0303Z" fill="black"/>
<path d="M17.9695 82.6897H15.1795V76.44C14.5364 76.7599 13.2518 76.9199 11.3262 76.9199C10.0558 76.9199 9.05705 76.7569 8.33067 76.4302C7.60428 76.1036 7.08876 75.605 6.78485 74.9345C6.48019 74.2648 6.32861 73.3895 6.32861 72.3093V68.2393H9.11783V72.3893C9.11783 72.9133 9.19437 73.3312 9.34745 73.6421C9.50053 73.9531 9.76842 74.1811 10.1511 74.3276C10.5338 74.4733 11.0741 74.5466 11.7705 74.5466C12.6972 74.5466 13.3936 74.5249 13.8603 74.4823C14.3271 74.4404 14.7668 74.3343 15.1795 74.1646V68.2393H17.9695V82.6897Z" fill="black"/>
<path d="M24.4747 82.6897V70.6514H20.271V68.2393H31.5817V70.6514H27.2834V82.6897H24.4747Z" fill="black"/>
<path d="M46.2616 68.2393V82.6897H43.4724V70.6133H36.7159V82.6897H33.9259V68.2393H46.2616Z" fill="black"/>
<path d="M52.9094 74.3155H55.1553C56.022 74.3155 56.6576 74.1586 57.0628 73.8446C57.4681 73.5307 57.6707 73.0246 57.6707 72.328C57.6707 71.7973 57.5791 71.3831 57.396 71.0864C57.2137 70.7896 56.9083 70.5788 56.4813 70.4533C56.0543 70.3277 55.4495 70.2649 54.6683 70.2649C54.0252 70.2649 53.5135 70.2993 53.1338 70.3688C52.7541 70.4376 52.4532 70.5542 52.2303 70.7194C52.0082 70.8846 51.8513 71.1066 51.7598 71.3861C51.669 71.6649 51.618 72.0312 51.609 72.4834H48.9563C49.0411 71.3151 49.2775 70.4166 49.6655 69.7865C50.0534 69.1571 50.6417 68.7161 51.4319 68.4634C52.2213 68.2108 53.3079 68.0845 54.6916 68.0845C56.5893 68.0845 57.9993 68.3857 58.9208 68.9882C59.8431 69.5907 60.3038 70.525 60.3038 71.7898C60.3038 72.8071 60.1545 73.5658 59.8551 74.0666C59.5557 74.5674 59.0214 74.9397 58.2522 75.1849V75.2596C58.8765 75.4293 59.3636 75.6506 59.7132 75.9219C60.0629 76.194 60.3105 76.5423 60.4554 76.9676C60.6002 77.3937 60.673 77.9237 60.673 78.5575C60.673 79.5726 60.4989 80.3889 60.1507 81.0078C59.8018 81.6267 59.1925 82.0872 58.3205 82.3907C57.4493 82.6934 56.2314 82.8451 54.6683 82.8451C53.6906 82.8451 52.8501 82.7883 52.1455 82.6755C51.4409 82.5618 50.8436 82.357 50.3536 82.0603C49.8636 81.7628 49.4891 81.3375 49.2302 80.7828C48.9721 80.2274 48.843 79.5181 48.843 78.654V78.0552H51.4574C51.4732 78.7915 51.5399 79.3275 51.6585 79.6638C51.7771 80.0009 52.06 80.2514 52.5072 80.4166C52.9544 80.5817 53.6748 80.6647 54.6683 80.6647C55.538 80.6647 56.2126 80.6004 56.6914 80.4734C57.1709 80.3463 57.5153 80.1325 57.7247 79.832C57.9348 79.5323 58.0391 79.107 58.0391 78.5568C58.0391 77.7742 57.8395 77.2151 57.441 76.8802C57.0426 76.5461 56.4288 76.3786 55.5996 76.3786H52.9094V74.3155Z" fill="black"/>
</g>
<defs>
<clipPath id="clip0_66_6">
<rect width="67" height="90" fill="white"/>
</clipPath>
</defs>
</svg>
