<svg width="210" height="55" viewBox="0 0 210 55" fill="none" xmlns="http://www.w3.org/2000/svg">
<path d="M18.0894 13.6306C18.6915 14.9309 19.6221 16.2313 22.2496 18.0193C22.8518 18.3985 23.5086 19.2654 23.016 20.4032C22.5234 21.541 21.5927 23.2206 22.1402 23.8708C22.6875 24.521 24.6581 24.846 26.3003 24.1959C26.3003 24.1959 26.6287 25.2253 27.2309 25.8213C27.2309 25.8213 26.9572 26.3631 26.0267 26.0922C26.0267 26.0922 26.3551 26.9049 25.9171 27.826C25.9171 27.826 24.8224 27.6635 24.3845 26.6882C24.3845 26.6882 23.9465 27.4468 23.0707 27.7176C23.0707 27.7176 22.3591 27.3383 22.5233 25.9297C22.5233 25.9297 21.9759 27.1758 20.3885 27.3925C20.3885 27.3925 19.4579 26.2548 20.6621 24.6835C20.6621 24.6835 19.7864 25.442 18.1989 25.0628C18.1989 25.0628 17.9252 24.25 19.3485 23.1664C19.3485 23.1664 17.761 23.1123 17.1041 21.7578C17.1041 21.7578 17.761 20.945 19.4579 21.1075C19.4579 21.1075 17.9252 20.7825 17.5968 18.9403C17.5968 18.9403 18.6915 18.236 20.498 19.3738C20.498 19.3738 20.1695 18.7778 19.4579 18.236C18.6915 17.64 17.8157 16.0145 18.0894 13.6306Z" fill="#1928DC"/>
<path d="M24.6036 32.0512C24.3846 31.7261 24.2204 31.4552 24.0562 31.1301C24.3299 33.3515 24.4393 34.8686 25.6436 36.2773C25.6436 36.2773 26.3553 35.3021 25.9173 32.9723C25.6983 32.9181 25.4794 32.8097 25.2604 32.6471C25.2604 32.6471 25.5342 33.6224 25.3699 34.5435C25.3699 34.5977 24.932 34.3268 24.6036 32.0512Z" fill="#1928DC"/>
<path d="M22.4675 31.8347C22.3032 31.6721 22.0296 31.2929 21.92 31.022C21.8105 32.3223 21.4821 35.7357 22.6316 36.7651C22.6316 36.7651 23.398 36.1691 23.7264 31.2387C23.5622 31.5096 23.2885 31.8347 23.1243 31.9972C23.1243 31.9972 23.2885 33.5685 22.7411 34.7063C22.6864 34.6521 22.139 34.2186 22.4675 31.8347Z" fill="#1928DC"/>
<path d="M19.7312 34.4355C20.7165 33.2977 20.9902 29.8302 20.9902 29.8302C21.0996 29.7218 21.2639 29.6676 21.3734 29.5592C21.4281 29.5051 21.4828 29.4509 21.5376 29.3967C21.5376 29.5051 21.5376 29.6676 21.5376 29.7759C21.3734 31.8349 21.2092 34.0021 20.607 35.0315C19.9501 36.0609 18.8006 36.6028 18.8006 36.6028C17.7058 34.6522 19.0195 32.0516 20.1691 30.2636C20.2785 30.2094 20.4428 30.1552 20.607 30.1011C20.1691 31.5097 19.4575 33.1352 19.7312 34.4355Z" fill="#1928DC"/>
<path d="M16.9941 28.4757C16.9941 28.6924 17.0489 28.855 17.0489 28.9634C17.0489 29.0175 17.0489 29.0717 17.1036 29.1259C16.173 30.0469 15.5162 30.8596 14.1476 32.756C12.7792 34.6524 10.5896 34.7065 10.5896 34.7065C10.8085 33.1894 11.1917 31.9975 12.396 30.6971C13.5455 29.3968 15.0235 28.2048 16.1183 27.4463C16.392 27.5546 16.7751 27.663 17.213 27.6088C17.2678 27.6088 17.2678 27.6088 17.3225 27.6088C17.1583 27.7714 17.1036 27.9881 17.0489 28.1506C16.2278 28.6383 13.8192 29.8302 12.8339 31.7807C12.8886 31.7266 14.3666 31.2389 16.9941 28.4757Z" fill="#1928DC"/>
<path d="M15.2974 26.5788L15.4068 26.4162C15.4616 26.3621 15.4616 26.3079 15.5163 26.2537C14.6405 26.5788 11.4656 27.7707 10.4256 28.3126C9.38546 28.8544 7.90752 30.0464 7.08643 32.4845C7.08643 32.4845 9.22128 32.7012 10.9729 31.2384C12.7246 29.7754 14.8047 27.7707 15.6805 27.1206C15.5711 27.0122 15.5163 26.958 15.4616 26.9039C15.4616 26.9039 13.053 29.0169 10.535 29.8838C10.535 29.8838 11.0824 28.9086 12.0678 28.2042C13.3267 27.3373 14.2025 27.0664 15.2974 26.5788Z" fill="#1928DC"/>
<path d="M13.4913 25.1159C13.5461 25.0075 13.5461 24.9533 13.6008 24.8992C12.5607 25.1159 9.93329 25.441 8.7837 25.766C7.63419 26.1453 5.49936 26.958 4.24036 29.342C4.24036 29.342 6.10149 29.8838 9.55009 28.2584C12.9986 26.633 14.0935 26.3079 14.8051 26.1453C14.2577 26.0911 13.8745 25.9286 13.7103 25.8202C12.3418 26.4162 10.4807 27.1747 8.61953 27.1747C8.61953 27.1747 9.55009 26.5246 10.4807 26.1453C11.4659 25.766 12.6155 25.3326 13.4913 25.1159Z" fill="#1928DC"/>
<path d="M13.545 23.437C13.8734 23.5995 14.1471 23.6537 14.585 23.7079C14.3661 23.8705 14.0923 24.033 13.9281 24.3039C12.7239 24.629 10.589 25.0082 7.19517 25.2792C3.74658 25.55 1.94019 24.8999 1.94019 24.8999C3.14445 24.1955 5.06033 23.437 6.37408 23.1661C7.68785 22.8952 11.0817 22.9494 12.5596 22.7327C12.5596 22.7327 12.7786 22.8952 13.0523 23.0577C11.7933 23.1661 9.11109 23.2745 7.74255 23.9788C7.68785 24.033 10.2058 24.4122 13.545 23.437Z" fill="#1928DC"/>
<path d="M13.3264 21.4858C13.4906 21.3775 13.7096 21.2691 13.9833 21.2149C12.2317 20.6731 9.82308 19.8604 6.26502 19.6437C3.63753 19.4811 1.72164 19.6437 0.736328 19.8604C0.736328 19.8604 3.14488 21.54 5.88185 22.136C8.61879 22.732 10.8631 22.3527 12.5053 22.3527C12.6148 22.1902 12.7243 22.0276 12.9433 21.8109C11.0274 21.8109 7.85247 21.3233 6.70294 20.944C6.6482 20.944 9.38518 20.348 13.3264 21.4858Z" fill="#1928DC"/>
<path d="M13.2718 19.4269C13.2718 19.4811 13.4907 20.4564 14.6403 20.9982C12.177 19.9146 7.35993 19.3186 4.78716 18.235C1.28383 16.7721 0.626953 14.9841 0.626953 14.9841C3.63762 14.9299 6.1009 15.6343 8.01678 16.2303C10.2063 16.8804 13.6003 18.1266 14.8045 18.6684C14.3666 18.6684 13.8739 18.8309 13.4907 19.1019C11.8485 18.4517 11.0822 18.2349 9.60426 17.8015C8.39997 17.4764 7.52411 17.4222 6.81252 17.3139C6.81252 17.3139 7.8526 18.0182 9.54949 18.5601C11.1917 19.1019 11.9033 19.1561 13.2718 19.4269Z" fill="#1928DC"/>
<path d="M13.1076 16.7731C13.2171 16.9356 13.4907 17.3691 13.6003 17.5316C9.71374 16.8814 5.44404 14.0099 4.13029 12.2219C2.81655 10.4339 3.19971 7.72485 3.19971 7.72485C4.45872 7.99578 7.25046 10.3256 7.96208 11.0841C8.6737 11.7884 10.8633 13.9015 12.3412 15.0393L12.8339 16.3938C11.5201 15.3644 10.0422 14.2266 9.05682 13.5222C8.3452 12.9804 7.25046 12.2219 6.15565 11.8426C6.15565 11.8426 7.14096 13.1429 7.96208 13.7931C8.89265 14.5516 9.87791 15.1476 10.6443 15.5811C11.3559 15.9062 11.6843 16.1229 13.1076 16.7731Z" fill="#1928DC"/>
<path d="M24.0552 27.4999C24.1647 27.3915 24.2741 27.2831 24.3836 27.229C24.5478 27.4457 25.1499 28.2042 25.4784 28.9086C25.6974 29.5588 25.9163 30.3715 26.0805 30.8591C26.19 31.3467 26.5732 32.3761 26.7374 32.7013C26.7374 32.7013 25.8069 32.8096 25.0952 31.9969C24.3836 31.1842 24.1647 30.4256 24.0552 29.6129C23.8909 29.0169 23.9457 28.1501 24.0552 27.4999Z" fill="#1928DC"/>
<path d="M22.5212 27.6633C22.6854 27.88 22.8496 27.9884 22.9043 27.9884L23.0139 28.0425L23.1234 27.9884C23.2328 27.9342 23.3423 27.9342 23.4518 27.88C23.5613 28.2593 23.616 28.4218 23.6707 28.7469C23.7255 29.1804 23.7802 29.8305 23.616 30.3723C23.397 31.0225 23.0139 31.456 22.7949 31.7269C22.7949 31.7269 22.1928 31.0767 22.0285 30.4807C21.8643 29.8847 21.7548 29.2345 22.0285 28.5302C22.138 28.2051 22.357 27.8258 22.5212 27.6633Z" fill="#1928DC"/>
<path d="M20.4439 27.7176C21.1008 27.6092 21.5387 27.3925 21.9219 27.1216C21.9766 27.3384 22.1409 27.6634 22.0314 28.0427C21.9219 28.4762 21.6482 28.9096 21.2103 29.2889C20.5534 29.7764 19.7323 30.2641 18.8017 30.1016C18.747 30.1016 18.5281 29.4514 20.4439 27.7176Z" fill="#1928DC"/>
<path d="M19.6773 26.5249C19.732 27.1209 20.0605 27.5543 20.0605 27.5543C19.8415 27.8253 19.0204 29.1798 17.3782 28.963C17.3782 28.963 16.9403 28.042 18.0351 27.3376C18.8562 26.7958 19.1846 26.7416 19.6773 26.5249Z" fill="#1928DC"/>
<path d="M19.8413 25.3871C19.4033 25.4955 18.8012 25.5497 18.1443 25.3871L17.9801 25.333L17.9254 25.1704C17.0495 25.8748 16.0643 25.9831 15.7358 26.5791C15.7358 26.5791 16.1737 27.3377 17.2686 27.2293C18.3633 27.1209 19.1844 26.5791 19.7865 25.8748C19.7318 25.7123 19.7865 25.5497 19.8413 25.3871Z" fill="#1928DC"/>
<path d="M17.9236 24.4118C18.0877 24.195 18.1972 23.8158 18.5257 23.4907C17.8141 23.3823 17.1572 23.3823 16.2814 23.4907C15.2413 23.7074 14.2013 23.9241 13.7086 25.4412C13.7086 25.4412 14.3655 25.983 15.5698 25.7663C16.555 25.5495 17.4309 25.1161 17.9236 24.4118Z" fill="#1928DC"/>
<path d="M17.4855 22.7325C17.2119 22.5158 16.9929 22.2448 16.8287 21.8655L16.7192 21.6488C15.8434 21.2695 14.9128 21.107 14.037 21.4321C13.1611 21.7572 12.8874 22.1365 12.6685 22.4615C12.6685 22.4615 13.6538 23.2743 14.8033 23.3285C16.0076 23.4368 17.0476 23.1118 17.4855 22.7325Z" fill="#1928DC"/>
<path d="M17.76 20.9443C17.9242 20.8902 18.0884 20.836 18.2526 20.7818C17.8695 20.4568 17.4863 19.9149 17.2673 19.1564C16.8841 19.2648 15.8988 19.2648 15.4609 19.1022C15.023 18.9397 14.2019 18.9397 13.545 19.3731C13.545 19.3731 13.764 20.5109 15.2419 20.8902C16.7199 21.2695 17.2125 21.1611 17.76 20.9443Z" fill="#1928DC"/>
<path d="M17.2675 18.7774L17.4865 18.6691C17.4865 18.6691 17.8149 18.4524 18.417 18.3981C17.9244 18.0731 16.8296 17.0978 16.0085 16.6644C15.1327 16.1767 13.7094 15.5266 12.9431 15.4182C12.9431 15.4182 13.6547 17.2061 14.4211 17.9105C15.2421 18.7232 15.7896 18.9941 17.2675 18.7774Z" fill="#1928DC"/>
<path d="M18.7461 17.9649C18.4176 17.5315 18.0891 16.8813 17.925 16.1769C17.7607 15.5809 17.3775 14.0639 17.1586 13.6846C16.9396 13.3053 16.1185 11.9508 14.5311 11.5173C14.5311 11.5173 14.0931 13.2511 14.9142 14.6598C15.5712 15.8518 16.9944 17.098 18.7461 17.9649Z" fill="#1928DC"/>
<path d="M27.5596 26.1457C27.7786 26.3624 27.888 26.4708 28.2712 26.6334C28.2712 26.6334 28.7638 27.6086 28.1618 28.7464C27.5596 29.8842 27.0122 31.0761 26.7932 31.7264C26.7932 31.7264 26.4648 31.6721 26.0816 29.8842C25.808 28.638 25.5342 28.3671 25.2058 27.9336C25.5342 28.0962 25.8627 28.1504 25.8627 28.1504L26.1364 28.2046L26.2459 27.9879C26.4648 27.5544 26.5196 27.1751 26.5196 26.8501C26.5196 26.7417 26.5196 26.6334 26.5196 26.525C27.0669 26.525 27.3954 26.2541 27.5048 26.0915C27.5048 26.0915 27.5048 26.0915 27.5048 26.0374L27.5596 26.1457Z" fill="#1928DC"/>
<path d="M14.039 12.2211C14.039 12.3837 14.039 12.6004 14.039 12.7629L14.0937 13.1964C13.1632 12.0044 12.0136 10.5957 10.9736 9.24122C10.262 8.32015 9.60514 7.77829 8.94822 7.34486C9.55037 9.0245 10.5904 10.3248 11.302 11.0291C12.0136 11.6794 13.1085 12.8171 14.1485 13.5215L14.258 13.8466C14.3127 14.1716 14.4769 14.4967 14.6412 14.7676C14.8601 15.2011 15.1885 15.5804 15.5717 16.0138C15.2432 15.8513 14.9148 15.6887 14.5864 15.5804L14.258 15.472C11.4115 13.9549 8.56503 10.8666 7.41551 8.69936C6.266 6.53215 6.75865 4.03982 7.03235 2.6853C8.34608 3.76892 10.2072 5.93616 11.0283 7.07396C11.9589 8.53686 13.2726 10.5415 14.039 12.2211Z" fill="#1928DC"/>
<path d="M54.1627 21.4858C53.9984 21.3775 53.7795 21.2691 53.5057 21.2149C55.2574 20.6731 57.666 19.8604 61.224 19.6437C63.8515 19.4811 65.7674 19.6437 66.7527 19.8604C66.7527 19.8604 64.3442 21.54 61.6072 22.136C58.8703 22.732 56.6259 22.3527 54.9837 22.3527C54.8743 22.1902 54.7648 22.0276 54.5458 21.8109C56.4617 21.8109 59.6366 21.3233 60.7861 20.944C60.8409 20.944 58.0491 20.348 54.1627 21.4858Z" fill="#1928DC"/>
<path d="M54.1616 19.4269C54.1616 19.4811 53.9427 20.4564 52.7932 20.9982C55.2564 19.9146 60.0734 19.3186 62.6463 18.235C66.1496 16.7721 66.8064 14.9841 66.8064 14.9841C63.7958 14.9299 61.3325 15.6343 59.4166 16.2303C57.227 16.8804 53.8332 18.1266 52.6289 18.6684C53.0668 18.6684 53.5595 18.8309 53.9427 19.1019C55.5849 18.4517 56.3512 18.2349 57.8292 17.8015C59.0334 17.4764 59.9093 17.4222 60.6209 17.3139C60.6209 17.3139 59.5808 18.0182 57.8839 18.5601C56.2417 19.1019 55.5301 19.1561 54.1616 19.4269Z" fill="#1928DC"/>
<path d="M54.3282 16.7731C54.2188 16.9356 53.945 17.3691 53.8356 17.5316C57.7221 16.8814 61.9918 14.0099 63.3056 12.2219C64.6193 10.4339 64.2361 7.72485 64.2361 7.72485C62.9771 7.99578 60.1854 10.3256 59.4737 11.0841C58.7621 11.7884 56.5726 13.9015 55.0946 15.0393L54.602 16.3938C55.9157 15.3644 57.3937 14.2266 58.379 13.5222C59.0906 12.9804 60.1854 12.2219 61.2802 11.8426C61.2802 11.8426 60.2948 13.1429 59.4737 13.7931C58.5432 14.5516 57.6126 15.1476 56.7915 15.5811C56.1347 15.9061 55.7515 16.1229 54.3282 16.7731Z" fill="#1928DC"/>
<path d="M53.3953 12.2211C53.3953 12.3837 53.3953 12.6004 53.3953 12.7629L53.3405 13.1964C54.2711 12.0044 55.4206 10.5957 56.4607 9.24122C57.1723 8.32015 57.8291 7.77829 58.4861 7.34486C57.8839 9.0245 56.8439 10.3248 56.1323 11.0291C55.4206 11.6794 54.3258 12.8171 53.2858 13.5215L53.1763 13.8466C53.1215 14.1716 52.9574 14.4967 52.7931 14.7676C52.5742 15.2011 52.2457 15.5804 51.8625 16.0138C52.191 15.8513 52.5195 15.6887 52.8479 15.5804L53.1763 15.472C56.0228 13.9549 58.8692 10.8666 60.0188 8.69936C61.1683 6.53215 60.6756 4.03982 60.4019 2.6853C59.0881 3.76892 57.227 5.93616 56.4059 7.07396C55.4753 8.53686 54.2164 10.5415 53.3953 12.2211Z" fill="#1928DC"/>
<path d="M17.7057 29.3427C16.5014 30.5347 14.0381 33.1354 14.2571 35.9528C14.2571 35.9528 16.5561 35.2484 17.5415 33.5689C18.472 31.8892 19.0742 30.8598 19.4574 30.4805C19.1836 30.5347 18.9647 30.5347 18.691 30.4805L18.472 30.4264C17.8699 31.4558 16.7204 33.1896 15.6803 33.8397C15.6803 33.8397 15.4066 32.431 18.472 29.6137C18.5268 29.5053 18.5815 29.3427 18.6363 29.2344C18.4173 29.2886 18.0888 29.3427 17.7057 29.3427Z" fill="#1928DC"/>
<path d="M49.345 13.6284C48.7428 14.9288 47.8123 16.2291 45.1847 18.0171C44.5826 18.3963 43.9258 19.2633 44.4184 20.4011C44.9111 21.5388 45.8417 23.2185 45.2942 23.8686C44.7469 24.5188 42.7762 24.8439 41.1341 24.1937C41.1341 24.1937 40.8056 25.2231 40.2035 25.8191C40.2035 25.8191 40.4771 26.361 41.4078 26.0901C41.4078 26.0901 41.0793 26.9028 41.5172 27.8238C41.5172 27.8238 42.612 27.6613 43.05 26.6861C43.05 26.6861 43.4879 27.4446 44.3637 27.7155C44.3637 27.7155 45.0753 27.3362 44.9111 25.9275C44.9111 25.9275 45.4585 27.1737 47.0459 27.3904C47.0459 27.3904 47.9765 26.2526 46.7722 24.6813C46.7722 24.6813 47.648 25.4398 49.2355 25.0606C49.2355 25.0606 49.5092 24.2479 48.0859 23.1643C48.0859 23.1643 49.6734 23.1101 50.3303 21.7556C50.3303 21.7556 49.6734 20.9428 47.9764 21.1054C47.9764 21.1054 49.5092 20.7803 49.8377 18.9382C49.8377 18.9382 48.7428 18.2338 46.9912 19.3716C46.9912 19.3716 47.3196 18.7756 48.0312 18.2338C48.7428 17.6378 49.6734 16.0124 49.345 13.6284Z" fill="#1928DC"/>
<path d="M42.8856 32.0497C43.1046 31.7247 43.2688 31.4537 43.433 31.1287C43.1594 33.3501 43.0499 34.8672 41.8456 36.2759C41.8456 36.2759 41.134 35.3006 41.5719 32.9708C41.7909 32.9167 42.0098 32.8083 42.2288 32.6457C42.2288 32.6457 41.9551 33.621 42.1193 34.5421C42.1193 34.5962 42.5572 34.3253 42.8856 32.0497Z" fill="#1928DC"/>
<path d="M44.9666 31.834C45.1308 31.6714 45.4045 31.2921 45.514 31.0212C45.6234 32.3215 45.9519 35.735 44.8023 36.7644C44.8023 36.7644 44.0359 36.1684 43.7075 31.238C43.8718 31.5088 44.1455 31.834 44.3097 31.9965C44.3097 31.9965 44.1455 33.5677 44.6929 34.7055C44.7476 34.6513 45.3497 34.2179 44.9666 31.834Z" fill="#1928DC"/>
<path d="M47.7039 34.4343C46.7186 33.2965 46.4449 29.8289 46.4449 29.8289C46.3354 29.7206 46.1712 29.6664 46.0617 29.558C46.007 29.5039 45.9522 29.4497 45.8975 29.3955C45.8975 29.5039 45.8975 29.6664 45.8975 29.7748C46.0617 31.8336 46.226 34.0009 46.828 35.0303C47.4849 36.0597 48.6345 36.6016 48.6345 36.6016C49.7293 34.6511 48.4155 32.0504 47.266 30.2624C47.1017 30.2082 46.9923 30.154 46.828 30.0999C47.266 31.5086 48.0323 33.134 47.7039 34.4343Z" fill="#1928DC"/>
<path d="M50.4412 28.4743C50.4412 28.691 50.3864 28.8535 50.3864 28.9619C50.3864 29.016 50.3864 29.0703 50.3317 29.1245C51.2623 30.0455 51.9192 30.8583 53.2877 32.7545C54.6562 34.6509 56.8457 34.705 56.8457 34.705C56.6268 33.188 56.2436 31.996 55.0393 30.6957C53.8898 29.3953 52.4118 28.2034 51.317 27.4448C51.0434 27.5532 50.6602 27.6615 50.2223 27.6074C50.1675 27.6074 50.1675 27.6074 50.1128 27.6074C50.277 27.7699 50.3317 27.9866 50.3864 28.1492C51.2075 28.6368 53.6161 29.8288 54.6014 31.7793C54.6014 31.7251 53.0687 31.2375 50.4412 28.4743Z" fill="#1928DC"/>
<path d="M52.1924 26.5782L52.0829 26.4157C52.0282 26.3615 52.0282 26.3073 51.9735 26.2532C52.8492 26.5782 56.0241 27.7702 57.0642 28.312C58.1043 28.8538 59.5822 30.0458 60.4033 32.484C60.4033 32.484 58.2685 32.7007 56.5168 31.2378C54.7652 29.7749 52.6851 27.7702 51.8092 27.12C51.9188 27.0117 51.9734 26.9575 52.0282 26.9033C52.0282 26.9033 54.4367 29.0164 56.9548 29.8832C56.9548 29.8832 56.4073 28.908 55.422 28.2037C54.163 27.3367 53.2324 27.0659 52.1924 26.5782Z" fill="#1928DC"/>
<path d="M53.9992 25.1152C53.9444 25.0068 53.9444 24.9526 53.8896 24.8984C54.9297 25.1152 57.5572 25.4402 58.7067 25.7653C59.8562 26.1446 61.9911 26.9573 63.2501 29.3413C63.2501 29.3413 61.3889 29.8831 57.9404 28.2577C54.4918 26.6322 53.397 26.3072 52.7401 26.1446C53.2876 26.0904 53.6707 25.9279 53.8349 25.8195C55.2034 26.4155 57.0645 27.174 58.9257 27.174C58.9257 27.174 57.9951 26.5239 57.0645 26.1446C55.9698 25.7653 54.8203 25.3319 53.9992 25.1152Z" fill="#1928DC"/>
<path d="M53.8897 23.4351C53.5612 23.5976 53.2875 23.6518 52.8496 23.7059C53.0686 23.8685 53.3422 24.0311 53.5065 24.3019C54.7107 24.627 56.7908 25.0063 60.2394 25.2772C63.688 25.5481 65.4944 24.8979 65.4944 24.8979C64.2901 24.1936 62.3742 23.4351 61.0605 23.1641C59.7468 22.8932 56.3529 22.9474 54.8749 22.7307C54.8749 22.7307 54.656 22.8932 54.3823 23.0558C55.6413 23.1641 58.3235 23.2725 59.692 23.9769C59.8015 24.0311 57.2287 24.4103 53.8897 23.4351Z" fill="#1928DC"/>
<path d="M43.433 27.4982C43.3235 27.3898 43.214 27.2814 43.1045 27.2273C42.9403 27.444 42.3382 28.2025 42.0097 28.9069C41.7908 29.5571 41.5718 30.3698 41.4077 30.8574C41.2982 31.345 40.915 32.3744 40.696 32.6995C40.696 32.6995 41.6266 32.8079 42.3382 31.9952C43.0498 31.1825 43.2688 30.4239 43.3783 29.6112C43.5424 29.0152 43.4877 28.1484 43.433 27.4982Z" fill="#1928DC"/>
<path d="M44.9091 27.6616C44.7449 27.8783 44.5806 27.9867 44.5259 27.9867L44.4165 28.0409L44.307 27.9867C44.1975 27.9325 44.088 27.9325 43.9785 27.8783C43.869 28.2576 43.8143 28.4201 43.7596 28.7452C43.7049 29.1787 43.6501 29.8288 43.8143 30.3706C44.0333 31.0208 44.4165 31.4543 44.6354 31.7252C44.6354 31.7252 45.2376 31.075 45.4565 30.479C45.6207 29.883 45.7302 29.2328 45.4565 28.5285C45.2923 28.2034 45.0733 27.8241 44.9091 27.6616Z" fill="#1928DC"/>
<path d="M47.0466 27.7156C46.3898 27.6073 45.9518 27.3906 45.5687 27.1196C45.5139 27.3363 45.3497 27.6615 45.4592 28.0407C45.5687 28.4742 45.8424 28.9076 46.2803 29.2869C46.9371 29.7745 47.7582 30.2621 48.6888 30.0996C48.6888 30.0996 48.9077 29.4494 47.0466 27.7156Z" fill="#1928DC"/>
<path d="M47.7565 26.5239C47.7017 27.1199 47.3733 27.5534 47.3733 27.5534C47.5922 27.8243 48.4133 29.1789 50.0555 28.9621C50.0555 28.9621 50.4935 28.041 49.3987 27.3366C48.6323 26.7949 48.2492 26.7407 47.7565 26.5239Z" fill="#1928DC"/>
<path d="M47.594 25.3854C48.0319 25.4938 48.634 25.548 49.291 25.3854L49.4551 25.3313L49.5099 25.1687C50.3857 25.8731 51.371 25.9814 51.6995 26.5774C51.6995 26.5774 51.2616 27.3359 50.1667 27.2276C49.0719 27.1192 48.2508 26.5774 47.6488 25.8731C47.7035 25.7105 47.6488 25.548 47.594 25.3854Z" fill="#1928DC"/>
<path d="M49.5092 24.4108C49.345 24.1941 49.2355 23.8149 48.9071 23.4897C49.6187 23.3814 50.2756 23.3814 51.1514 23.4897C52.1915 23.7064 53.2315 23.9232 53.7242 25.4402C53.7242 25.4402 53.0673 25.9821 51.8631 25.7654C50.8777 25.5486 50.0019 25.1151 49.5092 24.4108Z" fill="#1928DC"/>
<path d="M49.9474 22.7308C50.2211 22.514 50.4401 22.2431 50.6043 21.8638L50.7138 21.6471C51.5896 21.2678 52.5201 21.1053 53.396 21.4304C54.2719 21.7555 54.5455 22.1348 54.7645 22.4598C54.7645 22.4598 53.7792 23.2725 52.6297 23.3268C51.4801 23.4351 50.3854 23.11 49.9474 22.7308Z" fill="#1928DC"/>
<path d="M49.6746 20.9424C49.5103 20.8883 49.3461 20.8341 49.1819 20.7799C49.5651 20.4548 49.9483 19.913 50.1672 19.1544C50.5504 19.2629 51.5357 19.2629 51.9736 19.1003C52.4115 18.9377 53.2326 18.9377 53.8895 19.3712C53.8895 19.3712 53.6705 20.509 52.1925 20.8882C50.7693 21.2675 50.2219 21.1591 49.6746 20.9424Z" fill="#1928DC"/>
<path d="M50.2202 18.7755L50.0012 18.6671C50.0012 18.6671 49.618 18.4504 49.0707 18.3962C49.5633 18.0711 50.6581 17.0958 51.4792 16.6624C52.3551 16.1748 53.7782 15.5246 54.5446 15.4163C54.5446 15.4163 53.833 17.2042 53.0666 17.9085C52.2455 18.7213 51.6434 18.9922 50.2202 18.7755Z" fill="#1928DC"/>
<path d="M48.7407 17.9627C49.0692 17.5293 49.3976 16.8791 49.5618 16.1747C49.7261 15.5787 50.1093 14.0616 50.3282 13.6824C50.5472 13.3031 51.3682 11.9486 52.9557 11.5151C52.9557 11.5151 53.3936 13.2489 52.5725 14.6576C51.8609 15.8496 50.4924 17.0958 48.7407 17.9627Z" fill="#1928DC"/>
<path d="M39.9304 26.1442C39.7115 26.361 39.602 26.4693 39.2188 26.6319C39.2188 26.6319 38.7262 27.6071 39.3283 28.745C39.9304 29.8827 40.4779 31.0747 40.6968 31.7249C40.6968 31.7249 41.0253 31.6707 41.4085 29.8827C41.6821 28.6366 41.9558 28.3657 42.2842 27.9322C41.9558 28.0947 41.6274 28.149 41.6274 28.149L41.4085 28.2031L41.299 27.9864C41.08 27.553 41.0253 27.1737 41.0253 26.8486C41.0253 26.7402 41.0253 26.6319 41.0253 26.5235C40.4779 26.5235 40.1495 26.2526 40.0399 26.0901C40.0399 26.0901 40.0399 26.09 40.0399 26.0359L39.9304 26.1442Z" fill="#1928DC"/>
<path d="M49.7288 29.3408C50.9331 30.5328 53.3964 33.1334 53.1775 35.9509C53.1775 35.9509 50.8783 35.2465 49.8931 33.5669C48.9625 31.8873 48.3604 30.8578 47.9772 30.4786C48.2509 30.5328 48.4698 30.5328 48.7435 30.4786L48.9625 30.4244C49.5646 31.4539 50.7142 33.1876 51.7542 33.8378C51.7542 33.8378 52.0279 32.4291 48.9625 29.6117C48.9077 29.5033 48.853 29.3408 48.7983 29.2324C49.0172 29.2866 49.3456 29.3408 49.7288 29.3408Z" fill="#1928DC"/>
<path d="M31.9374 6.69421C31.9374 6.47748 32.7585 6.31494 33.7438 6.31494C34.7292 6.31494 35.5502 6.47748 35.5502 6.69421C35.5502 6.91093 34.7292 7.07348 33.7438 7.07348C32.7585 7.07348 31.9374 6.91093 31.9374 6.69421Z" fill="#1928DC"/>
<path d="M25.8077 8.75334C25.8077 8.64498 26.3004 8.53662 26.9573 8.53662C27.6142 8.53662 28.1068 8.64498 28.1068 8.75334C28.1068 8.86169 27.6142 8.97005 26.9573 8.97005C26.3004 8.97005 25.8077 8.86169 25.8077 8.75334Z" fill="#1928DC"/>
<path d="M34.0734 7.50727C34.0734 7.72399 33.9092 7.83234 33.7449 7.83234C33.526 7.83234 33.3618 7.66977 33.3618 7.50727C33.3618 7.29049 33.526 7.18213 33.7449 7.18213C33.9092 7.18213 34.0734 7.3447 34.0734 7.50727Z" fill="#1928DC"/>
<path d="M31.773 6.3148C31.1708 4.9061 30.7877 3.87666 30.7877 3.49739C30.7877 3.28067 31.0614 3.11813 31.2803 3.06394C31.4993 3.00976 31.7183 2.95559 31.8825 3.11813C32.2109 3.33485 32.4846 5.28536 32.5941 6.04389C32.3204 6.09808 32.1562 6.15226 31.773 6.3148Z" fill="#1928DC"/>
<path d="M32.8686 5.99026C33.0329 5.99026 33.197 5.99026 33.3613 5.93608C33.2518 5.17755 32.9781 3.93139 32.8686 3.38958C32.7044 2.90196 32.5402 2.52268 32.157 2.46851C32.157 2.46851 32.4307 3.17286 32.5402 3.87721C32.7044 4.63574 32.8139 5.34009 32.8686 5.99026Z" fill="#1928DC"/>
<path d="M31.9918 8.48259C31.0613 9.02437 30.0212 8.91601 30.0212 8.91601C30.2402 8.53673 30.4044 8.21166 31.0066 7.83237C31.6087 7.39894 32.5393 7.34473 32.8677 7.39894C32.8129 7.61566 32.4297 8.21166 31.9918 8.48259ZM31.0066 8.53673C31.6634 8.37423 32.3203 7.66987 32.3203 7.66987C31.2802 7.83237 31.0066 8.53673 31.0066 8.53673Z" fill="#1928DC"/>
<path d="M25.5339 9.02394C25.5339 9.02394 26.6834 9.45737 27.833 9.40316C28.9825 9.34901 31.1173 9.2948 31.7743 8.96973C31.7743 8.96973 31.6648 9.40316 31.1173 9.61994C31.1173 9.61994 31.3911 9.61994 31.6648 9.8908C31.6648 9.8908 31.5005 10.2159 31.0079 10.4327C31.0079 10.4327 31.8837 11.3537 32.8143 11.2454C32.8143 11.2454 32.3764 11.7872 31.4458 11.5704C30.5152 11.3537 30.1868 10.8119 30.0226 10.6494C30.0226 10.6494 30.1321 11.1369 30.0773 11.3537C30.0773 11.3537 29.6394 11.3537 29.311 10.9202C29.311 10.9202 29.5299 11.3537 29.5846 11.6788C29.5846 11.6788 29.311 11.7329 28.873 11.4079C28.873 11.4079 28.9826 11.6788 28.9826 11.9497C28.9826 11.9497 27.8877 11.6246 27.3404 11.0828C27.3404 11.0828 27.3404 11.4079 27.3404 11.6246C27.3951 11.6788 25.6434 11.5162 25.5339 9.02394ZM28.5446 9.99916V9.94501C27.614 10.0534 26.574 9.99916 26.574 9.99916C26.6287 10.3242 26.7929 10.5952 27.0119 10.7577C27.0666 9.99915 28.5446 9.99916 28.5446 9.99916Z" fill="#1928DC"/>
<path d="M25.2598 9.1869C25.3146 9.72869 25.4241 10.2705 25.643 10.6498C25.643 10.6498 24.9861 10.1622 24.8219 9.72869C24.6577 9.29526 24.603 8.97019 25.2598 9.1869Z" fill="#1928DC"/>
<path d="M25.5874 10.9209C26.0252 11.1376 26.4631 11.6252 26.4631 11.6252C25.7515 11.7877 25.4779 11.9503 25.4779 11.9503C24.1641 11.0292 23.0693 11.9503 23.0693 11.9503C22.3577 11.571 22.1935 10.5957 22.5766 10.0539C22.9051 9.56629 23.7262 9.6205 24.1093 9.72886C24.3284 10.4874 25.1494 10.7041 25.5874 10.9209ZM23.8904 11.2459C24.0546 11.2459 24.1641 11.1376 24.1641 10.975C24.1641 10.8125 24.0546 10.7041 23.8904 10.7041C23.7262 10.7041 23.6167 10.8125 23.6167 10.975C23.6167 11.0834 23.7809 11.2459 23.8904 11.2459Z" fill="#1928DC"/>
<path d="M26.5738 11.7332C26.5738 11.7332 27.0664 12.3833 27.3949 12.6542C27.3949 12.6542 25.6432 12.6542 25.2053 14.1713C25.2053 14.1713 24.6032 13.2502 25.0411 12.6542C25.4789 12.004 25.9168 11.8957 26.5738 11.7332Z" fill="#1928DC"/>
<path d="M28.4874 12.112C28.4874 12.112 29.0349 12.2746 29.2538 12.3287C29.2538 12.3287 29.2538 12.0036 29.2538 11.8411C29.418 11.8953 29.6369 11.9494 29.8012 11.9494C29.8012 11.9494 30.3486 13.1956 30.8412 13.7374C30.8412 13.7374 30.8412 14.0083 30.6223 14.4418C30.6223 14.4418 30.2939 13.6833 29.7464 13.0873C29.418 12.7621 29.199 12.5996 28.4874 12.112Z" fill="#1928DC"/>
<path d="M27.0107 11.8411C27.175 11.8953 28.1056 12.1662 28.5435 12.4913C29.0909 12.8705 29.474 13.3581 29.4193 14.1167C29.4193 14.1167 28.9814 13.5207 28.4888 13.2498C28.1056 13.0331 27.3939 12.3829 27.0107 11.8411Z" fill="#1928DC"/>
<path d="M27.011 6.15186C27.1752 6.15186 27.5036 6.20603 27.5036 6.47694C27.5036 6.74785 27.0657 7.39802 26.9563 7.66895C26.8468 7.39802 26.4088 6.74785 26.4088 6.47694C26.4088 6.20603 26.7372 6.15186 26.9015 6.15186H27.011Z" fill="#1928DC"/>
<path d="M26.6294 8.26576C26.5746 7.88648 26.4104 6.91123 26.1367 6.6945C25.9177 6.47778 25.5893 6.47778 25.4251 6.47778C25.2608 6.47778 25.0966 6.64033 25.1514 6.85705C25.2061 7.07377 25.9724 8.1574 26.0272 8.3199C26.2462 8.26576 26.2462 8.3199 26.6294 8.26576Z" fill="#1928DC"/>
<path d="M27.2845 8.26576C27.3392 7.88648 27.5035 6.91123 27.7772 6.6945C27.9962 6.47778 28.3246 6.47778 28.4888 6.47778C28.653 6.47778 28.8173 6.64033 28.7625 6.85705C28.7078 7.07377 27.9414 8.1574 27.8867 8.3199C27.6677 8.26576 27.7224 8.3199 27.2845 8.26576Z" fill="#1928DC"/>
<path d="M27.7775 4.85234H27.1754V4.25635H26.7375V4.85234H26.1901V5.2316H26.7375V5.99014H27.1754V5.2316H27.7775V4.85234Z" fill="#1928DC"/>
<path d="M20.8792 8.86149C20.8792 8.75306 20.8792 8.6447 20.8792 8.4822C20.934 8.15713 20.934 7.94035 20.8792 7.72363C20.4961 7.8862 20.1676 7.99456 19.6202 8.86149C19.675 8.91563 20.5508 8.37385 20.8792 8.86149Z" fill="#1928DC"/>
<path d="M21.6462 10.325C21.6462 10.1083 21.8104 9.40391 21.9747 8.91627C22.1936 8.32027 22.0841 7.3992 21.8104 6.85738C21.5367 6.31557 21.3725 5.82795 21.4272 5.28613C21.4272 5.28613 20.8798 5.44868 20.6061 5.6654C20.5514 6.31557 20.9346 6.91156 21.0988 7.29084C21.3177 7.72427 21.263 8.26605 21.2083 8.5912C21.1536 9.13298 21.263 9.72898 21.6462 10.325Z" fill="#1928DC"/>
<path d="M21.7026 5.55621C21.7026 5.50203 21.7026 5.28531 21.7026 5.23113C21.7026 5.23113 22.5237 4.41841 23.2353 4.31005C23.6733 4.20169 23.947 4.41841 24.1112 4.52678C24.1112 4.52678 23.8375 4.4726 23.5091 4.79768C23.1259 5.12276 22.688 5.44786 22.3048 5.55621C21.9764 5.55621 21.8669 5.55621 21.7026 5.55621Z" fill="#1928DC"/>
<path d="M24.2198 4.52734C24.5482 4.85243 24.8219 5.17752 24.8219 5.44842C24.8219 5.71932 24.4935 6.47786 24.2745 6.74876C24.1103 7.01967 23.8366 7.39893 23.8366 7.83236C23.8366 8.04907 24.0008 8.26586 24.2198 8.48257C24.2198 8.48257 23.1797 8.26586 23.0702 7.61564C22.9608 7.07384 23.1797 6.6404 23.344 6.36949C23.5081 6.09859 23.9461 5.39424 24.1103 5.12333C24.1651 4.85243 24.2198 4.63571 24.2198 4.52734Z" fill="#1928DC"/>
<path d="M30.1848 11.6248C30.4038 12.3291 30.7322 13.0335 31.0606 13.5753C31.3891 14.0629 31.5533 14.8214 31.5533 15.0923C31.5533 15.0923 31.9912 14.0629 31.7722 13.3585C31.6081 12.7625 31.1154 11.9498 30.1848 11.6248Z" fill="#1928DC"/>
<path d="M31.3354 11.8411C31.3354 11.8411 32.0471 11.8411 32.3755 12.0578C32.8135 12.3287 33.1966 12.9247 33.3608 13.6833C33.3608 13.6833 32.6492 13.5749 32.3208 13.1956C31.9376 12.8705 31.5544 12.3287 31.3354 11.8411Z" fill="#1928DC"/>
<path d="M27.7218 13.0879C27.6123 13.0879 27.2291 13.1962 27.0649 13.2504C27.0649 13.2504 27.6671 13.413 27.9407 13.6839C28.2145 13.9006 28.4334 14.2257 28.5429 14.7675C28.7071 15.526 29.145 16.3387 29.2545 16.6096H29.3093C29.1998 16.0678 29.5829 14.9842 29.6377 14.8758C29.6377 14.8758 29.145 14.605 28.9261 14.2798C28.7618 13.9547 28.4882 13.5755 27.7218 13.0879Z" fill="#1928DC"/>
<path d="M30.8428 14.7136C31.007 15.0929 31.4997 15.7973 31.2807 16.5558C31.0618 17.3143 30.5691 17.5852 30.2954 18.2354C30.2954 18.2354 30.0765 17.0976 30.1312 16.2307C30.1312 15.3638 30.4597 15.0387 30.8428 14.7136Z" fill="#1928DC"/>
<path d="M32.2091 14.7676C32.2091 14.7676 32.9208 16.1221 33.0302 16.6639C33.1398 17.2057 33.0303 17.5308 32.8113 17.8559C32.5923 18.1809 32.1544 18.5061 31.7712 19.1562C31.7712 19.1562 31.3333 18.6144 31.2786 18.2893C31.2239 18.0184 31.3333 17.2599 31.388 16.989C31.4976 16.6639 31.8807 15.7428 32.2091 14.7676Z" fill="#1928DC"/>
<path d="M32.5405 19.0476C32.3763 19.2102 31.5552 20.1854 31.4458 20.4563C31.3363 20.7273 31.172 21.269 31.391 21.6483C31.6647 22.0275 32.2121 22.6235 32.7595 22.8945C32.7595 22.8945 32.2121 22.0275 32.2669 21.3232C32.3216 20.8898 32.6501 20.4563 32.7048 20.1854C32.8142 19.9145 32.7595 19.481 32.5405 19.0476Z" fill="#1928DC"/>
<path d="M30.9519 18.5059C31.0614 18.6684 31.2803 19.1019 31.3351 19.4811C31.3898 19.8604 31.2803 20.1855 31.0614 20.7814C30.7877 21.54 30.3498 22.3527 30.1308 22.732C30.1308 22.732 29.7476 22.1901 29.5287 21.7025C29.5287 21.7025 30.1308 20.8898 30.4046 20.2939C30.6783 19.6979 30.8424 19.0476 30.9519 18.5059Z" fill="#1928DC"/>
<path d="M30.68 18.1807C30.68 18.1807 30.4063 20.077 29.2568 21.5399C28.4904 22.5152 27.8335 22.8402 27.4503 22.8402C26.8483 22.8402 26.1913 22.2984 25.9724 21.7566C25.7534 21.1607 25.8081 20.2396 26.2461 19.9144C26.2461 19.9144 26.6292 21.0523 27.3956 21.1064C28.3262 21.1607 29.4757 20.1312 30.68 18.1807Z" fill="#1928DC"/>
<path d="M29.7482 17.4219C29.8578 17.7469 29.8578 18.2888 29.7482 18.7764C29.6388 19.1557 29.4198 19.6433 28.9819 19.9142C28.5987 20.1309 27.6681 20.1851 27.3397 19.3724C27.3397 19.3724 28.9819 19.4808 29.7482 17.4219Z" fill="#1928DC"/>
<path d="M32.4306 25.1157C32.6495 25.7117 33.4706 26.4161 33.4706 26.8495C33.4706 28.0415 32.9233 28.7459 32.8138 29.1793C32.8138 29.1793 31.8285 28.4208 31.6643 27.5539C31.6095 27.1204 31.6643 25.7659 32.4306 25.1157Z" fill="#1928DC"/>
<path d="M31.3893 25.9835C31.4988 25.6584 31.882 24.8457 32.2652 24.5206C32.2652 24.5206 32.8125 23.0035 31.1156 22.0283C31.1156 22.0283 30.404 22.9494 30.2398 23.8162C30.0208 24.6832 30.9514 25.1708 31.3893 25.9835Z" fill="#1928DC"/>
<path d="M29.2538 22.0823C28.9801 22.4073 28.5969 22.8408 28.3233 23.0033C28.3233 23.0033 28.2137 23.7077 28.2685 24.1411C28.378 24.7913 28.8159 25.4956 28.9801 25.9833C28.9801 25.9833 29.6917 25.008 29.8012 24.4662C29.9107 23.9244 29.8559 23.4368 29.9107 23.1658C29.9107 23.2201 29.4728 22.5698 29.2538 22.0823Z" fill="#1928DC"/>
<path d="M27.2847 25.3867C27.0657 25.0615 26.4088 23.9237 26.4088 23.0569C26.4088 23.0569 27.2299 23.4903 27.9415 23.1652C27.9415 23.1652 28.051 24.2488 27.8868 24.6281C27.7773 24.9532 27.6679 25.1157 27.2847 25.3867Z" fill="#1928DC"/>
<path d="M27.5043 25.6036C27.6137 25.4952 27.9969 25.1701 28.1064 25.0076C28.1064 25.0076 28.6538 25.9829 28.7633 26.3079C28.7633 26.3079 28.4895 26.3621 28.1611 26.1454C27.8874 25.9829 27.7779 25.9286 27.5043 25.6036Z" fill="#1928DC"/>
<path d="M30.0776 25.0076C30.0228 25.2785 29.0923 26.4704 28.9828 26.633C28.9828 26.633 29.0376 27.0664 29.366 27.7166C29.6944 28.3668 30.1324 28.8002 30.406 29.0169C30.406 29.0169 30.9534 28.0417 31.1176 27.6624C31.2819 27.1748 31.2819 26.6871 31.2271 26.5246C31.0082 26.1454 30.3513 25.5494 30.0776 25.0076Z" fill="#1928DC"/>
<path d="M31.3913 28.2598C31.6103 28.639 32.1577 29.2892 32.2671 29.831C32.3219 30.2103 32.2671 30.5896 32.1577 30.8604C32.0482 31.1313 31.665 31.6731 31.446 32.1066C31.446 32.1066 30.625 31.3481 30.4607 30.8063C30.3512 30.3728 30.3512 29.831 30.5702 29.4517C30.7892 29.0183 31.2271 28.639 31.3913 28.2598Z" fill="#1928DC"/>
<path d="M29.0917 28.1499C29.3106 28.5833 29.8033 29.071 29.9128 29.4502C30.0223 29.9378 30.077 30.2088 29.8581 30.7505C29.6391 31.2382 29.4202 31.5091 29.3107 31.8342C29.3107 31.8342 28.6538 30.9673 28.5443 30.6422C28.4349 30.2629 28.3801 29.7211 28.5443 29.3418C28.7086 28.9626 28.9275 28.475 29.0917 28.1499Z" fill="#1928DC"/>
<path d="M32.3761 31.3462C32.3761 31.3462 31.2265 32.7008 31.2813 33.405C31.336 34.3262 31.9382 34.9221 31.9929 35.464C31.9929 35.464 32.595 34.8138 32.814 34.3262C33.0877 33.8385 33.2519 33.405 33.1972 32.8091C33.0877 32.3215 32.9235 31.9422 32.3761 31.3462Z" fill="#1928DC"/>
<path d="M30.2402 31.2385C30.4044 31.5095 30.9518 32.3763 30.7876 32.9182C30.6234 33.46 30.076 34.2185 29.9117 34.4894C29.9117 34.4894 29.4739 33.5683 29.3644 33.1349C29.2549 32.7556 29.3644 32.0512 30.2402 31.2385Z" fill="#1928DC"/>
<path d="M41.6259 8.75334C41.6259 8.64498 41.1332 8.53662 40.4764 8.53662C39.8195 8.53662 39.3268 8.64498 39.3268 8.75334C39.3268 8.86169 39.8195 8.97005 40.4764 8.97005C41.1332 8.97005 41.6259 8.86169 41.6259 8.75334Z" fill="#1928DC"/>
<path d="M33.744 5.23123C33.7988 4.7436 34.4008 3.6058 34.4008 3.11818C34.4008 2.7389 34.0724 2.41382 33.6893 2.41382C33.3061 2.41382 32.9777 2.7389 32.9777 3.11818C33.0324 3.6058 33.6345 4.68942 33.744 5.23123Z" fill="#1928DC"/>
<path d="M35.6596 6.3148C36.2617 4.9061 36.6449 3.87666 36.6449 3.49739C36.6449 3.28067 36.3712 3.11813 36.1523 3.06394C35.9333 3.00976 35.7144 2.95559 35.5501 3.11813C35.2217 3.33485 34.948 5.28536 34.8385 6.04389C35.1122 6.09808 35.3312 6.15226 35.6596 6.3148Z" fill="#1928DC"/>
<path d="M34.5651 5.99026C34.4008 5.99026 34.2367 5.99026 34.1272 5.93608C34.2367 5.17755 34.5103 3.93139 34.6199 3.38958C34.784 2.90196 34.9483 2.52268 35.3314 2.46851C35.3314 2.46851 35.0578 3.17286 34.9483 3.87721C34.784 4.63574 34.6746 5.34009 34.5651 5.99026Z" fill="#1928DC"/>
<path d="M34.5637 7.34412C34.9469 7.28998 35.8775 7.39834 36.4796 7.77762C37.0818 8.21105 37.2459 8.53612 37.4649 8.86119C37.4649 8.86119 36.4249 8.96955 35.4943 8.42776C35.0564 8.21105 34.6732 7.61505 34.5637 7.34412ZM35.1111 7.66926C35.1111 7.66926 35.768 8.37362 36.4249 8.53612C36.4796 8.53612 36.2059 7.83176 35.1111 7.66926Z" fill="#1928DC"/>
<path d="M40.0947 11.679C40.0947 11.4623 40.0947 11.1372 40.0947 11.1372C39.5473 11.6249 38.4525 12.0042 38.4525 12.0042C38.4525 11.7332 38.5619 11.4623 38.5619 11.4623C38.0693 11.7332 37.8503 11.7332 37.8503 11.7332C37.9051 11.4082 38.124 10.9747 38.124 10.9747C37.7956 11.4082 37.3577 11.4082 37.3577 11.4082C37.303 11.1915 37.4124 10.7038 37.4124 10.7038C37.2482 10.9205 36.9198 11.4623 35.9892 11.6249C35.0586 11.8416 34.6207 11.2998 34.6207 11.2998C35.5513 11.354 36.4271 10.4871 36.4271 10.4871C35.9345 10.3245 35.7702 9.94524 35.7702 9.94524C36.044 9.67438 36.3176 9.67438 36.3176 9.67438C35.7702 9.40346 35.6608 9.02417 35.6608 9.02417C36.3724 9.34931 38.4525 9.34931 39.602 9.45767C40.7515 9.51181 41.9011 9.07838 41.9011 9.07838C41.7916 11.5165 40.0947 11.679 40.0947 11.679ZM40.4779 10.7038C40.6968 10.5412 40.861 10.2704 40.9158 9.94524C40.9158 9.94524 39.821 9.99946 38.9451 9.8911V9.94524C38.8904 9.99946 40.4231 9.99946 40.4779 10.7038Z" fill="#1928DC"/>
<path d="M42.1729 9.1869C42.1181 9.72869 42.0086 10.2705 41.7897 10.6498C41.7897 10.6498 42.4465 10.1622 42.6108 9.72869C42.8297 9.29526 42.8845 8.97019 42.1729 9.1869Z" fill="#1928DC"/>
<path d="M43.3789 9.72886C43.7621 9.6205 44.5832 9.56629 44.9116 10.0539C45.2401 10.5416 45.1306 11.5169 44.419 11.9503C44.419 11.9503 43.3242 11.0292 42.0104 11.9503C42.0104 11.9503 41.682 11.7336 41.0251 11.6252C41.0251 11.6252 41.4083 11.1376 41.9009 10.9209C42.2841 10.7041 43.1599 10.4874 43.3789 9.72886ZM43.8168 10.975C43.8168 10.8125 43.7074 10.7041 43.5431 10.7041C43.379 10.7041 43.2694 10.8125 43.2694 10.975C43.2694 11.1376 43.379 11.2459 43.5431 11.2459C43.7074 11.2459 43.8168 11.0834 43.8168 10.975Z" fill="#1928DC"/>
<path d="M40.861 11.7332C40.861 11.7332 40.3684 12.3833 40.0399 12.6542C40.0399 12.6542 41.7917 12.6542 42.2295 14.1713C42.2295 14.1713 42.8317 13.2502 42.3937 12.6542C41.9558 12.0041 41.5179 11.8957 40.861 11.7332Z" fill="#1928DC"/>
<path d="M38.9449 12.112C38.9449 12.112 38.3975 12.2746 38.1785 12.3287C38.1785 12.3287 38.1785 12.0036 38.1785 11.8411C38.0143 11.8953 37.7954 11.9494 37.6311 11.9494C37.6311 11.9494 37.0837 13.1956 36.5911 13.7374C36.5911 13.7374 36.5911 14.0083 36.81 14.4418C36.81 14.4418 37.1384 13.6833 37.6859 13.0873C38.0691 12.7621 38.288 12.5996 38.9449 12.112Z" fill="#1928DC"/>
<path d="M40.4209 11.8411C40.2567 11.8953 39.3261 12.1662 38.8882 12.4913C38.3408 12.8705 37.9576 13.3581 38.0124 14.1167C38.0124 14.1167 38.4503 13.5207 38.943 13.2498C39.3809 13.0331 40.0925 12.3829 40.4209 11.8411Z" fill="#1928DC"/>
<path d="M40.4242 6.15186C40.2599 6.15186 39.9315 6.20603 39.9315 6.47694C39.9315 6.74785 40.3694 7.39802 40.4789 7.66895C40.5884 7.39802 41.0263 6.74785 41.0263 6.47694C41.0263 6.20603 40.6978 6.15186 40.5337 6.15186H40.4242Z" fill="#1928DC"/>
<path d="M40.8046 8.26576C40.8593 7.88648 41.0235 6.91123 41.2972 6.6945C41.5162 6.47778 41.8446 6.47778 42.0089 6.47778C42.173 6.47778 42.3373 6.64033 42.2825 6.85705C42.2278 7.07377 41.4614 8.1574 41.4067 8.3199C41.1878 8.26576 41.2425 8.3199 40.8046 8.26576Z" fill="#1928DC"/>
<path d="M40.1497 8.26576C40.0949 7.88648 39.9307 6.91123 39.7118 6.6945C39.4928 6.47778 39.1643 6.47778 39.0001 6.47778C38.8359 6.47778 38.6717 6.64033 38.7264 6.85705C38.7812 7.07377 39.5475 8.1574 39.6023 8.3199C39.7665 8.26576 39.7118 8.3199 40.1497 8.26576Z" fill="#1928DC"/>
<path d="M39.7109 4.85234H40.2583V4.25635H40.6963V4.85234H41.2984V5.2316H40.6963V5.99014H40.2583V5.2316H39.7109V4.85234Z" fill="#1928DC"/>
<path d="M32.8683 1.16801H33.4157V0.572021H33.8536V1.16801H34.4557V1.54728H33.8536V2.30581H33.4157V1.54728H32.8683V1.16801Z" fill="#1928DC"/>
<path d="M46.6075 8.86142C46.6075 8.75306 46.6075 8.6447 46.6075 8.4822C46.5527 8.15706 46.5527 7.94035 46.6075 7.72363C46.9906 7.8862 47.319 7.99456 47.8665 8.86142C47.8117 8.91563 46.8811 8.37378 46.6075 8.86142Z" fill="#1928DC"/>
<path d="M45.7883 10.325C45.7883 10.1083 45.6241 9.40391 45.4599 8.91627C45.2409 8.32027 45.3504 7.3992 45.6241 6.85738C45.8978 6.31557 46.062 5.82795 46.0073 5.28613C46.0073 5.28613 46.5547 5.44868 46.8284 5.6654C46.8831 6.31557 46.5 6.91156 46.3357 7.29084C46.1168 7.72427 46.1715 8.26605 46.2262 8.5912C46.3357 9.13298 46.1715 9.72898 45.7883 10.325Z" fill="#1928DC"/>
<path d="M45.7321 5.55621C45.7321 5.50203 45.7321 5.28531 45.7321 5.23113C45.7321 5.23113 44.911 4.41841 44.1994 4.31005C43.7614 4.20169 43.4877 4.41841 43.3235 4.52678C43.3235 4.52678 43.5972 4.4726 43.9256 4.79768C44.3088 5.12276 44.7467 5.44786 45.1299 5.55621C45.5131 5.55621 45.5678 5.55621 45.7321 5.55621Z" fill="#1928DC"/>
<path d="M43.2695 4.52734C42.9411 4.85243 42.6674 5.17752 42.6674 5.44842C42.6674 5.71932 42.9958 6.47786 43.2147 6.74876C43.379 7.01967 43.6526 7.39893 43.6526 7.83236C43.6526 8.04907 43.4885 8.26586 43.2695 8.48257C43.2695 8.48257 44.3095 8.26586 44.419 7.61564C44.5285 7.07384 44.3095 6.6404 44.1453 6.36949C43.9811 6.09859 43.5432 5.39424 43.379 5.12333C43.2695 4.85243 43.2147 4.63571 43.2695 4.52734Z" fill="#1928DC"/>
<path d="M37.2467 11.6248C37.0277 12.3291 36.6993 13.0335 36.3708 13.5753C36.0424 14.0629 35.8782 14.8214 35.8782 15.0923C35.8782 15.0923 35.3855 14.0629 35.6592 13.3585C35.8234 12.7625 36.3161 11.9498 37.2467 11.6248Z" fill="#1928DC"/>
<path d="M36.0984 11.8411C36.0984 11.8411 35.3868 11.8411 35.0583 12.0578C34.6204 12.3287 34.2372 12.9247 34.073 13.6833C34.073 13.6833 34.7846 13.5749 35.113 13.1956C35.4962 12.8705 35.9341 12.3287 36.0984 11.8411Z" fill="#1928DC"/>
<path d="M39.765 13.0879C39.8744 13.0879 40.2576 13.1962 40.4219 13.2504C40.4219 13.2504 39.8197 13.413 39.546 13.6839C39.2723 13.9006 39.0533 14.2257 38.9439 14.7675C38.7797 15.526 38.3417 16.3387 38.2322 16.6096H38.1775C38.287 16.0678 37.9038 14.9842 37.8491 14.8758C37.8491 14.8758 38.3417 14.605 38.5607 14.2798C38.6701 13.9547 38.9439 13.5755 39.765 13.0879Z" fill="#1928DC"/>
<path d="M36.6448 14.7136C36.4806 15.0929 35.9879 15.7973 36.2069 16.5558C36.4258 17.3143 36.9185 17.5852 37.1922 18.2354C37.1922 18.2354 37.4112 17.0976 37.3564 16.2307C37.3564 15.3638 37.028 15.0387 36.6448 14.7136Z" fill="#1928DC"/>
<path d="M33.7439 16.7719C33.7987 16.3385 34.7841 15.309 34.7293 14.713C34.6745 14.1712 33.9082 13.7378 33.7439 13.6836C33.5798 13.792 32.8134 14.1712 32.7587 14.713C32.6492 15.309 33.6892 16.3385 33.7439 16.7719Z" fill="#1928DC"/>
<path d="M35.2771 14.7678C35.2771 14.7678 34.5655 16.1224 34.456 16.6642C34.3466 17.206 34.456 17.5311 34.675 17.8562C34.8939 18.1813 35.3318 18.5063 35.715 19.1565C35.715 19.1565 36.1529 18.6147 36.2077 18.2896C36.2624 18.0187 36.1529 17.2602 36.0982 16.9893C35.934 16.6642 35.5508 15.7431 35.2771 14.7678Z" fill="#1928DC"/>
<path d="M33.7446 19.9693C34.073 19.6984 34.3467 19.2649 34.4562 19.0482C34.5657 18.8315 34.5657 18.4522 34.3467 18.1813C34.073 17.8562 33.7993 17.477 33.7446 17.2061C33.7446 17.477 33.4161 17.8562 33.1424 18.1813C32.9235 18.4522 32.9783 18.7773 33.033 19.0482C33.0877 19.2649 33.4161 19.6984 33.7446 19.9693Z" fill="#1928DC"/>
<path d="M34.8948 19.0476C35.059 19.2102 35.8801 20.1854 35.9895 20.4563C36.099 20.7273 36.2633 21.269 36.0443 21.6483C35.7706 22.0275 35.2232 22.6235 34.6758 22.8945C34.6758 22.8945 35.2232 22.0275 35.1685 21.3232C35.1138 20.8898 34.7853 20.4563 34.7306 20.1854C34.6758 19.9145 34.7306 19.481 34.8948 19.0476Z" fill="#1928DC"/>
<path d="M36.4807 18.5059C36.3713 18.6684 36.1523 19.1019 36.0976 19.4811C36.0429 19.8604 36.1523 20.1855 36.3713 20.7814C36.6449 21.54 37.0829 22.3527 37.3018 22.732C37.3018 22.732 37.685 22.1901 37.904 21.7025C37.904 21.7025 37.3018 20.8898 37.0281 20.2939C36.7545 19.6979 36.6449 19.0476 36.4807 18.5059Z" fill="#1928DC"/>
<path d="M36.8098 18.1807C36.8098 18.1807 37.0835 20.077 38.2331 21.5399C38.9994 22.5152 39.6563 22.8402 40.0395 22.8402C40.6416 22.8402 41.2985 22.2984 41.5174 21.7566C41.7364 21.1607 41.6816 20.2396 41.2437 19.9144C41.2437 19.9144 40.8605 21.0523 40.0942 21.1064C39.1088 21.1607 37.9593 20.1312 36.8098 18.1807Z" fill="#1928DC"/>
<path d="M37.7392 17.4219C37.6297 17.7469 37.6297 18.2888 37.7392 18.7764C37.8487 19.1557 38.0676 19.6433 38.5055 19.9142C38.8887 20.1309 39.8193 20.1851 40.1477 19.3724C40.1477 19.3724 38.4508 19.4808 37.7392 17.4219Z" fill="#1928DC"/>
<path d="M33.7443 23.0578C33.9632 22.9495 34.1822 22.8411 34.4559 22.4619C34.6749 22.1367 34.8938 21.5407 34.7296 21.1073C34.5654 20.5655 34.2917 20.403 34.1275 20.0779C33.9632 20.1862 33.9085 20.2946 33.7443 20.403C33.5801 20.2946 33.4706 20.1862 33.3611 20.0779C33.1969 20.403 32.9232 20.6197 32.759 21.1073C32.6495 21.5407 32.8684 22.1367 33.0327 22.4619C33.3064 22.8953 33.4706 22.9495 33.7443 23.0578Z" fill="#1928DC"/>
<path d="M33.7451 26.3081C33.8546 25.8205 34.9493 24.8452 34.8398 24.3034C34.6756 23.4907 34.183 23.6533 33.7451 23.3281C33.3071 23.6533 32.8144 23.4907 32.6503 24.3034C32.5408 24.8452 33.5808 25.8205 33.7451 26.3081Z" fill="#1928DC"/>
<path d="M35.0037 25.116C34.7847 25.712 33.9636 26.4163 33.9636 26.8498C33.9636 28.0418 34.511 28.7461 34.6205 29.1795C34.6205 29.1795 35.6058 28.421 35.7701 27.5541C35.8795 27.1207 35.7701 25.7662 35.0037 25.116Z" fill="#1928DC"/>
<path d="M36.0963 25.9835C35.9867 25.6584 35.6036 24.8457 35.2204 24.5206C35.2204 24.5206 34.673 23.0035 36.3699 22.0283C36.3699 22.0283 37.0815 22.9494 37.2458 23.8162C37.41 24.6832 36.5342 25.1708 36.0963 25.9835Z" fill="#1928DC"/>
<path d="M38.1769 22.0823C38.4506 22.4073 38.8338 22.8408 39.1075 23.0033C39.1075 23.0033 39.217 23.7077 39.1622 24.1411C39.0527 24.7913 38.6148 25.4956 38.4506 25.9833C38.4506 25.9833 37.739 25.0081 37.6295 24.4662C37.52 23.9244 37.5748 23.4368 37.52 23.1658C37.5748 23.2201 37.9579 22.5699 38.1769 22.0823Z" fill="#1928DC"/>
<path d="M40.1481 25.3867C40.367 25.0615 41.0239 23.9237 41.0239 23.0569C41.0239 23.0569 40.2028 23.4903 39.4912 23.1652C39.4912 23.1652 39.3817 24.2488 39.5459 24.6281C39.6554 24.9532 39.8197 25.1157 40.1481 25.3867Z" fill="#1928DC"/>
<path d="M39.9296 25.6036C39.8202 25.4952 39.437 25.1701 39.3275 25.0076C39.3275 25.0076 38.7801 25.9829 38.6707 26.3079C38.6707 26.3079 38.9443 26.3621 39.2728 26.1454C39.6012 25.9829 39.6559 25.9286 39.9296 25.6036Z" fill="#1928DC"/>
<path d="M37.4113 25.0076C37.466 25.2785 38.3965 26.4704 38.506 26.633C38.506 26.633 38.4513 27.0664 38.1229 27.7166C37.7945 28.3668 37.3565 28.8002 37.0829 29.0169C37.0829 29.0169 36.5354 28.0417 36.3712 27.6624C36.207 27.1748 36.207 26.6871 36.2618 26.5246C36.4807 26.1454 37.0829 25.5494 37.4113 25.0076Z" fill="#1928DC"/>
<path d="M33.7446 32.2683C33.854 31.9432 34.3466 31.5098 34.5657 30.9679C34.6751 30.6428 34.6751 30.2094 34.5657 29.9385C34.4014 29.6134 33.854 28.8548 33.7446 28.584C33.6898 28.8007 33.0877 29.6134 32.9235 29.9385C32.7592 30.2094 32.7592 30.6428 32.9235 30.9679C33.1424 31.5639 33.635 31.9432 33.7446 32.2683Z" fill="#1928DC"/>
<path d="M36.0437 28.2598C35.8247 28.639 35.2773 29.2892 35.1678 29.831C35.1131 30.2103 35.1678 30.5896 35.2773 30.8604C35.3868 31.1313 35.77 31.6731 35.9889 32.1066C35.9889 32.1066 36.81 31.3481 36.9743 30.8063C37.0837 30.3728 37.0837 29.831 36.8648 29.4517C36.6458 29.0183 36.2626 28.639 36.0437 28.2598Z" fill="#1928DC"/>
<path d="M38.3423 28.1499C38.1234 28.5833 37.6307 29.071 37.5212 29.4502C37.4117 29.9378 37.357 30.2088 37.576 30.7505C37.7949 31.2382 38.0139 31.5091 38.1234 31.8342C38.1234 31.8342 38.7802 30.9673 38.8897 30.6422C38.9992 30.2629 39.0539 29.7211 38.8897 29.3418C38.7802 28.9626 38.5066 28.475 38.3423 28.1499Z" fill="#1928DC"/>
<path d="M33.7432 38.7695C33.798 38.336 34.6738 37.0898 34.6738 35.7353C34.6738 35.031 34.0717 34.0015 33.7432 33.5681C33.4148 33.9473 32.7579 35.031 32.8127 35.7353C32.8127 37.0898 33.6885 38.3902 33.7432 38.7695Z" fill="#1928DC"/>
<path d="M35.1141 31.3462C35.1141 31.3462 36.2636 32.7008 36.2088 33.405C36.1541 34.3262 35.552 34.9221 35.4972 35.464C35.4972 35.464 34.8951 34.8138 34.6761 34.3262C34.4024 33.8385 34.2382 33.405 34.293 32.8091C34.3477 32.3215 34.5119 31.9422 35.1141 31.3462Z" fill="#1928DC"/>
<path d="M37.1927 31.2385C37.0286 31.5095 36.4812 32.3763 36.6454 32.9182C36.8096 33.46 37.357 34.2185 37.5212 34.4894C37.5212 34.4894 37.9591 33.5683 38.0686 33.1349C38.1781 32.7556 38.1234 32.0512 37.1927 31.2385Z" fill="#1928DC"/>
<path d="M34.5102 40.9908C34.565 39.9072 35.1671 39.3112 35.2766 38.7694C35.3861 38.1734 35.3313 37.5774 34.8934 36.873C34.5102 38.1734 34.0723 39.1487 33.7439 39.7988C33.4154 39.1487 32.9775 38.1734 32.5943 36.873C32.1017 37.5774 32.1017 38.1734 32.2112 38.7694C32.3207 39.3112 32.9228 39.9614 32.9775 40.9908C33.0323 42.0745 31.828 42.4537 31.828 42.4537C32.2112 42.6163 32.7039 42.6704 33.4154 41.966C33.525 41.8577 33.6344 41.6952 33.7439 41.5326C33.7986 41.6952 33.9081 41.8035 34.0723 41.966C34.784 42.6704 35.2766 42.6163 35.6597 42.4537C35.6597 42.4537 34.4555 42.0203 34.5102 40.9908Z" fill="#1928DC"/>
<path d="M30.733 33.948C30.8425 34.3273 31.2257 35.0859 31.2804 35.3026C31.3899 35.736 31.2257 36.2236 30.4593 36.7654C30.4593 36.7654 29.9667 36.4404 29.7477 35.9527C29.5835 35.5193 29.693 35.2484 29.8572 34.9775C30.0761 34.7607 30.5141 34.2731 30.733 33.948Z" fill="#1928DC"/>
<path d="M32.3214 35.5186C32.3214 35.7353 32.1571 36.9273 31.8287 37.5232C31.336 38.3359 30.6244 38.9861 30.0223 38.9861C29.4202 38.9861 29.3107 38.6611 29.037 38.4985C29.037 38.4985 29.2012 37.7941 29.8033 37.5774C30.6244 37.3607 31.8287 36.3854 32.3214 35.5186Z" fill="#1928DC"/>
<path d="M30.2408 37.0363C30.1313 36.9279 29.9671 36.8737 29.8029 36.657C29.8029 36.657 29.2008 36.8737 28.7081 37.1988C28.2154 37.5239 27.7227 38.1198 27.4491 38.3908C27.4491 38.3908 28.2154 38.6075 28.7081 38.3908C28.7081 38.3908 28.8723 37.6864 29.4197 37.3613C29.5292 37.3071 29.9124 37.1988 30.2408 37.0363Z" fill="#1928DC"/>
<path d="M29.6393 36.4391C29.5298 36.2766 29.2561 35.9515 29.3109 35.4097C29.3109 35.4097 28.2709 36.0598 27.9424 36.3307C27.6139 36.6017 26.9571 37.2518 26.7928 37.4685C26.7928 37.4685 27.6139 37.306 28.2161 37.0893C28.9277 36.8725 29.3656 36.5475 29.6393 36.4391Z" fill="#1928DC"/>
<path d="M27.8328 37.5774C27.2855 37.7941 25.9717 38.0108 25.4243 38.1192C24.877 38.2818 24.4938 38.5527 24.0011 39.0945C24.0011 39.0945 24.7675 39.3112 25.2054 39.4195C25.2054 39.4195 25.8622 38.9861 26.6286 38.661C27.0665 38.5527 27.3402 38.065 27.8328 37.5774Z" fill="#1928DC"/>
<path d="M26.6272 41.3165C26.7367 41.2081 26.9009 41.0456 26.7914 40.7205C26.6819 40.5037 26.244 40.2329 25.9703 40.1245C25.5324 39.9077 24.2187 39.5827 23.8355 39.4202C23.8355 39.4202 23.6165 39.6369 23.507 39.9077C23.4523 40.0161 23.507 40.1245 23.726 40.1245C24.1092 40.1787 24.9303 40.0161 25.1492 40.1787C25.3682 40.3412 25.3135 40.5037 25.3135 40.7205C25.3135 40.7205 25.6966 40.5037 25.9703 40.558C26.244 40.6121 26.463 40.7747 26.6272 41.3165Z" fill="#1928DC"/>
<path d="M25.4779 39.5818C25.5874 39.636 26.08 39.7443 26.5726 40.0694C26.5726 40.0694 26.7916 39.961 26.9011 39.7985C27.0105 39.636 27.4485 38.9858 27.8316 38.8774C27.8316 38.8774 27.5032 38.8233 27.2843 38.769C27.2843 38.769 26.8464 38.8774 26.5726 38.9858C26.299 39.0941 25.9158 39.2567 25.4779 39.5818Z" fill="#1928DC"/>
<path d="M28.8182 38.769C28.7635 38.8233 28.5993 38.8774 28.3256 38.8774C28.3256 38.8774 27.176 39.636 27.0666 40.4487C26.9571 41.0988 27.2855 41.4239 27.4498 41.5323C27.6139 41.6406 28.3803 41.9115 28.9277 40.8821C28.9277 40.8821 28.0518 41.153 27.8329 40.7738C27.6139 40.3403 27.9971 39.7443 28.2161 39.5818C28.5445 39.365 29.0919 39.2025 29.4204 39.2567C29.4204 39.1483 29.1466 38.9316 28.8182 38.769Z" fill="#1928DC"/>
<path d="M21.4279 47.6011C21.592 47.0593 21.7015 46.4633 21.9752 45.8673C22.4679 44.7837 23.7269 41.9663 26.3544 41.4786C26.6281 41.4245 26.0807 40.8285 25.8617 40.8826C25.6428 40.9369 25.1501 41.2078 24.9312 41.3161C24.9312 41.3161 24.9312 40.7201 24.9312 40.6118C24.9312 40.5034 24.8217 40.4492 24.7122 40.4492C24.6027 40.4492 24.0006 40.4492 23.7816 40.6659C23.1795 41.3703 22.1942 43.1583 21.6468 44.5128C21.0994 45.8673 20.7162 46.3008 20.1141 46.084C19.5119 45.8673 19.1835 45.2171 18.0887 45.3797C17.7055 45.4339 17.3224 45.7048 16.9939 46.0299C17.1034 46.1924 17.2128 46.4091 17.7055 46.4091C18.1982 46.4091 19.1288 46.6259 19.6214 46.9509C20.1141 47.3844 20.6615 47.5469 21.4279 47.6011Z" fill="#1928DC"/>
<path d="M31.8296 38.769C31.8844 39.2025 32.1033 39.636 32.3223 40.0694C32.3223 40.0694 31.556 43.6995 28.6547 43.9704C28.6547 43.9704 28.7095 43.2119 29.5854 42.6701C30.4612 42.0741 31.7202 41.2072 31.6107 39.8527C31.6107 39.8527 31.3917 39.9068 30.9538 40.3945C30.5706 40.8821 29.6401 42.345 28.2716 42.345C28.2716 42.345 28.4906 41.6406 29.0927 41.2614C29.6948 40.8821 30.4612 40.3403 30.8444 39.7443C31.1728 39.2025 31.556 38.8774 31.8296 38.769Z" fill="#1928DC"/>
<path d="M30.4606 51.989L32.2122 54.4272L33.526 52.0974L33.0333 51.2847C32.7049 51.8806 32.3217 52.585 32.1028 52.9101C31.9385 52.6933 31.5006 52.0974 30.8985 51.2847L30.4606 51.989Z" fill="#1928DC"/>
<path d="M30.0231 49.9306C28.3261 47.6008 26.2461 44.675 26.0271 44.3499L26.684 43.8623L24.6039 43.0496L24.6587 45.271L25.3702 44.7833L29.5851 50.6349L30.0231 49.9306Z" fill="#1928DC"/>
<path d="M15.6795 36.7114C16.1722 36.1696 17.048 36.6573 17.9238 37.4158C18.7997 38.2285 19.3471 39.0412 18.8544 39.583C18.3618 40.0706 17.4859 39.6372 16.6101 38.8786C15.7343 38.0659 15.1321 37.2532 15.6795 36.7114Z" fill="#1928DC"/>
<path d="M17.1041 46.5176C17.0494 46.5176 17.0494 46.4634 17.0494 46.4634C16.5567 46.0841 16.3378 45.434 16.3378 44.7296C16.3378 43.4293 17.4326 42.3457 18.7463 42.3457C20.06 42.3457 21.1548 43.4293 21.1548 44.7296C21.1548 44.8922 21.1001 45.2173 21.1001 45.2173C21.2096 45.0006 21.5927 44.1336 21.7022 43.9711C21.3191 42.6708 20.1695 41.7497 18.7463 41.7497C17.542 41.7497 16.502 42.4541 16.0093 43.4293C16.1736 42.2373 16.7756 41.1537 17.2136 40.7744C17.7062 40.2868 18.5821 40.1243 18.5821 40.1243C18.0347 40.2326 17.2683 39.8533 16.4472 39.0948C15.6261 38.3905 15.2429 37.7403 15.1882 37.1985C15.2429 37.957 15.1882 38.3905 15.024 38.9865C14.7503 39.7992 13.9292 41.3162 14.2029 43.0501C14.3671 43.9711 15.0788 45.3798 16.2283 46.5718C16.4472 46.8427 16.5567 47.222 16.6115 47.4387C16.6115 47.4387 18.3084 47.4387 18.7463 47.4928C18.7463 47.4928 19.1295 47.4387 19.1295 47.222C19.1295 46.9511 18.9105 46.8968 18.6916 46.8968C18.4178 46.8427 17.542 46.8968 17.1041 46.5176Z" fill="#1928DC"/>
<path d="M26.5184 47.114C25.4237 47.4932 24.3288 47.71 23.2888 47.8725C22.632 47.9809 21.975 48.0351 21.3182 47.9809C21.3182 48.0892 21.3182 48.1976 21.2634 48.3059C21.2634 48.3059 21.3729 48.4685 21.3729 48.6311C22.0298 48.6311 22.6867 48.6311 23.3983 48.5227C24.5478 48.3602 25.7521 48.1434 26.9564 47.6558L26.5184 47.114Z" fill="#1928DC"/>
<path d="M28.3253 47.0586C29.8033 46.2459 31.2265 45.0539 32.4856 43.1034L32.7045 42.7241C32.3761 42.8867 31.8834 42.7783 31.8834 42.7783C31.8834 42.8325 31.8287 42.8867 31.774 42.9409C30.5697 44.6747 29.2559 45.8125 27.8875 46.5168L28.3253 47.0586Z" fill="#1928DC"/>
<path d="M18.7459 47.6545C18.527 47.6003 17.9248 47.6545 17.5417 47.7087C17.1038 47.7629 16.6659 47.8713 16.6111 48.088C16.5563 48.3047 16.7206 48.5214 16.9395 48.8465C17.049 49.0632 17.3775 48.9548 17.5417 48.8465C17.7059 48.7923 18.6912 48.2505 18.8554 48.088C18.9649 47.9254 19.0197 47.7087 18.7459 47.6545Z" fill="#1928DC"/>
<path d="M19.7305 48.3051C19.621 48.251 19.3473 48.1426 19.0736 48.251C18.7999 48.3593 17.8146 48.9011 17.7599 49.172C17.7051 49.443 17.8146 49.5513 17.9788 49.6055C18.143 49.6597 18.3072 49.7138 18.4715 49.7138C18.6904 49.7138 18.9641 49.6055 19.0736 49.443C19.183 49.2804 19.6757 48.7386 19.7305 48.6302C19.7852 48.5218 19.8399 48.3593 19.7305 48.3051Z" fill="#1928DC"/>
<path d="M19.8414 48.9012C19.6772 49.0638 19.2941 49.5515 19.2393 49.6056C19.1845 49.6598 19.2393 49.8223 19.4035 49.7682C19.513 49.7682 20.1699 49.714 20.5531 49.4431C20.9362 49.1722 21.2099 48.6845 20.9362 48.522C20.7172 48.3052 20.2793 48.4136 19.8414 48.9012Z" fill="#1928DC"/>
<path d="M20.0598 47.4389C19.9503 47.3847 19.4029 47.2763 19.2935 47.4389C19.184 47.6556 19.2387 47.8723 19.6219 48.0348C20.005 48.1974 20.7714 48.36 20.8809 48.1432C21.0998 47.9807 20.8809 47.6556 20.0598 47.4389Z" fill="#1928DC"/>
<path d="M36.7555 33.948C36.646 34.3273 36.2628 35.0859 36.2081 35.3026C36.0986 35.736 36.2628 36.2236 37.0292 36.7654C37.0292 36.7654 37.5218 36.4404 37.7408 35.9527C37.905 35.5193 37.7955 35.2484 37.6313 34.9775C37.3576 34.7607 36.9197 34.2731 36.7555 33.948Z" fill="#1928DC"/>
<path d="M35.1133 35.5186C35.1133 35.7353 35.2775 36.9273 35.6059 37.5232C36.0986 38.3359 36.8102 38.9861 37.4124 38.9861C38.0145 38.9861 38.124 38.6611 38.3977 38.4985C38.3977 38.4985 38.2335 37.7941 37.5766 37.5774C36.8102 37.3607 35.606 36.3854 35.1133 35.5186Z" fill="#1928DC"/>
<path d="M37.1938 37.0363C37.3033 36.9279 37.4676 36.8737 37.577 36.657C37.577 36.657 38.1792 36.8737 38.6718 37.1988C39.1645 37.5239 39.6571 38.1198 39.9308 38.3908C39.9308 38.3908 39.1645 38.6075 38.6718 38.3908C38.6718 38.3908 38.5076 37.6864 37.9602 37.3613C37.9055 37.3071 37.5223 37.1988 37.1938 37.0363Z" fill="#1928DC"/>
<path d="M37.7949 36.4391C37.9044 36.2766 38.1781 35.9515 38.1233 35.4097C38.1233 35.4097 39.1635 36.0598 39.4919 36.3307C39.8203 36.6017 40.4771 37.2518 40.6414 37.4685C40.6414 37.4685 39.8203 37.306 39.2182 37.0893C38.5613 36.8725 38.0686 36.5475 37.7949 36.4391Z" fill="#1928DC"/>
<path d="M39.6016 37.5774C40.1489 37.7941 41.4627 38.0108 42.0101 38.1192C42.5575 38.2818 42.9407 38.5527 43.4333 39.0945C43.4333 39.0945 42.667 39.3112 42.2291 39.4195C42.2291 39.4195 41.5722 38.9861 40.8059 38.661C40.368 38.5527 40.1489 38.065 39.6016 37.5774Z" fill="#1928DC"/>
<path d="M40.8047 41.3168C40.6952 41.2084 40.531 41.0458 40.6405 40.7208C40.7499 40.5041 41.1879 40.2331 41.4616 40.1248C41.8995 39.9081 43.2132 39.583 43.5964 39.4204C43.5964 39.4204 43.8154 39.6371 43.9248 39.9081C43.9796 40.0164 43.9248 40.1248 43.7059 40.1248C43.3227 40.1789 42.5016 40.0164 42.2827 40.1789C42.0637 40.3415 42.1185 40.5041 42.1185 40.7208C42.1185 40.7208 41.7353 40.5041 41.4616 40.5582C41.2426 40.6124 41.0237 40.7749 40.8047 41.3168Z" fill="#1928DC"/>
<path d="M41.9554 39.5818C41.8459 39.636 41.3532 39.7443 40.8606 40.0694C40.8606 40.0694 40.6416 39.961 40.5321 39.7985C40.4227 39.636 39.9848 38.9858 39.6016 38.8774C39.6016 38.8774 39.93 38.8233 40.1489 38.769C40.1489 38.769 40.5869 38.8774 40.8606 38.9858C41.1343 39.0941 41.5175 39.2567 41.9554 39.5818Z" fill="#1928DC"/>
<path d="M38.6709 38.769C38.7256 38.8233 38.8898 38.8774 39.1635 38.8774C39.1635 38.8774 40.3131 39.636 40.4225 40.4487C40.532 41.0988 40.2036 41.4239 40.0393 41.5323C39.8751 41.6406 39.1088 41.9115 38.5614 40.8821C38.5614 40.8821 39.4372 41.153 39.6561 40.7738C39.8751 40.3403 39.492 39.7443 39.2729 39.5818C38.9445 39.365 38.3971 39.2025 38.0687 39.2567C38.0687 39.1483 38.3424 38.9316 38.6709 38.769Z" fill="#1928DC"/>
<path d="M46.0588 47.6011C45.8946 47.0593 45.785 46.4633 45.5114 45.8673C45.0187 44.7837 43.7597 41.9663 41.1322 41.4786C40.8586 41.4245 41.4059 40.8285 41.6249 40.8826C41.8438 40.9369 42.3365 41.2078 42.5554 41.3161C42.5554 41.3161 42.5554 40.7201 42.5554 40.6118C42.5554 40.5034 42.6649 40.4492 42.7744 40.4492C42.8839 40.4492 43.486 40.4492 43.705 40.6659C44.3071 41.3703 45.2924 43.1583 45.8398 44.5128C46.3872 45.8673 46.7704 46.3008 47.3725 46.084C47.9747 45.8673 48.3578 45.2171 49.3978 45.3797C49.781 45.4339 50.1642 45.7048 50.4927 46.0299C50.3832 46.1924 50.2737 46.4091 49.781 46.4091C49.2884 46.4091 48.3578 46.6259 47.8652 46.9509C47.3178 47.3844 46.7704 47.5469 46.0588 47.6011Z" fill="#1928DC"/>
<path d="M35.6593 38.769C35.6045 39.2025 35.3856 39.636 35.1666 40.0694C35.1666 40.0694 35.9329 43.6995 38.8342 43.9704C38.8342 43.9704 38.7794 43.2119 37.9036 42.6701C37.0278 42.0741 35.7688 41.2072 35.8782 39.8527C35.8782 39.8527 36.0972 39.9068 36.5351 40.3945C36.9183 40.8821 37.8489 42.345 39.2173 42.345C39.2173 42.345 38.9984 41.6406 38.3962 41.2614C37.7942 40.8821 37.0278 40.3403 36.6446 39.7443C36.2614 39.2025 35.8782 38.8774 35.6593 38.769Z" fill="#1928DC"/>
<path d="M33.7447 42.2915C33.9089 42.7791 35.0037 44.2962 35.4963 44.7296C35.989 45.1631 37.1385 46.3009 37.7407 46.8969C37.7407 46.8969 35.989 46.4634 35.0037 45.5966C35.0037 45.5966 34.2921 46.03 33.7995 46.03H33.7447C33.252 46.03 32.5404 45.5966 32.5404 45.5966C31.5551 46.4634 29.8035 46.8969 29.8035 46.8969C30.4056 46.3009 31.5551 45.1631 32.0478 44.7296C32.4857 44.2962 33.5804 42.7791 33.7447 42.2915Z" fill="#1928DC"/>
<path d="M33.7424 46.3002C34.1255 46.3002 34.5087 46.1376 34.7277 46.0835C34.5087 46.5169 34.1255 47.1671 33.7424 47.4922C33.3592 47.2213 32.976 46.5169 32.7571 46.0835C32.976 46.1919 33.3045 46.3002 33.7424 46.3002Z" fill="#1928DC"/>
<path d="M35.2211 54.428L42.1183 44.8922L42.8299 45.3798L42.8846 43.1584L40.8045 43.9712L41.4614 44.4587C41.133 44.9464 35.9875 52.0441 35.3306 52.9652L32.2104 47.3845L31.8273 47.9805L29.0356 52.1524L28.324 51.719V53.9404L30.4041 53.1277L29.6924 52.6401C30.0756 52.0441 31.5536 49.8227 32.1009 49.0642L35.2211 54.428Z" fill="#1928DC"/>
<path d="M36.4803 50.6346C36.0424 49.9302 35.5498 49.2259 35.3308 48.9008C35.1666 49.2259 34.7834 49.8761 34.4002 50.5262L33.9076 49.6594L35.2213 47.2754L35.6045 47.8714L36.973 49.9302L36.4803 50.6346Z" fill="#1928DC"/>
<path d="M37.9034 51.2847L38.3961 52.0432L39.1077 51.6097V53.8312L37.0276 53.0185L37.7392 52.5308C37.6844 52.4225 37.575 52.2599 37.4107 52.0432L37.9034 51.2847Z" fill="#1928DC"/>
<path d="M51.8083 36.7112C51.3156 36.1694 50.4398 36.657 49.5639 37.4155C48.6881 38.2282 48.1407 39.041 48.6334 39.5827C49.126 40.0704 50.0018 39.637 50.8777 38.8784C51.7535 38.0657 52.3009 37.253 51.8083 36.7112Z" fill="#1928DC"/>
<path d="M50.3852 46.5176C50.4399 46.5176 50.4399 46.4634 50.4399 46.4634C50.9326 46.0841 51.1516 45.434 51.1516 44.7296C51.1516 43.4293 50.0568 42.3457 48.7431 42.3457C47.4293 42.3457 46.3345 43.4293 46.3345 44.7296C46.3345 44.8922 46.3893 45.2173 46.3893 45.2173C46.2798 45.0006 45.8966 44.1336 45.7871 43.9711C46.1703 42.6708 47.3198 41.7497 48.7431 41.7497C49.9473 41.7497 50.9874 42.4541 51.4801 43.4293C51.3158 42.2373 50.7137 41.1537 50.2758 40.7744C49.7831 40.2868 48.9072 40.1243 48.9072 40.1243C49.4547 40.2326 50.221 39.8533 51.0421 39.0948C51.8632 38.3905 52.2464 37.7403 52.3012 37.1985C52.2464 37.957 52.3011 38.3905 52.4653 38.9865C52.739 39.7992 53.5601 41.3162 53.2864 43.0501C53.1222 43.9711 52.4653 45.3798 51.261 46.5718C50.9874 46.8427 50.9326 47.222 50.8779 47.4387C50.8779 47.4387 49.181 47.4387 48.7431 47.4928C48.7431 47.4928 48.3599 47.4387 48.3599 47.222C48.3599 46.9511 48.5788 46.8968 48.7978 46.8968C49.0715 46.8427 49.8926 46.8968 50.3852 46.5176Z" fill="#1928DC"/>
<path d="M39.1092 47.0044C37.6313 46.1917 36.208 44.9998 34.9491 43.0493L34.7301 42.7241C35.0585 42.8867 35.5512 42.7783 35.5512 42.7783C35.5512 42.8325 35.6059 42.8867 35.6607 42.9409C36.865 44.6747 38.1787 45.8125 39.5472 46.5168L39.1092 47.0044Z" fill="#1928DC"/>
<path d="M40.9153 47.114C42.0101 47.4932 43.1049 47.71 44.145 47.8725C44.8018 47.9809 45.4587 48.0351 46.1156 47.9809C46.1156 48.0892 46.1156 48.1976 46.1703 48.3059C46.1703 48.3059 46.0608 48.4685 46.0608 48.6311C45.404 48.6311 44.7471 48.6311 44.0355 48.5227C42.8859 48.3602 41.6817 48.1434 40.4774 47.6558L40.9153 47.114Z" fill="#1928DC"/>
<path d="M48.7437 47.6545C48.9627 47.6003 49.5648 47.6545 49.948 47.7087C50.3859 47.7629 50.8239 47.8713 50.8786 48.088C50.9333 48.3047 50.7691 48.5214 50.5501 48.8465C50.4407 49.0632 50.1122 48.9548 49.948 48.8465C49.7837 48.7923 48.7985 48.2505 48.6342 48.088C48.4701 47.9254 48.4153 47.7087 48.7437 47.6545Z" fill="#1928DC"/>
<path d="M47.7013 48.3051C47.8108 48.251 48.0844 48.1426 48.3581 48.251C48.6318 48.3593 49.6171 48.9011 49.6719 49.172C49.7266 49.443 49.6171 49.5513 49.4529 49.6055C49.2887 49.6597 49.1245 49.7138 48.9603 49.7138C48.7413 49.7138 48.4676 49.6055 48.3581 49.443C48.2486 49.2804 47.756 48.7386 47.7013 48.6302C47.6465 48.5218 47.5918 48.3593 47.7013 48.3051Z" fill="#1928DC"/>
<path d="M47.5929 48.9012C47.7571 49.0638 48.1403 49.5515 48.195 49.6056C48.2498 49.6598 48.195 49.8223 48.0308 49.7682C47.9213 49.7682 47.2645 49.714 46.8813 49.4431C46.4981 49.1722 46.2244 48.6845 46.4981 48.522C46.7718 48.3052 47.155 48.4136 47.5929 48.9012Z" fill="#1928DC"/>
<path d="M47.3727 47.4389C47.4822 47.3847 48.0296 47.2763 48.139 47.4389C48.3033 47.6556 48.1938 47.8723 47.8106 48.0348C47.4274 48.1974 46.6611 48.36 46.5516 48.1432C46.3327 47.9807 46.5516 47.6556 47.3727 47.4389Z" fill="#1928DC"/>
<mask id="mask0_72_264" style="mask-type:luminance" maskUnits="userSpaceOnUse" x="74" y="18" width="127" height="19">
<path d="M200.969 18.7349H74.9685V36.135H200.969V18.7349Z" fill="white"/>
</mask>
<g mask="url(#mask0_72_264)">
<path d="M85.4043 19.1062V35.8601H82.5855V21.5134H77.7923V35.8601H74.9685V19.1062H85.4043Z" fill="#1928DC"/>
<path d="M88.962 35.1976C88.1155 34.4291 87.5014 33.4428 87.1889 32.3488C86.7299 30.8168 86.517 29.2231 86.5575 27.6258C86.5185 25.9878 86.7314 24.3536 87.1889 22.7789C87.4992 21.653 88.1119 20.6313 88.962 19.8223C89.7075 19.1913 90.6557 18.8445 91.6364 18.8445C92.6171 18.8445 93.5654 19.1913 94.3109 19.8223C95.1595 20.6216 95.77 21.6372 96.0738 22.7574C96.5278 24.3326 96.7407 25.9665 96.7046 27.6043C96.7457 29.2104 96.5328 30.8131 96.0738 32.3541C95.7693 33.4478 95.1581 34.4336 94.3109 35.1976C93.5531 35.8068 92.607 36.1393 91.6314 36.1393C90.655 36.1393 89.7089 35.8068 88.9512 35.1976H88.962ZM89.6591 30.9647C89.7695 31.6826 90.0409 32.3671 90.4529 32.9681C90.5828 33.163 90.7574 33.3244 90.9624 33.4387C91.1681 33.5531 91.3983 33.6169 91.6335 33.6251C92.3299 33.6251 92.8798 33.1243 93.2659 32.1118C93.7436 30.6653 93.9572 29.1463 93.8974 27.6258C93.914 26.4603 93.823 25.2958 93.6253 24.1468C93.5048 23.3996 93.2269 22.6857 92.8091 22.0519C92.6843 21.8468 92.5103 21.6756 92.3025 21.5535C92.0947 21.4313 91.8594 21.362 91.6177 21.3518C91.3802 21.3649 91.15 21.4357 90.9465 21.5578C90.7437 21.6799 90.5742 21.8496 90.4529 22.0519C90.0409 22.6923 89.7702 23.4117 89.6591 24.163C89.452 25.3091 89.3567 26.4724 89.3755 27.6366C89.3575 28.7525 89.452 29.8675 89.6591 30.9647Z" fill="#1928DC"/>
<path d="M104.447 19.1062V25.5309H102.956C102.413 25.5536 101.871 25.4522 101.373 25.2348C100.98 25.0298 100.679 24.6856 100.53 24.2708C100.329 23.6963 100.239 23.09 100.263 22.4828V19.1062H97.445V22.4828C97.3598 23.944 97.7993 25.3878 98.6855 26.5596C99.5125 27.5468 100.747 28.0406 102.39 28.0406H104.447V35.8601H107.271V19.1062H104.447Z" fill="#1928DC"/>
<path d="M117.891 21.5134H114.572V35.8601H111.765V21.5134H108.451V19.1062H117.891V21.5134Z" fill="#1928DC"/>
<path d="M121.903 19.1061H124.161C125.089 19.07 126.007 19.3061 126.8 19.7847C127.498 20.2491 128.04 20.9092 128.356 21.6804C128.747 22.6358 128.992 23.6429 129.085 24.6693L130.402 35.8601H127.584L126.664 28.0405H121.903V35.8601H119.085V19.1061H121.903ZM121.903 25.6332H126.387L126.256 24.6693C126.206 24.0509 126.079 23.4411 125.875 22.8544C125.731 22.4601 125.452 22.1285 125.086 21.9174C124.611 21.6944 124.088 21.5925 123.563 21.6211H121.903V25.6332Z" fill="#1928DC"/>
<path d="M142.088 19.1064C143.028 19.0841 143.956 19.3249 144.764 19.8011C145.557 20.3006 146.175 21.0304 146.533 21.8907C146.985 22.985 147.2 24.161 147.164 25.3427C147.19 26.4642 146.988 27.5795 146.571 28.6224C146.26 29.4176 145.762 30.1283 145.118 30.6958C144.673 31.1087 144.095 31.3544 143.486 31.3905C143.172 31.4104 142.858 31.3614 142.565 31.2468C142.272 31.1323 142.009 30.9552 141.794 30.728V35.8603H138.975V19.1064H142.088ZM141.962 27.8038C142.034 28.1028 142.177 28.38 142.381 28.6116C142.449 28.6913 142.531 28.7565 142.625 28.8028C142.718 28.8491 142.821 28.8758 142.926 28.8809C143.172 28.8673 143.403 28.7613 143.573 28.5847C143.833 28.3113 144.02 27.9781 144.117 27.6153C144.274 27.0582 144.345 26.4809 144.329 25.9028C144.329 24.3374 144.137 23.2316 143.753 22.5854C143.59 22.2874 143.348 22.0397 143.052 21.8695C142.756 21.6995 142.419 21.6135 142.077 21.6214H141.794V26.4683C141.789 26.9189 141.845 27.3683 141.962 27.8038Z" fill="#1928DC"/>
<path d="M150.303 35.1979C149.454 34.4309 148.84 33.444 148.529 32.3491C148.069 30.8174 147.854 29.2237 147.893 27.6261C147.854 25.9879 148.069 24.3534 148.529 22.7793C148.837 21.6521 149.451 20.6297 150.303 19.8227C151.036 19.1774 151.988 18.8277 152.969 18.8426C153.955 18.8264 154.911 19.1738 155.651 19.8173C156.503 20.6218 157.115 21.6428 157.42 22.7685C157.872 24.344 158.083 25.9779 158.046 27.6154C158.085 29.2136 157.875 30.8083 157.425 32.3437C157.118 33.4364 156.508 34.4217 155.662 35.1872C154.901 35.8171 153.934 36.152 152.942 36.1297C151.978 36.1394 151.043 35.8091 150.303 35.1979ZM150.994 30.9651C151.11 31.6817 151.381 32.365 151.788 32.9684C151.918 33.163 152.093 33.3242 152.298 33.4384C152.503 33.5527 152.733 33.6168 152.969 33.6254C153.671 33.6254 154.215 33.1246 154.601 32.1122C155.069 30.664 155.274 29.1451 155.205 27.6261C155.223 26.4604 155.131 25.2956 154.927 24.1472C154.822 23.4045 154.562 22.6914 154.166 22.0522C154.049 21.841 153.877 21.6647 153.668 21.5419C153.459 21.4192 153.221 21.3544 152.977 21.3544C152.734 21.3544 152.495 21.4192 152.286 21.5419C152.077 21.6647 151.905 21.841 151.788 22.0522C151.38 22.6946 151.11 23.4132 150.994 24.1633C150.792 25.31 150.698 26.473 150.716 27.6369C150.699 28.7526 150.792 29.8672 150.994 30.9651Z" fill="#1928DC"/>
<path d="M159.999 22.8977C160.693 21.644 161.776 20.6451 163.089 20.0488C164.621 19.3862 166.282 19.0645 167.953 19.1064V21.6213C165.951 21.6213 164.417 22.124 163.35 23.1293C162.262 24.1309 161.75 25.6335 161.75 27.6261C161.75 29.6186 162.295 30.9811 163.345 31.9343C164.395 32.8876 165.94 33.3615 167.953 33.3615V35.8764C165.075 35.8764 162.845 35.1871 161.277 33.8085C159.71 32.4298 158.927 30.378 158.927 27.6422C158.868 25.9959 159.236 24.3621 159.999 22.8977Z" fill="#1928DC"/>
<path d="M169.493 22.8977C170.187 21.644 171.27 20.6451 172.583 20.0488C174.115 19.3862 175.776 19.0645 177.448 19.1064V21.6213C175.445 21.6213 173.911 22.124 172.844 23.1293C171.756 24.1309 171.244 25.6335 171.244 27.6261C171.244 29.6186 171.789 30.9811 172.839 31.9343C173.889 32.8876 175.434 33.3615 177.448 33.3615V35.8764C174.569 35.8764 172.338 35.1871 170.772 33.8085C169.204 32.4298 168.437 30.3618 168.437 27.6261C168.375 25.9866 168.739 24.3588 169.493 22.8977Z" fill="#1928DC"/>
<path d="M181.593 19.1062V25.0893L186.392 21.088L189.2 18.7507V35.8762H186.392V24.4592L181.599 28.4606V35.8601H178.775V19.1062H181.593Z" fill="#1928DC"/>
<path d="M193.351 19.1062V25.0893L198.15 21.088L200.958 18.7507V35.8762H198.14V24.4592L193.341 28.4606V35.8601H190.523V19.1062H193.351Z" fill="#1928DC"/>
</g>
</svg>
