<svg width="235" height="49" viewBox="0 0 235 49" fill="none" xmlns="http://www.w3.org/2000/svg">
<g clip-path="url(#clip0_69_18)">
<path d="M233.871 47.134H232.745H73.4943H72.3652V45.8199V2.6315V1.31396H73.4943H232.745H233.871V2.6315V45.8199V47.134Z" fill="#2B2A29"/>
<path d="M235 0H232.745H73.4973H71.2362V2.63158V45.82V48.4481H73.4973H232.745H235V45.82V2.63158V0ZM232.745 45.82H73.4973V2.63158H232.745V45.82Z" fill="#FEFEFE"/>
<path d="M98.3661 25.4594H91.6L90.1976 18.2427H92.1948L93.2244 23.5547H98.3661V18.2427H100.327V28.741H98.3661V25.4594Z" fill="#FEFEFE"/>
<path d="M111.627 18.2427V20.1473H107.438V28.7444H105.48V20.1473H101.291V18.2427H111.627Z" fill="#FEFEFE"/>
<path d="M121.859 22.5482L122.889 28.741H112.333V26.8363H120.583L120.183 24.4529H114.898V22.5482H117.913L118.985 20.1473H114.294V21.5138H112.333V18.2427H122.012L120.093 22.5482H121.859Z" fill="#FEFEFE"/>
<path d="M124.691 22.999H131.135V24.9033H124.691V22.999Z" fill="#FEFEFE"/>
<path d="M141.676 18.2427H143.634L142.1 28.7444H134.111V26.8363H140.412L140.76 24.4669H133.829L132.616 18.2427H134.613L135.451 22.5622H141.042L141.676 18.2427Z" fill="#FEFEFE"/>
<path d="M151.379 21.6466H146.559V24.3795H150.812L151.379 21.6466ZM153.776 19.7419L152.421 26.2807H146.559V28.7445H144.602V19.7419H153.776Z" fill="#FEFEFE"/>
<path d="M160.166 21.6466H156.842L156.352 24.3795H160.656L160.166 21.6466ZM156.004 26.2807L155.553 28.7445H153.58L155.217 19.7419H161.791L163.425 28.7445H161.454L161.004 26.2807H156.004Z" fill="#FEFEFE"/>
<path d="M163.041 26.8363H164.211L165.461 19.7454H173.025V28.7409H171.068V21.6466H167.097L165.848 28.7409H163.041V26.8363Z" fill="#FEFEFE"/>
<path d="M184.329 18.2427V20.1473H180.14V28.7444H178.182V20.1473H173.992V18.2427H184.329Z" fill="#FEFEFE"/>
<path d="M192.071 21.6466H187.254V24.3795H191.503L192.071 21.6466ZM194.468 19.7419L193.116 26.2807H187.254V28.7445H185.293V19.7419H194.468Z" fill="#FEFEFE"/>
<path d="M200.858 21.6466H197.534L197.044 24.3795H201.347L200.858 21.6466ZM196.696 26.2807L196.245 28.7445H194.275L195.912 19.7419H202.483L204.12 28.7445H202.149L201.696 26.2807H196.696Z" fill="#FEFEFE"/>
<path d="M210.819 25.2183H207.044V28.7445H205.086V19.7419H207.044V23.3136H210.807L212.057 19.7419H214.093L212.522 24.2432L214.093 28.7445H212.057L210.819 25.2183Z" fill="#FEFEFE"/>
<path d="M72.3594 47.134H71.2327H2.25819H1.12903V45.8199V2.6315V1.31396H2.25819H71.2327H72.3594V2.6315V45.8199V47.134Z" fill="#E84D22"/>
<path d="M73.4884 0H71.2303H2.25832H0V2.63158V45.82V48.4481H2.25832H71.2303H73.4884V45.82V2.63158V0ZM71.2303 45.82H2.25832V2.62808H71.2303V45.82Z" fill="#FEFEFE"/>
<path d="M23.9016 25.5398L22.8655 27.6366H19.2558L18.6012 28.9542L19.2558 30.2717H24.1749L29.5084 19.4938L28.8567 18.1763H27.5473L25.1989 22.9187H18.2018L14.8023 16.069H58.2449L56.488 19.4938L57.1427 20.8114H58.452L61.56 14.7514L60.9086 13.4304H12.1866L11.5319 14.7514L16.9044 25.5433L23.9016 25.5398ZM52.6681 22.8943L54.3588 19.4938L53.7042 18.1763H44.3015L43.6498 19.4938L44.3015 20.8114H51.0855L50.0524 22.8943H46.689L46.0343 24.2118L46.689 25.5293H54.7402L58.1397 32.3826H14.6852L16.448 28.9542L15.7963 27.6366H14.4869L12.0425 32.3826L11.3878 33.7001L12.0425 35.0176H13.3278H60.7525L61.4069 33.7001L56.0466 22.8943H52.6681ZM41.9411 25.5293L42.9862 27.6366H30.3823L31.4273 25.5293H41.9411ZM33.7668 20.8114H38.2894L37.2563 22.8943H32.7367L33.7668 20.8114ZM40.9081 18.1763H32.4604L31.8057 19.4938L27.7666 27.6366L27.1119 28.9542L27.7666 30.2717H45.6019L46.2565 28.9542L45.6019 27.6366L43.2475 22.8943H39.872L41.5627 19.4938L40.9081 18.1763Z" fill="#FEFEFE"/>
</g>
<defs>
<clipPath id="clip0_69_18">
<rect width="235" height="49" fill="white"/>
</clipPath>
</defs>
</svg>
