<svg width="76" height="73" viewBox="0 0 76 73" fill="none" xmlns="http://www.w3.org/2000/svg">
<g clip-path="url(#clip0_82_686)">
<path fill-rule="evenodd" clip-rule="evenodd" d="M19.1606 17.8346C21.6682 17.0704 22.6027 20.893 20.2562 21.5564C17.7049 22.2787 16.6852 18.5911 19.1606 17.8346ZM27.5933 38.3655C27.4739 37.7021 26.5489 36.0446 26.221 35.3318C23.1656 28.7283 24.0261 20.8816 27.4473 14.759C27.7259 14.2591 27.9591 13.8352 28.2188 13.4227C28.5088 12.9665 28.9655 12.5692 28.7931 12.1035C27.3791 11.5656 22.3961 12.8905 20.9745 13.3866C3.80595 19.3856 -3.18998 39.1658 4.77829 55.0321C8.42505 62.2952 15.5897 69.2028 25.6922 70.9896C31.3253 71.9856 36.7083 71.231 41.1663 68.8892C44.6064 67.0853 48.763 63.449 50.4822 59.9343C49.8813 60.0332 39.051 66.726 28.7191 62.2058C27.6312 61.7306 26.7517 61.2117 25.8703 60.5445C25.3946 60.1852 23.6186 59.0923 23.9219 58.3623C24.3218 58.2958 25.1899 59.0732 25.7661 59.4401C30.8363 62.6639 37.7754 62.74 43.437 61.3714C48.3934 60.1738 56.0717 56.1213 58.6059 52.4108C55.9182 53.3175 55.179 54.055 51.4602 54.9712C50.6167 55.1784 43.9544 56.587 42.9688 55.8418C43.3517 55.3951 45.6982 55.3286 46.4487 55.1936C50.6073 54.4504 57.9633 52.5325 60.9372 49.8485C61.9418 48.9399 63.5586 46.8566 63.9244 44.9082C62.9918 45.1192 61.9892 45.6077 61.068 45.9213C54.1517 48.2708 46.9738 48.9361 39.7144 47.8488L38.598 47.615C38.3383 47.4933 38.4748 47.5751 38.3023 47.404C38.5696 47.0257 38.2871 47.098 39.0339 47.1493C42.1083 47.3546 41.6989 47.5333 45.7323 47.4515C50.1543 47.3603 62.9539 45.7123 64.5991 42.6424C62.4877 42.3478 60.8633 42.3364 58.7708 41.8745C49.8245 39.9033 41.3823 34.2426 32.4114 37.5196C30.3814 38.2591 27.8397 39.6695 26.2854 41.1597C25.5216 41.8935 25.0079 42.6025 24.6118 42.2223C24.1057 41.7357 25.1065 41.0305 25.8154 40.2378C26.4276 39.5535 27.019 39.0289 27.5933 38.3655Z" fill="white"/>
<path fill-rule="evenodd" clip-rule="evenodd" d="M33.1734 1.82944C32.8512 2.37688 32.4229 2.4187 31.6723 2.69622C29.3807 3.5421 24.5001 6.09872 22.9534 7.99006C22.1801 8.93478 22.4208 7.70683 22.29 10.8014C23.2529 10.8812 26.2988 9.98974 28.9126 10.0905C29.8603 10.1266 30.9501 10.522 31.189 11.5598C31.3539 12.2822 30.7075 13.742 29.9702 13.9055C29.4073 14.2875 28.8349 15.6694 28.4766 16.388C27.9857 17.3764 27.3185 18.2546 28.2132 19.1727C29.8148 20.815 31.6363 19.9501 33.0313 22.6246C34.142 24.7555 33.6568 27.3216 32.3471 28.8594C30.7151 30.7735 29.4111 30.9617 26.4182 30.9009C26.6779 32.3892 28.1089 36.2783 28.9069 37.1679C30.4782 36.5806 31.46 35.8545 33.4369 35.5009C33.5961 31.1271 33.6757 29.7281 35.5939 26.3921C37.0401 23.8773 38.7857 22.0525 40.3381 19.6973C42.6467 16.1979 41.426 14.2552 46.1304 17.6273C47.8609 18.8686 50.704 21.5145 51.72 23.4553C52.3909 23.288 53.1036 22.8926 53.7784 22.6341C57.5787 21.1743 61.1875 20.8093 64.8817 18.9978C66.9969 17.96 67.3608 18.0037 67.9465 20.4615C68.7293 23.7537 68.7426 27.8652 68.2574 31.2867C67.5542 36.2346 66.8529 36.86 65.8521 40.7757L66.5913 41.0723C66.6842 42.2755 65.8673 43.0662 65.2588 45.2959C64.821 46.8964 63.4374 49.3922 62.3248 50.6392C61.6955 51.3463 61.3752 51.3976 60.7535 51.9222C60.2967 52.3062 59.91 52.9867 59.476 53.5037C57.8251 55.4597 55.7667 57.2921 53.5604 58.7215C51.2215 60.2365 52.1995 60.1263 49.8454 63.4318C48.9072 64.7491 47.5387 66.0455 47.2373 66.5663C51.4584 66.4237 57.3512 63.7055 60.1829 61.8997C63.7899 59.5978 66.7259 56.8891 69.2335 53.4961C73.9682 47.0941 77.7458 36.5388 75.1585 26.0423C73.03 17.3954 68.663 10.2102 60.9771 5.29657C55.6074 1.86176 46.9454 -0.886858 40.2168 0.274555C38.3801 0.591995 34.1875 1.10712 33.1734 1.82944Z" fill="#FDC125"/>
<path fill-rule="evenodd" clip-rule="evenodd" d="M42.1254 35.3526C42.4059 34.636 43.6076 33.083 44.1232 32.3873C45.5352 30.4827 46.8791 28.5913 48.7783 27.1087C53.6286 23.3279 57.2602 23.2386 62.7872 21.4252C63.6818 21.1325 65.6891 20.106 66.3392 20.1079C67.1864 23.9248 67.3589 27.6523 66.8017 31.6593C66.4017 34.5258 65.2209 39.0251 63.9093 41.1122C61.4566 41.2376 54.0323 39.4242 52.2677 38.3655C52.7757 37.0482 55.0729 34.1456 55.9448 33.0887C56.5836 32.3151 57.3 31.4293 57.9672 30.7488C58.5491 30.1538 59.8019 29.2642 60.1772 28.5609C58.8618 28.9069 56.1381 31.7125 55.0066 32.8986C54.5251 33.4024 54.2617 33.5183 53.803 34.1057L50.6888 37.856C49.4132 37.55 47.8988 36.9094 46.5265 36.5102C45.6224 36.246 42.7263 35.6492 42.1254 35.3526ZM31.7708 24.3525C31.9831 24.6775 31.9774 25.8332 31.7746 26.1621C31.3197 29.5836 26.7518 29.8744 26.0524 29.0247C25.4497 27.6048 26.1983 21.2503 26.9527 20.2067C29.2329 22.617 31.2723 21.5069 31.7708 24.3525ZM34.8831 35.3032C34.7656 29.4524 36.6477 27.179 39.4302 23.4591C39.8585 22.885 40.3741 22.2673 40.7948 21.6666C42.3529 19.4369 42.3491 18.8895 43.1432 17.5893C44.7316 18.0094 49.8492 22.4878 50.6813 24.3544C50.1126 24.8201 48.4219 25.8218 47.5349 26.6126C47.0895 27.0079 46.5663 27.7075 45.9257 28.1161C45.6717 26.4624 45.2528 25.3143 44.8775 23.883C44.6709 24.1548 44.76 23.8545 44.7335 24.3031L44.9723 25.5842C45.5144 28.9088 45.2642 28.8708 44.0815 30.3895C43.3536 31.3248 41.4014 34.0525 40.973 35.2462C38.5431 35.0029 37.2466 35.1606 34.8831 35.3032ZM27.5934 38.3655C27.019 39.0289 26.4277 39.5535 25.8155 40.2378C25.1066 41.0304 24.1058 41.7356 24.6119 42.2223C25.008 42.6024 25.5217 41.8934 26.2855 41.1597C27.8398 39.6694 30.3815 38.259 32.4115 37.5196C41.3824 34.2425 49.8245 39.9032 58.7709 41.8744C60.8634 42.3363 62.4877 42.3477 64.5992 42.6423C62.954 45.7122 50.1543 47.3602 45.7324 47.4515C41.699 47.5332 42.1084 47.3545 39.034 47.1492C38.2872 47.0979 38.5696 47.0257 38.3024 47.4039C38.4749 47.575 38.3384 47.4933 38.5981 47.6149L39.7145 47.8487C46.9739 48.936 54.1518 48.2707 61.0681 45.9213C61.9892 45.6077 62.9919 45.1191 63.9245 44.9081C63.5586 46.8565 61.9419 48.9398 60.9373 49.8484C57.9634 52.5324 50.6073 54.4504 46.4488 55.1936C45.6983 55.3285 43.3517 55.3951 42.9689 55.8418C43.9545 56.5869 50.6168 55.1784 51.4603 54.9712C55.1791 54.055 55.9183 53.3175 58.606 52.4108C56.0718 56.1212 48.3935 60.1738 43.437 61.3713C37.7755 62.7399 30.8364 62.6639 25.7662 59.4401C25.19 59.0732 24.3219 58.2958 23.922 58.3623C23.6187 59.0922 25.3947 60.1852 25.8704 60.5444C26.7518 61.2116 27.6313 61.7306 28.7192 62.2058C39.0511 66.726 49.8814 60.0331 50.4822 59.9343C48.7631 63.4489 44.6065 67.0852 41.1663 68.8891C36.7084 71.231 31.3254 71.9856 25.6923 70.9896C15.5898 69.2028 8.42513 62.2951 4.77838 55.032C-3.1899 39.1657 3.80604 19.3856 20.9746 13.3865C22.3962 12.8904 27.3792 11.5655 28.7931 12.1035C28.9656 12.5692 28.5088 12.9664 28.2188 13.4227C27.9592 13.8351 27.726 14.259 27.4474 14.7589C24.0262 20.8815 23.1657 28.7282 26.2211 35.3317C26.549 36.0445 27.4739 37.7021 27.5934 38.3655ZM8.98617 19.1005C5.03236 18.1519 6.74202 11.077 10.3982 11.5598C11.8027 11.7461 11.9089 12.9512 12.5003 13.7781L12.3278 9.49932C12.0852 6.956 14.9036 4.49251 17.5724 5.20342C19.5512 5.73186 21.4409 8.57361 20.4496 11.3393C19.9795 12.6528 18.8574 12.7383 17.6178 13.3276C14.5189 14.8008 12.9305 15.9261 10.3566 18.0987C9.82205 18.5492 9.73675 18.9313 8.98617 19.1005ZM47.2373 66.5663C47.5387 66.0455 48.9072 64.7491 49.8454 63.4318C52.1995 60.1263 51.2215 60.2365 53.5604 58.7215C55.7666 57.2921 57.825 55.4597 59.4759 53.5037C59.91 52.9867 60.2966 52.3062 60.7534 51.9222C61.3751 51.3976 61.6955 51.3463 62.3247 50.6392C63.4373 49.3922 64.821 46.8964 65.2588 45.2959C65.8672 43.0662 66.6842 42.2755 66.5913 41.0723L65.8521 40.7757C66.8529 36.86 67.5542 36.2346 68.2573 31.2867C68.7426 27.8652 68.7293 23.7537 67.9465 20.4615C67.3608 18.0037 66.9969 17.96 64.8816 18.9978C61.1875 20.8093 57.5786 21.1743 53.7784 22.6341C53.1036 22.8926 52.3909 23.288 51.7199 23.4553C50.704 21.5145 47.8609 18.8686 46.1304 17.6273C41.426 14.2552 42.6467 16.1979 40.3381 19.6973C38.7857 22.0525 37.04 23.8773 35.5939 26.3921C33.6757 29.728 33.5961 31.1271 33.4369 35.5009C31.46 35.8545 30.4782 36.5806 28.9069 37.1679C28.1089 36.2783 26.6779 32.3892 26.4182 30.9009C29.411 30.9617 30.7151 30.7735 32.347 28.8594C33.6568 27.3216 34.142 24.7555 33.0313 22.6246C31.6363 19.9501 29.8148 20.815 28.2132 19.1727C27.3185 18.2546 27.9857 17.3764 28.4766 16.388C28.8348 15.6694 29.4073 14.2875 29.9702 13.9055C30.2754 13.0539 31.3481 12.3487 30.6867 11.2709C29.5627 9.43279 24.1361 11.0561 21.8294 11.3945C22.0322 10.0335 22.182 9.41378 21.8617 8.06419C20.4363 2.03092 11.3801 1.77621 10.8285 9.88519C9.09232 10.0848 8.47441 9.94792 7.27083 10.9421C4.23819 13.4436 4.29315 18.9522 7.75985 20.2315C7.09835 21.5734 4.53766 23.653 2.31814 29.1806C-2.32749 40.7453 0.301433 53.249 7.59305 62.1507C11.1962 66.5473 17.6425 71.2576 25.734 72.592C29.9076 73.2801 34.5912 73.1223 38.3896 71.8316C44.326 69.8167 45.8594 67.359 47.2373 66.5663Z" fill="#05551A"/>
<path fill-rule="evenodd" clip-rule="evenodd" d="M42.1255 35.3526C42.7263 35.6492 45.6225 36.246 46.5266 36.5103C47.8989 36.9094 49.4133 37.55 50.6889 37.856L53.8031 34.1057C54.2618 33.5183 54.5252 33.4024 55.0066 32.8987C56.1382 31.7125 58.8619 28.9069 60.1773 28.5609C59.802 29.2643 58.5492 30.1538 57.9673 30.7488C57.3001 31.4293 56.5836 32.3151 55.9449 33.0887C55.073 34.1456 52.7758 37.0482 52.2678 38.3655C54.0324 39.4242 61.4567 41.2376 63.9094 41.1122C65.221 39.0251 66.4018 34.5258 66.8018 31.6593C67.359 27.6523 67.1865 23.9248 66.3393 20.1079C65.6891 20.106 63.6819 21.1325 62.7873 21.4252C57.2603 23.2386 53.6287 23.3279 48.7784 27.1087C46.8792 28.5914 45.5353 30.4827 44.1232 32.3873C43.6077 33.083 42.406 34.636 42.1255 35.3526Z" fill="#50A138"/>
<path fill-rule="evenodd" clip-rule="evenodd" d="M34.8831 35.3033C37.2467 35.1607 38.5432 35.0029 40.9731 35.2462C41.4014 34.0525 43.3537 31.3248 44.0815 30.3896C45.2643 28.8708 45.5145 28.9089 44.9724 25.5843L44.7336 24.3031C44.7601 23.8545 44.671 24.1549 44.8776 23.883C45.2529 25.3144 45.6718 26.4625 45.9258 28.1162C46.5664 27.7075 47.0895 27.008 47.535 26.6126C48.422 25.8219 50.1127 24.8201 50.6813 24.3544C49.8492 22.4878 44.7317 18.0094 43.1433 17.5894C42.3491 18.8895 42.3529 19.437 40.7949 21.6667C40.3741 22.2673 39.8586 22.8851 39.4302 23.4591C36.6478 27.1791 34.7656 29.4525 34.8831 35.3033Z" fill="#50A138"/>
<path fill-rule="evenodd" clip-rule="evenodd" d="M13.7967 6.79456C13.7834 7.783 12.4434 7.86284 12.7883 12.001C12.8547 12.8069 12.9949 13.5482 12.5306 14.109C11.7231 13.7497 12.1647 13.8049 11.5374 12.8297C10.6579 11.4611 9.20602 11.8907 8.6374 12.4724L7.64042 13.5711C6.92396 14.7667 6.76664 17.3005 8.16166 18.3232C8.90276 18.8668 8.99942 18.3498 9.48275 18.3726C10.0457 18.0855 10.8114 17.2891 11.4369 16.7778C12.1647 16.1847 12.7391 15.7703 13.5275 15.2495C14.3122 14.7306 14.9529 14.3371 15.7736 13.8885C16.4939 13.4931 17.5629 13.0863 18.0898 12.7252C17.5553 12.2348 19.4886 12.5066 19.9643 10.8643C20.2771 9.78648 19.989 8.20118 19.4223 7.34581C17.2274 4.02314 13.8213 6.78696 13.7967 6.79456Z" fill="#DE402D"/>
<path fill-rule="evenodd" clip-rule="evenodd" d="M31.7747 26.1621C31.9775 25.8333 31.9832 24.6776 31.7709 24.3525C30.7076 23.8488 31.4828 23.1474 29.83 22.3757C29.4376 22.1913 28.9069 22.0411 28.4141 21.8282C27.7015 21.5203 27.7128 21.2485 26.9528 21.3283C26.3443 22.7862 26.0828 27.1373 26.3519 28.734C27.2086 29.3917 28.9145 28.9716 29.7504 28.5059C31.1397 27.7284 31.0032 26.5594 31.7747 26.1621Z" fill="#DE402D"/>
<path fill-rule="evenodd" clip-rule="evenodd" d="M19.1607 17.8346C16.6853 18.5912 17.705 22.2788 20.2562 21.5565C22.6027 20.8931 21.6683 17.0705 19.1607 17.8346Z" fill="#05551A"/>
<path fill-rule="evenodd" clip-rule="evenodd" d="M21.8616 8.06434C22.1819 9.41394 22.0322 10.0336 21.8293 11.3946C24.1361 11.0563 29.5626 9.43294 30.6866 11.2711C31.3481 12.3488 30.2753 13.054 29.9701 13.9056C30.7074 13.7421 31.3538 12.2823 31.1889 11.56C30.95 10.5221 29.8602 10.1267 28.9125 10.0906C26.2987 9.98989 23.2528 10.8814 22.2899 10.8015C22.4207 7.70698 22.18 8.93492 22.9533 7.99021C24.5 6.09887 29.3806 3.54225 31.6722 2.69637C32.4228 2.41885 32.8511 2.37703 33.1733 1.82959C31.566 2.0862 28.3382 3.73613 27.0076 4.51547C26.1092 5.04011 25.1349 5.66168 24.3635 6.23383C23.6451 6.76227 22.3752 7.91608 21.8616 8.06434Z" fill="#E9C847"/>
<path fill-rule="evenodd" clip-rule="evenodd" d="M12.3277 9.49939C12.9077 8.76757 12.8186 7.14426 13.7966 6.7945C13.8592 6.49987 13.8573 6.42574 14.316 6.1064C17.4434 3.93184 20.9158 6.99789 20.3831 10.4935C20.1462 12.0522 19.498 12.364 18.0897 12.7251C17.5628 13.0863 16.4938 13.4931 15.7735 13.8884C14.9528 14.337 14.3122 14.7305 13.5275 15.2494C12.739 15.7703 12.1647 16.1846 11.4368 16.7777C10.8114 17.289 10.0456 18.0855 9.48268 18.3725C9.28366 18.7299 9.42582 18.4599 9.20595 18.7774C9.16804 18.8344 9.09791 19.0625 9.06 18.9903C9.04674 18.9656 9.00883 19.0625 8.98608 19.1005C9.73666 18.9314 9.82196 18.5493 10.3565 18.0988C12.9304 15.9261 14.5188 14.8008 17.6178 13.3277C18.8573 12.7384 19.9794 12.6529 20.4495 11.3394C21.4408 8.57369 19.5511 5.73193 17.5723 5.2035C14.9035 4.49259 12.0851 6.95607 12.3277 9.49939Z" fill="#354213"/>
<path fill-rule="evenodd" clip-rule="evenodd" d="M31.7745 26.1621C31.0031 26.5594 31.1396 27.7284 29.7502 28.5058C28.9144 28.9716 27.2085 29.3916 26.3518 28.7339C26.0826 27.1372 26.3442 22.7862 26.9526 21.3283C27.7127 21.2484 27.7013 21.5203 28.414 21.8282C28.9068 22.0411 29.4375 22.1913 29.8298 22.3756C31.4826 23.1474 30.7074 23.8488 31.7707 24.3525C31.2722 21.507 29.2328 22.6171 26.9526 20.2068C26.1982 21.2503 25.4496 27.6049 26.0523 29.0248C26.7517 29.8745 31.3196 29.5836 31.7745 26.1621Z" fill="#BA4D32"/>
<path fill-rule="evenodd" clip-rule="evenodd" d="M12.3278 9.49933L12.5003 13.7781C11.9089 12.9513 11.8028 11.7461 10.3983 11.5598C6.74206 11.077 5.0324 18.1519 8.98622 19.1005C9.00896 19.0624 9.04687 18.9655 9.06014 18.9902C9.09804 19.0624 9.16817 18.8343 9.20608 18.7773C9.42595 18.4599 9.28379 18.7298 9.48281 18.3724C8.99948 18.3496 8.90282 18.8667 8.16172 18.323C6.7667 17.3004 6.92402 14.7666 7.64048 13.5709L8.63746 12.4722C9.20608 11.8906 10.658 11.461 11.5374 12.8296C12.1648 13.8047 11.7232 13.7496 12.5306 14.1089C12.995 13.5481 12.8547 12.8068 12.7884 12.0008C12.4434 7.8627 13.7835 7.78287 13.7968 6.79443C12.8187 7.14419 12.9078 8.7675 12.3278 9.49933Z" fill="#BA4D32"/>
<path fill-rule="evenodd" clip-rule="evenodd" d="M13.7966 6.79461C13.8213 6.78701 17.2273 4.02319 19.4222 7.34586C19.9889 8.20123 20.277 9.78653 19.9643 10.8643C19.4885 12.5066 17.5552 12.2348 18.0897 12.7252C19.498 12.3641 20.1462 12.0523 20.3832 10.4936C20.9158 6.998 17.4434 3.93195 14.316 6.10651C13.8573 6.42585 13.8592 6.49998 13.7966 6.79461Z" fill="#BA4D32"/>
</g>
<defs>
<clipPath id="clip0_82_686">
<rect width="76" height="73" fill="white"/>
</clipPath>
</defs>
</svg>
