<svg width="30" height="30" viewBox="0 0 30 30" fill="none" xmlns="http://www.w3.org/2000/svg">
<path d="M15 0C6.72899 0 0 6.72899 0 15C0 23.271 6.72899 30 15 30C23.271 30 30 23.2711 30 15C30 6.72893 23.271 0 15 0ZM15 28.125C7.76288 28.125 1.87501 22.2371 1.87501 15C1.87501 7.76288 7.76288 1.87501 15 1.87501C22.2371 1.87501 28.125 7.76282 28.125 15C28.125 22.2371 22.2371 28.125 15 28.125Z" fill="#EAE4D0"/>
<path d="M19.5575 20.8834C19.9236 21.2495 20.5172 21.2495 20.8834 20.8834C21.2495 20.5173 21.2495 19.9236 20.8834 19.5575L16.3258 15L20.8834 10.4425C21.2495 10.0763 21.2495 9.48272 20.8834 9.11663C20.5173 8.75053 19.9237 8.75049 19.5575 9.11663L15 13.6742L10.4425 9.11663C10.0764 8.75053 9.48277 8.75049 9.11663 9.11663C8.7505 9.48276 8.75054 10.0764 9.11663 10.4425L13.6742 15L9.11663 19.5575C8.7505 19.9237 8.75054 20.5173 9.11663 20.8834C9.48273 21.2495 10.0763 21.2495 10.4425 20.8834L15 16.3258L19.5575 20.8834Z" fill="#EAE4D0"/>
</svg>
