<svg width="24" height="24" viewBox="0 0 24 24" fill="none" xmlns="http://www.w3.org/2000/svg">
<path d="M20 12.0001C20 10.3286 19.4765 8.69897 18.5028 7.34022C17.5292 5.98148 16.1544 4.96185 14.5715 4.42455C12.9886 3.88724 11.2772 3.85926 9.6776 4.34451C8.07801 4.82977 6.6706 5.8039 5.65304 7.13008C4.63549 8.45626 4.0589 10.0679 4.00428 11.7386C3.94965 13.4092 4.41972 15.0551 5.34847 16.4449C6.27721 17.8347 7.61798 18.8987 9.18246 19.4874C10.7469 20.0761 12.4565 20.16 14.0711 19.7273" stroke="#C31E2A" stroke-width="2" stroke-linecap="round"/>
<path d="M12.0009 15.5557C13.9645 15.5557 15.5564 13.9638 15.5564 12.0001C15.5564 10.0365 13.9645 8.44458 12.0009 8.44458C10.0372 8.44458 8.44531 10.0365 8.44531 12.0001C8.44531 13.9638 10.0372 15.5557 12.0009 15.5557Z" stroke="#C31E2A" stroke-width="2"/>
<path d="M15.5547 9.3335V13.3335C15.5547 13.9229 15.7888 14.4881 16.2056 14.9048C16.6223 15.3216 17.1875 15.5557 17.7769 15.5557C18.3663 15.5557 18.9315 15.3216 19.3483 14.9048C19.765 14.4881 19.9991 13.9229 19.9991 13.3335V12.0002" stroke="#C31E2A" stroke-width="2" stroke-linecap="round"/>
</svg>
