<svg width="103" height="103" viewBox="0 0 103 103" fill="none" xmlns="http://www.w3.org/2000/svg">
<path fill-rule="evenodd" clip-rule="evenodd" d="M50.5021 0.319172C50.9088 0.116611 51.1552 -0.00583255 51.4998 0.000214044C51.846 -0.00583255 52.0924 0.116611 52.499 0.319172C52.6063 0.373591 52.7288 0.434057 52.9072 0.517198L59.2682 3.39538L59.2757 3.40142C63.4146 5.4361 67.5021 7.71114 71.4611 10.1902C75.3642 12.6331 79.1403 15.2739 82.7184 18.0765C86.0274 20.669 89.9199 24.0218 93.6053 27.5198C96.8599 30.6081 99.9557 33.8128 102.35 36.7091C102.414 36.7847 102.471 36.8436 102.524 36.8996C102.662 37.0447 102.779 37.1686 102.864 37.35C102.931 37.5284 102.978 37.6176 102.996 37.9638V37.9895C103.027 38.6425 102.882 40.1526 102.677 41.8351C102.362 44.4321 101.901 47.4811 101.735 48.3987C100.636 54.4558 99.5929 59.2765 98.2717 63.9853C96.9506 68.6986 95.3512 73.3031 93.1427 78.9219C92.5214 80.5046 91.8624 82.0374 91.1882 83.5354C90.517 85.0244 89.8262 86.4892 89.1429 87.9343L84.6684 96.2575L84.6639 96.265C84.5036 96.5432 84.357 96.8047 84.2331 97.0314C83.8476 97.7253 83.648 98.0881 83.2807 98.3526C82.8907 98.6338 82.3873 98.7487 81.3367 98.9845L80.7109 99.1266C78.6354 99.6058 76.185 100.041 73.6878 100.422C70.5209 100.904 67.2603 101.302 64.5907 101.586C62.1433 101.848 59.9 102.011 57.7535 102.105C55.6115 102.197 53.5647 102.218 51.4998 102.191C49.4364 102.218 47.3896 102.197 45.2476 102.105C43.0996 102.011 40.8578 101.848 38.4089 101.586C35.7409 101.302 32.4803 100.904 29.3133 100.422C26.8161 100.041 24.3657 99.6058 22.2902 99.1266L21.6644 98.9845C20.6138 98.7487 20.1089 98.6338 19.7204 98.3526C19.3546 98.0881 19.1536 97.7268 18.7696 97.0314C18.6517 96.8198 18.5156 96.5734 18.3373 96.265C16.8438 93.6393 15.2066 90.6326 13.8582 87.9343C13.1735 86.4892 12.4826 85.0244 11.813 83.5354C11.1388 82.0374 10.4797 80.5046 9.85691 78.9219C7.64991 73.3031 6.05058 68.7001 4.7294 63.9853C3.40822 59.2765 2.36518 54.4558 1.26621 48.3987C1.09993 47.4811 0.63888 44.4321 0.322945 41.8351C0.118873 40.1511 -0.0262456 38.644 0.0039874 37.9895C0.0342204 37.3636 0.221666 37.1671 0.477134 36.8996C0.530042 36.8436 0.587484 36.7847 0.650973 36.7091C3.04542 33.8128 6.14128 30.6081 9.39586 27.5198C13.0813 24.0218 16.9738 20.669 20.2828 18.0765C23.8593 15.2739 27.6369 12.6331 31.54 10.1902C35.499 7.71114 39.585 5.4361 43.7239 3.40142L43.733 3.39538L50.094 0.517198C50.2724 0.434057 50.3948 0.373591 50.5021 0.319172Z" fill="#FEFEFE"/>
<path fill-rule="evenodd" clip-rule="evenodd" d="M51.4998 0.624525V6.24635C51.1159 6.2403 50.8725 6.35972 50.4734 6.55926H50.4749C50.3948 6.60007 50.3056 6.64391 50.1257 6.72856L44.5901 9.23337L44.5734 9.24395C40.9591 11.0216 37.3901 13.008 33.9314 15.1741C30.5181 17.3101 27.2197 19.6154 24.0966 22.0627C21.2033 24.3302 17.8036 27.2568 14.5899 30.3088C11.7435 33.0086 9.0376 35.8097 6.94397 38.3417C6.89408 38.4021 6.85024 38.4475 6.80943 38.4898C6.70059 38.6047 6.60385 38.706 6.52373 38.8284L10.3195 39.7067C10.3542 39.6689 10.392 39.6281 10.4298 39.5827C14.5642 34.5807 21.282 28.4479 26.3218 24.4995C32.1613 19.9253 38.6448 15.8922 45.3005 12.6179L50.4658 10.2809C50.9874 10.0376 51.2081 9.87733 51.4998 9.88489C51.7931 9.87733 52.0123 10.0376 52.5353 10.2809L57.6991 12.6179C64.3564 15.8922 70.8398 19.9253 76.6793 24.4995C81.7192 28.4479 88.4369 34.5807 92.5713 39.5827C92.8162 39.879 93.0127 39.9425 93.0384 40.4731C93.1004 41.7822 92.2387 47.6519 92.018 48.8627C90.8148 55.5004 89.6916 60.3059 87.9835 65.5408H15.0177C13.3095 60.3059 12.1864 55.5004 10.9816 48.8627C10.7624 47.6519 9.90075 41.7822 9.96273 40.4731C9.96575 40.396 9.97331 40.331 9.98389 40.272L6.32268 39.424C6.3121 39.4981 6.30454 39.5782 6.30152 39.6659C6.27279 40.26 6.39977 41.5932 6.57966 43.0716C6.85478 45.33 7.25839 48.0011 7.40502 48.8098C8.36492 54.1021 9.27644 58.3106 10.4283 62.4177C11.5832 66.5354 12.9785 70.5549 14.9058 75.4587C15.45 76.8449 16.026 78.1842 16.6155 79.4918C17.196 80.7812 17.8006 82.0631 18.3992 83.3298L18.4128 83.3586L22.3038 90.5933L22.3144 90.6084C22.4762 90.8881 22.5895 91.0937 22.6863 91.269V91.272C22.9947 91.8283 23.1761 92.1564 23.4618 92.4134L25.7156 89.1195C25.8486 89.2359 25.8154 89.2086 25.9575 89.3069C26.1207 89.387 26.1223 89.387 26.2507 89.4369L23.9893 92.7489C24.3234 92.8956 24.7542 92.9923 25.439 93.1465L25.9817 93.2705C27.8047 93.6892 29.9467 94.0701 32.125 94.4027C34.8807 94.8229 37.7272 95.1706 40.0627 95.4185C42.1986 95.6468 44.1592 95.7904 46.0397 95.8705C47.9066 95.9521 49.6949 95.9703 51.4998 95.9476C53.3062 95.9703 55.0945 95.9521 56.9599 95.8705C58.8419 95.7904 60.8025 95.6468 62.9385 95.4185C65.274 95.1706 68.1204 94.8229 70.8761 94.4027C73.0544 94.0701 75.1964 93.6892 77.018 93.2705L77.5621 93.1465C78.4737 92.9409 78.9362 92.8366 79.3202 92.5827L82.924 97.8387L82.9134 97.8462C82.6277 98.0533 82.1636 98.1576 81.1992 98.3753L80.5718 98.5174C78.5205 98.989 76.0853 99.4229 73.5956 99.8023C70.4196 100.286 67.1726 100.682 64.5257 100.965C62.0859 101.225 59.8577 101.388 57.7263 101.48C55.5888 101.572 53.5526 101.594 51.5043 101.566H51.4968C49.4485 101.594 47.4108 101.572 45.2748 101.48C43.1434 101.388 40.9137 101.225 38.4754 100.965C35.827 100.682 32.5815 100.286 29.4056 99.8023C26.9159 99.4229 24.4806 98.9905 22.4293 98.5174L21.8004 98.3753C21.1157 98.2211 20.6849 98.1244 20.3886 98.0065L23.9893 92.7489C23.9818 92.7625 23.4315 92.4889 23.4572 92.4194L19.8776 97.6467C19.7129 97.4502 19.5541 97.1629 19.3138 96.7291V96.7276C19.1898 96.5024 19.0447 96.2423 18.8815 95.9582L14.4191 87.6592C13.7419 86.2277 13.0571 84.775 12.3829 83.2785C11.7117 81.7865 11.0557 80.2627 10.4404 78.6951C8.23945 73.0945 6.64617 68.5081 5.33104 63.8175C4.01439 59.1208 2.97438 54.3183 1.87994 48.2883C1.71669 47.3889 1.26168 44.3656 0.945745 41.7625C0.752254 40.1768 0.613182 38.7604 0.625275 38.1059L6.32268 39.424C6.34384 39.2048 6.41489 38.9902 6.52373 38.8284L0.782487 37.4997C0.824813 37.4407 0.874698 37.3878 0.930629 37.3304C0.994118 37.2639 1.06365 37.1913 1.13319 37.1082C3.51404 34.227 6.59175 31.0434 9.82668 27.9718C13.5015 24.4859 17.3759 21.1467 20.6667 18.5693C24.2327 15.7758 27.9907 13.147 31.8711 10.7178C35.8059 8.25533 39.8707 5.99239 43.9899 3.96678L50.3585 1.08558C50.4976 1.02058 50.6472 0.944995 50.7803 0.879994H50.7818C51.1053 0.718247 51.3018 0.61999 51.4938 0.624525H51.4998ZM50.5021 0.319172C50.9088 0.116611 51.1552 -0.00583255 51.4998 0.000214044C51.846 -0.00583255 52.0924 0.116611 52.499 0.319172C52.6063 0.373591 52.7288 0.434057 52.9072 0.517198L59.2682 3.39538L59.2757 3.40142C63.4146 5.4361 67.5021 7.71114 71.4611 10.1902C75.3642 12.6331 79.1403 15.2739 82.7184 18.0765C86.0274 20.669 89.9199 24.0218 93.6053 27.5198C96.8599 30.6081 99.9557 33.8128 102.35 36.7091C102.414 36.7847 102.471 36.8436 102.524 36.8996C102.662 37.0447 102.779 37.1686 102.864 37.35L95.1063 39.1549C95.3422 39.4527 95.4102 39.4966 95.451 39.7158L102.996 37.9638V37.9895C103.027 38.644 102.882 40.1526 102.677 41.8351C102.362 44.4321 101.901 47.4811 101.735 48.3987C100.636 54.4558 99.5929 59.2765 98.2717 63.9853C96.9506 68.6986 95.3512 73.3031 93.1427 78.9219C92.5214 80.5046 91.8624 82.0374 91.1882 83.5354C90.517 85.0244 89.8262 86.4892 89.1429 87.9343L84.6684 96.2575L84.6639 96.265C84.5036 96.5432 84.357 96.8047 84.2331 97.0314C83.8476 97.7253 83.648 98.0881 83.2807 98.3526C82.8907 98.6338 82.3873 98.7487 81.3367 98.9845L80.7109 99.1266C78.6354 99.6058 76.185 100.041 73.6878 100.422C70.5209 100.904 67.2603 101.302 64.5907 101.586C62.1433 101.848 59.9 102.011 57.7535 102.105C55.6115 102.197 53.5647 102.218 51.4998 102.191C49.4364 102.218 47.3896 102.197 45.2476 102.105C43.0996 102.011 40.8578 101.848 38.4089 101.586C35.7409 101.302 32.4803 100.904 29.3133 100.422C26.8161 100.041 24.3657 99.6058 22.2887 99.1266L21.6644 98.9845C20.6138 98.7487 20.1089 98.6338 19.7204 98.3526C19.3546 98.0881 19.1536 97.7268 18.7681 97.0314C18.6517 96.8198 18.5156 96.5734 18.3373 96.265C16.8438 93.6393 15.2066 90.6311 13.8582 87.9343C13.1735 86.4892 12.4826 85.0244 11.813 83.5354C11.1388 82.0374 10.4797 80.5046 9.85691 78.9219C7.64991 73.3031 6.05058 68.7001 4.7294 63.9853C3.40822 59.2765 2.36518 54.4558 1.26621 48.3987C1.09993 47.4811 0.63888 44.4321 0.322945 41.8351C0.118873 40.1511 -0.0262456 38.644 0.0039874 37.9895C0.0342204 37.3636 0.221666 37.1671 0.477134 36.8996C0.530042 36.8436 0.587484 36.7847 0.650973 36.7091C3.04542 33.8128 6.14128 30.6081 9.39586 27.5198C13.0813 24.0218 16.9738 20.669 20.2828 18.0765C23.8593 15.2739 27.6369 12.6331 31.54 10.1902C35.499 7.71114 39.585 5.4361 43.7239 3.40142L43.733 3.39538L50.094 0.517198C50.2724 0.434057 50.3948 0.373591 50.5021 0.319172Z" fill="#2B2A29"/>
<path fill-rule="evenodd" clip-rule="evenodd" d="M51.4997 9.88334C51.208 9.8773 50.9873 10.0375 50.4658 10.2809L45.3005 12.6179C38.6447 15.8921 32.1612 19.9252 26.3217 24.4995C21.2819 28.4479 14.5641 34.5807 10.4298 39.5827C10.1849 39.8775 9.98684 39.9425 9.96265 40.4731C9.90068 41.7822 10.7623 47.6519 10.9815 48.8627C12.7607 58.6733 14.3646 64.4811 17.9411 73.5872C18.9464 76.145 20.0756 78.547 21.1806 80.8855L24.807 87.6274C25.8969 89.5155 25.4601 89.2782 27.8515 89.8284C31.6563 90.7052 37.0499 91.4096 40.9031 91.8192C44.8696 92.2425 48.162 92.3513 51.4997 92.309C54.839 92.3513 58.1313 92.2425 62.0979 91.8192C65.9511 91.4096 71.3447 90.7052 75.1495 89.8284C77.5409 89.2782 77.104 89.5155 78.1939 87.6274L81.8189 80.8855C82.9254 78.547 84.0546 76.145 85.0598 73.5872C88.6364 64.4811 90.2388 58.6733 92.018 48.8627C92.2387 47.6519 93.1003 41.7822 93.0383 40.4731C93.0126 39.9425 92.8161 39.8775 92.5712 39.5827C88.4369 34.5807 81.7191 28.4479 76.6793 24.4995C70.8398 19.9252 64.3563 15.8921 57.7005 12.6179L52.5352 10.2809C52.0122 10.0375 51.793 9.8773 51.4997 9.88334Z" fill="#FEFEFE"/>
<path fill-rule="evenodd" clip-rule="evenodd" d="M51.4997 9.88334C51.208 9.8773 50.9873 10.0375 50.4658 10.2809L45.3005 12.6179C38.6447 15.8921 32.1612 19.9252 26.3217 24.4995C21.2819 28.4479 14.5641 34.5807 10.4298 39.5827C10.1849 39.8775 9.98684 39.9425 9.96265 40.4731C9.90068 41.7822 10.7623 47.6519 10.9815 48.8627C12.1863 55.5004 13.3094 60.3059 15.0176 65.5392H87.9834C89.6915 60.3059 90.8147 55.5004 92.018 48.8627C92.2387 47.6519 93.1003 41.7822 93.0383 40.4731C93.0126 39.9425 92.8161 39.8775 92.5712 39.5827C88.4369 34.5807 81.7176 28.4479 76.6793 24.4995C70.8398 19.9252 64.3563 15.8921 57.699 12.6179L52.5352 10.2809C52.0122 10.0375 51.793 9.8773 51.4997 9.88334Z" fill="#E31E24"/>
<path d="M51.8264 20.4211C51.0358 20.5314 50.7138 21.0998 50.3329 21.774L50.1424 22.1081L50.1394 22.1066L46.5598 28.3089L46.5629 28.3119C46.3966 28.6006 45.9416 29.3882 45.4881 30.1697C44.9696 31.0661 45.089 30.853 44.761 31.4214L42.9742 34.5278C42.3302 35.6298 42.1942 35.8671 42.0581 36.1045C41.582 36.9328 41.2509 37.5133 41.1768 37.6403L40.2759 39.1837C40.1247 39.4452 40.0779 39.5314 39.3855 40.7407C39.0197 41.3816 39.0983 41.2395 39.056 41.3151C38.7098 41.9243 38.3274 42.6 38.019 43.1019C37.9117 43.2787 37.8391 43.3982 37.8029 43.4616V43.4662C37.7152 43.6189 37.6487 43.7368 37.5988 43.8275C37.2783 44.4185 36.9699 44.937 36.6631 45.4555C36.3668 45.9559 36.0705 46.4562 35.8105 46.9294C35.4764 47.5386 35.035 48.2914 34.5982 49.0366C34.3699 49.4266 34.1431 49.8136 34.0011 50.0615C33.8 50.4077 33.6655 50.6374 33.5264 50.8733C33.2271 51.3827 32.9232 51.8997 32.6678 52.3668C32.6194 52.4544 32.5725 52.5467 32.5287 52.657C32.497 52.7341 32.4713 52.8112 32.4577 52.8838C32.4365 52.9971 32.4259 53.1014 32.4259 53.1951C32.4259 53.564 32.5544 53.8981 32.7706 54.155C32.9867 54.4135 33.2966 54.5964 33.6549 54.6645C33.7592 54.6826 33.8605 54.6932 33.9587 54.6932L69.4915 54.6962V54.6917C69.88 54.6917 70.1718 54.6871 70.3804 54.6509C70.5316 54.6237 70.6752 54.5677 70.8535 54.4559C71.1392 54.2775 71.3705 53.9797 71.4809 53.6245C71.5791 53.3131 71.5776 52.9578 71.428 52.6071C71.3509 52.4272 71.0123 51.8528 70.781 51.4598C70.6404 51.2179 70.722 51.363 70.6117 51.1741V51.168L58.9493 30.9664L58.9463 30.9679C58.2585 29.7812 57.867 29.098 57.477 28.4192C56.6985 27.0618 55.9275 25.7179 55.3803 24.7882C55.1037 24.3151 54.8074 23.8057 54.4854 23.2479C54.0364 22.4694 53.7749 22.0114 53.5754 21.6622L53.518 21.5609C53.3003 21.1784 53.137 20.8912 52.8528 20.6871C52.7243 20.5949 52.549 20.5103 52.3404 20.4574C52.1726 20.415 51.9957 20.3984 51.8264 20.4211ZM48.1592 20.5405C48.8711 19.2843 49.4713 18.2262 51.4833 17.945C52.0033 17.8725 52.5051 17.9148 52.9586 18.0297C53.4711 18.1597 53.9412 18.3925 54.3116 18.66C55.0432 19.1861 55.3213 19.6759 55.6902 20.3274L55.7491 20.4287C56.1815 21.1875 56.511 21.765 56.6501 22.0038C56.9146 22.4648 57.2003 22.9576 57.5344 23.5245C58.4338 25.0558 59.0385 26.1094 59.6507 27.1751C60.2206 28.1698 60.7965 29.1735 61.111 29.7147V29.7192L72.7748 49.9209H72.7764C72.9714 50.258 72.923 50.1749 72.9351 50.196C73.2057 50.6541 73.5987 51.3237 73.7287 51.6291C74.1293 52.5708 74.1338 53.5262 73.8708 54.3697C73.579 55.2994 72.9547 56.0945 72.1747 56.5812C71.7001 56.8775 71.2829 57.0332 70.8112 57.1179C70.3985 57.192 70.004 57.198 69.4915 57.198V57.192L33.9587 57.1904C33.6912 57.1904 33.4357 57.1663 33.1953 57.1209C32.2596 56.9471 31.4449 56.4543 30.8614 55.7604C30.2763 55.0666 29.9287 54.1717 29.9302 53.1951C29.9302 52.9351 29.9529 52.6782 29.9997 52.4242C30.0496 52.1582 30.1222 51.9284 30.2083 51.7168C30.2809 51.5384 30.3731 51.357 30.4744 51.1726C30.745 50.6783 31.0609 50.1401 31.3723 49.611C31.5537 49.3027 31.7366 48.9897 31.8364 48.8174C32.0858 48.3866 32.2642 48.0812 32.4441 47.7744C32.828 47.1198 33.215 46.4592 33.6171 45.7246C33.8952 45.2182 34.2021 44.7012 34.509 44.1827C34.837 43.6294 35.165 43.0762 35.4054 42.6333C35.5036 42.4534 35.5807 42.3158 35.6397 42.213L35.6412 42.2145C35.75 42.0256 35.8301 41.891 35.8846 41.8003C36.1884 41.303 36.5527 40.6621 36.8823 40.0816C37.1559 39.5994 37.0516 39.7778 37.2118 39.4981C37.3221 39.3046 37.3569 39.2502 38.1112 37.9396L39.0122 36.3781C39.6516 35.2836 39.768 35.0811 39.8935 34.8619L40.811 33.2656C41.5789 31.9474 41.8374 31.5 42.0869 31.0646L42.5978 30.1773C43.3944 28.7956 43.2992 28.9589 43.3249 28.9166C43.5925 28.4525 43.8676 27.9778 44.3891 27.0678H44.3951L47.9778 20.8595V20.8549C48.0639 20.7068 48.1123 20.6221 48.1592 20.5405Z" fill="#FEFEFE"/>
<path fill-rule="evenodd" clip-rule="evenodd" d="M51.654 19.1831C50.0985 19.4007 49.7025 20.3788 49.06 21.4808L45.4759 27.6891C44.8969 28.7019 44.2545 29.8009 43.6801 30.8001C43.1011 31.8023 42.4677 32.9103 41.8918 33.8974C41.3022 34.9072 40.6658 36.0319 40.0944 37.0084C39.5049 38.0197 38.8806 39.1036 38.2986 40.1194C37.895 40.8238 37.3629 41.7807 36.9517 42.4519C36.7885 42.7194 36.6494 42.9613 36.5028 43.2304C35.954 44.2386 35.2647 45.3225 34.7145 46.3262C34.1627 47.333 33.5082 48.4168 32.9186 49.4387C32.4818 50.196 31.9724 51.038 31.5718 51.7697C31.4221 52.0418 31.2921 52.3139 31.2286 52.654C30.8991 54.4226 32.2203 55.9403 33.9587 55.9418L69.4915 55.9448C70.3939 55.9448 70.861 55.9267 71.5141 55.5186C72.5253 54.8867 73.1602 53.4824 72.5783 52.1189C72.4467 51.812 71.9025 50.9065 71.6939 50.5467L60.0285 30.3405C58.8011 28.2257 57.6794 26.2364 56.458 24.1564C55.8458 23.1164 55.2941 22.1534 54.6622 21.0454C54.3387 20.4785 54.1225 20.0628 53.5829 19.6728C53.1173 19.3388 52.3993 19.0788 51.654 19.1831Z" fill="#E42424"/>
<path fill-rule="evenodd" clip-rule="evenodd" d="M35.511 52.2836C35.5201 52.2065 37.3552 49.0638 37.5578 48.7086C38.3967 47.2423 39.2992 45.7201 40.1336 44.2462C40.2969 43.9575 40.4707 43.6612 40.6491 43.3528L51.728 24.167C51.8035 24.0354 51.9003 23.8435 51.9759 23.7422C52.0409 23.7679 52.0802 23.8797 52.121 23.9493L54.0559 27.3021C54.7769 28.5205 55.4134 29.6784 56.1178 30.8741C56.8056 32.0427 57.4949 33.261 58.1782 34.4432C58.8871 35.6706 59.5145 36.7726 60.2385 38.0122C60.9566 39.2411 61.5794 40.3643 62.2944 41.5706C62.6481 42.1677 62.9792 42.7466 63.3223 43.3528C63.7199 44.0542 68.4513 52.1944 68.4619 52.2851L35.511 52.2836Z" fill="#FEFEFE"/>
<path d="M46.1289 36.756H50.3782L52.1392 41.9787L53.8655 36.756H57.8487L53.6947 46.5469C53.3546 47.3345 53.0568 47.924 52.8028 48.311C52.5489 48.701 52.1755 49.02 51.6767 49.2694C51.1778 49.5203 50.493 49.6443 49.6223 49.6443C49.1628 49.6443 48.3692 49.5793 47.2445 49.4478V46.8296C47.9081 46.9007 48.3918 46.9354 48.6957 46.9354C49.6012 46.9354 50.1544 46.5998 50.3479 45.9241L46.1289 36.756Z" fill="#2B2A29"/>
<path d="M79.0391 91.0377L79.1071 90.9047C79.2205 90.684 79.3656 90.4028 79.5969 90.0023L79.5954 90.0007L83.4788 82.7781C84.0638 81.5416 84.6564 80.2854 85.2444 78.9778C85.8279 77.6838 86.3963 76.3611 86.9299 75.0037C88.8421 70.1362 90.2268 66.153 91.3681 62.0791C92.5139 57.9961 93.4179 53.8255 94.3672 48.5891C94.5063 47.8167 94.9008 45.197 95.1774 42.925C95.3513 41.495 95.4752 40.2297 95.451 39.7248V39.7158L93.631 40.1375C93.6461 40.2282 93.6567 40.328 93.6628 40.4429C93.6885 41.0007 93.5706 42.2447 93.4028 43.6264C93.1473 45.7291 92.7694 48.2188 92.6333 48.9731C91.7384 53.9071 90.8889 57.8298 89.8156 61.6573C88.7393 65.4969 87.4378 69.2428 85.642 73.814C85.134 75.1065 84.5974 76.3566 84.0472 77.575C83.5075 78.7752 82.9437 79.971 82.3859 81.1516L82.3708 81.1803L78.7458 87.9237C78.7352 87.9404 78.7247 87.9585 78.7141 87.9751C78.6022 88.1686 78.4873 88.3757 78.3891 88.5556L78.3694 88.5874C78.179 88.932 78.0384 89.183 77.8872 89.381L79.0391 91.0377ZM95.1064 39.1549L95.0928 39.1398C93.0264 36.6411 90.3568 33.8778 87.5512 31.2142C84.3571 28.1834 80.9906 25.284 78.1366 23.0468C75.0393 20.6206 71.7756 18.338 68.4092 16.2308C64.9974 14.0948 61.4707 12.1327 57.8972 10.3731L57.8956 10.3747L52.3464 7.8623V7.86381C52.2859 7.83509 52.2088 7.7973 52.1272 7.758V9.39058C52.233 9.43593 52.3449 9.49186 52.4734 9.55535C52.5459 9.59163 52.6306 9.63395 52.7999 9.71256L57.9561 12.0465C57.9773 12.0571 57.9969 12.0662 58.0166 12.0783C61.3709 13.729 64.683 15.5747 67.8952 17.5852C71.0757 19.5761 74.1519 21.7271 77.0634 24.0082C79.7601 26.1215 82.9286 28.85 85.9262 31.695C88.5791 34.2118 91.102 36.824 93.0536 39.1837C93.1004 39.2396 93.1397 39.2819 93.1775 39.3212C93.2531 39.3998 93.3242 39.4739 93.3861 39.554L95.1064 39.1549Z" fill="#FEFEFE"/>
<path d="M40.8065 82.2551H36.1355L35.4643 84.4545H31.2559L36.276 71.1112H40.7913L45.7919 84.4545H41.4746L40.8065 82.2551ZM39.9342 79.3663L38.477 74.5714L37.0152 79.3663H39.9342Z" fill="#2B2A29"/>
<path d="M45.8447 71.1112H50.3177L52.171 76.6091L53.988 71.1112H58.1813L53.8081 81.4161C53.4513 82.246 53.1369 82.8673 52.8709 83.2739C52.6033 83.6836 52.2088 84.0192 51.6842 84.2837C51.1582 84.5482 50.4386 84.6782 49.5226 84.6782C49.0373 84.6782 48.2014 84.6102 47.0193 84.4696V81.7154C47.7177 81.7895 48.2271 81.8273 48.5476 81.8273C49.4999 81.8273 50.0819 81.4736 50.286 80.7616L45.8447 71.1112Z" fill="#2B2A29"/>
<path d="M71.7438 84.4545H67.1015L65.4795 81.0201C65.1046 80.2023 64.8129 79.6928 64.6012 79.4873C64.3926 79.2832 64.1009 79.1804 63.7305 79.1804V84.4545H59.6128V71.1112H63.7305V76.2357L67.3691 71.1112H71.316L66.97 77.575C67.5641 77.77 68.0826 78.1056 68.524 78.5818C68.9684 79.0595 69.437 79.8017 69.9343 80.8084L71.7438 84.4545Z" fill="#2B2A29"/>
</svg>
