<svg width="19" height="19" viewBox="0 0 19 19" fill="none" xmlns="http://www.w3.org/2000/svg">
<mask id="mask0_665_2274" style="mask-type:luminance" maskUnits="userSpaceOnUse" x="0" y="0" width="19" height="19">
<path d="M0 0H19V19H0V0Z" fill="white"/>
</mask>
<g mask="url(#mask0_665_2274)">
<path d="M11.5037 3.22566C12.1498 2.51121 13.0533 2.08269 14.0153 2.03436C14.9774 1.98604 15.9192 2.32187 16.6337 2.96798C17.3482 3.61409 17.7767 4.51755 17.825 5.47961C17.8733 6.44167 17.5375 7.38353 16.8914 8.09798L9.98726 15.7342L9.97836 15.7437L9.97242 15.7496C9.08531 16.7083 7.85554 17.2779 6.55062 17.3346C5.2457 17.3912 3.97119 16.9303 3.00433 16.0521C2.03747 15.174 1.45648 13.9495 1.38773 12.6452C1.31899 11.3408 1.76805 10.0621 2.63723 9.08716L7.68529 3.50473C7.8192 3.36656 8.00154 3.28579 8.19385 3.27946C8.38616 3.27314 8.57341 3.34174 8.71611 3.47081C8.85881 3.59988 8.94581 3.77933 8.95876 3.97131C8.97171 4.16329 8.90959 4.35279 8.78551 4.49985L3.73745 10.0817C3.42952 10.4194 3.19131 10.8146 3.0365 11.2446C2.88169 11.6746 2.81333 12.131 2.83533 12.5875C2.85733 13.044 2.96927 13.4916 3.16471 13.9048C3.36016 14.3179 3.63527 14.6884 3.97425 14.9949C4.31324 15.3014 4.70942 15.538 5.14006 15.6911C5.57071 15.8441 6.02733 15.9106 6.48374 15.8867C6.94014 15.8628 7.38734 15.749 7.79966 15.5519C8.21198 15.3548 8.58131 15.0781 8.88645 14.7379L15.7912 7.10345C15.9826 6.89453 16.1308 6.64982 16.2273 6.38339C16.3237 6.11697 16.3666 5.8341 16.3533 5.55106C16.34 5.26802 16.2709 4.9904 16.1499 4.73418C16.0289 4.47796 15.8584 4.24821 15.6482 4.05814C15.4381 3.86808 15.1924 3.72145 14.9254 3.6267C14.6583 3.53196 14.3752 3.49096 14.0922 3.50608C13.8093 3.5212 13.5321 3.59213 13.2767 3.71479C13.0213 3.83745 12.7926 4.00941 12.6039 4.22079L6.74182 10.7028C6.66825 10.78 6.61089 10.8712 6.57312 10.971C6.53535 11.0708 6.51795 11.1771 6.52193 11.2837C6.52591 11.3903 6.55119 11.4951 6.59629 11.5918C6.64139 11.6884 6.70539 11.7751 6.78452 11.8467C6.86365 11.9182 6.9563 11.9732 7.05702 12.0084C7.15774 12.0436 7.26449 12.0582 7.37096 12.0515C7.47743 12.0448 7.58148 12.0168 7.67697 11.9692C7.77246 11.9216 7.85746 11.8554 7.92695 11.7745L11.8778 7.40626C12.012 7.26964 12.1938 7.19019 12.3852 7.18451C12.5766 7.17884 12.7628 7.24737 12.9049 7.37579C13.047 7.50421 13.1339 7.68258 13.1475 7.8736C13.1611 8.06462 13.1004 8.25351 12.978 8.40079L9.02717 12.7696C8.82768 12.9933 8.58607 13.1755 8.31616 13.3059C8.04625 13.4362 7.7533 13.5121 7.45406 13.5292C6.84971 13.5638 6.25638 13.3569 5.80459 12.954C5.3528 12.5511 5.07957 11.9852 5.04499 11.3809C5.02787 11.0816 5.06986 10.7819 5.16856 10.4989C5.26726 10.2159 5.42074 9.95509 5.62023 9.73138L5.6321 9.71773L11.5037 3.22566Z" fill="#C31E2A"/>
</g>
</svg>
