<svg width="35" height="35" viewBox="0 0 35 35" fill="none" xmlns="http://www.w3.org/2000/svg">
<path d="M4.12734 19.5673L3.18188 14.2048C8.85461 11.5235 14.5273 14.5735 17.8364 14.2048C21.1455 13.836 31.5455 12.0597 31.5455 14.741C31.5455 17.4223 31.0728 17.4223 31.0728 17.4223C30.7576 19.3886 29.4655 23.4284 26.8182 23.8574C23.5092 24.3936 22.5637 23.3211 21.1455 22.2486C20.011 21.3906 19.4122 20.1036 19.2546 19.5673L18.7819 16.3498L17.8364 15.8135H16.4182L15.9455 16.886L15.0001 20.1036L13.1092 22.7849L9.80007 23.8574L6.49098 23.3211L4.12734 19.5673Z" fill="#00C0FF" fill-opacity="0.1"/>
<path d="M8.5314 12.0002C6.1556 12.0031 4.34903 12.5555 2.44259 13.1208C1.84471 13.2321 1.37259 13.4179 1.12433 13.9005C0.874515 14.3864 1.04844 14.8875 1.23304 15.2328C1.57382 15.87 2.1074 16.4624 2.31506 16.8492C2.56014 18.1758 2.88549 19.4817 3.40903 20.6252C4.3271 22.6308 6.01506 24.1291 8.69252 23.9912C12.0061 23.8206 13.8807 22.4917 14.8816 20.9212C15.8825 19.3506 16.0537 17.5982 16.2636 16.7144C16.802 15.4751 17.91 15.4603 18.4636 16.7144C18.6735 17.5982 18.8447 19.3506 19.8457 20.9211C20.8465 22.4916 22.7211 23.8206 26.0347 23.9911C28.7121 24.1291 30.4002 22.6308 31.3182 20.6253C31.8418 19.4817 32.167 18.1757 32.4121 16.8493C32.6198 16.4624 33.1534 15.8699 33.4943 15.2328C33.6789 14.8875 33.8527 14.3864 33.6029 13.9006C33.3547 13.418 32.8825 13.2321 32.2845 13.1208C30.3782 12.5555 28.5716 12.0031 26.1958 12.0001C24.2946 11.9976 22.0288 12.3469 19.0542 13.3223L18.6647 13.45C17.3635 13.6931 17.3637 13.6931 16.0625 13.45L15.673 13.3223C12.6984 12.3469 10.4325 11.9978 8.5314 12.0002ZM8.54172 13.2328C10.2244 13.2343 12.2391 13.5565 14.9277 14.4074C15.1003 14.8848 15.295 15.7045 15.0775 16.5155C14.8373 17.5728 14.6638 18.9963 13.8858 20.2173C13.0828 21.4772 11.6794 22.5731 8.6341 22.7299C6.36771 22.8467 5.27919 21.8024 4.48935 20.077C4.0381 19.0917 3.73792 17.8827 3.50042 16.6063L3.50303 16.6056L3.21658 14.2029C4.9445 13.687 6.5132 13.231 8.54172 13.2328ZM26.1853 13.2328C28.2138 13.2311 29.7828 13.6869 31.5107 14.2029L31.2243 16.6056L31.2268 16.6063C30.9893 17.8827 30.6891 19.0917 30.238 20.077C29.448 21.8024 28.3595 22.8467 26.0932 22.7299C23.0479 22.573 21.6443 21.4772 20.8414 20.2173C20.0633 18.9964 19.89 17.5728 19.6497 16.5155C19.4655 15.5259 19.6269 14.8848 19.7993 14.4074C22.4879 13.5565 24.5026 13.2343 26.1853 13.2328Z" fill="#FCC756"/>
</svg>
