<svg width="12" height="12" viewBox="0 0 12 12" fill="none" xmlns="http://www.w3.org/2000/svg">
<path d="M6.98833 11.7141L11.678 6.71409C11.7634 6.61899 11.8303 6.50684 11.875 6.38409C11.9688 6.14063 11.9688 5.86755 11.875 5.62409C11.8303 5.50134 11.7634 5.3892 11.678 5.29409L6.98833 0.294091C6.90088 0.200853 6.79706 0.126892 6.6828 0.076432C6.56854 0.0259717 6.44608 -2.56287e-07 6.3224 -2.6205e-07C6.07263 -2.73691e-07 5.83309 0.105788 5.65647 0.294091C5.47986 0.482395 5.38063 0.73779 5.38063 1.00409C5.38063 1.27039 5.47986 1.52579 5.65647 1.71409L8.75164 5.00409L1.63275 5.00409C1.38399 5.00409 1.14543 5.10945 0.96953 5.29698C0.793634 5.48452 0.694817 5.73887 0.694817 6.00409C0.694817 6.26931 0.793634 6.52366 0.96953 6.7112C1.14543 6.89873 1.38399 7.00409 1.63275 7.00409L8.75164 7.00409L5.65647 10.2941C5.56856 10.3871 5.49878 10.4977 5.45117 10.6195C5.40355 10.7414 5.37903 10.8721 5.37903 11.0041C5.37903 11.1361 5.40355 11.2668 5.45117 11.3887C5.49878 11.5105 5.56856 11.6211 5.65647 11.7141C5.74366 11.8078 5.8474 11.8822 5.9617 11.933C6.07599 11.9838 6.19858 12.0099 6.3224 12.0099C6.44622 12.0099 6.56881 11.9838 6.68311 11.933C6.7974 11.8822 6.90114 11.8078 6.98833 11.7141Z" fill="#CBCFD6"/>
</svg>
