<svg width="242" height="54" viewBox="0 0 242 54" fill="none" xmlns="http://www.w3.org/2000/svg">
<path fill-rule="evenodd" clip-rule="evenodd" d="M26.4768 0.167333C26.69 0.0611359 26.8192 -0.00305784 26.9999 0.000112217C27.1814 -0.00305784 27.3106 0.0611359 27.5238 0.167333C27.58 0.195863 27.6442 0.227564 27.7377 0.271152L31.0726 1.7801L31.0766 1.78327C33.2465 2.85 35.3895 4.04273 37.4651 5.34246C39.5113 6.62316 41.491 8.00768 43.3669 9.47701C45.1017 10.8362 47.1425 12.594 49.0746 14.4278C50.7809 16.047 52.404 17.7271 53.6593 19.2455C53.6926 19.2852 53.7227 19.3161 53.7504 19.3454C53.8226 19.4215 53.8844 19.4865 53.9288 19.5816C53.9636 19.6751 53.9882 19.7218 53.9977 19.9033V19.9168C54.0144 20.2592 53.9383 21.0509 53.8305 21.933C53.6656 23.2945 53.4239 24.893 53.3368 25.3741C52.7606 28.5497 52.2138 31.077 51.5211 33.5457C50.8284 36.0167 49.99 38.4307 48.8321 41.3765C48.5064 42.2063 48.1608 43.0099 47.8074 43.7953C47.4555 44.5759 47.0933 45.3439 46.7351 46.1015L44.3893 50.4651L44.3869 50.469C44.3029 50.6149 44.226 50.752 44.161 50.8709C43.9589 51.2346 43.8543 51.4248 43.6617 51.5635C43.4573 51.7109 43.1934 51.7711 42.6426 51.8948L42.3145 51.9693C41.2263 52.2205 39.9417 52.4487 38.6324 52.6485C36.9721 52.9013 35.2627 53.1097 33.8631 53.2587C32.58 53.3958 31.4039 53.4814 30.2785 53.5305C29.1555 53.5789 28.0825 53.59 26.9999 53.5757C25.9181 53.59 24.8451 53.5789 23.7221 53.5305C22.5959 53.4814 21.4206 53.3958 20.1367 53.2587C18.7379 53.1097 17.0285 52.9013 15.3682 52.6485C14.0589 52.4487 12.7743 52.2205 11.6861 51.9693L11.358 51.8948C10.8072 51.7711 10.5425 51.7109 10.3389 51.5635C10.1471 51.4248 10.0417 51.2354 9.84037 50.8709C9.77855 50.7599 9.70723 50.6307 9.61371 50.469C8.83071 49.0924 7.97241 47.5161 7.26549 46.1015C6.90648 45.3439 6.5443 44.5759 6.19322 43.7953C5.83975 43.0099 5.49422 42.2063 5.1677 41.3765C4.01063 38.4307 3.17215 36.0175 2.47949 33.5457C1.78683 31.077 1.24 28.5497 0.66384 25.3741C0.576664 24.893 0.334947 23.2945 0.169311 21.933C0.0623217 21.0501 -0.0137598 20.26 0.00209048 19.9168C0.0179408 19.5887 0.116213 19.4857 0.250148 19.3454C0.277886 19.3161 0.308001 19.2852 0.341287 19.2455C1.59663 17.7271 3.2197 16.047 4.92598 14.4278C6.85814 12.594 8.89886 10.8362 10.6337 9.47701C12.5088 8.00768 14.4893 6.62316 16.5355 5.34246C18.6111 4.04273 20.7533 2.85 22.9232 1.78327L22.928 1.7801L26.2629 0.271152C26.3564 0.227564 26.4206 0.195863 26.4768 0.167333Z" fill="#FEFEFE"/>
<path fill-rule="evenodd" clip-rule="evenodd" d="M26.9999 0.327421V3.27478C26.7986 3.27161 26.671 3.33422 26.4618 3.43883H26.4626C26.4206 3.46023 26.3738 3.48322 26.2795 3.5276L23.3773 4.84079L23.3686 4.84634C21.4737 5.77834 19.6026 6.8197 17.7893 7.95538C15.9998 9.0752 14.2705 10.2838 12.6332 11.5669C11.1163 12.7556 9.33395 14.2899 7.64907 15.89C6.15676 17.3055 4.73816 18.774 3.64053 20.1015C3.61437 20.1332 3.59139 20.1569 3.56999 20.1791C3.51293 20.2394 3.46221 20.2925 3.42021 20.3566L5.41021 20.8171C5.42844 20.7973 5.44825 20.7759 5.46807 20.7521C7.63559 18.1297 11.1575 14.9145 13.7998 12.8444C16.8613 10.4463 20.2604 8.33182 23.7498 6.61523L26.4578 5.39001C26.7312 5.26241 26.8469 5.1784 26.9999 5.18237C27.1536 5.1784 27.2686 5.26241 27.5428 5.39001L30.25 6.61523C33.7402 8.33182 37.1393 10.4463 40.2008 12.8444C42.8431 14.9145 46.365 18.1297 48.5325 20.7521C48.6609 20.9074 48.7639 20.9407 48.7774 21.2189C48.8099 21.9052 48.3582 24.9826 48.2425 25.6174C47.6116 29.0973 47.0228 31.6167 46.1272 34.3612H7.87335C6.97781 31.6167 6.38897 29.0973 5.75733 25.6174C5.64242 24.9826 5.19068 21.9052 5.22318 21.2189C5.22476 21.1785 5.22873 21.1444 5.23427 21.1135L3.3148 20.6689C3.30925 20.7077 3.30529 20.7497 3.30371 20.7957C3.28865 21.1072 3.35522 21.8062 3.44953 22.5812C3.59377 23.7653 3.80537 25.1656 3.88224 25.5896C4.38549 28.3642 4.86338 30.5706 5.46727 32.7238C6.07275 34.8827 6.80425 36.99 7.8147 39.5609C8.10001 40.2876 8.40196 40.9898 8.71104 41.6753C9.01536 42.3513 9.33237 43.0234 9.6462 43.6875L9.65334 43.7026L11.6933 47.4955L11.6988 47.5035C11.7836 47.6501 11.8431 47.7579 11.8938 47.8498V47.8514C12.0554 48.143 12.1506 48.315 12.3003 48.4497L13.482 46.7228C13.5517 46.7839 13.5343 46.7696 13.6088 46.8211C13.6944 46.8631 13.6952 46.8631 13.7625 46.8893L12.5769 48.6257C12.7521 48.7025 12.9779 48.7533 13.3369 48.8341L13.6215 48.8991C14.5772 49.1186 15.7002 49.3183 16.8422 49.4927C18.287 49.713 19.7793 49.8953 21.0037 50.0252C22.1236 50.1449 23.1514 50.2202 24.1373 50.2622C25.1161 50.305 26.0536 50.3145 26.9999 50.3026C27.947 50.3145 28.8845 50.305 29.8625 50.2622C30.8491 50.2202 31.877 50.1449 32.9969 50.0252C34.2213 49.8953 35.7136 49.713 37.1584 49.4927C38.3004 49.3183 39.4234 49.1186 40.3783 48.8991L40.6636 48.8341C41.1415 48.7263 41.384 48.6716 41.5853 48.5385L43.4747 51.2941L43.4692 51.298C43.3194 51.4066 43.0761 51.4613 42.5704 51.5754L42.2415 51.6499C41.1661 51.8972 39.8894 52.1246 38.5841 52.3235C36.919 52.5771 35.2167 52.7848 33.829 52.933C32.5499 53.0693 31.3817 53.1549 30.2643 53.2032C29.1437 53.2516 28.0761 53.2627 27.0023 53.2484H26.9983C25.9245 53.2627 24.8561 53.2516 23.7363 53.2032C22.6189 53.1549 21.4499 53.0693 20.1716 52.933C18.7831 52.7848 17.0816 52.5771 15.4165 52.3235C14.1112 52.1246 12.8345 51.8979 11.759 51.6499L11.4294 51.5754C11.0704 51.4946 10.8445 51.4438 10.6892 51.382L12.5769 48.6257C12.573 48.6328 12.2845 48.4893 12.298 48.4529L10.4213 51.1934C10.3349 51.0904 10.2517 50.9398 10.1257 50.7123V50.7116C10.0607 50.5935 9.98461 50.4572 9.89902 50.3082L7.55951 45.9573C7.20447 45.2067 6.84546 44.4451 6.49199 43.6605C6.14012 42.8783 5.79617 42.0795 5.47361 41.2576C4.31971 38.3214 3.4844 35.9169 2.79491 33.4577C2.10463 30.9954 1.55938 28.4775 0.985602 25.3162C0.90001 24.8447 0.661463 23.2596 0.495827 21.8949C0.394386 21.0636 0.321474 20.321 0.327814 19.9778L3.3148 20.6689C3.3259 20.554 3.36315 20.4414 3.42021 20.3566L0.410236 19.66C0.432426 19.6291 0.458579 19.6014 0.487902 19.5713C0.521188 19.5364 0.557643 19.4984 0.594099 19.4548C1.84231 17.9442 3.45587 16.2752 5.15185 14.6648C7.07846 12.8373 9.10967 11.0866 10.835 9.73537C12.7045 8.2708 14.6747 6.89261 16.7091 5.61904C18.772 4.32804 20.9031 3.14164 23.0627 2.07967L26.4016 0.569138C26.4745 0.53506 26.5529 0.495434 26.6227 0.461356H26.6235C26.7931 0.376557 26.8961 0.325043 26.9967 0.327421H26.9999ZM26.4768 0.167333C26.69 0.0611359 26.8192 -0.00305784 26.9999 0.000112217C27.1814 -0.00305784 27.3106 0.0611359 27.5238 0.167333C27.58 0.195863 27.6442 0.227564 27.7377 0.271152L31.0726 1.7801L31.0766 1.78327C33.2465 2.85 35.3895 4.04273 37.4651 5.34246C39.5113 6.62316 41.491 8.00768 43.3669 9.47701C45.1017 10.8362 47.1425 12.594 49.0746 14.4278C50.7809 16.047 52.404 17.7271 53.6593 19.2455C53.6926 19.2852 53.7227 19.3161 53.7504 19.3454C53.8226 19.4215 53.8844 19.4865 53.9288 19.5816L49.8616 20.5278C49.9852 20.684 50.0209 20.7069 50.0423 20.8219L53.9977 19.9033V19.9168C54.0144 20.26 53.9383 21.0509 53.8305 21.933C53.6656 23.2945 53.4239 24.893 53.3368 25.3741C52.7606 28.5497 52.2138 31.077 51.5211 33.5457C50.8284 36.0167 49.99 38.4307 48.8321 41.3765C48.5064 42.2063 48.1608 43.0099 47.8074 43.7953C47.4555 44.5759 47.0933 45.3439 46.7351 46.1015L44.3893 50.4651L44.3869 50.469C44.3029 50.6149 44.226 50.752 44.161 50.8709C43.9589 51.2346 43.8543 51.4248 43.6617 51.5635C43.4573 51.7109 43.1934 51.7711 42.6426 51.8948L42.3145 51.9693C41.2263 52.2205 39.9417 52.4487 38.6324 52.6485C36.9721 52.9013 35.2627 53.1097 33.8631 53.2587C32.58 53.3958 31.4039 53.4814 30.2785 53.5305C29.1555 53.5789 28.0825 53.59 26.9999 53.5757C25.9181 53.59 24.8451 53.5789 23.7221 53.5305C22.5959 53.4814 21.4206 53.3958 20.1367 53.2587C18.7379 53.1097 17.0285 52.9013 15.3682 52.6485C14.0589 52.4487 12.7743 52.2205 11.6853 51.9693L11.358 51.8948C10.8072 51.7711 10.5425 51.7109 10.3389 51.5635C10.1471 51.4248 10.0417 51.2354 9.83958 50.8709C9.77855 50.7599 9.70723 50.6307 9.61371 50.469C8.83071 49.0924 7.97241 47.5153 7.26549 46.1015C6.90648 45.3439 6.5443 44.5759 6.19322 43.7953C5.83975 43.0099 5.49422 42.2063 5.1677 41.3765C4.01063 38.4307 3.17215 36.0175 2.47949 33.5457C1.78683 31.077 1.24 28.5497 0.66384 25.3741C0.576664 24.893 0.334947 23.2945 0.169311 21.933C0.0623217 21.0501 -0.0137598 20.26 0.00209048 19.9168C0.0179408 19.5887 0.116213 19.4857 0.250148 19.3454C0.277886 19.3161 0.308001 19.2852 0.341287 19.2455C1.59663 17.7271 3.2197 16.047 4.92598 14.4278C6.85814 12.594 8.89886 10.8362 10.6337 9.47701C12.5088 8.00768 14.4893 6.62316 16.5355 5.34246C18.6111 4.04273 20.7533 2.85 22.9232 1.78327L22.928 1.7801L26.2629 0.271152C26.3564 0.227564 26.4206 0.195863 26.4768 0.167333Z" fill="#2B2A29"/>
<path fill-rule="evenodd" clip-rule="evenodd" d="M26.9998 5.18157C26.8469 5.1784 26.7312 5.26241 26.4577 5.39001L23.7497 6.61523C20.2603 8.33182 16.8612 10.4463 13.7997 12.8444C11.1575 14.9145 7.63552 18.1297 5.46799 20.7521C5.3396 20.9067 5.23578 20.9407 5.2231 21.2189C5.19061 21.9052 5.64234 24.9826 5.75726 25.6174C6.69005 30.7608 7.53091 33.8056 9.406 38.5797C9.93302 39.9207 10.525 41.18 11.1044 42.406L13.0056 45.9406C13.577 46.9305 13.348 46.806 14.6017 47.0945C16.5965 47.5542 19.4242 47.9235 21.4443 48.1383C23.5239 48.3602 25.25 48.4172 26.9998 48.395C28.7505 48.4172 30.4766 48.3602 32.5562 48.1383C34.5763 47.9235 37.404 47.5542 39.3987 47.0945C40.6525 46.806 40.4234 46.9305 40.9948 45.9406L42.8953 42.406C43.4754 41.18 44.0674 39.9207 44.5945 38.5797C46.4695 33.8056 47.3096 30.7608 48.2424 25.6174C48.3581 24.9826 48.8098 21.9052 48.7773 21.2189C48.7639 20.9407 48.6608 20.9067 48.5325 20.7521C46.3649 18.1297 42.843 14.9145 40.2007 12.8444C37.1393 10.4463 33.7402 8.33182 30.2507 6.61523L27.5427 5.39001C27.2685 5.26241 27.1536 5.1784 26.9998 5.18157Z" fill="#FEFEFE"/>
<path fill-rule="evenodd" clip-rule="evenodd" d="M26.9998 5.18157C26.8469 5.1784 26.7312 5.26241 26.4577 5.39001L23.7497 6.61523C20.2603 8.33182 16.8612 10.4463 13.7997 12.8444C11.1575 14.9145 7.63552 18.1297 5.46799 20.7521C5.3396 20.9067 5.23578 20.9407 5.2231 21.2189C5.19061 21.9052 5.64234 24.9826 5.75726 25.6174C6.38889 29.0973 6.97773 31.6167 7.87327 34.3604H46.1272C47.0227 31.6167 47.6116 29.0973 48.2424 25.6174C48.3581 24.9826 48.8098 21.9052 48.7773 21.2189C48.7639 20.9407 48.6608 20.9067 48.5325 20.7521C46.3649 18.1297 42.8422 14.9145 40.2007 12.8444C37.1393 10.4463 33.7402 8.33182 30.2499 6.61523L27.5427 5.39001C27.2685 5.26241 27.1536 5.1784 26.9998 5.18157Z" fill="#E31E24"/>
<path d="M27.171 10.7062C26.7565 10.764 26.5877 11.062 26.388 11.4155L26.2881 11.5906L26.2865 11.5898L24.4099 14.8415L24.4115 14.8431C24.3243 14.9945 24.0857 15.4074 23.848 15.8171C23.5761 16.2871 23.6387 16.1753 23.4668 16.4733L22.53 18.1019C22.1924 18.6797 22.1211 18.8041 22.0498 18.9285C21.8001 19.3628 21.6266 19.6672 21.5877 19.7337L21.1154 20.5429C21.0361 20.68 21.0116 20.7252 20.6486 21.3592C20.4568 21.6952 20.498 21.6207 20.4758 21.6603C20.2943 21.9797 20.0938 22.334 19.9322 22.5971C19.8759 22.6898 19.8378 22.7524 19.8188 22.7857V22.7881C19.7729 22.8681 19.738 22.9299 19.7118 22.9775C19.5438 23.2874 19.3822 23.5592 19.2213 23.831C19.0659 24.0934 18.9106 24.3557 18.7743 24.6037C18.5991 24.9231 18.3677 25.3178 18.1387 25.7085C18.019 25.913 17.9001 26.1159 17.8257 26.2458C17.7202 26.4273 17.6497 26.5478 17.5768 26.6714C17.4199 26.9385 17.2606 27.2095 17.1267 27.4544C17.1013 27.5004 17.0767 27.5487 17.0537 27.6066C17.0371 27.647 17.0236 27.6874 17.0165 27.7254C17.0054 27.7849 16.9999 27.8396 16.9999 27.8887C16.9999 28.0821 17.0672 28.2572 17.1805 28.392C17.2939 28.5275 17.4563 28.6234 17.6442 28.659C17.6989 28.6685 17.7519 28.6741 17.8035 28.6741L36.4323 28.6757V28.6733C36.636 28.6733 36.7889 28.6709 36.8983 28.6519C36.9776 28.6376 37.0529 28.6083 37.1464 28.5497C37.2962 28.4561 37.4174 28.3 37.4753 28.1138C37.5268 27.9505 37.526 27.7643 37.4475 27.5804C37.4071 27.4861 37.2296 27.185 37.1083 26.9789C37.0346 26.8521 37.0774 26.9282 37.0196 26.8291V26.8259L30.9053 16.2348L30.9037 16.2356C30.5431 15.6134 30.3379 15.2552 30.1334 14.8994C29.7253 14.1877 29.3211 13.4832 29.0342 12.9958C28.8892 12.7477 28.7338 12.4806 28.565 12.1882C28.3296 11.78 28.1925 11.5399 28.0879 11.3568L28.0578 11.3037C27.9437 11.1032 27.8581 10.9527 27.7091 10.8457C27.6417 10.7973 27.5498 10.7529 27.4404 10.7252C27.3525 10.703 27.2597 10.6943 27.171 10.7062ZM25.2483 10.7688C25.6216 10.1102 25.9363 9.55546 26.9911 9.40805C27.2637 9.37001 27.5268 9.3922 27.7646 9.45243C28.0332 9.52059 28.2797 9.64264 28.4739 9.78291C28.8575 10.0587 29.0033 10.3155 29.1967 10.6571L29.2276 10.7102C29.4542 11.108 29.627 11.4107 29.6999 11.536C29.8386 11.7777 29.9884 12.036 30.1635 12.3332C30.6351 13.136 30.9521 13.6884 31.273 14.2471C31.5718 14.7686 31.8738 15.2949 32.0386 15.5786V15.5809L38.1537 26.1721H38.1545C38.2567 26.3488 38.2313 26.3053 38.2377 26.3164C38.3795 26.5565 38.5856 26.9076 38.6537 27.0677C38.8638 27.5614 38.8661 28.0623 38.7282 28.5045C38.5753 28.9919 38.248 29.4087 37.839 29.6639C37.5902 29.8193 37.3714 29.9009 37.1242 29.9453C36.9078 29.9841 36.701 29.9873 36.4323 29.9873V29.9841L17.8035 29.9833C17.6632 29.9833 17.5293 29.9706 17.4032 29.9469C16.9127 29.8557 16.4855 29.5974 16.1796 29.2336C15.8729 28.8698 15.6906 28.4007 15.6914 27.8887C15.6914 27.7524 15.7033 27.6177 15.7279 27.4845C15.754 27.345 15.7921 27.2246 15.8372 27.1136C15.8753 27.0201 15.9236 26.925 15.9767 26.8283C16.1186 26.5692 16.2842 26.287 16.4475 26.0097C16.5426 25.848 16.6385 25.6839 16.6908 25.5936C16.8215 25.3677 16.9151 25.2076 17.0094 25.0467C17.2107 24.7036 17.4135 24.3573 17.6244 23.9721C17.7702 23.7066 17.9311 23.4356 18.0919 23.1637C18.2639 22.8737 18.4359 22.5836 18.5619 22.3514C18.6134 22.2571 18.6538 22.185 18.6847 22.1311L18.6855 22.1319C18.7426 22.0328 18.7846 21.9623 18.8131 21.9147C18.9724 21.654 19.1634 21.318 19.3362 21.0136C19.4796 20.7608 19.4249 20.8543 19.509 20.7077C19.5668 20.6063 19.585 20.5778 19.9805 19.8906L20.4528 19.072C20.7881 18.4982 20.8491 18.392 20.9149 18.2771L21.3959 17.4402C21.7985 16.7491 21.934 16.5145 22.0648 16.2863L22.3327 15.8211C22.7503 15.0967 22.7004 15.1823 22.7139 15.1601C22.8542 14.9168 22.9984 14.668 23.2718 14.1909H23.275L25.1532 10.936V10.9336C25.1984 10.856 25.2238 10.8116 25.2483 10.7688Z" fill="#FEFEFE"/>
<path fill-rule="evenodd" clip-rule="evenodd" d="M27.0808 10.0571C26.2653 10.1713 26.0577 10.684 25.7209 11.2618L23.8418 14.5166C23.5383 15.0476 23.2015 15.6238 22.9003 16.1476C22.5968 16.673 22.2647 17.254 21.9628 17.7715C21.6537 18.3009 21.32 18.8905 21.0205 19.4025C20.7114 19.9327 20.3841 20.5009 20.079 21.0335C19.8674 21.4028 19.5884 21.9044 19.3728 22.2563C19.2872 22.3966 19.2143 22.5234 19.1375 22.6645C18.8498 23.1931 18.4884 23.7613 18.1999 24.2875C17.9106 24.8153 17.5675 25.3836 17.2584 25.9193C17.0294 26.3164 16.7623 26.7578 16.5523 27.1414C16.4738 27.284 16.4057 27.4267 16.3724 27.605C16.1996 28.5322 16.8923 29.3279 17.8037 29.3287L36.4325 29.3303C36.9056 29.3303 37.1505 29.3208 37.4929 29.1068C38.0231 28.7755 38.3559 28.0393 38.0508 27.3244C37.9819 27.1636 37.6966 26.6888 37.5872 26.5002L31.4714 15.9067C30.8278 14.798 30.2398 13.755 29.5994 12.6645C29.2785 12.1193 28.9892 11.6144 28.6579 11.0335C28.4883 10.7363 28.375 10.5184 28.0921 10.3139C27.848 10.1388 27.4715 10.0024 27.0808 10.0571Z" fill="#E42424"/>
<path fill-rule="evenodd" clip-rule="evenodd" d="M18.6176 27.4108C18.6223 27.3704 19.5844 25.7228 19.6906 25.5365C20.1305 24.7678 20.6036 23.9697 21.0411 23.197C21.1267 23.0457 21.2178 22.8903 21.3113 22.7287L27.1197 12.6701C27.1593 12.6011 27.21 12.5005 27.2496 12.4474C27.2837 12.4608 27.3043 12.5195 27.3257 12.5559L28.3401 14.3137C28.7182 14.9525 29.0518 15.5596 29.4211 16.1864C29.7817 16.7991 30.1431 17.4378 30.5013 18.0576C30.873 18.7011 31.2019 19.2788 31.5815 19.9287C31.958 20.573 32.2845 21.1619 32.6593 21.7943C32.8448 22.1073 33.0183 22.4109 33.1982 22.7287C33.4067 23.0964 35.8872 27.3641 35.8928 27.4116L18.6176 27.4108Z" fill="#FEFEFE"/>
<path d="M24.1841 19.2701H26.4118L27.3351 22.0083L28.2402 19.2701H30.3284L28.1506 24.4032C27.9723 24.8161 27.8162 25.1252 27.683 25.3281C27.5499 25.5326 27.3541 25.6998 27.0926 25.8306C26.8311 25.9621 26.4721 26.0271 26.0156 26.0271C25.7747 26.0271 25.3586 25.993 24.769 25.9241V24.5514C25.1169 24.5887 25.3705 24.6069 25.5298 24.6069C26.0045 24.6069 26.2945 24.431 26.396 24.0767L24.1841 19.2701Z" fill="#2B2A29"/>
<path d="M41.438 47.7285L41.4737 47.6588C41.5331 47.5431 41.6092 47.3957 41.7304 47.1857L41.7296 47.1849L43.7656 43.3982C44.0723 42.75 44.383 42.0914 44.6913 41.4059C44.9972 40.7275 45.2952 40.034 45.5749 39.3223C46.5775 36.7704 47.3034 34.6822 47.9018 32.5463C48.5025 30.4058 48.9764 28.2192 49.4741 25.4739C49.547 25.069 49.7539 23.6955 49.8989 22.5044C49.99 21.7547 50.055 21.0913 50.0423 20.8266V20.8219L49.0881 21.043C49.0961 21.0905 49.1016 21.1428 49.1048 21.2031C49.1183 21.4955 49.0564 22.1477 48.9685 22.8721C48.8345 23.9745 48.6364 25.2798 48.5651 25.6752C48.0959 28.262 47.6505 30.3186 47.0878 32.3252C46.5236 34.3382 45.8412 36.3021 44.8997 38.6986C44.6334 39.3762 44.3521 40.0316 44.0636 40.6704C43.7807 41.2997 43.4851 41.9265 43.1926 42.5455L43.1847 42.5606L41.2843 46.096C41.2787 46.1047 41.2732 46.1142 41.2676 46.1229C41.209 46.2243 41.1487 46.3329 41.0972 46.4272L41.0869 46.4439C40.9871 46.6246 40.9134 46.7561 40.8341 46.8599L41.438 47.7285ZM49.8616 20.5278L49.8545 20.5199C48.7711 19.2099 47.3716 17.7612 45.9007 16.3648C44.2261 14.7758 42.4611 13.2557 40.9649 12.0828C39.341 10.8108 37.63 9.61412 35.865 8.50936C34.0763 7.38953 32.2274 6.36085 30.3539 5.43836L30.3531 5.43916L27.4438 4.122V4.12279C27.4121 4.10773 27.3717 4.08792 27.3289 4.06731V4.92323C27.3843 4.947 27.443 4.97633 27.5103 5.00961C27.5484 5.02863 27.5928 5.05082 27.6815 5.09203L30.3848 6.31568C30.3959 6.32122 30.4062 6.32598 30.4165 6.33232C32.1751 7.19775 33.9115 8.16541 35.5956 9.21945C37.263 10.2632 38.8758 11.3909 40.4022 12.5868C41.816 13.6948 43.4771 15.1253 45.0487 16.6168C46.4396 17.9363 47.7623 19.3058 48.7854 20.5429C48.81 20.5722 48.8306 20.5944 48.8504 20.615C48.89 20.6562 48.9273 20.6951 48.9598 20.7371L49.8616 20.5278Z" fill="#FEFEFE"/>
<path d="M21.3937 43.124H18.9448L18.593 44.2771H16.3866L19.0185 37.2816H21.3858L24.0074 44.2771H21.744L21.3937 43.124ZM20.9364 41.6095L20.1724 39.0957L19.4061 41.6095H20.9364Z" fill="#2B2A29"/>
<path d="M24.0352 37.2816H26.3802L27.3518 40.164L28.3044 37.2816H30.5029L28.2101 42.6842C28.0231 43.1193 27.8582 43.445 27.7188 43.6582C27.5785 43.873 27.3716 44.0489 27.0966 44.1876C26.8208 44.3263 26.4436 44.3944 25.9633 44.3944C25.7089 44.3944 25.2707 44.3588 24.6509 44.2851V42.8411C25.0171 42.8799 25.2842 42.8997 25.4522 42.8997C25.9515 42.8997 26.2566 42.7143 26.3636 42.341L24.0352 37.2816Z" fill="#2B2A29"/>
<path d="M37.6132 44.2771H35.1794L34.329 42.4765C34.1325 42.0478 33.9795 41.7807 33.8686 41.6729C33.7592 41.5659 33.6063 41.512 33.4121 41.512V44.2771H31.2533V37.2816H33.4121V39.9682L35.3197 37.2816H37.3889L35.1105 40.6704C35.4219 40.7726 35.6938 40.9486 35.9252 41.1982C36.1582 41.4486 36.4038 41.8378 36.6646 42.3656L37.6132 44.2771Z" fill="#2B2A29"/>
<path d="M72.0954 27C72.0554 27 72.0154 26.99 71.9754 26.97C71.8954 26.93 71.8554 26.86 71.8554 26.76V23.55H68.6454L68.4054 26.76C68.4054 26.88 68.3954 26.95 68.3754 26.97C68.3554 26.99 68.2754 27 68.1354 27H65.1954C65.1354 27 65.0954 26.99 65.0754 26.97C64.9754 26.93 64.9254 26.86 64.9254 26.76L65.9154 6.51C65.9154 6.39 65.9254 6.28 65.9454 6.18C65.9654 6.06 66.0354 6 66.1554 6H74.3154C74.4354 6 74.5054 6.06 74.5254 6.18C74.5454 6.28 74.5554 6.39 74.5554 6.51L75.5454 26.76C75.5454 26.88 75.4954 26.95 75.3954 26.97C75.2954 26.99 75.1854 27 75.0654 27H72.0954ZM71.1054 9.72H69.1254L68.6454 20.1H71.6154L71.1054 9.72ZM88.1473 17.37C88.2273 17.61 88.2673 17.9 88.2673 18.24V23.49C88.2673 23.97 88.1773 24.43 87.9973 24.87C87.8173 25.29 87.5673 25.66 87.2473 25.98C86.9273 26.3 86.5473 26.55 86.1073 26.73C85.6873 26.91 85.2373 27 84.7573 27H78.0373C77.8573 27 77.7673 26.91 77.7673 26.73V6.27C77.7673 6.09 77.8573 6 78.0373 6H83.8873C84.2273 6 84.5173 6.04 84.7573 6.12C85.5173 6.32 86.1473 6.73 86.6473 7.35C87.1473 7.95 87.3973 8.67 87.3973 9.51V12.99C87.3973 13.85 87.1273 14.6 86.5873 15.24C86.9673 15.46 87.2973 15.77 87.5773 16.17C87.8573 16.55 88.0473 16.95 88.1473 17.37ZM81.2773 9.51V14.76H83.6173C83.7973 14.76 83.8873 14.66 83.8873 14.46V9.78C83.8873 9.6 83.7973 9.51 83.6173 9.51H81.2773ZM81.2773 23.49H84.4873C84.6673 23.49 84.7573 23.4 84.7573 23.22V18.54C84.7573 18.34 84.6673 18.24 84.4873 18.24H81.2773V23.49ZM99.1809 6.27L98.3709 9.3C98.3309 9.44 98.2409 9.51 98.1009 9.51H95.6709V26.73C95.6709 26.91 95.5809 27 95.4009 27H92.4609C92.2809 27 92.1909 26.91 92.1909 26.73V9.51H88.9509C88.7709 9.51 88.6809 9.41 88.6809 9.21V6.27C88.6809 6.09 88.7709 6 88.9509 6H98.9109C99.0909 6 99.1809 6.09 99.1809 6.27ZM107.345 6C107.825 6 108.275 6.09 108.695 6.27C109.135 6.45 109.515 6.7 109.835 7.02C110.155 7.34 110.405 7.72 110.585 8.16C110.765 8.58 110.855 9.03 110.855 9.51V23.49C110.855 23.97 110.765 24.43 110.585 24.87C110.405 25.29 110.155 25.66 109.835 25.98C109.515 26.3 109.135 26.55 108.695 26.73C108.275 26.91 107.825 27 107.345 27H103.865C103.385 27 102.925 26.91 102.485 26.73C102.065 26.55 101.695 26.3 101.375 25.98C101.055 25.66 100.805 25.29 100.625 24.87C100.445 24.43 100.355 23.97 100.355 23.49V9.51C100.355 9.03 100.445 8.58 100.625 8.16C100.805 7.72 101.055 7.34 101.375 7.02C101.695 6.7 102.065 6.45 102.485 6.27C102.925 6.09 103.385 6 103.865 6H107.345ZM107.075 23.49C107.255 23.49 107.345 23.4 107.345 23.22V9.78C107.345 9.6 107.255 9.51 107.075 9.51H104.135C103.955 9.51 103.865 9.6 103.865 9.78V23.22C103.865 23.4 103.955 23.49 104.135 23.49H107.075ZM129.956 26.7C129.956 26.9 129.866 27 129.686 27H126.746C126.586 27 126.486 26.91 126.446 26.73L125.606 15.63L123.026 26.79C122.986 26.93 122.896 27 122.756 27H119.696C119.556 27 119.466 26.93 119.426 26.79L116.846 15.63L116.006 26.73C115.966 26.91 115.866 27 115.706 27H112.796C112.596 27 112.496 26.9 112.496 26.7L114.206 6.27C114.206 6.09 114.296 6 114.476 6H117.506C117.646 6 117.736 6.07 117.776 6.21L121.226 20.88L124.676 6.21C124.716 6.07 124.806 6 124.946 6H127.976C128.156 6 128.246 6.09 128.246 6.27L129.956 26.7ZM138.869 6C139.349 6 139.799 6.09 140.219 6.27C140.659 6.45 141.039 6.7 141.359 7.02C141.679 7.34 141.929 7.72 142.109 8.16C142.289 8.58 142.379 9.03 142.379 9.51V23.49C142.379 23.97 142.289 24.43 142.109 24.87C141.929 25.29 141.679 25.66 141.359 25.98C141.039 26.3 140.659 26.55 140.219 26.73C139.799 26.91 139.349 27 138.869 27H135.389C134.909 27 134.449 26.91 134.009 26.73C133.589 26.55 133.219 26.3 132.899 25.98C132.579 25.66 132.329 25.29 132.149 24.87C131.969 24.43 131.879 23.97 131.879 23.49V9.51C131.879 9.03 131.969 8.58 132.149 8.16C132.329 7.72 132.579 7.34 132.899 7.02C133.219 6.7 133.589 6.45 134.009 6.27C134.449 6.09 134.909 6 135.389 6H138.869ZM138.599 23.49C138.779 23.49 138.869 23.4 138.869 23.22V9.78C138.869 9.6 138.779 9.51 138.599 9.51H135.659C135.479 9.51 135.389 9.6 135.389 9.78V23.22C135.389 23.4 135.479 23.49 135.659 23.49H138.599ZM155.826 18.24V23.49C155.826 23.97 155.736 24.43 155.556 24.87C155.376 25.29 155.126 25.66 154.806 25.98C154.486 26.3 154.106 26.55 153.666 26.73C153.246 26.91 152.796 27 152.316 27H145.596C145.416 27 145.326 26.91 145.326 26.73V6.27C145.326 6.09 145.416 6 145.596 6H154.596C154.696 6 154.766 6.04 154.806 6.12C154.866 6.18 154.886 6.26 154.866 6.36L154.146 9.3C154.086 9.44 153.986 9.51 153.846 9.51H148.836V14.76H152.316C152.796 14.76 153.246 14.85 153.666 15.03C154.106 15.21 154.476 15.46 154.776 15.78C155.096 16.08 155.346 16.45 155.526 16.89C155.726 17.31 155.826 17.76 155.826 18.24ZM152.316 18.54C152.316 18.34 152.226 18.24 152.046 18.24H148.836V23.49H152.046C152.226 23.49 152.316 23.4 152.316 23.22V18.54ZM169.273 6.27V26.73C169.273 26.91 169.183 27 169.003 27H166.063C165.863 27 165.763 26.91 165.763 26.73V15.96L162.283 22.98V26.73C162.283 26.91 162.183 27 161.983 27H159.043C158.863 27 158.773 26.91 158.773 26.73V6.27C158.773 6.09 158.863 6 159.043 6H161.983C162.183 6 162.283 6.09 162.283 6.27V17.01L165.763 10.02V6.27C165.763 6.09 165.863 6 166.063 6H169.003C169.183 6 169.273 6.09 169.273 6.27ZM182.314 6.27V26.73C182.314 26.91 182.214 27 182.014 27H179.074C178.894 27 178.804 26.91 178.804 26.73V9.51H177.064L175.324 26.76C175.324 26.92 175.234 27 175.054 27H171.214C171.014 27 170.914 26.91 170.914 26.73V23.79C170.914 23.59 171.014 23.49 171.214 23.49H171.844C172.024 23.49 172.114 23.41 172.114 23.25L173.524 6.27C173.564 6.09 173.664 6 173.824 6H182.014C182.214 6 182.314 6.09 182.314 6.27ZM196.05 23.49C196.05 23.97 195.96 24.43 195.78 24.87C195.6 25.29 195.35 25.66 195.03 25.98C194.71 26.3 194.33 26.55 193.89 26.73C193.47 26.91 193.02 27 192.54 27H185.82C185.64 27 185.55 26.91 185.55 26.73V6.27C185.55 6.09 185.64 6 185.82 6H188.76C188.96 6 189.06 6.09 189.06 6.27V14.76H192.54C193.02 14.76 193.47 14.85 193.89 15.03C194.33 15.21 194.71 15.46 195.03 15.78C195.35 16.1 195.6 16.47 195.78 16.89C195.96 17.31 196.05 17.76 196.05 18.24V23.49ZM192.54 18.54C192.54 18.34 192.45 18.24 192.27 18.24H189.06V23.49H192.27C192.45 23.49 192.54 23.4 192.54 23.22V18.54ZM209.058 6.27V26.73C209.058 26.91 208.968 27 208.788 27H205.848C205.648 27 205.548 26.91 205.548 26.73V18.24H202.068V26.73C202.068 26.91 201.968 27 201.768 27H198.828C198.648 27 198.558 26.91 198.558 26.73V6.27C198.558 6.09 198.648 6 198.828 6H201.768C201.968 6 202.068 6.09 202.068 6.27V14.76H205.548V6.27C205.548 6.09 205.648 6 205.848 6H208.788C208.968 6 209.058 6.09 209.058 6.27ZM218.703 27H211.983C211.803 27 211.713 26.91 211.713 26.73V6.27C211.713 6.09 211.803 6 211.983 6H214.923C215.123 6 215.223 6.09 215.223 6.27V14.76H218.703C219.183 14.76 219.633 14.85 220.053 15.03C220.493 15.21 220.873 15.46 221.193 15.78C221.513 16.1 221.763 16.47 221.943 16.89C222.123 17.31 222.213 17.76 222.213 18.24V23.49C222.213 23.97 222.123 24.43 221.943 24.87C221.763 25.29 221.513 25.66 221.193 25.98C220.873 26.3 220.493 26.55 220.053 26.73C219.633 26.91 219.183 27 218.703 27ZM227.463 6.27V26.73C227.463 26.91 227.373 27 227.193 27H224.253C224.053 27 223.953 26.91 223.953 26.73V6.27C223.953 6.09 224.053 6 224.253 6H227.193C227.373 6 227.463 6.09 227.463 6.27ZM218.433 18.24H215.223V23.49H218.433C218.613 23.49 218.703 23.4 218.703 23.22V18.54C218.703 18.34 218.613 18.24 218.433 18.24ZM235.39 5.13C234.69 5.13 234.08 4.91 233.56 4.47C233.06 4.03 232.75 3.49 232.63 2.85C232.61 2.75 232.63 2.67 232.69 2.61C232.75 2.55 232.83 2.52 232.93 2.52H234.52C234.64 2.52 234.73 2.57 234.79 2.67C234.93 2.91 235.13 3.03 235.39 3.03C235.69 3.03 235.89 2.91 235.99 2.67C236.05 2.57 236.14 2.52 236.26 2.52H237.88C237.96 2.52 238.03 2.55 238.09 2.61C238.15 2.67 238.17 2.75 238.15 2.85C238.03 3.49 237.71 4.03 237.19 4.47C236.69 4.91 236.09 5.13 235.39 5.13ZM240.37 6C240.55 6 240.64 6.1 240.64 6.3V26.73C240.64 26.91 240.55 27 240.37 27H237.43C237.23 27 237.13 26.91 237.13 26.73V15.99L233.65 22.98V26.73C233.65 26.91 233.55 27 233.35 27H230.44C230.24 27 230.14 26.91 230.14 26.73V6.3C230.14 6.1 230.24 6 230.44 6H233.35C233.55 6 233.65 6.1 233.65 6.3V17.04L237.13 10.05V6.3C237.13 6.1 237.23 6 237.43 6H240.37Z" fill="#FF0008"/>
<path d="M71.612 34.22L69.332 47.84C69.3053 47.9467 69.2453 48 69.152 48H66.352C66.2586 48 66.1986 47.9467 66.172 47.84L65.852 45.88C65.8253 45.7333 65.8853 45.66 66.032 45.66H67.372L67.752 43.34H66.352C66.2586 43.34 66.1986 43.2867 66.172 43.18L64.672 34.22C64.6586 34.1533 64.672 34.1 64.712 34.06C64.752 34.02 64.7986 34 64.852 34H66.812C66.932 34 66.992 34.0533 66.992 34.16L68.132 41L69.272 34.16C69.2986 34.0533 69.3653 34 69.472 34H71.412C71.4786 34 71.532 34.02 71.572 34.06C71.612 34.1 71.6253 34.1533 71.612 34.22ZM79.4105 34.18V47.82C79.4105 47.94 79.3505 48 79.2305 48H77.2705C77.1372 48 77.0705 47.94 77.0705 47.82V42.16H74.7505C74.4305 42.16 74.1239 42.1 73.8305 41.98C73.5505 41.86 73.3039 41.6933 73.0905 41.48C72.8772 41.2667 72.7105 41.02 72.5905 40.74C72.4705 40.46 72.4105 40.16 72.4105 39.84V34.18C72.4105 34.06 72.4705 34 72.5905 34H74.5505C74.6839 34 74.7505 34.06 74.7505 34.18V39.64C74.7505 39.7733 74.8105 39.84 74.9305 39.84H77.0705V34.18C77.0705 34.06 77.1372 34 77.2705 34H79.2305C79.3505 34 79.4105 34.06 79.4105 34.18ZM88.3824 45.86V47.82C88.3824 47.94 88.3158 48 88.1824 48H81.5624C81.4424 48 81.3824 47.94 81.3824 47.82V34.18C81.3824 34.06 81.4424 34 81.5624 34H88.1824C88.3158 34 88.3824 34.06 88.3824 34.18L87.8224 36.2C87.7958 36.2933 87.7358 36.34 87.6424 36.34H83.7024V39.84H86.4424C86.5624 39.84 86.6224 39.9 86.6224 40.02V41.98C86.6224 42.1 86.5624 42.16 86.4424 42.16H83.7024V45.66H88.1824C88.3158 45.66 88.3824 45.7267 88.3824 45.86ZM97.1515 42.16V45.66C97.1515 45.98 97.0915 46.2867 96.9715 46.58C96.8515 46.86 96.6848 47.1067 96.4715 47.32C96.2582 47.5333 96.0048 47.7 95.7115 47.82C95.4315 47.94 95.1315 48 94.8115 48H90.3315C90.2115 48 90.1515 47.94 90.1515 47.82V34.18C90.1515 34.06 90.2115 34 90.3315 34H96.3315C96.3982 34 96.4448 34.0267 96.4715 34.08C96.5115 34.12 96.5248 34.1733 96.5115 34.24L96.0315 36.2C95.9915 36.2933 95.9248 36.34 95.8315 36.34H92.4915V39.84H94.8115C95.1315 39.84 95.4315 39.9 95.7115 40.02C96.0048 40.14 96.2515 40.3067 96.4515 40.52C96.6648 40.72 96.8315 40.9667 96.9515 41.26C97.0848 41.54 97.1515 41.84 97.1515 42.16ZM94.8115 42.36C94.8115 42.2267 94.7515 42.16 94.6315 42.16H92.4915V45.66H94.6315C94.7515 45.66 94.8115 45.6 94.8115 45.48V42.36ZM105.921 34.18V47.82C105.921 47.94 105.861 48 105.741 48H103.781C103.648 48 103.581 47.94 103.581 47.82V42.16H101.261V47.82C101.261 47.94 101.194 48 101.061 48H99.101C98.981 48 98.921 47.94 98.921 47.82V34.18C98.921 34.06 98.981 34 99.101 34H101.061C101.194 34 101.261 34.06 101.261 34.18V39.84H103.581V34.18C103.581 34.06 103.648 34 103.781 34H105.741C105.861 34 105.921 34.06 105.921 34.18ZM112.351 48H107.871C107.751 48 107.691 47.94 107.691 47.82V34.18C107.691 34.06 107.751 34 107.871 34H109.831C109.964 34 110.031 34.06 110.031 34.18V39.84H112.351C112.671 39.84 112.971 39.9 113.251 40.02C113.544 40.14 113.797 40.3067 114.011 40.52C114.224 40.7333 114.391 40.98 114.511 41.26C114.631 41.54 114.691 41.84 114.691 42.16V45.66C114.691 45.98 114.631 46.2867 114.511 46.58C114.391 46.86 114.224 47.1067 114.011 47.32C113.797 47.5333 113.544 47.7 113.251 47.82C112.971 47.94 112.671 48 112.351 48ZM118.191 34.18V47.82C118.191 47.94 118.131 48 118.011 48H116.051C115.917 48 115.851 47.94 115.851 47.82V34.18C115.851 34.06 115.917 34 116.051 34H118.011C118.131 34 118.191 34.06 118.191 34.18ZM112.171 42.16H110.031V45.66H112.171C112.291 45.66 112.351 45.6 112.351 45.48V42.36C112.351 42.2267 112.291 42.16 112.171 42.16ZM123.476 33.42C123.009 33.42 122.602 33.2733 122.256 32.98C121.922 32.6867 121.716 32.3267 121.636 31.9C121.622 31.8333 121.636 31.78 121.676 31.74C121.716 31.7 121.769 31.68 121.836 31.68H122.896C122.976 31.68 123.036 31.7133 123.076 31.78C123.169 31.94 123.302 32.02 123.476 32.02C123.676 32.02 123.809 31.94 123.876 31.78C123.916 31.7133 123.976 31.68 124.056 31.68H125.136C125.189 31.68 125.236 31.7 125.276 31.74C125.316 31.78 125.329 31.8333 125.316 31.9C125.236 32.3267 125.022 32.6867 124.676 32.98C124.342 33.2733 123.942 33.42 123.476 33.42ZM126.796 34C126.916 34 126.976 34.0667 126.976 34.2V47.82C126.976 47.94 126.916 48 126.796 48H124.836C124.702 48 124.636 47.94 124.636 47.82V40.66L122.316 45.32V47.82C122.316 47.94 122.249 48 122.116 48H120.176C120.042 48 119.976 47.94 119.976 47.82V34.2C119.976 34.0667 120.042 34 120.176 34H122.116C122.249 34 122.316 34.0667 122.316 34.2V41.36L124.636 36.7V34.2C124.636 34.0667 124.702 34 124.836 34H126.796ZM138.726 47.76C138.739 47.8267 138.726 47.8867 138.686 47.94C138.659 47.98 138.612 48 138.546 48H136.586C136.519 48 136.459 47.9533 136.406 47.86L134.706 42.16H134.126V47.82C134.126 47.94 134.059 48 133.926 48H131.966C131.846 48 131.786 47.94 131.786 47.82V34.18C131.786 34.06 131.846 34 131.966 34H133.926C134.059 34 134.126 34.06 134.126 34.18V39.84H134.706L136.406 34.14C136.459 34.0467 136.519 34 136.586 34H138.546C138.612 34 138.659 34.0267 138.686 34.08C138.726 34.12 138.739 34.1733 138.726 34.24L136.686 41L138.726 47.76ZM144.343 34C144.663 34 144.963 34.06 145.243 34.18C145.536 34.3 145.789 34.4667 146.003 34.68C146.216 34.8933 146.383 35.1467 146.503 35.44C146.623 35.72 146.683 36.02 146.683 36.34V45.66C146.683 45.98 146.623 46.2867 146.503 46.58C146.383 46.86 146.216 47.1067 146.003 47.32C145.789 47.5333 145.536 47.7 145.243 47.82C144.963 47.94 144.663 48 144.343 48H142.023C141.703 48 141.396 47.94 141.103 47.82C140.823 47.7 140.576 47.5333 140.363 47.32C140.149 47.1067 139.983 46.86 139.863 46.58C139.743 46.2867 139.683 45.98 139.683 45.66V36.34C139.683 36.02 139.743 35.72 139.863 35.44C139.983 35.1467 140.149 34.8933 140.363 34.68C140.576 34.4667 140.823 34.3 141.103 34.18C141.396 34.06 141.703 34 142.023 34H144.343ZM144.163 45.66C144.283 45.66 144.343 45.6 144.343 45.48V36.52C144.343 36.4 144.283 36.34 144.163 36.34H142.203C142.083 36.34 142.023 36.4 142.023 36.52V45.48C142.023 45.6 142.083 45.66 142.203 45.66H144.163ZM159.417 47.8C159.417 47.9333 159.357 48 159.237 48H157.277C157.17 48 157.104 47.94 157.077 47.82L156.517 40.42L154.797 47.86C154.77 47.9533 154.71 48 154.617 48H152.577C152.484 48 152.424 47.9533 152.397 47.86L150.677 40.42L150.117 47.82C150.09 47.94 150.024 48 149.917 48H147.977C147.844 48 147.777 47.9333 147.777 47.8L148.917 34.18C148.917 34.06 148.977 34 149.097 34H151.117C151.21 34 151.27 34.0467 151.297 34.14L153.597 43.92L155.897 34.14C155.924 34.0467 155.984 34 156.077 34H158.097C158.217 34 158.277 34.06 158.277 34.18L159.417 47.8ZM168.089 42.16V45.66C168.089 45.98 168.029 46.2867 167.909 46.58C167.789 46.86 167.622 47.1067 167.409 47.32C167.196 47.5333 166.942 47.7 166.649 47.82C166.369 47.94 166.069 48 165.749 48H161.269C161.149 48 161.089 47.94 161.089 47.82V34.18C161.089 34.06 161.149 34 161.269 34H167.269C167.336 34 167.382 34.0267 167.409 34.08C167.449 34.12 167.462 34.1733 167.449 34.24L166.969 36.2C166.929 36.2933 166.862 36.34 166.769 36.34H163.429V39.84H165.749C166.069 39.84 166.369 39.9 166.649 40.02C166.942 40.14 167.189 40.3067 167.389 40.52C167.602 40.72 167.769 40.9667 167.889 41.26C168.022 41.54 168.089 41.84 168.089 42.16ZM165.749 42.36C165.749 42.2267 165.689 42.16 165.569 42.16H163.429V45.66H165.569C165.689 45.66 165.749 45.6 165.749 45.48V42.36ZM177.054 34.18V47.82C177.054 47.94 176.994 48 176.874 48H174.914C174.78 48 174.714 47.94 174.714 47.82V40.64L172.394 45.32V47.82C172.394 47.94 172.327 48 172.194 48H170.234C170.114 48 170.054 47.94 170.054 47.82V34.18C170.054 34.06 170.114 34 170.234 34H172.194C172.327 34 172.394 34.06 172.394 34.18V41.34L174.714 36.68V34.18C174.714 34.06 174.78 34 174.914 34H176.874C176.994 34 177.054 34.06 177.054 34.18ZM186.019 34.18V47.82C186.019 47.94 185.959 48 185.839 48H183.879C183.745 48 183.679 47.94 183.679 47.82V42.16H181.359V47.82C181.359 47.94 181.292 48 181.159 48H179.199C179.079 48 179.019 47.94 179.019 47.82V34.18C179.019 34.06 179.079 34 179.199 34H181.159C181.292 34 181.359 34.06 181.359 34.18V39.84H183.679V34.18C183.679 34.06 183.745 34 183.879 34H185.839C185.959 34 186.019 34.06 186.019 34.18ZM192.568 48C192.542 48 192.515 47.9933 192.488 47.98C192.435 47.9533 192.408 47.9067 192.408 47.84V45.7H190.268L190.108 47.84C190.108 47.92 190.102 47.9667 190.088 47.98C190.075 47.9933 190.022 48 189.928 48H187.968C187.928 48 187.902 47.9933 187.888 47.98C187.822 47.9533 187.788 47.9067 187.788 47.84L188.448 34.34C188.448 34.26 188.455 34.1867 188.468 34.12C188.482 34.04 188.528 34 188.608 34H194.048C194.128 34 194.175 34.04 194.188 34.12C194.202 34.1867 194.208 34.26 194.208 34.34L194.868 47.84C194.868 47.92 194.835 47.9667 194.768 47.98C194.702 47.9933 194.628 48 194.548 48H192.568ZM191.908 36.48H190.588L190.268 43.4H192.248L191.908 36.48ZM202.142 34.18L201.602 36.2C201.575 36.2933 201.515 36.34 201.422 36.34H199.802V47.82C199.802 47.94 199.742 48 199.622 48H197.662C197.542 48 197.482 47.94 197.482 47.82V36.34H195.322C195.202 36.34 195.142 36.2733 195.142 36.14V34.18C195.142 34.06 195.202 34 195.322 34H201.962C202.082 34 202.142 34.06 202.142 34.18Z" fill="#F6F6F6"/>
</svg>
