<svg width="12" height="12" viewBox="0 0 12 12" fill="none" xmlns="http://www.w3.org/2000/svg">
<path d="M6.71108 11.7141L11.7111 6.71409C11.8021 6.61899 11.8735 6.50684 11.9211 6.38409C12.0211 6.14063 12.0211 5.86755 11.9211 5.62409C11.8735 5.50134 11.8021 5.3892 11.7111 5.29409L6.71108 0.294091C6.61784 0.200853 6.50715 0.126892 6.38533 0.076432C6.26351 0.0259717 6.13294 -2.56287e-07 6.00108 -2.6205e-07C5.73478 -2.73691e-07 5.47938 0.105788 5.29108 0.294091C5.10278 0.482395 4.99699 0.73779 4.99699 1.00409C4.99699 1.27039 5.10278 1.52579 5.29108 1.71409L8.59108 5.00409L1.00108 5.00409C0.735863 5.00409 0.481509 5.10945 0.293973 5.29698C0.106436 5.48452 0.00108026 5.73887 0.00108025 6.00409C0.00108024 6.26931 0.106436 6.52366 0.293973 6.7112C0.481509 6.89873 0.735863 7.00409 1.00108 7.00409L8.59108 7.00409L5.29108 10.2941C5.19735 10.3871 5.12296 10.4977 5.07219 10.6195C5.02142 10.7414 4.99528 10.8721 4.99528 11.0041C4.99528 11.1361 5.02142 11.2668 5.07219 11.3887C5.12296 11.5105 5.19735 11.6211 5.29108 11.7141C5.38404 11.8078 5.49464 11.8822 5.6165 11.933C5.73836 11.9838 5.86907 12.0099 6.00108 12.0099C6.13309 12.0099 6.2638 11.9838 6.38566 11.933C6.50752 11.8822 6.61812 11.8078 6.71108 11.7141Z" fill="#C31E2A"/>
</svg>
