<svg width="30" height="30" viewBox="0 0 30 30" fill="none" xmlns="http://www.w3.org/2000/svg">
<path d="M21.875 6.0525C19.97 5.42125 17.6825 5 15 5C12.3175 5 10.03 5.42125 8.125 6.0525M21.875 6.0525C25.6512 7.3025 27.9187 9.3775 28.75 10.625L25.625 13.75L21.875 11.25V6.0525ZM8.125 6.0525C4.34875 7.3025 2.08125 9.3775 1.25 10.625L4.375 13.75L8.125 11.25V6.0525ZM12.5 8.75V12.5M12.5 12.5L5.7325 19.2675C5.26363 19.7362 5.00014 20.372 5 21.035V22.5C5 23.163 5.26339 23.7989 5.73223 24.2678C6.20107 24.7366 6.83696 25 7.5 25H22.5C23.163 25 23.7989 24.7366 24.2678 24.2678C24.7366 23.7989 25 23.163 25 22.5V21.035C24.9999 20.372 24.7364 19.7362 24.2675 19.2675L17.5 12.5M12.5 12.5H17.5M17.5 12.5V8.75" stroke="#CDC7B6" stroke-width="1.5" stroke-linecap="round" stroke-linejoin="round"/>
<path d="M15 21.25C16.3807 21.25 17.5 20.1307 17.5 18.75C17.5 17.3693 16.3807 16.25 15 16.25C13.6193 16.25 12.5 17.3693 12.5 18.75C12.5 20.1307 13.6193 21.25 15 21.25Z" stroke="#CDC7B6" stroke-width="1.5" stroke-linecap="round" stroke-linejoin="round"/>
</svg>
