<svg width="30" height="30" viewBox="0 0 30 30" fill="none" xmlns="http://www.w3.org/2000/svg">
<path d="M0 15C0 6.71573 6.71573 0 15 0C23.2843 0 30 6.71573 30 15C30 23.2843 23.2843 30 15 30C6.71573 30 0 23.2843 0 15Z" fill="white" fill-opacity="0.5"/>
<path fill-rule="evenodd" clip-rule="evenodd" d="M23.7897 9.25922C24.024 9.49363 24.1556 9.81152 24.1556 10.143C24.1556 10.4744 24.024 10.7923 23.7897 11.0267L14.4205 20.3959C14.2967 20.5197 14.1497 20.618 13.9879 20.685C13.8261 20.752 13.6527 20.7865 13.4776 20.7865C13.3025 20.7865 13.129 20.752 12.9673 20.685C12.8055 20.618 12.6585 20.5197 12.5347 20.3959L7.87966 15.7417C7.76027 15.6264 7.66504 15.4885 7.59953 15.336C7.53402 15.1835 7.49954 15.0194 7.49809 14.8535C7.49665 14.6875 7.52828 14.5229 7.59113 14.3693C7.65398 14.2157 7.7468 14.0761 7.86416 13.9587C7.98153 13.8414 8.12109 13.7485 8.27471 13.6857C8.42834 13.6228 8.59293 13.5912 8.75891 13.5927C8.92488 13.5941 9.08891 13.6286 9.24141 13.6941C9.39392 13.7596 9.53185 13.8548 9.64716 13.9742L13.4772 17.8042L22.0213 9.25922C22.1374 9.14306 22.2752 9.05092 22.427 8.98805C22.5787 8.92518 22.7413 8.89282 22.9055 8.89282C23.0697 8.89282 23.2323 8.92518 23.384 8.98805C23.5357 9.05092 23.6736 9.14306 23.7897 9.25922Z" fill="url(#paint0_linear_555_4395)"/>
<defs>
<linearGradient id="paint0_linear_555_4395" x1="7.82999" y1="9.91494" x2="24.4372" y2="11.0343" gradientUnits="userSpaceOnUse">
<stop stop-color="#C31E2A"/>
<stop offset="1" stop-color="#FF0000"/>
</linearGradient>
</defs>
</svg>
