<svg width="24" height="25" viewBox="0 0 24 25" fill="none" xmlns="http://www.w3.org/2000/svg">
<path fill-rule="evenodd" clip-rule="evenodd" d="M10.9754 3.77066C11.034 4.02924 10.9874 4.30048 10.846 4.52476C10.7046 4.74903 10.48 4.90798 10.2214 4.96666C10.0252 5.01131 9.83071 5.06334 9.63841 5.12266C9.51293 5.1614 9.38105 5.17504 9.2503 5.16282C9.11955 5.15059 8.99249 5.11273 8.87637 5.05139C8.76025 4.99006 8.65735 4.90646 8.57354 4.80535C8.48973 4.70425 8.42665 4.58763 8.38791 4.46216C8.34917 4.33668 8.33553 4.2048 8.34775 4.07405C8.35998 3.9433 8.39784 3.81623 8.45917 3.70011C8.52051 3.58399 8.60411 3.48109 8.70521 3.39728C8.80631 3.31347 8.92293 3.2504 9.04841 3.21166C9.28841 3.13699 9.53174 3.07199 9.77841 3.01666C9.90652 2.98752 10.0391 2.98392 10.1686 3.00605C10.2981 3.02818 10.422 3.07561 10.5331 3.14563C10.6443 3.21566 10.7406 3.3069 10.8165 3.41414C10.8924 3.52138 10.9464 3.64253 10.9754 3.77066ZM13.0254 3.77066C13.0841 3.51211 13.243 3.28744 13.4673 3.14605C13.6916 3.00466 13.9628 2.95812 14.2214 3.01666C18.6754 4.02666 22.0014 8.00866 22.0014 12.7687C22.0014 18.2917 17.5234 22.7687 12.0014 22.7687C7.24041 22.7687 3.25841 19.4437 2.24841 14.9897C2.19657 14.7336 2.24696 14.4675 2.38881 14.2482C2.53066 14.0288 2.75271 13.8737 3.00746 13.8159C3.26221 13.7582 3.52945 13.8024 3.75201 13.9392C3.97457 14.0759 4.1348 14.2943 4.19841 14.5477C4.51663 15.9414 5.20251 17.2244 6.18471 18.2632C7.16691 19.302 8.40953 20.0586 9.78329 20.4544C11.1571 20.8501 12.6118 20.8705 13.9961 20.5134C15.3804 20.1562 16.6437 19.4347 17.6546 18.4238C18.6655 17.4129 19.387 16.1496 19.7441 14.7653C20.1012 13.381 20.0808 11.9263 19.6851 10.5525C19.2894 9.17878 18.5328 7.93615 17.494 6.95396C16.4552 5.97176 15.1722 5.28587 13.7784 4.96766C13.5198 4.90877 13.2952 4.74958 13.154 4.5251C13.0128 4.30062 12.9665 4.02924 13.0254 3.77066ZM6.61441 5.48866C6.70384 5.58495 6.77342 5.69792 6.81916 5.82112C6.8649 5.94431 6.88591 6.07532 6.88099 6.20664C6.87607 6.33796 6.84531 6.46703 6.79047 6.58646C6.73564 6.70588 6.6578 6.81333 6.56141 6.90266C6.41341 7.03932 6.27108 7.18132 6.13441 7.32866C5.95275 7.51768 5.70413 7.6278 5.44207 7.63532C5.18002 7.64283 4.92549 7.54714 4.7333 7.36884C4.5411 7.19054 4.42661 6.9439 4.41448 6.68202C4.40234 6.42014 4.49353 6.16397 4.66841 5.96866C4.83841 5.78466 5.01574 5.60699 5.20041 5.43566C5.2967 5.34623 5.40967 5.27665 5.53287 5.23091C5.65607 5.18517 5.78707 5.16416 5.9184 5.16908C6.04972 5.174 6.17878 5.20476 6.29821 5.2596C6.41764 5.31443 6.52509 5.39227 6.61441 5.48866ZM12.0004 6.76866C12.2656 6.76866 12.52 6.87401 12.7075 7.06155C12.8951 7.24909 13.0004 7.50344 13.0004 7.76866V12.3547L15.7074 15.0617C15.8896 15.2503 15.9904 15.5029 15.9881 15.7651C15.9858 16.0273 15.8806 16.2781 15.6952 16.4635C15.5098 16.6489 15.259 16.7541 14.9968 16.7563C14.7346 16.7586 14.482 16.6578 14.2934 16.4757L11.2934 13.4757C11.1059 13.2882 11.0005 13.0339 11.0004 12.7687V7.76866C11.0004 7.50344 11.1058 7.24909 11.2933 7.06155C11.4808 6.87401 11.7352 6.76866 12.0004 6.76866ZM3.69341 9.15666C3.9468 9.2348 4.15879 9.41038 4.28274 9.64479C4.4067 9.8792 4.43248 10.1532 4.35441 10.4067C4.2951 10.599 4.24306 10.7934 4.19841 10.9897C4.1348 11.243 3.97457 11.4614 3.75201 11.5982C3.52945 11.7349 3.26221 11.7791 3.00746 11.7214C2.75271 11.6636 2.53066 11.5085 2.38881 11.2892C2.24696 11.0698 2.19657 10.8037 2.24841 10.5477C2.30441 10.301 2.36941 10.0577 2.44341 9.81766C2.52155 9.56426 2.69713 9.35228 2.93154 9.22833C3.16595 9.10437 3.44 9.07859 3.69341 9.15666Z" fill="#C31E2A"/>
</svg>
