<svg width="50" height="50" viewBox="0 0 50 50" fill="none" xmlns="http://www.w3.org/2000/svg">
<circle cx="25" cy="25" r="25" transform="rotate(-90 25 25)" fill="#D0C9B2" fill-opacity="0.5"/>
<path d="M19.3104 22.8323C19.217 22.9257 19.1429 23.0367 19.0923 23.1591C19.0417 23.2815 19.0156 23.4128 19.0156 23.5454C19.0156 23.678 19.0417 23.8093 19.0923 23.9317C19.1429 24.054 19.217 24.1651 19.3104 24.2585L24.2939 29.2804C24.3865 29.3745 24.4968 29.4492 24.6182 29.5002C24.7397 29.5512 24.87 29.5775 25.0015 29.5775C25.1331 29.5775 25.2634 29.5512 25.3848 29.5002C25.5063 29.4492 25.6165 29.3745 25.7092 29.2804L30.6926 24.2585C30.7861 24.1651 30.8602 24.054 30.9108 23.9317C30.9614 23.8093 30.9875 23.678 30.9875 23.5454C30.9875 23.4128 30.9614 23.2815 30.9108 23.1591C30.8602 23.0367 30.7861 22.9257 30.6926 22.8323C30.6 22.7382 30.4897 22.6634 30.3683 22.6124C30.2468 22.5615 30.1166 22.5352 29.985 22.5352C29.8534 22.5352 29.7231 22.5615 29.6017 22.6124C29.4802 22.6634 29.37 22.7382 29.2773 22.8323L25.0015 27.1511L20.7257 22.8323C20.6331 22.7382 20.5229 22.6634 20.4014 22.6124C20.2799 22.5615 20.1497 22.5352 20.0181 22.5352C19.8865 22.5352 19.7562 22.5615 19.6348 22.6124C19.5133 22.6634 19.4031 22.7382 19.3104 22.8323Z" fill="#1A212D"/>
</svg>
