<svg width="50" height="50" viewBox="0 0 50 50" fill="none" xmlns="http://www.w3.org/2000/svg">
<circle cx="25" cy="25" r="25" fill="black" fill-opacity="0.5"/>
<path d="M24.2407 19.3089C24.334 19.2154 24.4451 19.1413 24.5675 19.0907C24.6899 19.0401 24.8212 19.014 24.9538 19.014C25.0864 19.014 25.2176 19.0401 25.34 19.0907C25.4624 19.1413 25.5735 19.2154 25.6669 19.3089L30.6887 24.2923C30.7829 24.385 30.8576 24.4952 30.9086 24.6167C30.9596 24.7381 30.9858 24.8684 30.9858 25C30.9858 25.1315 30.9596 25.2618 30.9086 25.3833C30.8576 25.5047 30.7829 25.6149 30.6887 25.7076L25.6669 30.691C25.5735 30.7845 25.4624 30.8586 25.34 30.9092C25.2176 30.9598 25.0864 30.9859 24.9538 30.9859C24.8212 30.9859 24.6899 30.9598 24.5675 30.9092C24.4451 30.8586 24.334 30.7845 24.2407 30.691C24.1465 30.5984 24.0718 30.4882 24.0208 30.3667C23.9698 30.2452 23.9436 30.115 23.9436 29.9834C23.9436 29.8518 23.9698 29.7216 24.0208 29.6001C24.0718 29.4786 24.1465 29.3684 24.2407 29.2758L28.5595 25L24.2407 20.7242C24.1465 20.6315 24.0718 20.5213 24.0208 20.3998C23.9698 20.2784 23.9436 20.1481 23.9436 20.0165C23.9436 19.8849 23.9698 19.7547 24.0208 19.6332C24.0718 19.5117 24.1465 19.4015 24.2407 19.3089Z" fill="white"/>
</svg>
