<svg width="15" height="15" viewBox="0 0 15 15" fill="none" xmlns="http://www.w3.org/2000/svg">
<mask id="mask0_555_3955" style="mask-type:alpha" maskUnits="userSpaceOnUse" x="0" y="0" width="15" height="15">
<path d="M6.71294 0.472783C6.79317 0.328929 6.90809 0.209571 7.04624 0.126613C7.18439 0.0436561 7.34094 0 7.50027 0C7.65961 0 7.81616 0.0436561 7.95431 0.126613C8.09246 0.209571 8.20738 0.328929 8.2876 0.472783L10.3252 4.12777L14.2822 5.02361C14.4379 5.05896 14.582 5.13631 14.7001 5.24798C14.8182 5.35964 14.9062 5.50171 14.9554 5.66001C15.0046 5.81832 15.0133 5.98734 14.9805 6.15021C14.9477 6.31309 14.8746 6.46413 14.7685 6.58829L12.0712 9.74279L12.4794 13.9516C12.4955 14.1173 12.4697 14.2846 12.4046 14.4366C12.3395 14.5887 12.2374 14.7202 12.1084 14.8181C11.9795 14.9161 11.8282 14.9769 11.6697 14.9946C11.5111 15.0123 11.351 14.9863 11.2051 14.919L7.50027 13.2127L3.79545 14.919C3.64959 14.9863 3.4894 15.0123 3.33089 14.9946C3.17238 14.9769 3.02108 14.9161 2.89211 14.8181C2.76314 14.7202 2.66101 14.5887 2.59592 14.4366C2.53082 14.2846 2.50504 14.1173 2.52114 13.9516L2.92939 9.74279L0.232055 6.58905C0.125785 6.4649 0.0525401 6.3138 0.0196314 6.15082C-0.0132772 5.98784 -0.00469807 5.8187 0.0445124 5.66027C0.0937229 5.50184 0.181843 5.35967 0.300076 5.24795C0.418308 5.13624 0.562516 5.05888 0.718304 5.02361L4.67536 4.12777L6.71294 0.472783Z" fill="url(#paint0_linear_555_3955)"/>
</mask>
<g mask="url(#mask0_555_3955)">
<rect y="-1" width="15" height="16" fill="#A9C9E9"/>
</g>
<defs>
<linearGradient id="paint0_linear_555_3955" x1="7.5" y1="0" x2="7.5" y2="15" gradientUnits="userSpaceOnUse">
<stop stop-color="#FFD45E"/>
<stop offset="1" stop-color="#CDB921"/>
</linearGradient>
</defs>
</svg>
