<svg width="30" height="30" viewBox="0 0 30 30" fill="none" xmlns="http://www.w3.org/2000/svg">
<path fill-rule="evenodd" clip-rule="evenodd" d="M26.6738 14.8369C26.6738 21.3742 21.3742 26.6738 14.8369 26.6738C8.29956 26.6738 3 21.3742 3 14.8369C3 8.29956 8.29956 3 14.8369 3C21.3742 3 26.6738 8.29956 26.6738 14.8369ZM15.2611 11.7385C14.1097 12.2174 11.8087 13.2085 8.35805 14.7119C7.79771 14.9348 7.50418 15.1528 7.47746 15.3659C7.4323 15.7261 7.88341 15.868 8.4977 16.0612C8.58126 16.0874 8.66784 16.1147 8.7566 16.1435C9.36098 16.34 10.174 16.5698 10.5966 16.5789C10.98 16.5872 11.4079 16.4292 11.8803 16.1048C15.1044 13.9284 16.7686 12.8284 16.8731 12.8047C16.9468 12.7879 17.049 12.7669 17.1182 12.8284C17.1874 12.8899 17.1806 13.0064 17.1733 13.0377C17.1286 13.2282 15.3578 14.8745 14.4415 15.7264C14.1558 15.992 13.9531 16.1804 13.9117 16.2234C13.8189 16.3198 13.7243 16.411 13.6334 16.4986C13.072 17.0399 12.6509 17.4458 13.6568 18.1086C14.1401 18.4271 14.5269 18.6905 14.9127 18.9533C15.3342 19.2403 15.7545 19.5265 16.2984 19.883C16.4369 19.9739 16.5692 20.0682 16.6981 20.1601C17.1885 20.5097 17.6292 20.8238 18.1735 20.7737C18.4898 20.7446 18.8165 20.4472 18.9824 19.5602C19.3746 17.4638 20.1454 12.9217 20.3235 11.05C20.3391 10.8861 20.3195 10.6762 20.3037 10.5841C20.2879 10.4919 20.255 10.3607 20.1352 10.2635C19.9934 10.1484 19.7745 10.1242 19.6766 10.1259C19.2313 10.1337 18.5483 10.3712 15.2611 11.7385Z" fill="#2FA2E4"/>
</svg>
