<svg width="30" height="30" viewBox="0 0 30 30" fill="none" xmlns="http://www.w3.org/2000/svg">
<path fill-rule="evenodd" clip-rule="evenodd" d="M11.2458 8.97946C11.5784 9.13714 12.3544 9.05509 12.6331 10.0165C12.8842 10.8825 12.8739 12.9537 12.6798 13.9177C12.1432 16.5836 9.8778 12.3672 9.31852 11.4409C9.02899 10.9613 8.52526 9.86737 8.30141 9.33363C7.91526 8.41267 6.98945 8.60883 5.88602 8.60883C5.47093 8.60883 5.19071 8.64682 4.79907 8.646C4.18624 8.64452 3 8.52728 3 9.09061C3 9.52157 3.24696 9.95221 3.43721 10.326L4.4623 12.3512C4.64141 12.6916 4.80572 13.0328 5.00811 13.368L5.56506 14.3367C7.03185 16.7316 8.79417 19.5407 11.4332 20.8382C13.4335 21.8216 14.375 21.8017 16.5682 21.8017C16.9096 21.8017 17.3385 21.6179 17.4571 21.3836C17.6017 21.0978 17.5869 20.6249 17.6185 20.2461C17.6959 19.3233 18.1492 18.1054 19.2452 18.8583C19.7644 19.2151 20.3953 20.0461 20.8691 20.5139C21.1259 20.7673 21.4365 21.0991 21.7249 21.2984C21.8726 21.4005 22.117 21.5478 22.2697 21.6121C23.1759 21.9936 24.2166 21.8014 25.3388 21.8017C25.9616 21.8019 27.0473 21.9035 27.5723 21.5641C28.4046 21.0259 27.5723 20.0642 27.1005 19.467C26.8309 19.126 25.791 18.0368 25.4228 17.7162C23.0126 15.6177 23.4949 15.9579 25.9921 12.6641C26.5159 11.973 27.925 10.1622 27.925 9.20176C27.925 8.69828 27.3854 8.6552 26.9814 8.61278C26.7737 8.59108 26.716 8.64468 26.5023 8.64731C25.8384 8.65553 22.8152 8.57546 22.437 8.70437C22.1927 8.78773 22.0539 9.03618 21.9546 9.26507C21.3928 10.5585 21.0098 11.4492 20.2042 12.6487C19.8781 13.1342 18.8336 14.7606 18.1798 14.7606C17.7115 14.7606 17.5427 13.8383 17.5427 13.3894C17.5427 12.028 17.6177 10.7859 17.6177 9.46123C17.6177 9.17924 17.556 8.88359 17.4622 8.68842C17.0526 7.83569 14.822 8.01591 13.7946 8.01591C13.0525 8.01591 11.8561 8.09187 11.3942 8.68135C11.3223 8.77326 11.2591 8.82243 11.2458 8.97946Z" fill="#2069E7"/>
</svg>
