<svg width="30" height="30" viewBox="0 0 30 30" fill="none" xmlns="http://www.w3.org/2000/svg">
<path d="M11.2782 9.3561C11.488 9.36469 11.7201 9.37452 11.9406 9.86474C12.0913 10.1999 12.3449 10.8246 12.547 11.3225C12.6959 11.6894 12.8169 11.9874 12.8481 12.0499C12.9217 12.1971 12.9708 12.369 12.8727 12.5656C12.858 12.595 12.8444 12.6227 12.8314 12.6492C12.7576 12.7997 12.7035 12.9103 12.5786 13.0565C12.5296 13.1136 12.479 13.1752 12.4284 13.2368C12.3268 13.3604 12.2252 13.484 12.1369 13.572C11.9893 13.7188 11.8359 13.8783 12.0076 14.1727C12.1794 14.4674 12.7702 15.431 13.6454 16.2113C14.5855 17.0495 15.4022 17.404 15.817 17.5841C15.8984 17.6194 15.9644 17.6481 16.0127 17.6723C16.3071 17.8195 16.4789 17.795 16.6506 17.5983C16.8224 17.402 17.3862 16.739 17.5825 16.4446C17.7788 16.1499 17.9751 16.199 18.2449 16.2971C18.5148 16.3952 19.9621 17.1075 20.2566 17.2547C20.314 17.2834 20.3676 17.3093 20.4174 17.3334C20.6228 17.4325 20.7616 17.4995 20.8208 17.5983C20.8944 17.7214 20.8944 18.3105 20.6491 18.9979C20.4038 19.6853 19.2018 20.3482 18.6621 20.3973C18.6101 20.402 18.5585 20.4081 18.5054 20.4143C18.0066 20.473 17.3769 20.547 15.1294 19.6608C12.364 18.5702 10.5405 15.8676 10.1638 15.3093C10.1329 15.2635 10.1118 15.2321 10.1006 15.2173L10.0973 15.2129C9.9386 15.0007 8.89856 13.6108 8.89856 12.1726C8.89856 10.8169 9.56496 10.1062 9.87157 9.77926C9.89252 9.75692 9.91179 9.73637 9.92906 9.71753C10.1987 9.42293 10.5177 9.34921 10.714 9.34921C10.7247 9.34921 10.7355 9.34921 10.7463 9.34921C10.9316 9.34918 11.116 9.34916 11.2782 9.3561Z" fill="#32CC65"/>
<path fill-rule="evenodd" clip-rule="evenodd" d="M4.68759 20.6603C3.64176 18.8776 3.09508 16.8572 3.09508 14.7656C3.09508 8.27669 8.39553 3 14.8844 3C18.0457 3 20.993 4.23598 23.2273 6.44648C25.4378 8.68076 26.6738 11.6281 26.6738 14.7894C26.6738 21.2783 21.3733 26.5549 14.8844 26.5549C12.9116 26.5549 10.9626 26.0796 9.25121 25.1288L3 26.7689L4.68759 20.6603ZM6.5891 19.9947L6.82679 20.3513L5.82849 23.9641L9.53644 22.9896L9.89297 23.2035C11.3904 24.1067 13.1255 24.5821 14.8844 24.5821C20.28 24.5821 24.6772 20.1849 24.6772 14.7894C24.6772 12.1748 23.6551 9.70282 21.8012 7.84885C19.971 6.01865 17.499 4.99658 14.8844 4.99658C9.4889 4.99658 5.09166 9.37005 5.09166 14.7894C5.09166 16.6196 5.61457 18.426 6.5891 19.9947Z" fill="#32CC65"/>
</svg>
